<?xml version="1.0" encoding="UTF-8" standalone="no"?>
<!-- Creator: CorelDRAW 2021 (64 Bit) -->

<svg
   xml:space="preserve"
   width="297mm"
   height="60mm"
   version="1.1"
   style="clip-rule:evenodd;fill-rule:evenodd;image-rendering:optimizeQuality;shape-rendering:geometricPrecision;text-rendering:geometricPrecision"
   viewBox="0 0 29700 6000"
   id="svg195"
   sodipodi:docname="logo.svg"
   inkscape:version="1.2.2 (b0a8486, 2022-12-01)"
   xmlns:inkscape="http://www.inkscape.org/namespaces/inkscape"
   xmlns:sodipodi="http://sodipodi.sourceforge.net/DTD/sodipodi-0.dtd"
   xmlns="http://www.w3.org/2000/svg"
   xmlns:svg="http://www.w3.org/2000/svg"><sodipodi:namedview
   id="namedview197"
   pagecolor="#ffffff"
   bordercolor="#000000"
   borderopacity="0.25"
   inkscape:showpageshadow="2"
   inkscape:pageopacity="0.0"
   inkscape:pagecheckerboard="0"
   inkscape:deskcolor="#d1d1d1"
   inkscape:document-units="mm"
   showgrid="false"
   inkscape:zoom="0.29734127"
   inkscape:cx="709.62231"
   inkscape:cy="201.78834"
   inkscape:window-width="1529"
   inkscape:window-height="456"
   inkscape:window-x="0"
   inkscape:window-y="25"
   inkscape:window-maximized="0"
   inkscape:current-layer="Camada_x0020_1" />
 <defs
   id="defs134">
  <style
   type="text/css"
   id="style132">
   <![CDATA[
    .fil5 {fill:#900A6A}
    .fil4 {fill:#C10A69}
    .fil3 {fill:#FE1063}
    .fil2 {fill:#FF2D5A}
    .fil1 {fill:#FF624C}
    .fil0 {fill:white}
   ]]>
  </style>
 </defs>
 <g
   id="Camada_x0020_1"
   inkscape:label="Camada 1"
   inkscape:groupmode="layer">
  <metadata
   id="CorelCorpID_0Corel-Layer" />
  <g
   id="_2141683513392"
   transform="translate(-34104.1,-8123.8866)">
   <path
   class="fil0"
   d="m 52358.4,12107.71 c 796.44,0 378.93,187.92 776.12,-1516.95 l 524.23,1518.59 463.54,-1.64 c 14.18,-170.31 163.63,-543.53 224.98,-727.52 62.45,-187.28 219.32,-582.1 233.63,-754.15 l 299.91,1428.71 c 51.52,80.44 100.15,57.36 226.16,56.06 95.21,-0.99 189.69,-3.1 285.32,-3.1 -45.89,-95.64 -423.33,-2327.87 -423.33,-2540 h -529.17 c -15.07,181.18 -193.3,632.57 -260.25,833.35 -68.09,204.2 -253.69,677.03 -268.91,859.98 -105.95,-77.62 -99.84,-175.91 -171.9,-392.54 L 53310.9,9567.71 h -493.88 c -92.82,398.4 -147.21,834.23 -221.29,1260.38 -33.79,194.34 -179.99,1160.13 -237.33,1279.62 z"
   id="path137" />
   <path
   class="fil0"
   d="m 46043.68,11649.1 c -285.54,66.52 -496.68,157.53 -868.29,-154.77 -600.38,-504.56 -149.12,-1846.8 865.28,-1465 223.06,83.96 496.9,390.53 496.9,773.1 0,351 -45.27,269.21 -105.83,529.17 -76.1,-50.96 -185.13,-182.84 -211.67,-282.22 h -599.72 c 32.37,121.25 334.07,466.41 423.33,599.72 z m -1658.05,-811.39 c 0,664.13 557.4,1340.55 1234.72,1340.55 307.48,0 462.62,6.1 740.83,-141.11 54.5,81.38 151.43,188.76 176.39,282.23 h 599.72 c -27.28,-102.18 -133.02,-200.29 -201.67,-292.22 -64.16,-85.93 -148.94,-218.95 -221.66,-272.23 145.68,-217.56 261.63,-317.71 312.89,-639.7 45.88,-288.19 36.79,-556.7 -76.96,-795.67 -693.62,-1457.28 -2564.26,-815.15 -2564.26,518.15 z"
   id="path139" />
   <path
   class="fil0"
   d="m 41951.46,10943.54 c 0,-1408.28 1622.78,-1167.74 1622.78,-141.11 0,1299.36 -1622.78,1069.97 -1622.78,141.11 z m -529.17,-105.83 c 0,657.66 561.3,1340.55 1234.73,1340.55 532.77,0 692.14,-39.39 1067.71,-413.95 501.73,-500.38 484,-1333.29 17.75,-1835.68 -561.67,-605.22 -1395.33,-568.55 -1959.52,-0.25 -179.58,180.89 -360.67,561.97 -360.67,909.33 z"
   id="path141" />
   <path
   class="fil0"
   d="m 58285.07,11649.1 h -211.67 v -1622.78 c 678.01,0 1023.06,173.05 1023.06,881.94 0,527.86 -306.82,740.84 -811.39,740.84 z m -705.55,458.61 c 712.36,0 1381.24,116.92 1760.19,-391.75 407.01,-546.36 342.37,-1275.99 -65.35,-1796.99 -343.87,-439.41 -1116.16,-351.26 -1694.84,-351.26 z"
   id="path143" />
   <path
   class="fil0"
   d="m 62095.07,10308.54 c 10.93,131.29 96.14,286.05 135.84,393.33 53.52,144.62 112.48,272.54 146.38,418.06 h -635 c 34.02,-145.99 251.37,-737.08 352.78,-811.39 z m -1270,1799.17 h 529.17 c 80.04,-166.82 126.41,-368.04 211.66,-529.17 h 1023.06 c 9.25,111.15 132.91,438.56 176.39,529.17 h 529.17 c -86.75,-180.79 -155.87,-407.77 -237.05,-609.62 -99.96,-248.58 -703.92,-1791.76 -715.45,-1930.38 h -529.17 c -207.14,391.48 -759.39,2064.01 -987.78,2540 z"
   id="path145" />
   <path
   class="fil0"
   d="m 47454.79,10978.82 c 0,298.3 27.65,657.52 145.74,842.04 287.41,449.06 1618.15,751.09 1618.15,-736.21 V 9567.71 h -529.16 v 1763.89 c 0,453.75 -459.36,454.51 -625.8,273.02 -150.36,-163.97 -79.76,-1640.64 -79.76,-2036.91 h -529.17 z"
   id="path147" />
   <polygon
   class="fil0"
   points="50241.74,10026.32 51158.96,10026.32 51158.96,9567.71 49747.85,9567.71 49747.85,12107.71 51158.96,12107.71 51158.96,11649.1 50241.74,11649.1 50241.74,10978.82 51158.96,10978.82 51158.96,10520.21 50241.74,10520.21 "
   id="polygon149" />
   <polygon
   class="fil0"
   points="56238.96,10026.32 57156.18,10026.32 57156.18,9567.71 55745.07,9567.71 55745.07,12107.71 57156.18,12107.71 57156.18,11649.1 56238.96,11649.1 56238.96,10978.82 57156.18,10978.82 57156.18,10520.21 56238.96,10520.21 "
   id="polygon151" />
   <polygon
   class="fil1"
   points="34578.4,8756.32 38670.63,8756.32 38670.63,8332.99 34578.4,8332.99 "
   id="polygon153" />
   <polygon
   class="fil0"
   points="40787.29,10026.32 41245.9,10026.32 41245.9,9567.71 39834.79,9567.71 39834.79,10026.32 40293.4,10026.32 40293.4,12107.71 40787.29,12107.71 "
   id="polygon155" />
   <polygon
   class="fil0"
   points="60013.68,12107.71 60507.57,12107.71 60507.57,9567.71 60013.68,9567.71 "
   id="polygon157" />
   <polygon
   class="fil2"
   points="38176.74,10269.65 38670.63,10269.65 38670.63,9497.15 36977.29,9497.15 36977.29,10269.65 37435.9,10269.65 37435.9,9955.76 38176.74,9955.76 "
   id="polygon159" />
   <polygon
   class="fil3"
   points="34543.13,12216.32 35037.02,12216.32 35037.02,10077 34543.13,10077 "
   id="polygon161" />
   <polygon
   class="fil3"
   points="35777.85,12216.32 36236.46,12216.32 36236.46,10077 35777.85,10077 "
   id="polygon163" />
   <polygon
   class="fil3"
   points="38176.74,12216.32 38670.63,12216.32 38670.63,10269.65 38176.74,10269.65 "
   id="polygon165" />
   <polygon
   class="fil3"
   points="36977.29,12216.32 37435.9,12216.32 37435.9,10269.65 36977.29,10269.65 "
   id="polygon167" />
   <polygon
   class="fil2"
   points="35777.85,10077 36236.46,10077 36236.46,9497.15 34543.13,9497.15 34543.13,10077 35037.02,10077 35037.02,9955.76 35777.85,9955.76 "
   id="polygon169" />
   <polygon
   class="fil4"
   points="36977.29,13130.76 36236.46,13130.76 36236.46,12216.32 35777.85,12216.32 35777.85,13151.71 37435.9,13151.71 37435.9,12216.32 36977.29,12216.32 "
   id="polygon171" />
   <polygon
   class="fil5"
   points="37435.9,13151.71 35777.85,13151.71 35777.85,13589.38 37435.9,13589.38 "
   id="polygon173" />
   <path
   class="fil0"
   d="m 61001.46,12883.82 c 597.01,0 515.93,881.94 35.28,881.94 -610.55,0 -550.11,-881.94 -35.28,-881.94 z m 423.33,35.28 c -238.81,-159.92 -155.61,-176.39 -493.89,-176.39 -220.29,0 -493.88,273.59 -493.88,493.89 v 176.39 c 0,255.84 244.71,493.89 635,493.89 166.01,0 252.74,-109.41 352.77,-176.39 v 141.11 h 176.39 v -1516.95 h -176.39 z"
   id="path175" />
   <path
   class="fil0"
   d="m 57438.4,12707.43 c 0,192.92 162,303.1 277.36,392.93 268.61,209.17 322.37,222.92 322.37,453.74 0,73.59 -210.59,388.91 -463.86,73.3 -92.11,-114.78 -46.28,-110.61 -206.42,-73.3 35.43,425.83 846.67,565.1 846.67,-105.84 0,-349.71 -599.73,-475.91 -599.73,-776.11 0,-117.22 145.14,-197.86 257.17,-155.16 205.21,78.23 38.13,182.59 307.28,119.89 -32.66,-392.49 -740.84,-396.22 -740.84,70.55 z"
   id="path177" />
   <path
   class="fil0"
   d="m 62377.29,13342.43 c 0,-106.17 59.34,-247.74 113.24,-310.09 362.8,-419.66 993.27,153.36 620.19,584.91 -257.48,297.83 -733.43,84.87 -733.43,-274.82 z m -141.11,-105.83 c 0,1004.6 1128.89,743.97 1128.89,176.39 0,-1010.9 -1128.89,-732 -1128.89,-176.39 z"
   id="path179" />
   <polygon
   class="fil4"
   points="35037.02,12216.32 34543.13,12216.32 34543.13,13166.04 35037.02,13166.04 "
   id="polygon181" />
   <polygon
   class="fil4"
   points="38670.63,12216.32 38176.74,12216.32 38176.74,13166.04 38670.63,13166.04 "
   id="polygon183" />
   <path
   class="fil0"
   d="m 59202.29,13518.82 c 0,527.73 952.5,529.34 952.5,-35.28 v -705.55 h -141.11 c 0,284.43 9.74,456.86 -38.04,738.07 -55.51,326.75 -632.24,409.9 -632.24,-208.91 v -529.16 h -141.11 z"
   id="path185" />
   <polygon
   class="fil0"
   points="58990.63,12777.99 58778.96,12777.99 58778.96,12354.65 58637.85,12354.65 58637.85,12777.99 58426.18,12777.99 58426.18,12919.1 58637.85,12919.1 58637.85,13871.6 58778.96,13871.6 58778.96,12919.1 58990.63,12919.1 "
   id="polygon187" />
   <polygon
   class="fil0"
   points="61883.4,13871.6 62024.52,13871.6 62024.52,12777.99 61883.4,12777.99 "
   id="polygon189" />
   <path
   class="fil0"
   d="m 61812.85,12425.21 c 0,137.83 246.94,250.65 246.94,0 0,-193.89 -246.94,-85.14 -246.94,0 z"
   id="path191" />
  </g>
 </g>
</svg>
