<svg width="354" height="240" viewBox="0 0 354 240" fill="none" xmlns="http://www.w3.org/2000/svg">
<rect width="354" height="240" fill="white"/>
<rect opacity="0.6" x="18" y="68" width="94" height="103" rx="7" fill="#E2E8F0"/>
<rect opacity="0.6" x="130" y="68" width="94" height="103" rx="7" fill="#E2E8F0"/>
<rect opacity="0.6" x="243.5" y="69.5" width="91" height="100" rx="5.5" fill="white" stroke="#A0AEC0" stroke-width="3"/>
<path d="M77 123.803L74.4688 128.127L67.5078 123.961V132.135H62.6035V123.961L55.5898 128.127L52.9004 123.855L60.125 119.689L52.9004 115.576L55.5898 111.357L62.498 115.365V107.297H67.5078V115.312L74.4688 111.357L77 115.629L69.9863 119.689L77 123.803Z" fill="#A0AEC0"/>
<path d="M189.1 123.803L186.568 128.127L179.607 123.961V132.135H174.703V123.961L167.689 128.127L165 123.855L172.225 119.689L165 115.576L167.689 111.357L174.598 115.365V107.297H179.607V115.312L186.568 111.357L189.1 115.629L182.086 119.689L189.1 123.803Z" fill="#A0AEC0"/>
<path d="M292.672 138V130.05H273.822V126.7L291.722 103H297.872V125.25H302.422V130.05H297.872V138H292.672ZM292.672 125.25V109.3L280.722 125.25H292.672Z" fill="#A0AEC0"/>
</svg>
