<svg width="998" height="257" viewBox="0 0 998 257" fill="none" xmlns="http://www.w3.org/2000/svg">
<g clip-path="url(#clip0)">
<path d="M388.5 115.302C406.112 115.302 413.966 126.726 416.584 136.96L441.336 127.916C436.576 109.352 419.44 89.836 388.262 89.836C354.942 89.836 329 115.54 329 151.24C329 186.464 354.942 212.882 388.976 212.882C419.44 212.882 436.814 193.128 442.288 175.04L418.012 166.234C415.394 175.04 407.064 187.654 388.976 187.654C371.602 187.654 356.608 174.564 356.608 151.24C356.608 127.916 371.602 115.302 388.5 115.302Z" fill="#374152"/>
<path d="M484.894 141.244C485.37 126.488 493.7 115.064 508.932 115.064C526.306 115.064 532.732 126.488 532.732 140.768V209.312H560.34V136.008C560.34 110.542 546.536 90.074 517.976 90.074C505.838 90.074 492.748 94.358 484.894 104.592V37H457.286V209.312H484.894V141.244Z" fill="#374152"/>
<path d="M577.29 177.896C577.29 196.222 592.284 212.882 616.56 212.882C635.362 212.882 646.786 203.362 652.26 194.556C652.26 203.838 653.212 208.598 653.45 209.312H679.154C678.916 208.122 677.726 201.22 677.726 190.748V133.152C677.726 110.066 664.16 89.836 628.46 89.836C599.9 89.836 581.812 107.686 579.67 127.678L604.898 133.39C606.088 121.728 614.18 112.446 628.698 112.446C643.93 112.446 650.594 120.3 650.594 130.058C650.594 134.104 648.69 137.436 642.026 138.388L612.276 142.91C592.522 145.766 577.29 157.19 577.29 177.896ZM621.796 191.224C610.848 191.224 604.898 184.084 604.898 176.23C604.898 166.71 611.8 161.95 620.368 160.522L650.594 156V161.236C650.594 183.846 637.266 191.224 621.796 191.224Z" fill="#374152"/>
<path d="M810.108 93.406H773.456L728.95 140.292V37H701.58V209.312H728.95V176.944L743.23 161.95L777.264 209.312H811.06L762.508 142.434L810.108 93.406Z" fill="#374152"/>
<path d="M889.349 92.692C888.159 92.454 885.303 91.978 881.971 91.978C866.739 91.978 853.887 99.356 848.413 111.97V93.406H821.519V209.312H849.127V154.096C849.127 132.438 858.885 120.062 880.305 120.062C883.161 120.062 886.255 120.3 889.349 120.776V92.692Z" fill="#374152"/>
<path d="M895.968 177.896C895.968 196.222 910.962 212.882 935.238 212.882C954.04 212.882 965.464 203.362 970.938 194.556C970.938 203.838 971.89 208.598 972.128 209.312H997.832C997.594 208.122 996.404 201.22 996.404 190.748V133.152C996.404 110.066 982.838 89.836 947.138 89.836C918.578 89.836 900.49 107.686 898.348 127.678L923.576 133.39C924.766 121.728 932.858 112.446 947.376 112.446C962.608 112.446 969.272 120.3 969.272 130.058C969.272 134.104 967.368 137.436 960.704 138.388L930.954 142.91C911.2 145.766 895.968 157.19 895.968 177.896ZM940.474 191.224C929.526 191.224 923.576 184.084 923.576 176.23C923.576 166.71 930.478 161.95 939.046 160.522L969.272 156V161.236C969.272 183.846 955.944 191.224 940.474 191.224Z" fill="#374152"/>
<rect width="257" height="257" rx="128.5" fill="url(#paint0_linear)"/>
<path d="M69.5584 133.985L157.15 46.9959C158.787 45.3708 161.42 47.3484 160.315 49.3729L127.714 109.125C126.987 110.457 127.951 112.083 129.47 112.083H185.809C187.624 112.083 188.501 114.306 187.174 115.545L88.4456 207.687C86.6753 209.339 84.0405 207.011 85.4617 205.051L132.197 140.578C133.156 139.256 132.211 137.404 130.578 137.404H70.9677C69.1826 137.404 68.2917 135.243 69.5584 133.985Z" fill="white"/>
</g>
<defs>
<linearGradient id="paint0_linear" x1="128.5" y1="0" x2="128.5" y2="257" gradientUnits="userSpaceOnUse">
<stop stop-color="#7BCBD4"/>
<stop offset="1" stop-color="#29C6B7"/>
</linearGradient>
<clipPath id="clip0">
<rect width="997.832" height="257" fill="white"/>
</clipPath>
</defs>
</svg>
