<svg width="354" height="240" viewBox="0 0 354 240" fill="none" xmlns="http://www.w3.org/2000/svg">
<rect width="354" height="240" fill="white"/>
<path d="M247 77H66C64.3431 77 63 78.3431 63 80V196C63 197.657 64.3431 199 66 199H247C248.657 199 250 197.657 250 196V80C250 78.3431 248.657 77 247 77Z" fill="#E2E8F0"/>
<path opacity="0.3" fill-rule="evenodd" clip-rule="evenodd" d="M160.466 136.902L223.755 104.065L220.669 102.464L157.38 135.301L94.0912 102.464L91.0049 104.065L154.294 136.902L91.0049 169.74L94.0912 171.341L157.38 138.504L220.669 171.341L223.755 169.74L160.466 136.902Z" fill="#A0AEC0"/>
<rect x="62" y="41" width="85" height="24" rx="4" fill="#A0AEC0"/>
<path opacity="0.6" fill-rule="evenodd" clip-rule="evenodd" d="M268.89 80.3652H267.12V187.369H262.286C262.2 187.369 262.116 187.398 262.042 187.452C261.968 187.506 261.907 187.584 261.866 187.677C261.826 187.77 261.806 187.874 261.811 187.979C261.815 188.085 261.842 188.187 261.89 188.274L267.609 198.757C267.655 198.833 267.715 198.894 267.783 198.936C267.852 198.978 267.928 199 268.005 199C268.082 199 268.158 198.978 268.227 198.936C268.296 198.894 268.356 198.833 268.402 198.757L274.121 188.274C274.168 188.186 274.196 188.085 274.2 187.979C274.204 187.874 274.184 187.77 274.143 187.677C274.103 187.584 274.042 187.506 273.968 187.452C273.895 187.398 273.81 187.369 273.724 187.369H268.89V80.3652Z" fill="#A0AEC0"/>
<path opacity="0.6" fill-rule="evenodd" clip-rule="evenodd" d="M287.951 88.4899H299.389C299.475 88.4899 299.56 88.4613 299.633 88.4072C299.707 88.3531 299.768 88.2756 299.809 88.1829C299.849 88.0901 299.869 87.9857 299.865 87.8806C299.86 87.7755 299.833 87.6738 299.785 87.5862L294.067 77.1184C294.021 77.0431 293.961 76.9819 293.892 76.9398C293.823 76.8977 293.747 76.8757 293.67 76.8757C293.593 76.8757 293.517 76.8977 293.448 76.9398C293.379 76.9819 293.32 77.0431 293.274 77.1184L287.555 87.5862C287.507 87.6738 287.48 87.7755 287.476 87.8806C287.472 87.9857 287.491 88.0901 287.532 88.1829C287.572 88.2756 287.633 88.3531 287.707 88.4072C287.781 88.4613 287.865 88.4899 287.951 88.4899ZM294.555 88.5065H292.785V196.674H294.555V88.5065Z" fill="#A0AEC0"/>
<rect x="80" y="50" width="51" height="5" fill="white"/>
</svg>
