<svg xmlns="http://www.w3.org/2000/svg" viewBox="0 0 490.667 490.667" fill-opacity="0.05">
    <g>
        <path
            d="M96 480H10.667C4.779 480 0 475.221 0 469.333s4.779-10.667 10.667-10.667H96c5.888 0 10.667 4.779 10.667 10.667S101.888 480 96 480zM96 416H10.667C4.779 416 0 411.221 0 405.333s4.779-10.667 10.667-10.667H96c5.888 0 10.667 4.779 10.667 10.667S101.888 416 96 416zM96 352H10.667C4.779 352 0 347.221 0 341.333s4.779-10.667 10.667-10.667H96c5.888 0 10.667 4.779 10.667 10.667S101.888 352 96 352zM96 288H10.667C4.779 288 0 283.221 0 277.333s4.779-10.667 10.667-10.667H96c5.888 0 10.667 4.779 10.667 10.667S101.888 288 96 288zM96 224H10.667C4.779 224 0 219.221 0 213.333s4.779-10.667 10.667-10.667H96c5.888 0 10.667 4.779 10.667 10.667S101.888 224 96 224z" />
        <path
            d="M224 480h-85.333c-5.888 0-10.667-4.779-10.667-10.667s4.779-10.667 10.667-10.667H224c5.888 0 10.667 4.779 10.667 10.667S229.888 480 224 480zM224 416h-85.333c-5.888 0-10.667-4.779-10.667-10.667s4.779-10.667 10.667-10.667H224c5.888 0 10.667 4.779 10.667 10.667S229.888 416 224 416zM224 352h-85.333c-5.888 0-10.667-4.779-10.667-10.667s4.779-10.667 10.667-10.667H224c5.888 0 10.667 4.779 10.667 10.667S229.888 352 224 352zM224 288h-85.333c-5.888 0-10.667-4.779-10.667-10.667s4.779-10.667 10.667-10.667H224c5.888 0 10.667 4.779 10.667 10.667S229.888 288 224 288zM224 224h-85.333c-5.888 0-10.667-4.779-10.667-10.667s4.779-10.667 10.667-10.667H224c5.888 0 10.667 4.779 10.667 10.667S229.888 224 224 224zM224 160h-85.333c-5.888 0-10.667-4.779-10.667-10.667s4.779-10.667 10.667-10.667H224c5.888 0 10.667 4.779 10.667 10.667S229.888 160 224 160zM224 96h-85.333C132.779 96 128 91.221 128 85.333s4.779-10.667 10.667-10.667H224c5.888 0 10.667 4.779 10.667 10.667S229.888 96 224 96zM224 32h-85.333C132.779 32 128 27.221 128 21.333s4.779-10.667 10.667-10.667H224c5.888 0 10.667 4.779 10.667 10.667S229.888 32 224 32z" />
        <path
            d="M352 480h-85.333c-5.888 0-10.667-4.779-10.667-10.667s4.779-10.667 10.667-10.667H352c5.888 0 10.667 4.779 10.667 10.667S357.888 480 352 480zM352 416h-85.333c-5.888 0-10.667-4.779-10.667-10.667s4.779-10.667 10.667-10.667H352c5.888 0 10.667 4.779 10.667 10.667S357.888 416 352 416zM352 352h-85.333c-5.888 0-10.667-4.779-10.667-10.667s4.779-10.667 10.667-10.667H352c5.888 0 10.667 4.779 10.667 10.667S357.888 352 352 352z" />
        <path
            d="M480 480h-85.333c-5.888 0-10.667-4.779-10.667-10.667s4.779-10.667 10.667-10.667H480c5.888 0 10.667 4.779 10.667 10.667S485.888 480 480 480zM480 416h-85.333c-5.888 0-10.667-4.779-10.667-10.667s4.779-10.667 10.667-10.667H480c5.888 0 10.667 4.779 10.667 10.667S485.888 416 480 416zM480 352h-85.333c-5.888 0-10.667-4.779-10.667-10.667s4.779-10.667 10.667-10.667H480c5.888 0 10.667 4.779 10.667 10.667S485.888 352 480 352zM480 288h-85.333c-5.888 0-10.667-4.779-10.667-10.667s4.779-10.667 10.667-10.667H480c5.888 0 10.667 4.779 10.667 10.667S485.888 288 480 288zM480 224h-85.333c-5.888 0-10.667-4.779-10.667-10.667s4.779-10.667 10.667-10.667H480c5.888 0 10.667 4.779 10.667 10.667S485.888 224 480 224zM480 160h-85.333c-5.888 0-10.667-4.779-10.667-10.667s4.779-10.667 10.667-10.667H480c5.888 0 10.667 4.779 10.667 10.667S485.888 160 480 160z" />
        <path
            d="M96 480H10.667C4.779 480 0 475.221 0 469.333s4.779-10.667 10.667-10.667H96c5.888 0 10.667 4.779 10.667 10.667S101.888 480 96 480zM96 416H10.667C4.779 416 0 411.221 0 405.333s4.779-10.667 10.667-10.667H96c5.888 0 10.667 4.779 10.667 10.667S101.888 416 96 416zM96 352H10.667C4.779 352 0 347.221 0 341.333s4.779-10.667 10.667-10.667H96c5.888 0 10.667 4.779 10.667 10.667S101.888 352 96 352zM96 288H10.667C4.779 288 0 283.221 0 277.333s4.779-10.667 10.667-10.667H96c5.888 0 10.667 4.779 10.667 10.667S101.888 288 96 288zM96 224H10.667C4.779 224 0 219.221 0 213.333s4.779-10.667 10.667-10.667H96c5.888 0 10.667 4.779 10.667 10.667S101.888 224 96 224zM224 480h-85.333c-5.888 0-10.667-4.779-10.667-10.667s4.779-10.667 10.667-10.667H224c5.888 0 10.667 4.779 10.667 10.667S229.888 480 224 480zM224 416h-85.333c-5.888 0-10.667-4.779-10.667-10.667s4.779-10.667 10.667-10.667H224c5.888 0 10.667 4.779 10.667 10.667S229.888 416 224 416zM224 352h-85.333c-5.888 0-10.667-4.779-10.667-10.667s4.779-10.667 10.667-10.667H224c5.888 0 10.667 4.779 10.667 10.667S229.888 352 224 352zM224 288h-85.333c-5.888 0-10.667-4.779-10.667-10.667s4.779-10.667 10.667-10.667H224c5.888 0 10.667 4.779 10.667 10.667S229.888 288 224 288zM224 224h-85.333c-5.888 0-10.667-4.779-10.667-10.667s4.779-10.667 10.667-10.667H224c5.888 0 10.667 4.779 10.667 10.667S229.888 224 224 224zM224 160h-85.333c-5.888 0-10.667-4.779-10.667-10.667s4.779-10.667 10.667-10.667H224c5.888 0 10.667 4.779 10.667 10.667S229.888 160 224 160zM224 96h-85.333C132.779 96 128 91.221 128 85.333s4.779-10.667 10.667-10.667H224c5.888 0 10.667 4.779 10.667 10.667S229.888 96 224 96zM224 32h-85.333C132.779 32 128 27.221 128 21.333s4.779-10.667 10.667-10.667H224c5.888 0 10.667 4.779 10.667 10.667S229.888 32 224 32zM352 480h-85.333c-5.888 0-10.667-4.779-10.667-10.667s4.779-10.667 10.667-10.667H352c5.888 0 10.667 4.779 10.667 10.667S357.888 480 352 480zM352 416h-85.333c-5.888 0-10.667-4.779-10.667-10.667s4.779-10.667 10.667-10.667H352c5.888 0 10.667 4.779 10.667 10.667S357.888 416 352 416zM352 352h-85.333c-5.888 0-10.667-4.779-10.667-10.667s4.779-10.667 10.667-10.667H352c5.888 0 10.667 4.779 10.667 10.667S357.888 352 352 352zM480 480h-85.333c-5.888 0-10.667-4.779-10.667-10.667s4.779-10.667 10.667-10.667H480c5.888 0 10.667 4.779 10.667 10.667S485.888 480 480 480zM480 416h-85.333c-5.888 0-10.667-4.779-10.667-10.667s4.779-10.667 10.667-10.667H480c5.888 0 10.667 4.779 10.667 10.667S485.888 416 480 416zM480 352h-85.333c-5.888 0-10.667-4.779-10.667-10.667s4.779-10.667 10.667-10.667H480c5.888 0 10.667 4.779 10.667 10.667S485.888 352 480 352zM480 288h-85.333c-5.888 0-10.667-4.779-10.667-10.667s4.779-10.667 10.667-10.667H480c5.888 0 10.667 4.779 10.667 10.667S485.888 288 480 288zM480 224h-85.333c-5.888 0-10.667-4.779-10.667-10.667s4.779-10.667 10.667-10.667H480c5.888 0 10.667 4.779 10.667 10.667S485.888 224 480 224zM480 160h-85.333c-5.888 0-10.667-4.779-10.667-10.667s4.779-10.667 10.667-10.667H480c5.888 0 10.667 4.779 10.667 10.667S485.888 160 480 160z" />
    </g>
</svg>