<svg width="123" height="29" viewBox="0 0 123 29" fill="none" xmlns="http://www.w3.org/2000/svg">
<path d="M36.8 21V9.09999H41.5C42.9 9.09999 44 9.39999 44.6 9.99999C45.2 10.6 45.6 11.4 45.6 12.4C45.6 13 45.4 13.6 45.1 14.1C44.7 14.6 44.2 14.9 43.5 15C44.3 15.1 44.9 15.4 45.3 16C45.7 16.5 45.9 17.1 45.9 17.8C45.9 18.8 45.5 19.6 44.8 20.2C44.1 20.8 42.9 21 41.5 21H36.8ZM38.7 19.4H41.7C42.5 19.4 43 19.2 43.4 18.9C43.8 18.6 44 18.1 44 17.6C44 17 43.8 16.6 43.4 16.3C43 16 42.5 15.8 41.7 15.8H38.7V19.4ZM38.7 14.2H41.3C42.8 14.2 43.6 13.6 43.6 12.5C43.6 11.4 42.8 10.8 41.3 10.8H38.7V14.2ZM48.3 21V12H50L50.2 13.6C50.4 13 50.8 12.6 51.3 12.3C51.8 12 52.4 11.8 53.1 11.8C53.3 11.8 53.5 11.8 53.6 11.9C53.8 11.9 53.9 12 54.1 12L53.8 13.7C53.7 13.7 53.5 13.6 53.4 13.6C53.2 13.6 53 13.5 52.8 13.5C52.4 13.5 52.1 13.6 51.7 13.8C51.3 14 51 14.3 50.8 14.7C50.6 15.1 50.5 15.6 50.5 16.2V21H48.3ZM56.6 10.5C56.2 10.5 55.9 10.4 55.6 10.2C55.4 9.99999 55.3 9.69999 55.3 9.29999C55.3 8.89999 55.4 8.59999 55.6 8.39999C55.8 8.19999 56.2 8.09999 56.6 8.09999C57 8.09999 57.3 8.19999 57.5 8.39999C57.7 8.59999 57.8 8.89999 57.8 9.29999C57.8 9.69999 57.7 9.99999 57.5 10.2C57.4 10.4 57 10.5 56.6 10.5ZM57.6 12V21H55.7V12H57.6ZM68.4 10.1L68.7 11.6H68.6H68.5C67.9 11.6 67.5 11.7 67.2 12C66.9 12.2 66.8 12.6 66.8 13.1L65.9 12.7C65.9 12.2 66 11.8 66.2 11.4C66.4 11 66.7 10.7 67.1 10.5C67.5 10.3 67.9 10.2 68.4 10.2C68.3 10.1 68.3 10.1 68.4 10.1ZM65.6 19.6C66.5 19.6 67.2 19.8 67.7 20.2C68.2 20.6 68.5 21.1 68.5 21.9C68.5 22.5 68.3 23.1 67.9 23.5C67.5 24 67 24.3 66.3 24.5C65.6 24.7 64.9 24.9 64 24.9C62.5 24.9 61.4 24.7 60.7 24.2C60 23.7 59.6 23.2 59.6 22.5C59.6 22 59.8 21.6 60.1 21.2C60.4 20.8 61 20.6 61.8 20.6L61.7 20.9C61.2 20.8 60.8 20.6 60.5 20.3C60.2 20 60 19.6 60 19.1C60 18.6 60.2 18.1 60.6 17.8C61 17.4 61.6 17.2 62.3 17.2L63.3 17.7H63.1C62.5 17.7 62.2 17.9 61.9 18.1C61.7 18.3 61.6 18.5 61.6 18.8C61.6 19.1 61.7 19.3 61.9 19.5C62.1 19.6 62.4 19.7 62.9 19.7H65.6V19.6ZM63.9 23.4C64.6 23.4 65.1 23.3 65.5 23.2C65.9 23.1 66.3 22.9 66.5 22.7C66.7 22.5 66.8 22.3 66.8 22.1C66.8 21.8 66.7 21.6 66.5 21.4C66.3 21.2 65.9 21.1 65.3 21.1H62.4C62.1 21.1 61.8 21.2 61.6 21.4C61.4 21.6 61.3 21.8 61.3 22.1C61.3 22.5 61.5 22.8 62 23C62.4 23.3 63.1 23.4 63.9 23.4ZM63.9 11.8C64.7 11.8 65.4 11.9 66 12.2C66.6 12.5 67 12.8 67.3 13.3C67.6 13.8 67.8 14.3 67.8 14.9C67.8 15.5 67.6 16 67.3 16.5C67 17 66.5 17.3 66 17.6C65.4 17.9 64.7 18 63.9 18C62.7 18 61.7 17.7 61 17.2C60.3 16.6 60 15.9 60 15C60 14.4 60.2 13.9 60.5 13.4C60.8 12.9 61.3 12.6 61.9 12.3C62.4 11.9 63.1 11.8 63.9 11.8ZM63.9 13.2C63.3 13.2 62.9 13.4 62.5 13.7C62.1 14 62 14.4 62 14.9C62 15.4 62.2 15.8 62.5 16.1C62.9 16.4 63.3 16.6 63.9 16.6C64.5 16.6 64.9 16.4 65.3 16.1C65.7 15.8 65.9 15.4 65.9 14.9C65.9 14.4 65.7 14 65.3 13.7C64.9 13.3 64.4 13.2 63.9 13.2ZM70.1 21V7.89999H72V13.4C72.3 12.8 72.7 12.4 73.2 12.2C73.7 11.9 74.3 11.8 74.9 11.8C75.5 11.8 76.1 11.9 76.6 12.2C77.1 12.4 77.5 12.8 77.8 13.3C78.1 13.8 78.2 14.4 78.2 15.2V21H76.3V15.8C76.3 14.9 76.1 14.3 75.7 13.9C75.3 13.6 74.9 13.4 74.3 13.4C73.9 13.4 73.5 13.5 73.1 13.7C72.7 13.9 72.4 14.2 72.2 14.6C72 15 71.8 15.6 71.8 16.3V21H70.1ZM83.7 9.39999V18.3C83.7 18.7 83.8 19.1 84 19.3C84.2 19.5 84.6 19.6 85 19.6C85.3 19.6 85.6 19.6 85.8 19.5C86 19.4 86.3 19.2 86.5 19.1L86.9 20.5C86.6 20.7 86.3 20.9 85.9 21.1C85.5 21.2 85.1 21.3 84.6 21.3C84.1 21.3 83.6 21.2 83.2 21C82.8 20.8 82.4 20.6 82.2 20.2C82 19.8 81.8 19.3 81.8 18.7V9.89999L83.7 9.39999ZM86.8 12V13.5H80V12H86.8ZM98.6 9.09999V21H96.7V9.09999H98.6ZM90.8 9.09999V21H88.9V9.09999H90.8ZM97.6 14.2V15.9H89.8V14.2H97.6ZM102.7 10.5C102.3 10.5 102 10.4 101.7 10.2C101.5 9.99999 101.4 9.69999 101.4 9.29999C101.4 8.89999 101.5 8.59999 101.7 8.39999C101.9 8.19999 102.3 8.09999 102.7 8.09999C103.1 8.09999 103.4 8.19999 103.6 8.39999C103.8 8.59999 103.9 8.89999 103.9 9.29999C103.9 9.69999 103.8 9.99999 103.6 10.2C103.4 10.4 103.1 10.5 102.7 10.5ZM103.7 12V21H101.8V12H103.7ZM106.6 21V12H108.2L108.4 13.6C108.6 13 109 12.6 109.5 12.3C110 12 110.6 11.8 111.3 11.8C111.5 11.8 111.7 11.8 111.8 11.9C112 11.9 112.1 12 112.2 12L111.9 13.7C111.8 13.7 111.6 13.6 111.5 13.6C111.3 13.6 111.1 13.5 110.9 13.5C110.5 13.5 110.2 13.6 109.8 13.8C109.4 14 109.1 14.3 108.9 14.7C108.7 15.1 108.6 15.6 108.6 16.2V21H106.6ZM117.7 21.2C116.8 21.2 116 21 115.3 20.6C114.6 20.2 114.1 19.7 113.7 19C113.3 18.3 113.1 17.5 113.1 16.5C113.1 15.5 113.3 14.7 113.7 14C114.1 13.3 114.6 12.8 115.3 12.4C116 12 116.7 11.8 117.6 11.8C118.5 11.8 119.2 12 119.8 12.3C120.4 12.7 120.9 13.2 121.2 13.8C121.5 14.4 121.7 15.1 121.7 15.9C121.7 16.1 121.7 16.3 121.7 16.5C121.7 16.7 121.7 16.9 121.6 17H114.4V15.5H120.8L119.8 15.8C119.8 15 119.6 14.4 119.2 13.9C118.8 13.5 118.2 13.2 117.5 13.2C117 13.2 116.5 13.3 116.2 13.6C115.8 13.8 115.5 14.2 115.3 14.7C115.1 15.2 115 15.7 115 16.4C115 17.1 115.1 17.6 115.3 18.1C115.5 18.6 115.8 18.9 116.2 19.2C116.6 19.4 117.1 19.6 117.6 19.6C118.2 19.6 118.7 19.5 119.1 19.3C119.5 19.1 119.8 18.8 120 18.3L121.5 19C121.3 19.4 121 19.8 120.6 20.1C120.2 20.4 119.8 20.7 119.3 20.8C118.8 21.1 118.3 21.2 117.7 21.2Z" fill="#0C61B4"/>
<path d="M5.09998 10.3C5.59998 10.3 5.99998 9.89999 5.99998 9.39999C5.99998 8.89999 5.59998 8.39999 5.09998 8.39999C4.59998 8.39999 4.09998 8.79999 4.09998 9.39999C4.09998 9.99999 4.59998 10.3 5.09998 10.3Z" fill="#0C61B4"/>
<path d="M11 12.3C11 12 10.8 11.7 10.6 11.5L7.59998 9.70001C7.29998 9.60001 7.09998 9.60001 6.79998 9.60001C6.59998 9.70001 6.39998 9.80001 6.29998 10C6.19998 10.1 6.19998 10.2 6.19998 10.3C6.19998 10.4 6.19998 10.5 6.19998 10.7C6.19998 10.8 6.29998 10.9 6.39998 11C6.49998 11.1 6.59998 11.2 6.69998 11.2L9.59998 12.9C9.79998 13 9.89998 13 10.1 13C10.5 13.2 11 12.8 11 12.3Z" fill="#0C61B4"/>
<path d="M6.19998 5.50001C6.69998 5.50001 7.09998 5.10001 7.09998 4.60001C7.09998 4.10001 6.69998 3.60001 6.19998 3.60001C5.69998 3.60001 5.19998 4.10001 5.19998 4.60001C5.19998 5.10001 5.69998 5.50001 6.19998 5.50001Z" fill="#0C61B4"/>
<path d="M6.69998 6.29999C6.69998 6.79999 7.09998 7.19999 7.59998 7.19999C8.09998 7.19999 8.49998 6.79999 8.49998 6.29999C8.49998 5.79999 8.09998 5.39999 7.59998 5.39999C7.09998 5.39999 6.69998 5.79999 6.69998 6.29999Z" fill="#0C61B4"/>
<path d="M8.19998 7.70001C8.19998 7.80001 8.19998 7.90001 8.09998 8.00001C8.09998 8.10001 8.09998 8.20001 8.09998 8.40001C8.09998 8.50001 8.19998 8.60001 8.29998 8.70001L10.4 11.3C10.6 11.6 10.9 11.7 11.2 11.7C11.7 11.7 12.1 11.3 12.1 10.8C12.1 10.6 12 10.3 11.9 10.2L9.79998 7.50001C9.69998 7.40001 9.59998 7.40001 9.49998 7.30001C9.39998 7.20001 9.29998 7.20001 9.19998 7.20001C9.09998 7.20001 8.99998 7.20001 8.79998 7.20001C8.69998 7.20001 8.59998 7.30001 8.49998 7.40001C8.39998 7.50001 8.29998 7.60001 8.19998 7.70001Z" fill="#0C61B4"/>
<path d="M11.1 5.3C11.6 5.3 12 4.9 12 4.4C12 3.9 11.6 3.5 11.1 3.5C10.6 3.5 10.2 3.9 10.2 4.4C10.2 4.9 10.6 5.3 11.1 5.3Z" fill="#0C61B4"/>
<path d="M11.5 5.69999C11.3 5.79999 11.1 5.89999 11 6.19999C10.9 6.39999 10.9 6.69999 11 6.89999L12.1 10.1C12.2 10.5 12.6 10.8 13 10.8C13.5 10.8 13.9 10.4 13.9 9.89999C13.9 9.79999 13.9 9.59999 13.8 9.49999L12.7 6.29999C12.6 6.09999 12.5 5.89999 12.2 5.79999C12 5.59999 11.8 5.59999 11.5 5.69999Z" fill="#0C61B4"/>
<path d="M15 2.4C15.5 2.4 15.9 2 15.9 1.5C15.9 1 15.5 0.5 15 0.5C14.5 0.5 14.1 0.9 14.1 1.4C14.1 1.9 14.5 2.4 15 2.4Z" fill="#0C61B4"/>
<path d="M15 4.69999C15.5 4.69999 15.9 4.29999 15.9 3.79999C15.9 3.29999 15.5 2.79999 15 2.79999C14.5 2.79999 14 3.19999 14 3.69999C14 4.19999 14.5 4.69999 15 4.69999Z" fill="#0C61B4"/>
<path d="M15.6 5.40001C15.2 5.00001 14.6 5.00001 14.3 5.40001C14.1 5.50001 14 5.80001 14 6.00001V9.40001V9.50001C14 10 14.4 10.4 14.9 10.4C15.4 10.4 15.8 10 15.8 9.50001V6.00001C15.9 5.80001 15.8 5.50001 15.6 5.40001Z" fill="#0C61B4"/>
<path d="M18.9 5.40001C19.4 5.40001 19.8 5.00001 19.8 4.50001C19.8 4.00001 19.4 3.60001 18.9 3.60001C18.4 3.60001 18 4.00001 18 4.50001C18 5.00001 18.3 5.40001 18.9 5.40001Z" fill="#0C61B4"/>
<path d="M16.8 10.8C17.2 10.8 17.5 10.6 17.7 10.2L18.9 7.00001C19 6.80001 19 6.50001 18.9 6.30001C18.8 6.10001 18.6 5.90001 18.4 5.80001C18.2 5.70001 17.9 5.70001 17.7 5.80001C17.5 5.90001 17.3 6.10001 17.2 6.30001L16 9.40001C15.9 9.50001 15.9 9.70001 15.9 9.80001C15.9 10.3 16.3 10.8 16.8 10.8Z" fill="#0C61B4"/>
<path d="M23.8 5.59999C24.3 5.59999 24.7 5.19999 24.7 4.69999C24.7 4.19999 24.3 3.79999 23.8 3.79999C23.3 3.79999 22.9 4.19999 22.9 4.69999C22.9 5.19999 23.2 5.59999 23.8 5.59999Z" fill="#0C61B4"/>
<path d="M22.3 7.40001C22.8 7.40001 23.2 7.00001 23.2 6.50001C23.2 6.00001 22.8 5.60001 22.3 5.60001C21.8 5.60001 21.4 6.00001 21.4 6.50001C21.4 7.00001 21.8 7.40001 22.3 7.40001Z" fill="#0C61B4"/>
<path d="M17.6 10.9C17.6 11.4 18 11.8 18.5 11.8C18.8 11.8 19 11.7 19.2 11.5L21.5 8.90001C21.6 8.80001 21.6 8.70001 21.7 8.60001C21.7 8.50001 21.8 8.40001 21.7 8.20001C21.7 8.10001 21.7 8.00001 21.6 7.80001C21.5 7.70001 21.5 7.60001 21.4 7.50001C21.3 7.40001 21.2 7.30001 21.1 7.30001C21 7.30001 20.8 7.20001 20.7 7.20001C20.6 7.20001 20.4 7.20001 20.3 7.30001C20.2 7.40001 20.1 7.40001 20 7.50001L17.8 10.1C17.7 10.4 17.6 10.6 17.6 10.9Z" fill="#0C61B4"/>
<path d="M23.8 9.50001C23.8 10 24.2 10.4 24.7 10.4C25.2 10.4 25.6 10 25.6 9.50001C25.6 9.00001 25.2 8.60001 24.7 8.60001C24.2 8.60001 23.8 9.00001 23.8 9.50001Z" fill="#0C61B4"/>
<path d="M19.8 13.3C19.9 13.3 20.1 13.3 20.2 13.2L23.2 11.5C23.3 11.4 23.4 11.4 23.5 11.3C23.6 11.2 23.6 11.1 23.7 11C23.7 10.9 23.7 10.7 23.7 10.6C23.7 10.5 23.6 10.3 23.6 10.3C23.5 10.2 23.5 10.1 23.4 9.99999C23.3 9.89999 23.2 9.89999 23 9.79999C22.9 9.79999 22.7 9.79999 22.6 9.79999C22.5 9.79999 22.3 9.89999 22.3 9.89999L18.9 11.9L19 12C18.9 12.1 18.9 12.3 18.9 12.4C18.9 12.9 19.3 13.3 19.8 13.3Z" fill="#0C61B4"/>
<path d="M28.4 11.9C27.9 11.9 27.5 12.3 27.5 12.8C27.5 13.3 27.9 13.7 28.4 13.7C28.9 13.7 29.3 13.3 29.3 12.8C29.3 12.3 28.9 11.9 28.4 11.9Z" fill="#0C61B4"/>
<path d="M25.2 13.2C25.2 13.7 25.6 14.1 26.1 14.1C26.6 14.1 27 13.7 27 13.2C27 12.7 26.6 12.3 26.1 12.3C25.6 12.3 25.2 12.7 25.2 13.2Z" fill="#0C61B4"/>
<path d="M20.4 15.1L24 14.5C24.1 14.5 24.2 14.4 24.3 14.4C24.4 14.3 24.5 14.2 24.6 14.1C24.7 14 24.7 13.9 24.7 13.8C24.7 13.7 24.7 13.6 24.7 13.4C24.7 13.3 24.6 13.2 24.6 13.1C24.5 13 24.4 12.9 24.3 12.8C24.2 12.7 24.1 12.7 24 12.7C23.9 12.7 23.8 12.7 23.6 12.7L20.1 13.3C19.7 13.4 19.4 13.8 19.4 14.2C19.5 14.7 19.9 15.1 20.4 15.1Z" fill="#0C61B4"/>
<path d="M26.1 16.2C25.6 16.2 25.2 16.6 25.2 17.1C25.2 17.6 25.6 18 26.1 18C26.6 18 27 17.6 27 17.1C27 16.6 26.6 16.2 26.1 16.2Z" fill="#0C61B4"/>
<path d="M24.4 17.5C24.6 17.4 24.7 17.1 24.8 16.9C24.8 16.7 24.8 16.4 24.7 16.2C24.6 16 24.3 15.9 24.1 15.8L20.7 15.2H20.5C20 15.2 19.6 15.6 19.6 16.1C19.6 16.6 19.9 16.9 20.4 17L23.8 17.6C23.9 17.6 23.9 17.6 24 17.6C24 17.7 24.2 17.6 24.4 17.5Z" fill="#0C61B4"/>
<path d="M26.7 21.1C26.2 21.1 25.8 21.5 25.8 22C25.8 22.5 26.2 22.9 26.7 22.9C27.2 22.9 27.6 22.5 27.6 22C27.6 21.5 27.2 21.1 26.7 21.1Z" fill="#0C61B4"/>
<path d="M24.7 19.9C24.2 19.9 23.8 20.3 23.8 20.8C23.8 21.3 24.2 21.7 24.7 21.7C25.2 21.7 25.6 21.3 25.6 20.8C25.6 20.3 25.2 19.9 24.7 19.9Z" fill="#0C61B4"/>
<path d="M23.5 19.1C23.4 19 23.3 18.9 23.2 18.9L20.3 17.2C20.1 17.1 20 17 19.8 17C19.3 17 18.9 17.4 18.9 17.9C18.9 18 18.9 18.2 19 18.3L18.9 18.4L22.4 20.5C22.5 20.6 22.6 20.6 22.7 20.6H22.8C22.9 20.6 23 20.6 23 20.6C23.1 20.6 23.2 20.5 23.3 20.4C23.4 20.3 23.5 20.2 23.5 20.1C23.6 20 23.6 19.9 23.6 19.7C23.6 19.6 23.6 19.4 23.6 19.3C23.6 19.4 23.6 19.2 23.5 19.1Z" fill="#0C61B4"/>
<path d="M22.1 23C21.6 23 21.2 23.4 21.2 23.9C21.2 24.4 21.6 24.8 22.1 24.8C22.6 24.8 23 24.4 23 23.9C23 23.4 22.7 23 22.1 23Z" fill="#0C61B4"/>
<path d="M21.5 22.6C21.6 22.5 21.6 22.4 21.6 22.2C21.6 22.1 21.6 21.9 21.6 21.8C21.6 21.7 21.5 21.6 21.4 21.5L19.2 18.9C19 18.6 18.7 18.5 18.4 18.5C17.9 18.5 17.5 18.9 17.5 19.4C17.5 19.6 17.6 19.9 17.8 20.1L19.9 22.7C20 22.8 20.1 22.9 20.2 22.9C20.3 23 20.4 23 20.6 23H20.7C20.8 23 20.9 23 21 23C21.1 23 21.2 22.9 21.3 22.8C21.4 22.8 21.5 22.7 21.5 22.6Z" fill="#0C61B4"/>
<path d="M19.5 27.1C19 27.1 18.6 27.5 18.6 28C18.6 28.5 19 28.9 19.5 28.9C20 28.9 20.4 28.5 20.4 28C20.4 27.5 20 27.1 19.5 27.1Z" fill="#0C61B4"/>
<path d="M19.6 25.8C19.6 25.3 19.2 24.9 18.7 24.9C18.2 24.9 17.8 25.3 17.8 25.8C17.8 26.3 18.2 26.7 18.7 26.7C19.2 26.7 19.6 26.4 19.6 25.8Z" fill="#0C61B4"/>
<path d="M18.2 24.5C18.4 24.4 18.6 24.3 18.7 24C18.8 23.8 18.8 23.5 18.8 23.3L17.5 19.5L17.3 19.6C17.1 19.5 16.9 19.4 16.7 19.4C16.2 19.4 15.8 19.8 15.8 20.3C15.8 20.4 15.8 20.5 15.8 20.6L17 23.9C17.1 24.1 17.3 24.3 17.5 24.4C17.6 24.5 17.8 24.5 17.9 24.5C18 24.6 18.1 24.6 18.2 24.5Z" fill="#0C61B4"/>
<path d="M14.8 25.6C14.3 25.6 13.9 26 13.9 26.5C13.9 27 14.3 27.4 14.8 27.4C15.3 27.4 15.7 27 15.7 26.5C15.7 26 15.3 25.6 14.8 25.6Z" fill="#0C61B4"/>
<path d="M14.9 19.8C14.4 19.8 14 20.2 14 20.7V24.2C14 24.4 14.1 24.7 14.3 24.9C14.5 25.1 14.7 25.2 15 25.2C15.2 25.2 15.5 25.1 15.7 24.9C15.9 24.7 16 24.5 16 24.2V20.7V20.6C15.8 20.2 15.4 19.8 14.9 19.8Z" fill="#0C61B4"/>
<path d="M10.1 27C9.59998 27 9.19998 27.4 9.19998 27.9C9.19998 28.4 9.59998 28.8 10.1 28.8C10.6 28.8 11 28.4 11 27.9C11 27.4 10.6 27 10.1 27Z" fill="#0C61B4"/>
<path d="M10.9 24.8C10.4 24.8 9.99997 25.2 9.99997 25.7C9.99997 26.2 10.4 26.6 10.9 26.6C11.4 26.6 11.8 26.2 11.8 25.7C11.8 25.2 11.4 24.8 10.9 24.8Z" fill="#0C61B4"/>
<path d="M12.9 19.5C12.5 19.5 12.1 19.8 12 20.1L10.8 23.3C10.8 23.4 10.7 23.5 10.7 23.7C10.7 23.8 10.7 23.9 10.8 24.1C10.8 24.2 10.9 24.3 11 24.4C11.1 24.5 11.2 24.5 11.3 24.6C11.4 24.6 11.5 24.7 11.6 24.7C11.7 24.7 11.8 24.7 12 24.6C12.1 24.5 12.2 24.5 12.3 24.4C12.4 24.3 12.5 24.2 12.5 24.1L13.7 20.9C13.7 20.8 13.8 20.7 13.8 20.5C13.9 19.9 13.5 19.5 12.9 19.5Z" fill="#0C61B4"/>
<path d="M7.49998 22.8C6.99998 22.8 6.59998 23.2 6.59998 23.7C6.59998 24.2 6.99998 24.6 7.49998 24.6C7.99998 24.6 8.39998 24.2 8.39998 23.7C8.39998 23.2 7.99998 22.8 7.49998 22.8Z" fill="#0C61B4"/>
<path d="M9.69997 22.7L11.9 20.2C12.1 20 12.2 19.8 12.2 19.5C12.2 18.9 11.7 18.5 11.1 18.6L11 18.3L8.29997 21.4C8.19997 21.5 8.09997 21.6 8.09997 21.7C8.09997 21.8 7.99997 22 7.99997 22.1C7.99997 22.2 7.99997 22.4 8.09997 22.5C8.19997 22.6 8.19997 22.7 8.29997 22.8C8.39997 22.9 8.49997 22.9 8.59997 23C8.79997 23 8.89997 23 8.99997 23C8.99997 23 8.99997 23 9.09997 23C9.19997 23 9.29997 23 9.49997 22.9C9.49997 22.8 9.59997 22.7 9.69997 22.7Z" fill="#0C61B4"/>
<path d="M2.99998 20.9C2.49998 20.9 2.09998 21.3 2.09998 21.8C2.09998 22.3 2.49998 22.7 2.99998 22.7C3.49998 22.7 3.89998 22.3 3.89998 21.8C3.89998 21.3 3.49998 20.9 2.99998 20.9Z" fill="#0C61B4"/>
<path d="M4.99998 19.8C4.49998 19.8 4.09998 20.2 4.09998 20.7C4.09998 21.2 4.49998 21.6 4.99998 21.6C5.49998 21.6 5.89998 21.2 5.89998 20.7C5.89998 20.2 5.49998 19.8 4.99998 19.8Z" fill="#0C61B4"/>
<path d="M6.99999 20.6C7.19999 20.6 7.29999 20.6 7.49999 20.5L10.5 18.8H10.6C10.9 18.6 11 18.3 11 18C11 17.5 10.6 17.1 10.1 17.1C9.89999 17.1 9.69999 17.2 9.59999 17.3L6.59999 19C6.39999 19.1 6.19999 19.3 6.19999 19.6C6.09999 19.8 6.19999 20.1 6.29999 20.3C6.39999 20.5 6.59999 20.7 6.89999 20.7C6.79999 20.6 6.89999 20.6 6.99999 20.6Z" fill="#0C61B4"/>
<path d="M3.69998 17.9C4.19998 17.9 4.59998 17.5 4.59998 17C4.59998 16.5 4.19998 16.1 3.69998 16.1C3.19998 16.1 2.69998 16.5 2.69998 17C2.69998 17.5 3.09998 17.9 3.69998 17.9Z" fill="#0C61B4"/>
<path d="M9.29997 15.1L5.79997 15.7C5.69997 15.7 5.49997 15.8 5.39997 15.8C5.29997 15.9 5.19997 15.9 5.09997 16C5.09997 16.2 4.99997 16.3 4.99997 16.4C4.99997 16.5 4.99997 16.7 4.99997 16.8C4.99997 16.9 4.99997 17 5.09997 17.2C5.19997 17.3 5.29997 17.4 5.39997 17.5C5.49997 17.6 5.59997 17.6 5.69997 17.6C5.79997 17.6 5.79997 17.6 5.89997 17.6C5.99997 17.6 5.99997 17.6 6.09997 17.6L10.1 16.9V16.7C10.3 16.5 10.4 16.3 10.4 16.1C10.3 15.6 9.89997 15.1 9.29997 15.1Z" fill="#0C61B4"/>
<path d="M2.39998 12.6C2.39998 12.1 1.99998 11.7 1.49998 11.7C0.999976 11.7 0.599976 12.1 0.599976 12.6C0.599976 13.1 0.999976 13.5 1.49998 13.5C1.99998 13.5 2.39998 13.2 2.39998 12.6Z" fill="#0C61B4"/>
<path d="M3.69999 14C4.19999 14 4.59999 13.6 4.59999 13.1C4.59999 12.6 4.19999 12.2 3.69999 12.2C3.19999 12.2 2.79999 12.6 2.79999 13.1C2.79999 13.6 3.19999 14 3.69999 14Z" fill="#0C61B4"/>
<path d="M9.59997 13.2L6.09997 12.5C5.89997 12.5 5.59997 12.5 5.39997 12.6C5.19997 12.7 5.09997 13 4.99997 13.2C4.99997 13.4 4.99997 13.7 5.09997 13.9C5.19997 14.1 5.49997 14.2 5.69997 14.3L9.19997 14.9H9.29997C9.79997 14.9 10.2 14.5 10.2 14C10.3 13.7 9.99997 13.3 9.59997 13.2Z" fill="#0C61B4"/>
</svg>
