<svg xmlns="http://www.w3.org/2000/svg" fill="none" viewBox="0 0 76 76"><path fill="none" d="M0 0H76V76H0z"></path><path fill="#511EE9" fill-rule="evenodd" d="M73.94 37.92C74.37 25.06 59 12.27 50.43 8 36.1.83 22.94.05 14.09 5.86 5.24 11.67 1.16 23.91 1.27 37.92 1.38 51.93 6.83 64.54 14.09 70c8.55 6.42 21.6 5.24 36.34-2.13C59 63.57 73.5 50.78 73.94 37.92z" clip-rule="evenodd"></path><path fill="#fff" d="M45.64 49.24a4.09 4.09 0 114.09 4 4.06 4.06 0 01-4.09-4z"></path><path fill="#fff" fill-rule="evenodd" d="M29.61 47c2.78 0 4.87-2.05 4.87-5.24 0-3.19-2-5.28-4.87-5.28-2.69 0-4.78 2.09-4.78 5.28 0 3.19 2 5.24 4.78 5.24zm4.6-25.21l7.15-1.49v32.53h-6.79v-2.37h-.09a7.63 7.63 0 01-6.33 2.78c-6.15 0-10.52-4.65-10.52-11.53 0-6.88 4.42-11.57 10.16-11.57a8.3 8.3 0 016.37 2.78h.05V21.79z" clip-rule="evenodd"></path></svg>