<svg style="height:40px" width="301" height="84" viewBox="0 0 301 84" xmlns="http://www.w3.org/2000/svg"><title>eb-logo-gradient-black-text</title><defs><linearGradient x1="107.5%" y1="-1.202%" x2="7.56%" y2="87.786%" id="a"><stop stop-color="#36B989" offset="0%"></stop><stop stop-color="#6ACDE8" offset="100%"></stop></linearGradient></defs><g fill="none" fill-rule="evenodd"><path d="M111.44 54.43c2.4 0 4.21-1.2 4.76-2.91a1 1 0 0 1 1.06-.79h2.36a.74.74 0 0 1 .79.92c-.55 4-4.16 6.93-9 6.93a9.18 9.18 0 0 1-9.41-8.77 50.2 50.2 0 0 1 0-6.47 9.18 9.18 0 0 1 9.47-8.78c5.59 0 9.24 3.47 9.24 9.24V47a.93.93 0 0 1-.92.92h-13.25a.44.44 0 0 0-.46.46c-.01 4.2 2.17 6.05 5.36 6.05zm-4.81-10.21h9.61a.44.44 0 0 0 .46-.46 4.9 4.9 0 0 0-5.22-5 5 5 0 0 0-5.31 5 .44.44 0 0 0 .46.46zM139.3 50.59a.77.77 0 0 1 .88-.79h2.4a.93.93 0 0 1 .92.92c0 4.48-3.74 7.86-8.92 7.86-5.55 0-8.87-3.93-9.24-8.78a50.54 50.54 0 0 1 0-6.47c.37-4.85 3.7-8.78 9.24-8.78 5.18 0 8.92 3.37 8.92 7.86a.82.82 0 0 1-.79.92h-2.5a.79.79 0 0 1-.88-.74c0-2.17-1.9-3.88-4.76-3.88a4.81 4.81 0 0 0-5.08 4.62 50.2 50.2 0 0 0 0 6.47 4.81 4.81 0 0 0 5.08 4.62c2.84.01 4.73-1.65 4.73-3.83zM149.74 58.13a.93.93 0 0 1-.92-.92V26.38a.93.93 0 0 1 .92-.92h2.31a.93.93 0 0 1 .92.92v8.37a1 1 0 0 0 1 1c.92 0 2.13-1.16 4.25-1.16a8.78 8.78 0 0 1 8.78 8.75V57.2a.93.93 0 0 1-.92.92h-2.31a.93.93 0 0 1-.92-.92V43.34a4.8 4.8 0 0 0-4.94-4.62c-2.87 0-4.95 2-4.95 4.39V57.2a.93.93 0 0 1-.92.92l-2.3.01zM190 43.34a50.54 50.54 0 0 1 0 6.47 9.5 9.5 0 0 1-18.95 0 50.2 50.2 0 0 1 0-6.47 9.5 9.5 0 0 1 18.95 0zm-4.16 6.47a50.54 50.54 0 0 0 0-6.47 5.37 5.37 0 0 0-10.63 0 50.54 50.54 0 0 0 0 6.47 5.37 5.37 0 0 0 10.63 0zM196.56 58a1 1 0 0 1-1 .69h-1a.87.87 0 0 1-.74-1.29L207.09 26a.87.87 0 0 1 .88-.69h1a.89.89 0 0 1 .74 1.29L196.56 58zM218.92 57.07a1.75 1.75 0 0 0-1.16.74.88.88 0 0 1-.65.32h-1.57a.93.93 0 0 1-.93-.92V26.38a.93.93 0 0 1 .93-.92h2.31a.93.93 0 0 1 .92.92v8.18c0 .88.32 1.16 1 1.16.92 0 2.17-1.16 4.3-1.16 4.85 0 8.41 3.93 8.78 8.78a50.2 50.2 0 0 1 0 6.47c-.37 4.85-3.93 8.78-8.78 8.78-3.39 0-3.81-1.52-5.15-1.52zm10-7.26a50.54 50.54 0 0 0 0-6.47 5.37 5.37 0 0 0-10.63 0 50.2 50.2 0 0 0 0 6.47 5.37 5.37 0 0 0 10.63 0zM239 38.95a.93.93 0 0 1-.92-.92v-2.09A.93.93 0 0 1 239 35h9.38c.51 0 .925.41.93.92v17.82a.44.44 0 0 0 .46.46h5.87a.93.93 0 0 1 .92.92v2.08a.93.93 0 0 1-.92.92h-17.1a.93.93 0 0 1-.92-.92v-2.08a.93.93 0 0 1 .92-.92h6.05a.44.44 0 0 0 .46-.46V39.41a.44.44 0 0 0-.46-.46H239zm10.44-9.57a.73.73 0 0 1-.74.74h-3.14a.73.73 0 0 1-.74-.74v-3.19a.76.76 0 0 1 .74-.74h3.14a.76.76 0 0 1 .74.74v3.19zM270 34.56a8.63 8.63 0 0 1 8.78 8.78V57.2a.93.93 0 0 1-.92.92h-2.31a.93.93 0 0 1-.92-.92V43.34c0-2.68-2.22-4.62-5.08-4.62s-5.08 1.71-5.08 4.39V57.2a.93.93 0 0 1-.93.92h-2.34a.93.93 0 0 1-.92-.92V35.94a.93.93 0 0 1 .92-.92h2a.89.89 0 0 1 .65.32c.27.395.689.662 1.16.74 1.37 0 1.74-1.52 4.99-1.52zM282.64 49.81a50.54 50.54 0 0 1 0-6.47c.37-4.85 3.93-8.78 8.78-8.78 2.13 0 3.37 1.16 4.3 1.16.69 0 1-.28 1-1.16v-8.18a.93.93 0 0 1 .92-.92H300a.93.93 0 0 1 .92.92V57.2a.93.93 0 0 1-.92.92h-1.6a.88.88 0 0 1-.65-.32 1.75 1.75 0 0 0-1.16-.74c-1.34 0-1.76 1.52-5.18 1.52-4.84.01-8.41-3.92-8.77-8.77zm14.56 0a50.2 50.2 0 0 0 0-6.47 5.37 5.37 0 0 0-10.63 0 50.54 50.54 0 0 0 0 6.47 5.37 5.37 0 0 0 10.63 0z" fill="#FFF" style="
    color: black;
    fill: black;
"></path><path d="M42 0C18.804 0 0 18.804 0 42s18.804 42 42 42 42-18.804 42-42A42 42 0 0 0 42 0zm0 78.4C21.897 78.4 5.6 62.103 5.6 42 5.6 21.897 21.897 5.6 42 5.6c20.103 0 36.4 16.297 36.4 36.4-.022 20.094-16.306 36.378-36.4 36.4zm19.75-34.23a9.57 9.57 0 0 1 1.16 5.58 9.78 9.78 0 0 1-9.82 8.69H40.77a.28.28 0 0 1-.18-.49 15 15 0 0 0 3.53-4.73.63.63 0 0 1 .56-.38h8.66a4 4 0 0 0 4-4.55c-.26-2-1.45-3.49-3.34-3.49h-5.9a.41.41 0 0 1-.38-.56l2-4.54c.12-.3.42-.5 1.28-.5h7.21a4.12 4.12 0 0 0 4.13-3.49 4 4 0 0 0-4-4.55h-3.41c-5.63 0-7.87 5.06-10.17 10.84-3.15 7.63-5.92 16.44-16.27 16.44h-2.57A9.8 9.8 0 0 1 16 49.1a9.62 9.62 0 0 1 6.22-9.27 9.57 9.57 0 0 1-1.16-5.58 9.78 9.78 0 0 1 9.82-8.69h12.35a.28.28 0 0 1 .18.49 15 15 0 0 0-3.53 4.73.63.63 0 0 1-.56.38h-8.66a4 4 0 0 0-4 4.55c.26 2 1.45 3.49 3.34 3.49h5.9a.41.41 0 0 1 .38.56l-2 4.54c-.12.3-.42.5-1.28.5h-7.22a4.12 4.12 0 0 0-4.13 3.49 4 4 0 0 0 4 4.55h3.42c5.63 0 7.87-5.06 10.17-10.84 3.15-7.63 5.92-16.44 16.27-16.44h2.57A9.8 9.8 0 0 1 68 34.9a9.62 9.62 0 0 1-6.25 9.27z" fill="url(#a)"></path></g></svg>