<svg width="124" height="26" viewBox="0 0 124 26" fill="none" xmlns="http://www.w3.org/2000/svg">
<path d="M51.8005 4.35431H48.8613V21.6369H59.6306V19.0269H51.8005V4.35431Z" fill="#2A2C2E"/>
<path d="M65.9069 9.55084C62.6856 9.55084 60.4988 12.1374 60.4988 15.7114C60.4988 19.262 62.6856 21.872 65.9069 21.872C67.694 21.872 68.8932 21.1431 69.5516 20.2496L69.6927 21.6369H72.2321V9.78598H69.6927L69.5516 11.1733C68.8932 10.2798 67.694 9.55084 65.9069 9.55084ZM66.5183 12.0433C67.9291 12.0433 68.7756 12.7957 69.4105 13.8068V17.6161C68.7756 18.6271 67.9291 19.3796 66.5183 19.3796C64.6842 19.3796 63.3675 17.9452 63.3675 15.7114C63.3675 13.4776 64.6842 12.0433 66.5183 12.0433Z" fill="#2A2C2E"/>
<path d="M79.2536 5.81216H76.4319V9.78598H74.1981V12.1844H76.4319V17.4515C76.4319 20.3201 78.1484 21.872 80.8525 21.872C82.0282 21.872 82.8982 21.5428 83.486 21.1666L82.7336 18.9563C82.3809 19.168 81.8636 19.3326 81.1111 19.3326C80.006 19.3326 79.2536 18.6271 79.2536 17.4279V12.1844H82.8276V9.78598H79.2536V5.81216Z" fill="#2A2C2E"/>
<path d="M88.8979 5.81216H86.0762V9.78598H83.8424V12.1844H86.0762V17.4515C86.0762 20.3201 87.7927 21.872 90.4968 21.872C91.6725 21.872 92.5425 21.5428 93.1303 21.1666L92.3779 18.9563C92.0252 19.168 91.5079 19.3326 90.7554 19.3326C89.6503 19.3326 88.8979 18.6271 88.8979 17.4279V12.1844H92.472V9.78598H88.8979V5.81216Z" fill="#2A2C2E"/>
<path d="M97.7662 9.78598H94.9446V21.6369H97.7662V9.78598ZM96.3554 4.26025C95.3678 4.26025 94.6154 4.98918 94.6154 6.00027C94.6154 7.01136 95.3678 7.74029 96.3554 7.74029C97.3665 7.74029 98.1189 7.01136 98.1189 6.00027C98.1189 4.98918 97.3665 4.26025 96.3554 4.26025Z" fill="#2A2C2E"/>
<path d="M106.199 9.55084C102.554 9.55084 100.132 12.1374 100.132 15.7114C100.132 19.262 102.578 21.872 106.222 21.872C108.362 21.872 109.985 20.908 111.043 19.262L109.02 17.6866C108.456 18.6271 107.539 19.4031 106.246 19.4031C104.153 19.4031 103.001 17.7806 103.001 15.7114C103.001 13.6187 104.106 12.0198 106.222 12.0198C107.539 12.0198 108.409 12.7722 108.95 13.7128L110.996 12.1609C109.938 10.5149 108.362 9.55084 106.199 9.55084Z" fill="#2A2C2E"/>
<path d="M117.858 9.55084C114.448 9.55084 112.05 12.1609 112.05 15.735C112.05 19.2855 114.401 21.872 118.069 21.872C120.256 21.872 121.808 21.1431 122.984 19.7323L121.032 18.1334C120.491 18.8858 119.48 19.4972 118.093 19.4972C116.118 19.4972 114.989 18.4625 114.919 16.5814H123.289V15.5939C123.289 12.2784 121.502 9.55084 117.858 9.55084ZM117.811 11.8082C119.504 11.8082 120.444 12.9368 120.515 14.5593H114.919C115.013 12.9133 116.141 11.8082 117.811 11.8082Z" fill="#2A2C2E"/>
<path fill-rule="evenodd" clip-rule="evenodd" d="M9.6753 18.4391L4.20283 12.9097C3.27294 11.9702 1.7653 11.9702 0.835111 12.9097C-0.0947767 13.8493 -0.0947767 15.3726 0.835111 16.3125L7.99144 23.5433C8.92133 24.4828 10.4293 24.4828 11.3592 23.5433L18.0949 16.7372L14.7275 13.3344L9.6753 18.4391Z" fill="#1BAC94"/>
<path fill-rule="evenodd" clip-rule="evenodd" d="M30.3021 7.80669L19.7789 18.4393L9.25459 7.80548C8.3244 6.86562 6.81676 6.86562 5.88687 7.80548C4.95698 8.74504 4.95698 10.2684 5.88687 11.2082L18.0951 23.5434C19.025 24.483 20.5326 24.483 21.4628 23.5434L33.6698 11.2094C34.5997 10.2696 34.5997 8.74625 33.6698 7.80669C32.7396 6.86712 31.232 6.86712 30.3021 7.80669Z" fill="#F1AE21"/>
<path fill-rule="evenodd" clip-rule="evenodd" d="M38.7225 16.3138L31.5674 23.5434C30.6375 24.4829 29.1299 24.4829 28.2 23.5434L10.9396 6.10344C10.0097 5.16388 10.0097 3.64055 10.9396 2.70099C11.8698 1.76113 13.3774 1.76113 14.3073 2.70099L29.8835 18.4392L35.3548 12.911C36.285 11.9715 37.7927 11.9715 38.7225 12.911C39.6524 13.8509 39.6524 15.3742 38.7225 16.3138Z" fill="#E76450"/>
<path fill-rule="evenodd" clip-rule="evenodd" d="M28.6184 2.70223C27.6885 1.76267 26.1809 1.76267 25.2507 2.70223L14.7275 13.3349L18.0953 16.7376L28.6184 6.10498C29.5483 5.16512 29.5483 3.64179 28.6184 2.70223Z" fill="#1BAC94"/>
</svg>
