<svg viewBox="0 0 149 30" fill="none"
  xmlns="http://www.w3.org/2000/svg">
  <path d="M7.17237.0666741C4.68072.626285 2.91129 2.68421 2.69463 5.24758c-.28889 3.73675 3.66524 5.68632 9.22627 4.51299.8667-.18052 1.625-.28883 1.6792-.23468.0542.05416-2.6 3.05081-5.92218 6.66121C1.17797 23.2815.834919 23.6786.275202 24.9242-.374793 26.4045.148814 27.975 1.6113 28.9137c.70416.4513.92083.5054 2.40137.5054 1.39027-.018 1.75138-.0902 2.52776-.4874.50555-.2527 1.08332-.6679 1.29999-.9026.19861-.2166 1.58887-2.3287 3.06938-4.6574 3.9181-6.1737 6.2653-9.6217 6.8972-10.1632.6861-.5777 1.4986-.7401 2.8889-.6138 1.318.1083 2.0944.5055 2.4736 1.2637.2527.4874.3069 1.065.2708 3.4298-.0542 4.6574-.1083 5.1448-.5778 5.6503-.2708.2888-.6139.4332-.993.4332-2.5278 0-3.7556 1.1373-3.9722 3.7007-.1625 2.0037.4694 2.5634 3.268 2.8341 3.7736.3611 6.3916-.3249 7.6194-2.0398 1.1014-1.5525 1.2097-2.3648 1.2097-9.5495.0181-6.3543.0181-6.4085-.4153-7.3472-.8666-1.94956-3.4847-3.62839-6.4096-4.13385-.8125-.14441-3.4847-.32493-5.9764-.41519-3.4305-.10831-4.6763-.21662-5.1819-.43325-.3791-.16247-.6861-.36104-.6861-.43325 0-.0722.2528-.50545.5417-.9387 1.0833-1.60662.3791-3.55623-1.5347-4.224153C9.35707.0486199 7.94875-.0957934 7.17237.0666741z" fill="#DC1853"/>
  <path fill-rule="evenodd" clip-rule="evenodd" d="M50.96 9h3.84v16.8h-3.84v-9.768l-4.344 7.128h-.432l-4.344-7.128V25.8H38V9h3.84l4.56 7.464L50.96 9zm18.3435 12.24h-8.52c.456 1.248 1.56 1.68 2.88 1.68.984 0 1.824-.384 2.304-.912l2.88 1.656c-1.176 1.632-2.952 2.472-5.232 2.472-4.104 0-6.648-2.76-6.648-6.336 0-3.576 2.592-6.336 6.384-6.336 3.504 0 6.096 2.712 6.096 6.336 0 .504-.048.984-.144 1.44zm-5.976-4.584c-1.368 0-2.28.672-2.616 1.896h5.16c-.384-1.392-1.464-1.896-2.544-1.896zm11.2607 4.584h8.52c.096-.456.144-.936.144-1.44 0-3.624-2.592-6.336-6.096-6.336-3.792 0-6.384 2.76-6.384 6.336 0 3.576 2.544 6.336 6.648 6.336 2.28 0 4.056-.84 5.232-2.472l-2.88-1.656c-.48.528-1.32.912-2.304.912-1.32 0-2.424-.432-2.88-1.68zm-.072-2.688c.336-1.224 1.248-1.896 2.616-1.896 1.08 0 2.16.504 2.544 1.896h-5.16zm14.7252-1.92c-.624 0-1.008.24-1.008.672 0 .4883.7522.6861 1.7196.9405 1.7429.4583 4.1844 1.1003 4.1844 3.9555 0 2.76-2.4 3.936-4.992 3.936-2.4 0-4.2241-.912-5.16-2.856l3.12-1.776c.312.912.984 1.416 2.04 1.416.864 0 1.296-.264 1.296-.744 0-.4759-.7675-.6898-1.7491-.9633-1.7408-.485-4.1549-1.1577-4.1549-3.8127 0-2.616 2.208-3.936 4.704-3.936 1.944 0 3.672.864 4.68 2.568l-3.0721 1.656c-.3359-.624-.8159-1.056-1.6079-1.056zm13.7256-3.168c-1.584 0-2.784.576-3.4322 1.464V9h-3.6v16.8h3.6v-6.552c0-1.704.9122-2.472 2.2322-2.472 1.152 0 2.088.696 2.088 2.184v6.84h3.6v-7.368c0-3.24-2.064-4.968-4.488-4.968zm13.992 6.336l4.488 6h-4.08l-3.84-5.304V25.8h-3.6V9h3.6v10.056l3.6-5.256h4.2l-4.368 6zm13.797-6v1.128c-.792-.912-1.968-1.464-3.576-1.464-3.144 0-5.736 2.76-5.736 6.336 0 3.576 2.592 6.336 5.736 6.336 1.608 0 2.784-.552 3.576-1.464V25.8h3.6v-12h-3.6zm-2.856 8.928c-1.656 0-2.856-1.128-2.856-2.928s1.2-2.928 2.856-2.928 2.856 1.128 2.856 2.928-1.2 2.928-2.856 2.928zm12.697-7.8c.648-.888 1.848-1.464 3.432-1.464 2.424 0 4.488 1.728 4.488 4.968V25.8h-3.6v-6.84c0-1.488-.936-2.184-2.088-2.184-1.32 0-2.232.768-2.232 2.472V25.8h-3.6v-12h3.6v1.128z" fill="#000"/>
</svg>