<svg viewBox="0 0 591 80" fill="none"
  xmlns="http://www.w3.org/2000/svg">
  <path d="M115 72.47V0l49.48 51.77V4.62h10.24V76.6l-49.48-51.63v47.5H115zm86.22-67.85v40.87c0 5.83.95 10.09 2.86 12.79 2.84 3.9 6.84 5.84 12 5.84 5.18 0 9.2-1.95 12.04-5.84 1.9-2.61 2.85-6.87 2.85-12.8V4.63h10.24v43.68c0 7.15-2.23 13.04-6.68 17.67-2.368 2.5037-5.234 4.4846-8.413 5.8158-3.179 1.3312-6.601 1.9832-10.047 1.9142-7.3 0-13.43-2.58-18.4-7.73-4.46-4.63-6.69-10.52-6.69-17.67V4.62h10.24zm66.49 0v58.23h19.95v9.62h-30.19V4.62h10.24zm39.9 0v58.23h19.95v9.62h-30.19V4.62h10.24zm68.29 10.11l-8.3 4.92c-1.55-2.7-3.03-4.45-4.44-5.28-1.47-.93-3.35-1.4-5.67-1.4-2.84 0-5.2.8-7.08 2.41-.892.7171-1.608 1.6288-2.094 2.6653-.485 1.0365-.727 2.1704-.706 3.3147 0 3.31 2.45 5.98 7.38 8l6.76 2.77c5.51 2.23 9.54 4.94 12.09 8.15 2.55 3.2 3.82 7.14 3.82 11.8 0 6.24-2.08 11.4-6.24 15.47-4.19 4.1-9.39 6.15-15.6 6.15-5.89 0-10.75-1.74-14.59-5.23-3.78-3.48-6.14-8.4-7.08-14.72l10.38-2.29c.47 3.99 1.29 6.74 2.46 8.27 2.1 2.93 5.18 4.39 9.23 4.39 3.19 0 5.84-1.07 7.95-3.2 1.05-1.0727 1.871-2.3471 2.414-3.7462.543-1.3991.797-2.8938.746-4.3938 0-1.32-.18-2.52-.55-3.62-.37-1.1086-.946-2.1369-1.7-3.03-.875-1.0091-1.892-1.885-3.02-2.6-1.23-.8-2.7-1.57-4.4-2.3l-6.54-2.73c-9.29-3.93-13.93-9.67-13.93-17.23 0-5.1 1.95-9.36 5.84-12.78 3.9-3.46 8.75-5.19 14.55-5.19 7.82 0 13.93 3.8 18.32 11.43zm51.55-.49h-27.2v16.3h26.41v9.63h-26.41v22.68h27.2v9.62h-37.44V4.62h37.44v9.62zm36.43 29.31l21 28.92h-12.51L452.99 44.7h-1.84v27.77h-10.24V4.62h12c8.96 0 15.44 1.68 19.42 5.05 4.4 3.75 6.6 8.7 6.6 14.86 0 4.8-1.39 8.93-4.14 12.39-2.728 3.4379-6.593 5.789-10.9 6.63h-.01zm-12.74-7.77h3.25c9.7 0 14.55-3.71 14.55-11.12 0-6.95-4.72-10.42-14.15-10.42h-3.65v21.54zm44.95-31.16l18.78 47.02L533.9 4.62h11.2l-30.46 72.95-29.75-72.95h11.2zm94.88 9.62h-27.2v16.3h26.41v9.63h-26.41v22.68h27.2v9.62h-37.44V4.62h37.44v9.62z" fill="#000"/>
  <path fill-rule="evenodd" clip-rule="evenodd" d="M.0857698 37.3873C-.549225 47.0717 2.35793 56.6566 8.26564 64.3565l6.77976-6.7587c-4.2656-5.8789-6.29544-13.086-5.72506-20.3269.57039-7.2409 3.70366-14.0412 8.83706-19.1797 5.1334-5.1385 11.9307-8.27852 19.1711-8.85605 7.2403-.57754 14.4494 1.44525 20.3325 5.70495l6.6955-6.67446C56.6566 2.35793 47.0717-.549225 37.3873.0857698 27.703.720765 18.5797 4.85461 11.7172 11.7172 4.85461 18.5797.720765 27.703.0857698 37.3873zM42.6041 79.9057c-9.6843.6349-19.2693-2.2722-26.9692-8.1799l6.7587-6.7798c5.8789 4.2381 13.0737 6.2467 20.2977 5.6665 7.224-.5802 14.006-3.7113 19.1331-8.8333 5.1271-5.1221 8.265-11.901 8.8523-19.1244.5873-7.2234-1.4141-14.4202-5.6464-20.3033l6.6955-6.7166c5.9077 7.6999 8.8148 17.2849 8.1799 26.9692-.635 9.6843-4.7689 18.8076-11.6314 25.6702-6.8626 6.8625-15.9859 10.9964-25.6702 11.6314zM19.143 37.4346c-.5791 4.6494.409 9.3591 2.808 13.3835l28.8666-28.8665c-4.0245-2.3991-8.7341-3.3872-13.3835-2.8081-4.6493.5791-8.9727 2.6924-12.2857 6.0054-3.313 3.313-5.4263 7.6364-6.0054 12.2857zm23.4135 23.4135c-4.6494.5791-9.3591-.409-13.3835-2.8081l28.8665-28.8665c2.3991 4.0244 3.3872 8.7341 2.8081 13.3835-.5791 4.6493-2.6925 8.9727-6.0054 12.2857-3.313 3.313-7.6364 5.4263-12.2857 6.0054z" fill="#000"/>
</svg>