<svg width="82" height="29" viewBox="0 0 82 29" fill="none" xmlns="http://www.w3.org/2000/svg">
<path fill-rule="evenodd" clip-rule="evenodd" d="M24.7347 20.7124H22.0841C21.4605 20.7124 21.1225 20.261 21.1225 19.6502V12.9054C21.1225 11.3924 20.2391 10.3296 18.6549 10.3296C17.3294 10.3296 16.3419 11.0997 15.7696 12.1353V20.261C15.7696 20.5 15.6396 20.6592 15.4578 20.6858C15.4318 20.7124 15.3798 20.7124 15.3539 20.7124H12.4175C12.3135 20.7124 12.2355 20.6858 12.1836 20.6326C12.0796 20.5531 12.0278 20.4204 12.0278 20.261V2.84228C12.0278 2.00948 11.9295 1.49801 11.8537 1.1041C11.8063 0.857429 11.7677 0.656857 11.7677 0.452344C11.7681 0.185826 11.8978 0 12.1836 0H14.6002C15.3798 0 15.7696 0.371651 15.7696 1.19487V9.21369C16.6791 8.0452 18.0564 6.98301 20.0832 6.98301C22.7338 6.98301 24.8655 8.70936 24.8655 12.029V18.2427C24.8655 18.9173 24.9178 19.4134 24.9652 19.8627C24.9757 19.9618 24.9859 20.0587 24.9953 20.1547C25.0724 20.4468 24.9683 20.7124 24.7347 20.7124ZM1.04155 17.0479C1.22339 16.7558 1.45725 16.7292 1.71729 16.862C2.21081 17.1276 3.84798 17.8977 5.45914 17.8977C6.52438 17.8977 7.12211 17.4197 7.12211 16.8355C7.12211 15.9976 6.2378 15.7279 4.54432 15.2114L4.47171 15.1892C1.92495 14.3928 0.339798 13.1975 0.313794 11.02C0.313794 8.73635 2.00316 6.9838 5.40713 6.9838C7.4858 6.9838 8.75928 7.67415 9.85053 8.33812C10.1362 8.49737 10.2144 8.70938 10.1104 8.92275L8.96713 10.7816C8.81129 11.0204 8.57724 11.0469 8.34358 10.9406C7.69384 10.5424 6.49838 10.0911 5.32911 10.0911C3.978 10.0911 3.66594 10.7019 3.66594 11.1267C3.66594 11.8967 4.65299 12.1889 5.87483 12.5339C9.01895 13.4099 10.6821 14.5518 10.6821 16.8355C10.6821 19.5973 8.29157 20.925 5.38112 20.925C2.73053 20.925 0.859515 19.8097 0.157955 19.3315C0.00211578 19.1988 -0.0498938 19.013 0.0541254 18.7738L1.04155 17.0479ZM67.2061 20.2873V7.62089C67.2061 7.35554 67.0501 7.16952 66.7903 7.16952H63.8794C63.6456 7.16952 63.4635 7.38211 63.4635 7.62089V15.7466C62.866 16.7822 61.9046 17.5525 60.5793 17.5525C58.9941 17.5525 58.1107 16.4895 58.1107 14.9765V8.23171C58.1107 7.62089 57.7732 7.16952 57.1237 7.16952H54.4991C54.2652 7.16952 54.1614 7.43507 54.2134 7.72719C54.2912 8.25829 54.3692 8.81596 54.3692 9.63918V15.8529C54.3692 19.1719 56.4999 20.8983 59.1507 20.8983C61.2034 20.8983 62.5547 19.8361 63.4641 18.6676V20.2873C63.4641 20.5528 63.6201 20.7121 63.88 20.7121H66.8163C67.0501 20.7121 67.2061 20.5263 67.2061 20.2873ZM81.7273 20.7124H79.0772C78.4537 20.7124 78.1158 20.2611 78.1158 19.6502V12.9054C78.1158 11.3924 77.2322 10.3297 75.6213 10.3297C74.322 10.3297 73.3344 11.0997 72.7361 12.1354V20.2611C72.7361 20.5 72.5802 20.7124 72.3464 20.7124H69.4099C69.15 20.7124 68.9942 20.5266 68.9942 20.2611V7.59466C68.9942 7.35588 69.1761 7.16986 69.3839 7.16986H72.3464C72.6062 7.16986 72.7361 7.3293 72.7361 7.59466V9.21375C73.6457 8.04526 75.0228 6.98306 77.0758 6.98306C79.7002 6.98306 81.8569 8.70942 81.8569 12.0283V18.2428C81.8569 19.0662 81.9089 19.6237 81.9869 20.1548C82.0384 20.4469 81.9351 20.7124 81.7273 20.7124ZM40.5793 23.0557C40.7567 22.8787 41.0133 22.8121 41.2519 22.8812L42.7662 23.31C43.0783 23.3983 43.2789 23.6949 43.2776 24.0246V24.0306C43.2776 25.4117 44.7847 25.8365 46.7855 25.8365C48.2667 25.8365 49.696 25.332 49.696 24.1901C49.696 23.6856 49.4359 23.2076 48.3707 23.0216L46.6954 22.7306H46.6901L46.3733 22.6756C44.8646 22.4094 43.1999 22.0492 42.3211 21.8533C42.0719 21.7912 41.8264 21.7147 41.5857 21.624C40.4899 21.2033 39.7445 20.5062 39.7445 19.3311C39.7445 17.7909 41.0438 16.835 42.4209 16.9945C41.8492 16.4374 40.6799 15.2419 40.6279 12.9847C40.5759 9.61267 43.0447 7.01034 46.8385 7.01034C47.4654 7.01034 47.9986 7.07773 48.5726 7.15028C49.5688 7.2762 50.6879 7.41766 52.6334 7.24931C52.8671 7.22274 53.0751 7.40856 53.0491 7.67411L52.9451 9.2674C52.6852 9.53295 51.9056 9.61267 51.1001 9.63925C52.2433 10.5146 52.841 11.8697 52.841 13.463C52.841 16.8354 50.1646 19.0395 46.8645 19.013C45.7797 19.013 45.0488 18.7318 44.4494 18.5012L44.4491 18.5011L44.449 18.5011C44.3593 18.4666 44.2726 18.4333 44.1881 18.4021C43.1489 18.1102 42.7848 18.5084 42.7848 18.9332C42.7848 19.525 43.566 19.6423 44.7489 19.82L44.8644 19.8373L48.8401 20.4216C51.9324 20.8995 53.6474 21.7757 53.6474 24.1922C53.6474 27.7241 50.1914 29.0516 46.3976 28.9985C42.7584 28.9715 39.7973 27.644 39.7973 25.0414C39.7973 24.175 40.1107 23.5304 40.5793 23.0557ZM46.7091 10.2235C48.2164 10.2235 49.4115 11.3122 49.4115 13.0116C49.4115 14.5784 48.3723 15.7466 46.7611 15.7466C45.176 15.7466 44.0067 14.6049 44.0067 12.9585C44.0067 11.2591 45.254 10.2235 46.7091 10.2235ZM32.797 6.85412C28.8568 6.85412 25.7514 9.68069 25.7514 13.8672C25.7514 18.0271 28.8568 20.8537 32.797 20.8537C36.7112 20.8537 39.8164 18.0271 39.8164 13.8672C39.8164 9.68069 36.7112 6.85412 32.797 6.85412ZM36.3717 13.8673C36.3717 11.7074 34.8845 10.1073 32.7969 10.1073C30.6831 10.1073 29.1957 11.7074 29.1957 13.8673C29.1957 16.0272 30.6831 17.6005 32.7969 17.6005C34.8845 17.6005 36.3717 16.0272 36.3717 13.8673ZM39.216 2.86547C39.3624 3.69272 38.8249 4.48465 38.0154 4.63431V4.63412C36.2277 4.96465 34.4692 5.07502 32.9196 5.07521C29.9093 5.07521 27.6842 4.65914 27.5455 4.63257C26.7369 4.47793 26.204 3.68269 26.3553 2.85636C26.5067 2.03002 27.2849 1.48551 28.0935 1.64015C28.1753 1.65547 32.7985 2.50527 37.485 1.6386C38.2945 1.48894 39.0695 2.03823 39.216 2.86547Z" fill="#1A212A"/>
</svg>
