<svg xmlns="http://www.w3.org/2000/svg" width="463" height="93" viewBox="0 0 463 93">
  <g fill="none">
    <path fill="#f95000" d="M53.437 71.577c-10.064 0-18.222-8.158-18.222-18.222 0-10.064 8.158-18.222 18.222-18.222 10.064 0 18.222 8.158 18.222 18.222 0 4.833-1.92 9.468-5.337 12.885s-8.052 5.337-12.885 5.337"></path>
    <path fill="#000" d="M6.99 6.99H40.742000000000004V40.742000000000004H6.99z" transform="rotate(-45 23.866 23.866)"></path>
    <path fill="#000" d="M98.229 4.746H110.615V17.131999999999998H98.229z"></path>
    <g fill="#000">
      <path d="M21.307 31.589v19.885c0 5.161 3.728 5.255 10.8 4.874v11.185c-17.3 1.912-23.134-3.156-23.134-16.059V31.589H.656V19.737H32.11v11.852H21.307zM66.138 18.78v13.766c-6.4-.764-14.531 2.1-14.531 12.139v22.848H39.275v-47.8h12.332v8.22c2.486-6.5 8.509-9.176 14.531-9.176M107.492 43.634c0-8.03-5.639-13.479-13.288-13.479-7.551 0-13.192 5.449-13.192 13.479s5.641 13.48 13.192 13.48c7.649 0 13.288-5.45 13.288-13.48m12.331-23.9v47.8h-12.331v-5.64c-3.441 4.3-8.6 6.979-15.582 6.979-12.713 0-23.23-11-23.23-25.238S79.2 18.4 91.91 18.4c6.978 0 12.141 2.677 15.582 6.978v-5.64l12.331-.004zM163.28 43.635c0-8.03-5.64-13.48-13.191-13.48-7.648 0-13.289 5.45-13.289 13.48 0 8.03 5.641 13.478 13.289 13.478 7.551 0 13.191-5.449 13.191-13.478M175.611.617v66.915H163.28v-5.64c-3.441 4.4-8.508 6.979-15.485 6.979-12.81 0-23.326-10.994-23.326-25.236S134.985 18.4 147.8 18.4c6.977 0 12.044 2.582 15.485 6.979V.617h12.326zM217 39.141c-1.531-6.883-6.692-9.655-11.854-9.655-6.6 0-11.091 3.538-12.522 9.655H217zm-10.712 18.545c4.12.16 8.079-1.607 10.712-4.779l9.94 5.735c-4.493 6.5-11.662 10.229-20.839 10.229-16.059 0-26.191-10.994-26.191-25.237 0-14.243 10.223-25.234 25.232-25.234 14.147 0 24.183 11.185 24.183 25.236-.007 1.7-.167 3.396-.477 5.067H192.81c1.722 6.308 6.979 8.985 13.478 8.985" transform="translate(89.222 4.129)"></path>
    </g>
    <path fill="#f95000" d="M322.894 0.078H335.225V71.661H322.894z"></path>
    <g fill="#f95000">
      <path d="M64.356 38.186v29.347H52.024V39.715c0-6.5-3.918-9.846-9.465-9.846-6.021 0-10.514 3.537-10.514 11.854v25.81H19.714v-47.8h12.331v5.353c2.868-4.3 7.84-6.69 14.244-6.69 10.134 0 18.067 7.073 18.067 19.787M108.1 42.87c0-7.552-5.64-13-13.383-13-7.743 0-13.384 5.449-13.384 13 0 7.646 5.642 13.095 13.384 13.095S108.1 50.516 108.1 42.87m12.045-23.135v45.5c0 15.678-12.332 22.752-24.95 22.752-10.228 0-18.449-3.921-22.656-11.663l10.517-6.021c2.007 3.726 5.161 6.69 12.522 6.69 7.742 0 12.522-4.205 12.522-11.758v-5.161c-3.345 4.492-8.507 7.263-15.294 7.263-13.575 0-23.8-10.992-23.8-24.47C69 29.487 79.228 18.4 92.8 18.4c6.787 0 11.949 2.772 15.294 7.265v-5.93h12.051zM.635 7.357c-.007-2.725 1.632-5.184 4.15-6.225C7.301.09 10.198.672 12.118 2.605s2.483 4.834 1.424 7.345c-1.059 2.51-3.529 4.133-6.253 4.107-3.672-.05-6.63-3.027-6.655-6.7" transform="translate(341.222 4.129)"></path>
    </g>
    <path fill="#f95000" d="M324.561 41.597H372.35799999999995V53.928H324.561z" transform="rotate(-89.82 348.46 47.763)"></path>
  </g>
</svg>