<svg width="1152" height="230" viewBox="0 0 1152 230" fill="#006aff" xmlns="http://www.w3.org/2000/svg">
<path fill-rule="evenodd" clip-rule="evenodd" d="M95.3585 62.4781C95.647 62.4668 95.9205 62.3436 96.1202 62.1346L148.892 4.04517C149.017 3.91577 149.172 3.81793 149.342 3.75977C149.513 3.70154 149.695 3.68457 149.874 3.71027C163.107 5.63184 176.227 8.2652 189.177 11.5989L196.956 13.6005C197.2 13.6637 197.417 13.8063 197.572 14.006C197.727 14.2057 197.812 14.4513 197.812 14.704V22.977C197.812 54.09 196.727 81.9227 194.387 102.419C191.692 126.046 187.221 145.321 180.752 161.303C173.559 179.059 163.84 193.033 151.038 204.068C138 215.298 122.002 223.24 102.133 228.351L99.3663 229.062L96.5997 228.351C76.7349 223.244 60.7364 215.302 47.6836 204.072C34.8853 193.063 25.1397 179.086 17.8863 161.338C11.3633 145.374 6.81939 126.122 3.99224 102.483C1.55279 82.0558 0.300834 54.246 0.0649941 23.0721L5.26542e-05 14.7307C-0.00238875 14.4765 0.0801308 14.2287 0.234916 14.0267C0.389213 13.8248 0.606498 13.6801 0.852592 13.6157L8.69976 11.5989C38.1749 3.96039 68.4952 0.0634155 98.9439 0C105.944 0.00256348 112.96 0.215637 119.992 0.639282C120.211 0.650818 120.422 0.724976 120.6 0.852966C120.777 0.980957 120.915 1.15735 120.995 1.36115C121.075 1.56488 121.095 1.78741 121.052 2.0022C121.009 2.21698 120.906 2.41492 120.753 2.57245L100.778 23.1216C100.671 23.2313 100.542 23.3182 100.4 23.377C100.258 23.4359 100.106 23.4655 99.9527 23.4641H98.9439C73.6832 23.5068 48.5064 26.3762 23.8838 32.0186C23.626 32.0767 23.3965 32.2221 23.2344 32.4302C23.1558 32.5309 23.0953 32.6432 23.0543 32.7622C23.0108 32.8893 22.9898 33.024 22.9932 33.1603C23.9063 88.7495 28.7549 127.371 38.9156 152.235C50.275 180.06 68.9908 196.378 99.3663 204.837C129.769 196.385 148.416 180.075 159.68 152.288C169.807 127.298 174.454 88.6696 174.948 33.1793C174.955 32.9154 174.87 32.6574 174.707 32.4493C174.544 32.2411 174.315 32.0956 174.058 32.0377C167.888 30.6398 161.709 29.4094 155.521 28.3464C155.337 28.3145 155.149 28.328 154.972 28.3857C154.794 28.4434 154.634 28.5436 154.505 28.6775L97.2125 91.4247C97.0958 91.5471 96.9532 91.64 96.7974 91.6984C96.6871 91.7397 96.5699 91.7636 96.4502 91.7683C96.1612 91.7797 95.8794 91.6783 95.6636 91.4856L66.0298 65.3577C65.7989 65.1525 65.6563 64.8655 65.6329 64.5574C65.6094 64.2492 65.7071 63.944 65.9043 63.7062L78.0289 49.1581C78.1265 49.0436 78.2457 48.9495 78.3794 48.8812C78.4351 48.8527 78.4932 48.8289 78.5528 48.8101C78.6358 48.7837 78.7222 48.7668 78.8096 48.7601C78.9595 48.7484 79.1104 48.7665 79.253 48.8132C79.3023 48.8294 79.3506 48.8489 79.3975 48.8716C79.4854 48.9144 79.5679 48.9685 79.6421 49.0326L94.5713 62.1954C94.7872 62.3881 95.0694 62.4895 95.3585 62.4781ZM251.995 64.6994H296.52V180.384H324.445V64.6994H368.97V41.7034H251.995V64.6994ZM390.067 87.509H365.594V180.399H390.981V138.06C390.986 129.056 392.903 122.061 396.731 117.073C400.559 112.086 405.943 109.592 412.882 109.592C416.756 109.612 420.593 110.354 424.196 111.78L426.384 87.8743C422.96 86.5115 419.303 85.8303 415.618 85.8688C409.899 85.8714 404.881 87.3314 400.563 90.2488C396.245 93.1663 392.807 97.3637 390.25 102.841L390.067 87.509ZM449.525 173.191C455.302 179.942 463.667 183.318 474.619 183.318C480.941 183.318 486.504 182.101 491.306 179.668C496.012 177.328 499.917 173.645 502.529 169.085L502.711 180.399H527.196V87.509H501.829V137.512C501.808 144.932 500.159 150.681 496.881 154.758C493.604 158.835 488.92 160.873 482.831 160.873C471.76 160.876 466.224 153.637 466.224 139.156V87.509H440.856V143.89C440.859 156.673 443.748 166.441 449.525 173.191ZM558.364 180.855C564.925 182.525 571.671 183.353 578.441 183.318C590.967 183.323 600.789 180.773 607.908 175.669C615.027 170.564 618.586 163.508 618.586 154.499C618.601 146.348 616.199 139.961 611.378 135.339C606.558 130.717 598.313 126.702 586.643 123.295C580.315 121.471 576.088 119.798 573.962 118.276C572.941 117.581 572.112 116.64 571.553 115.538C570.994 114.437 570.723 113.212 570.766 111.978C570.766 107.234 575.206 104.862 584.085 104.862C588.862 104.893 593.615 105.533 598.23 106.764C602.803 107.893 607.199 109.641 611.299 111.959L614.217 91.8852C610.569 89.6984 605.885 87.9352 600.164 86.5957C594.542 85.2675 588.785 84.5932 583.008 84.5864C571.323 84.5864 562.135 87.1424 555.445 92.2543C548.754 97.3662 545.409 104.362 545.409 113.241C545.399 121.161 547.737 127.462 552.423 132.143C557.109 136.823 564.926 140.686 575.873 143.73C582.817 145.666 587.383 147.368 589.573 148.837C591.762 150.306 592.857 152.435 592.857 155.226C592.857 160.457 587.687 163.073 577.346 163.073C566.518 162.864 555.964 159.641 546.867 153.765L543.765 174.386C547.173 177.055 552.039 179.211 558.364 180.855ZM654.45 174.466C660.044 180.367 668.621 183.318 680.183 183.318C684.875 183.332 689.555 182.838 694.141 181.845C698.591 180.873 702.211 179.596 705.002 178.013L702.262 156.847C697.21 159.539 691.562 160.919 685.838 160.862C680.606 160.867 676.896 159.472 674.706 156.676C672.517 153.88 671.422 149.258 671.422 142.809V108.496H700.44V87.509H671.422V62.3248H646.054V87.509H627.986V108.496H646.054V147.376C646.057 159.535 648.856 168.565 654.45 174.466ZM743.453 87.509H719.182V225.108H744.549V169.645C747.594 174.031 751.751 177.527 756.594 179.775C761.582 182.147 767.179 183.333 773.384 183.333C781.898 183.333 789.563 181.049 796.377 176.483C803.148 171.967 808.596 165.731 812.162 158.415C815.874 150.929 817.73 142.683 817.73 133.68C817.727 123.948 815.841 115.34 812.071 107.856C808.301 100.378 803.161 94.6301 796.651 90.6142C790.141 86.5982 782.81 84.5902 774.659 84.5902C760.434 84.5928 750.159 89.5804 743.834 99.553L743.453 87.509ZM785.52 153.209C780.956 158.199 775.024 160.694 767.725 160.694C760.434 160.697 754.505 158.204 749.938 153.217C745.371 148.229 743.088 141.842 743.088 134.057C743.096 126.146 745.409 119.696 750.029 114.706C754.649 109.716 760.55 107.221 767.733 107.221C774.913 107.224 780.814 109.719 785.436 114.706C790.059 119.694 792.37 126.141 792.37 134.049C792.367 141.832 790.084 148.219 785.52 153.209ZM852.566 177.297C859.076 181.311 866.407 183.318 874.558 183.318C881.494 183.318 887.578 182.067 892.809 179.565C897.96 177.142 902.324 173.318 905.402 168.53L905.763 180.391H930.039V87.5013H905.763L905.402 99.5455C902.372 94.8185 898.114 91.004 893.083 88.5098C887.91 85.8942 882.161 84.5864 875.837 84.5864C867.317 84.5864 859.652 86.8697 852.84 91.4362C846.069 95.9479 840.621 102.18 837.054 109.493C833.345 116.984 831.491 125.229 831.491 134.228C831.491 143.962 833.376 152.57 837.146 160.051C840.916 167.535 846.056 173.284 852.566 177.297ZM899.195 153.209C894.57 158.199 888.669 160.694 881.492 160.694C874.309 160.689 868.406 158.194 863.781 153.209C859.156 148.224 856.843 141.776 856.843 133.866C856.848 126.083 859.132 119.696 863.693 114.706C868.255 109.716 874.185 107.221 881.484 107.221C888.781 107.224 894.712 109.719 899.279 114.706C903.846 119.694 906.129 126.081 906.129 133.866C906.131 141.771 903.82 148.219 899.195 153.209ZM972.467 224.652C978.949 226.015 985.552 226.719 992.176 226.752C1009.46 226.752 1022.49 222.281 1031.25 213.338C1040.01 204.396 1044.39 191.225 1044.39 173.827V87.5013H1020.12L1019.74 99.5455C1016.71 94.8185 1012.45 91.004 1007.42 88.5098C1002.24 85.8942 996.495 84.5864 990.17 84.5864C981.651 84.5864 973.985 86.8697 967.173 91.4362C960.398 95.946 954.945 102.177 951.373 109.489C947.664 116.981 945.809 125.226 945.809 134.224C945.809 143.958 947.694 152.566 951.464 160.047C955.234 167.531 960.374 173.28 966.884 177.294C973.394 181.307 980.725 183.314 988.876 183.314C995.823 183.314 1001.91 182.067 1007.14 179.573C1012.29 177.15 1016.66 173.325 1019.74 168.537V175.105C1019.74 185.083 1017.27 192.414 1012.35 197.097C1007.42 201.78 999.78 204.122 989.44 204.122C983.954 204.088 978.496 203.352 973.198 201.934C967.601 200.472 962.916 198.586 959.144 196.275L956.408 219.267C960.297 221.457 965.65 223.251 972.467 224.652ZM1013.53 153.205C1008.91 158.196 1003 160.691 995.825 160.691V160.694C988.643 160.687 982.739 158.19 978.114 153.205C973.489 148.22 971.177 141.773 971.177 133.863C971.182 126.079 973.465 119.693 978.027 114.702C982.588 109.712 988.519 107.217 995.818 107.217C1003.11 107.22 1009.05 109.715 1013.61 114.702C1018.18 119.69 1020.46 126.077 1020.46 133.863C1020.46 141.768 1018.15 148.215 1013.53 153.205ZM1085.8 177.48C1093.89 181.372 1103.35 183.318 1114.18 183.318C1120.86 183.337 1127.53 182.66 1134.07 181.297C1140.39 179.96 1145.75 178.074 1150.13 175.638L1147.57 155.747C1143.04 158.042 1138.23 159.739 1133.26 160.793C1127.89 161.957 1122.42 162.537 1116.92 162.525C1099.03 162.525 1088.5 155.59 1085.34 141.721H1150.86C1151.49 138.107 1151.8 134.442 1151.77 130.773C1151.77 121.282 1149.92 113.07 1146.2 106.136C1142.5 99.1928 1137.33 93.8652 1130.69 90.1537C1124.06 86.4422 1116.37 84.5864 1107.61 84.5864C1098.11 84.5864 1089.78 86.7428 1082.6 91.0556C1075.51 95.2841 1069.76 101.423 1066 108.77C1062.1 116.254 1060.16 124.679 1060.16 134.045C1060.16 144.145 1062.41 152.935 1066.91 160.417C1071.41 167.901 1077.71 173.588 1085.8 177.48ZM1121.2 109.135C1124.79 112.603 1126.89 117.56 1127.5 124.007H1085.16C1086.25 117.56 1088.68 112.603 1092.46 109.135C1096.23 105.667 1101.04 103.933 1106.87 103.933C1112.84 103.933 1117.62 105.667 1121.2 109.135ZM57.3497 143.905H141.003C141.192 143.907 141.378 143.955 141.544 144.046C141.709 144.137 141.85 144.268 141.952 144.427C142.055 144.586 142.117 144.768 142.131 144.956C142.147 145.145 142.114 145.334 142.038 145.507C138.868 152.844 134.868 159.161 129.86 164.462C129.753 164.575 129.624 164.664 129.48 164.725C129.337 164.786 129.183 164.817 129.027 164.816H69.3868C69.2315 164.816 69.0782 164.785 68.9351 164.724C68.8624 164.693 68.7935 164.655 68.7295 164.61C68.6675 164.566 68.6099 164.517 68.5572 164.462C63.5528 159.165 59.5225 152.844 56.3223 145.511C56.2452 145.338 56.2125 145.149 56.2266 144.961C56.2408 144.772 56.3018 144.59 56.4034 144.431C56.5054 144.272 56.6451 144.141 56.8101 144.049C56.9752 143.957 57.1607 143.908 57.3497 143.905ZM48.5665 108.18H149.638C149.799 108.18 149.959 108.214 150.106 108.28C150.254 108.346 150.385 108.443 150.493 108.564C150.6 108.685 150.68 108.827 150.728 108.981C150.776 109.135 150.791 109.298 150.772 109.459C149.973 115.773 148.813 122.037 147.297 128.219C147.234 128.466 147.091 128.685 146.89 128.84C146.689 128.996 146.441 129.08 146.186 129.079H52.1016C51.8482 129.08 51.6021 128.996 51.4014 128.841C51.2847 128.75 51.1871 128.639 51.1133 128.513C51.0606 128.423 51.0206 128.325 50.9942 128.223C49.4517 122.047 48.2603 115.788 47.4249 109.478C47.4092 109.364 47.4107 109.249 47.4293 109.137C47.4371 109.088 47.4483 109.04 47.4625 108.993C47.4883 108.907 47.524 108.824 47.5689 108.747C47.606 108.683 47.6495 108.623 47.6988 108.567C47.8072 108.444 47.9405 108.346 48.0904 108.279C48.2403 108.212 48.4024 108.178 48.5665 108.18Z" />
</svg>
