<svg width="128" height="36" viewBox="0 0 128 36" fill="none" xmlns="http://www.w3.org/2000/svg">
<path d="M34.5655 17.9244L28.0585 16.7206L27.3139 18.0099L25.4813 21.1828L20.7231 29.4212C20.5147 29.7819 19.9653 29.6335 19.9653 29.2166V22.2928V21.5412C19.9653 21.1509 19.6901 20.8153 19.3087 20.7404L11.8954 19.2841L5.25929 18.0708C5.26937 18.4155 5.35079 18.7586 5.50582 19.0761L10.9828 28.5803C11.7469 29.9063 13.1577 30.7221 14.6835 30.7201L25.1868 30.7061C26.7118 30.7041 28.1198 29.8854 28.8808 28.5585L34.2409 19.2113C34.4694 18.8138 34.5768 18.3679 34.5655 17.9244Z" fill="url(#paint0_linear_1504_2)"/>
<path d="M12.642 17.9885L14.4774 14.8035L19.2073 6.59532C19.4154 6.23423 19.9653 6.38245 19.9653 6.79966V14.471C19.9653 14.8617 20.2411 15.1976 20.6231 15.272L28.0585 16.7207L34.5655 17.9245C34.5572 17.5988 34.4841 17.2747 34.3464 16.9717C34.314 16.9004 34.2792 16.8299 34.2397 16.7613L28.8728 7.4239C28.1102 6.09727 26.7007 5.27997 25.1753 5.27997H14.6361C13.1082 5.27997 11.6968 6.09984 10.9352 7.42982L5.58357 16.775C5.57125 16.7964 5.56056 16.8184 5.54894 16.8401C5.34348 17.2237 5.24692 17.6483 5.25929 18.0709L11.8954 19.2842L12.642 17.9885Z" fill="url(#paint1_linear_1504_2)"/>
<path fill-rule="evenodd" clip-rule="evenodd" d="M55.4953 6.0437V24.8287L58.6893 24.8287V17.0129C58.6893 15.1534 59.9241 13.8597 61.6684 13.8597C63.3862 13.8597 64.3794 15.0185 64.3794 16.8782V24.8287H67.5733V16.42C67.5733 13.051 65.7482 10.9758 62.6347 10.9758C60.783 10.9758 59.3065 11.8383 58.6893 13.1319V6.0437H55.4953ZM51.8692 15.2341L53.8552 13.1587C52.406 11.5958 50.6077 10.8141 48.4336 10.8141C46.3668 10.8141 44.6221 11.5148 43.1995 12.8894C41.7772 14.2638 41.0792 15.9616 41.0792 18.0099C41.0792 20.0582 41.7772 21.7831 43.1995 23.1577C44.6221 24.5323 46.3668 25.2059 48.4336 25.2059C50.6077 25.2059 52.406 24.4244 53.8552 22.8611L51.8692 20.786C50.9295 21.7831 49.7754 22.2684 48.4336 22.2684C47.2526 22.2684 46.2594 21.864 45.4544 21.0555C44.676 20.2469 44.2731 19.2226 44.2731 18.0099C44.2731 16.7972 44.6759 15.7731 45.4544 14.9646C46.2594 14.156 47.2526 13.7518 48.4336 13.7518C49.7754 13.7518 50.9295 14.2368 51.8692 15.2341ZM80.5399 13.2129V11.2454H83.7608V24.8287H80.5399V22.8612C80.0836 24.1819 78.4462 25.1251 76.2186 25.1251C74.313 25.1251 72.7026 24.4514 71.3873 23.1038C70.099 21.7294 69.4548 20.0583 69.4548 18.037C69.4548 16.0158 70.099 14.3446 71.3873 12.9973C72.7026 11.6227 74.313 10.949 76.2186 10.949C78.4462 10.949 80.0836 11.8922 80.5399 13.2129ZM79.5737 21.0016C80.3787 20.2201 80.7816 19.2229 80.7816 18.037C80.7816 16.8512 80.3787 15.8539 79.5737 15.0724C78.7952 14.2909 77.802 13.8866 76.648 13.8866C75.494 13.8866 74.5546 14.2909 73.7762 15.0724C73.0247 15.8539 72.6487 16.8512 72.6487 18.037C72.6487 19.2229 73.0247 20.2201 73.7762 21.0016C74.5546 21.7831 75.494 22.1875 76.648 22.1875C77.802 22.1875 78.7952 21.7831 79.5737 21.0016ZM86.2329 6.0437V24.8287L89.4268 24.8287V20.867L90.7686 19.3577L95.0365 24.8287H98.6868L92.8354 17.3094L98.1231 11.2453H94.4189L89.4268 17.0129V6.0437H86.2329ZM99.7633 24.8287V11.2453H102.957V13.2666C103.601 11.8383 105.077 10.9758 106.983 10.9758C107.359 10.9758 107.681 11.0027 107.949 11.0568V14.1831C107.547 14.1021 107.09 14.0482 106.607 14.0482C104.38 14.0482 102.957 15.4497 102.957 17.6865V24.8286L99.7633 24.8287ZM119.521 11.2454V13.2129C119.065 11.8922 117.427 10.949 115.2 10.949C113.294 10.949 111.684 11.6227 110.368 12.9973C109.08 14.3446 108.436 16.0158 108.436 18.037C108.436 20.0583 109.08 21.7294 110.368 23.1038C111.684 24.4514 113.294 25.1251 115.2 25.1251C117.427 25.1251 119.065 24.1819 119.521 22.8612V24.8287H122.742V11.2454H119.521ZM119.763 18.037C119.763 19.2229 119.36 20.2201 118.555 21.0016C117.776 21.7831 116.783 22.1875 115.629 22.1875C114.475 22.1875 113.536 21.7831 112.757 21.0016C112.006 20.2201 111.63 19.2229 111.63 18.037C111.63 16.8512 112.006 15.8539 112.757 15.0724C113.536 14.2909 114.475 13.8866 115.629 13.8866C116.783 13.8866 117.776 14.2909 118.555 15.0724C119.36 15.8539 119.763 16.8512 119.763 18.037Z" fill="white"/>
<defs>
<linearGradient id="paint0_linear_1504_2" x1="33.9534" y1="23.645" x2="5.78627" y2="23.9059" gradientUnits="userSpaceOnUse">
<stop stop-color="#3585A3"/>
<stop offset="1" stop-color="#00DEAE"/>
</linearGradient>
<linearGradient id="paint1_linear_1504_2" x1="6.67767" y1="12.4545" x2="31.7007" y2="11.8021" gradientUnits="userSpaceOnUse">
<stop stop-color="#3585A3"/>
<stop offset="1" stop-color="#00DEAE"/>
</linearGradient>
</defs>
</svg>
