<svg width="30" height="26" viewBox="0 0 30 26" fill="none" xmlns="http://www.w3.org/2000/svg">
<path d="M29.3072 12.6445L22.8002 11.4407L22.0556 12.7299L20.2231 15.9028L15.4648 24.1413C15.2565 24.502 14.707 24.3536 14.707 23.9366V17.0128V16.2612C14.707 15.871 14.4319 15.5353 14.0504 15.4604L6.63715 14.0042L0.00105667 12.7909C0.011135 13.1356 0.09255 13.4786 0.24758 13.7961L5.72453 23.3003C6.48867 24.6264 7.89951 25.4421 9.42526 25.4401L19.9286 25.4262C21.4535 25.4241 22.8616 24.6055 23.6225 23.2785L28.9826 13.9313C29.2112 13.5338 29.3186 13.0879 29.3072 12.6445Z" fill="url(#paint0_linear_1505_55)"/>
<path d="M7.38373 12.7086L9.21912 9.5235L13.949 1.31535C14.1571 0.95426 14.707 1.10249 14.707 1.51969V9.19102C14.707 9.58174 14.9829 9.91763 15.3649 9.99206L22.8002 11.4407L29.3072 12.6445C29.2989 12.3188 29.2258 11.9948 29.0881 11.6918C29.0557 11.6205 29.021 11.55 28.9814 11.4813L23.6145 2.14393C22.852 0.817299 21.4425 0 19.917 0H9.37785C7.84998 0 6.43859 0.819868 5.67697 2.14985L0.32533 11.495C0.313008 11.5164 0.302316 11.5385 0.290696 11.5602C0.0852387 11.9438 -0.0113201 12.3683 0.00105427 12.7909L6.63715 14.0042L7.38373 12.7086Z" fill="url(#paint1_linear_1505_55)"/>
<defs>
<linearGradient id="paint0_linear_1505_55" x1="28.6952" y1="18.365" x2="0.528037" y2="18.6259" gradientUnits="userSpaceOnUse">
<stop stop-color="#3585A3"/>
<stop offset="1" stop-color="#00DEAE"/>
</linearGradient>
<linearGradient id="paint1_linear_1505_55" x1="1.41943" y1="7.17451" x2="26.4424" y2="6.52215" gradientUnits="userSpaceOnUse">
<stop stop-color="#3585A3"/>
<stop offset="1" stop-color="#00DEAE"/>
</linearGradient>
</defs>
</svg>
