<svg width="127" height="127" viewBox="0 0 127 127" fill="none" xmlns="http://www.w3.org/2000/svg">
<path d="M127 63.5C127 28.4299 98.5701 0 63.5 0C28.4299 0 0 28.4299 0 63.5C0 98.5701 28.4299 127 63.5 127C98.5701 127 127 98.5701 127 63.5Z" fill="url(#paint0_linear)"/>
<path d="M34.373 66.2105L77.6578 23.2236C78.4662 22.4206 79.7679 23.3978 79.2218 24.3983L63.1116 53.9256C62.7518 54.5838 63.2287 55.3873 63.9788 55.3873H91.82C92.7169 55.3873 93.1498 56.4858 92.4941 57.0981L43.7064 102.631C42.8316 103.448 41.5296 102.297 42.2319 101.329L65.3269 69.4685C65.8003 68.8152 65.3338 67.9 64.5269 67.9H35.0695C34.1873 67.9 33.7471 66.8321 34.373 66.2105Z" fill="white"/>
<defs>
<linearGradient id="paint0_linear" x1="63.5" y1="0" x2="63.5" y2="127" gradientUnits="userSpaceOnUse">
<stop stop-color="#7BCBD4"/>
<stop offset="1" stop-color="#29C6B7"/>
</linearGradient>
</defs>
</svg>
