<svg width="123" height="127" viewBox="0 0 123 127" fill="none" xmlns="http://www.w3.org/2000/svg">
<path d="M61.7087 126.94C36.0278 126.974 14.8495 106.8 13.571 81.097V81.0036C8.88324 80.412 5.03589 77.0026 3.87637 72.4124C2.53083 67.1307 0.70819 59.2418 0.492008 51.6591C0.351762 47.2729 2.876 43.2384 6.87683 41.4543C10.8054 39.6875 16.4075 38.2419 23.4706 37.1475C27.4216 27.996 32.0844 20.0399 37.0156 14.0447C44.6975 4.72515 53.0056 0 61.7087 0C70.4119 0 78.7126 4.72515 86.3833 14.0484C91.2921 20.0436 95.9735 27.9886 99.917 37.1214C106.932 38.1822 112.526 39.6352 116.563 41.4356C120.562 43.2128 123.088 47.2402 122.952 51.6218C122.735 59.2455 120.916 67.1382 119.571 72.4087C118.413 77.0078 114.558 80.4236 109.861 81.0111V81.097C108.547 106.796 87.3637 126.952 61.6864 126.937L61.705 126.94H61.7087Z" fill="white"/>
<path d="M61.6789 8.03088C83.9792 8.03088 102.06 56.0668 102.06 78.4188C102.06 100.771 83.9829 118.891 61.6752 118.891C39.3749 118.891 21.2939 100.775 21.2939 78.4188C21.2976 56.0668 39.3786 8.03088 61.6789 8.03088Z" fill="#FCFBFA"/>
<path d="M112.884 46.7995L96.4097 52.6228C96.4097 52.6228 98.9591 60.3922 98.9815 60.4483C99.0076 60.508 115.396 58.3304 115.396 58.3304L112.884 46.7995ZM10.4737 46.7995L26.9482 52.6228C26.9482 52.6228 24.4025 60.3922 24.3764 60.4483C24.354 60.508 7.96893 58.3304 7.96893 58.3304L10.4774 46.7995H10.4737Z" fill="#252526"/>
<path d="M44.7273 45.4212C47.2958 45.3608 49.5136 47.2117 49.9194 49.7541C50.4412 52.5631 50.7878 55.4056 50.9518 58.2631C50.9675 59.063 50.895 59.8623 50.7356 60.6462C50.5451 58.7282 50.274 56.819 49.9231 54.9238C49.5174 52.3814 47.2995 50.5305 44.731 50.5908C38.5437 50.6543 32.3565 51.125 26.2288 52.0028C26.8103 50.1949 27.4327 48.3795 28.0999 46.5866C33.6143 45.867 39.1666 45.4779 44.7273 45.4212ZM101.986 76.6221C87.4418 75.8713 75.0188 71.2059 72.2159 69.54C70.028 68.4941 67.24 66.2716 66.4386 60.7172C65.9019 66.8356 67.0536 72.4087 72.7862 75.1616C73.2074 75.4156 84.1805 80.8579 101.889 81.7917C102.032 80.0724 102.064 78.3456 101.986 76.6221ZM21.4169 76.6221C35.9607 75.8713 48.3837 71.2059 51.1866 69.54C53.3746 68.4941 56.1626 66.2716 56.9639 60.7172C57.5006 66.8356 56.3489 72.4087 50.6164 75.1616C50.1952 75.4156 39.2221 80.8579 21.5138 81.7917C21.3709 80.0724 21.3385 78.3456 21.4169 76.6221ZM78.5896 45.4212C76.0211 45.3608 73.8032 47.2117 73.3975 49.7541C72.8756 52.5631 72.5327 55.4056 72.3687 58.2631C72.3512 59.0631 72.4237 59.8625 72.5849 60.6462C72.7899 58.5881 73.0732 56.6271 73.3937 54.9238C73.8025 52.3831 76.0185 50.5338 78.5858 50.5908C84.7768 50.6543 90.9604 51.125 97.088 52.0028C96.5054 50.1834 95.8815 48.3775 95.2169 46.5866C89.7038 45.8672 84.1527 45.478 78.5933 45.4212H78.5896Z" fill="#E0E0E0"/>
<path d="M26.3556 41.0434C30.3214 31.4064 35.0774 23.0654 40.1092 16.9246C46.9637 8.59491 54.2169 4.37403 61.6678 4.37403C69.1223 4.37403 76.3756 8.59491 83.2263 16.9171C88.2768 23.0505 93.0514 31.3914 96.9799 41.0397L97.1738 41.5327L96.6818 41.4618C95.2803 41.275 94.1435 41.1405 92.7532 40.9687H92.578L92.5109 40.8118C88.0494 30.3754 80.4346 16.7453 70.5983 11.0527C67.9038 9.40861 64.8219 8.51142 61.6678 8.45297C58.5149 8.51208 55.4343 9.40925 52.7409 11.0527C42.927 16.7379 35.3346 30.3044 30.8358 40.7969L30.7687 40.9538H30.5972C29.1958 41.1032 28.0552 41.2414 26.6649 41.4468L26.1767 41.5178L26.3556 41.0434ZM102.448 71.5832C101.352 71.5533 100.249 71.5085 99.1604 71.445H98.825L98.7802 71.1051C97.7962 63.4328 95.5971 54.4456 92.5408 45.8134L92.3432 45.1672L93.0067 45.2568C94.2553 45.4249 95.4629 45.6117 96.6408 45.8097L96.883 45.847L96.9613 46.0786C99.9059 54.6997 101.993 63.5934 102.888 71.1237L102.944 71.6168L102.448 71.5794V71.5832Z" fill="#56555C"/>
<path d="M98.8473 52.1447C98.2538 50.1115 97.6163 48.0915 96.9352 46.0861L96.8607 45.8545L96.6184 45.8134C95.4592 45.6154 94.2329 45.4286 92.9843 45.2606L92.3432 45.1672L92.5668 45.8022C93.2415 47.7146 93.8751 49.6421 94.4677 51.5769C96.5625 51.8197 97.7477 51.9878 98.8473 52.1447Z" fill="#252526"/>
<path d="M20.7684 70.9519C21.6629 63.4216 23.7688 54.5278 26.6948 45.9068L26.773 45.6752L27.0153 45.6304C28.1745 45.4361 29.4008 45.2456 30.6494 45.0813L31.3128 44.9916L31.0892 45.6229C28.0403 54.2551 25.8263 63.2348 24.8535 70.9108L24.8088 71.2545H24.4733C23.3812 71.318 22.2742 71.3628 21.1858 71.3889H20.6938L20.7684 70.9519Z" fill="#56555C"/>
<path d="M27.0153 45.6304L26.773 45.6677L26.6985 45.903C26.0173 47.9122 25.3798 49.936 24.7864 51.9729C26.8364 51.7114 27.429 51.7413 29.1436 51.5583C29.7474 49.5898 30.3959 47.5839 31.1078 45.6192L31.3315 44.9916L30.6643 45.0813C29.4455 45.2472 28.229 45.4302 27.0153 45.6304Z" fill="#252526"/>
<path d="M61.6789 122.525C43.5906 122.527 27.3414 111.442 20.7087 94.5777C18.4799 88.863 17.4497 82.7495 17.6822 76.6183V76.3419H17.958C19.393 76.3046 20.3733 76.2672 21.3945 76.2149H21.7151V76.5324C20.9244 93.2148 30.542 108.639 45.8505 115.24C61.1591 121.84 78.9475 118.233 90.4907 106.187C94.1485 102.385 97.0123 97.8894 98.9144 92.964C100.942 87.7346 101.848 82.1391 101.583 76.5399V76.2187H101.904C103.331 76.2934 104.315 76.3233 105.34 76.3457H105.616V76.6221C105.869 82.7446 104.863 88.8539 102.66 94.5702C96.0426 111.449 79.7859 122.544 61.6901 122.533H61.6789V122.525Z" fill="#56555C"/>
<path d="M21.853 81.7955C21.7114 80.0399 21.6741 78.2731 21.7449 76.51V76.1888H21.4244C20.3956 76.2448 19.4116 76.2822 17.9878 76.3195H17.712V76.5922C17.6524 78.3627 17.6896 80.1333 17.8313 81.8963H17.9617C19.2886 81.8963 20.5857 81.8366 21.8195 81.7768L21.853 81.7955ZM105.65 76.3382H105.374C104.334 76.3382 103.35 76.2822 101.937 76.2112H101.617V76.5287C101.691 78.2768 101.654 80.0249 101.516 81.7656L105.541 81.9412C105.683 80.1744 105.72 78.4076 105.661 76.637L105.65 76.3382Z" fill="#252526"/>
<path d="M107.919 77.2384C99.5005 77.2699 91.114 76.1898 82.9766 74.0261C79.4729 73.1034 76.0625 71.8596 72.7862 70.3244L72.7079 70.2646C65.8311 66.9701 65.5777 60.3661 66.2188 54.3448C66.379 52.8245 65.8237 50.8112 64.2247 49.7429C62.6991 48.7229 60.7109 48.7229 59.1854 49.7429C57.5827 50.8037 57.0273 52.8133 57.1876 54.3299C57.8287 60.3549 57.5603 66.9589 50.7021 70.2534L50.6238 70.2908C47.3457 71.8456 43.9337 73.0995 40.4297 74.0373C32.2923 76.201 23.9058 77.2811 15.4868 77.2496H15.4496C11.9563 77.2071 8.93017 74.8111 8.08074 71.4151C6.7762 66.3612 5.03556 58.7898 4.83429 51.6853C4.74384 48.8416 6.37896 46.2257 8.97156 45.0663C18.4388 40.8566 37.6045 39.2729 45.7784 39.3812C48.6297 39.3588 51.3693 40.4943 53.3746 42.5263C55.9899 41.2978 58.8356 40.6396 61.7237 40.5952C64.6112 40.637 67.4569 41.2927 70.0727 42.5189C72.0619 40.5002 74.7784 39.3693 77.6093 39.3812C82.5218 39.3065 103.641 40.2216 114.446 45.0402C117.035 46.1895 118.671 48.7965 118.583 51.633C118.382 58.7487 116.619 66.3612 115.355 71.4039C114.506 74.7999 111.48 77.1959 107.987 77.2384H107.919ZM78.638 45.7349C76.213 45.681 74.1189 47.4258 73.7292 49.8251C73.2074 52.6266 72.8645 55.4542 72.6967 58.2967C72.6595 61.5464 73.8224 63.7689 76.1333 64.9082C84.7955 68.778 94.8591 70.6904 106.902 70.7502C107.825 70.7455 108.63 70.1207 108.866 69.2262C110.01 64.7439 111.554 58.0764 111.732 51.9467C111.752 51.3594 111.412 50.8196 110.875 50.5834C102.66 46.8817 85.0564 45.6154 78.638 45.7163V45.7349ZM12.4789 50.5721C11.9435 50.8096 11.6057 51.3491 11.6254 51.9355C11.8043 58.0502 13.3474 64.7364 14.4917 69.215C14.7227 70.1115 15.5316 70.739 16.4559 70.7427C28.5099 70.683 38.5587 68.7705 47.2469 64.8933C49.5653 63.7615 50.7245 61.5315 50.6872 58.2706C50.5201 55.4314 50.174 52.6056 49.651 49.8101C49.2611 47.4094 47.1649 45.6642 44.7385 45.72C41 45.6602 21.7859 46.4185 12.4827 50.5759L12.4789 50.5721Z" fill="#252526"/>
</svg>
