<?xml version="1.0" encoding="UTF-8"?>
<svg width="301px" height="81px" viewBox="0 0 301 81" version="1.1" xmlns="http://www.w3.org/2000/svg" xmlns:xlink="http://www.w3.org/1999/xlink">
    <!-- Generator: Sketch 63 (92445) - https://sketch.com -->
    <title>logo_full</title>
    <desc>Created with Sketch.</desc>
    <g id="Page-1" stroke="none" stroke-width="1" fill="none" fill-rule="evenodd">
        <g id="logos" transform="translate(-92.000000, -194.000000)">
            <g id="logo_full" transform="translate(92.000000, 194.000000)">
                <path d="M130.4,80 L131.2,78.9 C131.2,78.7666667 131.133333,78.6333333 131,78.5 C129.933333,75.9 129.4,70.7666667 129.4,63.1 L129.4,1.3 L128.4,0.5 C126.6,0.9 124.716667,1.26666667 122.75,1.6 C120.783333,1.93333333 118.733333,2.16666667 116.6,2.3 L116.6,2.3 L115.9,3.6 C116.433333,4.66666667 116.7,6.06666667 116.7,7.8 L116.7,7.8 L116.7,79.1 L117.6,80 L130.4,80 Z M98.3,79.6 L99.4,78.3 C99.2,77.9666667 99,77.6166667 98.8,77.25 C98.6,76.8833333 98.4,76.5333333 98.2,76.2 C96.4666667,72.0666667 95.6,64.9666667 95.6,54.9 C95.6,53.6333333 95.6333333,51.95 95.7,49.85 C95.7666667,47.75 95.9833333,45.5666667 96.35,43.3 C96.7166667,41.0333333 97.3,38.8666667 98.1,36.8 C98.9,34.7333333 100.066667,33.1 101.6,31.9 L101.6,31.9 L100.9,30.3 C95.4333333,30.7 90.8666667,32.9333333 87.2,37 C83.0666667,41.5333333 81,47.3333333 81,54.4 C81,63.8666667 84.7666667,71.1666667 92.3,76.3 C93.2333333,77.0333333 94.2166667,77.6666667 95.25,78.2 C96.2833333,78.7333333 97.3,79.2 98.3,79.6 L98.3,79.6 Z M158.260257,80.1 L159.260257,78.7 C158.79359,78.1 158.360257,77.3666667 157.960257,76.5 C156.826924,74.1 155.976924,70.9166667 155.410257,66.95 C154.84359,62.9833333 154.560257,58.1666667 154.560257,52.5 C154.560257,48.4333333 154.810257,44.8333333 155.310257,41.7 C155.810257,38.5666667 156.526924,35.8 157.460257,33.4 C157.660257,32.8 157.910257,32.2333333 158.210257,31.7 C158.510257,31.1666667 158.826924,30.6333333 159.160257,30.1 L159.160257,30.1 L158.060257,28.8 C154.126924,30 150.560257,32.2 147.360257,35.4 C144.69359,38.1333333 142.69359,41.0666667 141.360257,44.2 C140.026924,47.3333333 139.360257,50.8333333 139.360257,54.7 C139.360257,58.3 140.026924,61.6333333 141.360257,64.7 C142.69359,67.7666667 144.69359,70.6666667 147.360257,73.4 C150.69359,76.6 154.326924,78.8333333 158.260257,80.1 L158.260257,80.1 Z M175.960257,79.7 C177.29359,79.1666667 178.59359,78.5166667 179.860257,77.75 C181.126924,76.9833333 182.39359,76.1333333 183.660257,75.2 C190.260257,70 193.560257,63.2333333 193.560257,54.9 C193.560257,47.3666667 190.89359,40.9 185.560257,35.5 C182.560257,32.3 179.19359,30.0666667 175.460257,28.8 L175.460257,28.8 L174.360257,30.1 C174.626924,30.6333333 174.89359,31.1333333 175.160257,31.6 C175.426924,32.0666667 175.660257,32.5666667 175.860257,33.1 C177.260257,37.2333333 177.960257,44.5333333 177.960257,55 C177.960257,59.3333333 177.826924,63.1166667 177.560257,66.35 C177.29359,69.5833333 176.860257,72.3666667 176.260257,74.7 C176.060257,75.4333333 175.84359,76.0833333 175.610257,76.65 C175.376924,77.2166667 175.09359,77.7666667 174.760257,78.3 L174.760257,78.3 L175.960257,79.7 Z M214.520514,80 L215.420514,78.9 C215.287181,78.6333333 215.220514,78.5 215.220514,78.5 C214.153847,75.9 213.620514,70.7666667 213.620514,63.1 L213.620514,63.1 L213.620514,1.3 L212.520514,0.5 C210.720514,0.9 208.853847,1.26666667 206.920514,1.6 C204.987181,1.93333333 202.953847,2.16666667 200.820514,2.3 L200.820514,2.3 L200.120514,3.6 C200.587181,4.53333333 200.820514,5.93333333 200.820514,7.8 L200.820514,7.8 L200.820514,77.8 C200.820514,78.4 200.853847,78.8333333 200.920514,79.1 L200.920514,79.1 L201.720514,80 L214.520514,80 Z M238.120514,32.7 L246.020514,24.8 L246.120514,24.8 L245.520514,23.2 L227.920514,23.2 L227.520514,24.9 C231.453847,27.1 234.553847,29.6666667 236.820514,32.6 L236.820514,32.6 L237.120514,32.6 L238.120514,32.7 Z M247.220514,80.3 L248.020514,78.9 L247.420514,78 L246.320514,76.6 L244.320514,73.6 C243.720514,72.6666667 243.303847,72.0333333 243.070514,71.7 C242.837181,71.3666667 242.687181,71.1333333 242.620514,71 C241.753847,69.8 241.037181,68.75 240.470514,67.85 C239.903847,66.95 239.453847,66.2333333 239.120514,65.7 L239.120514,65.7 L225.820514,45.4 L224.320514,45.3 L222.820514,47.1 C221.687181,48.4333333 220.670514,49.5666667 219.770514,50.5 C218.870514,51.4333333 218.087181,52.2333333 217.420514,52.9 L217.420514,52.9 L217.320514,54 C218.387181,55.6 219.320514,57.0666667 220.120514,58.4 C220.920514,59.7333333 221.620514,60.9333333 222.220514,62 C224.020514,65 225.420514,67.2 226.420514,68.6 C227.687181,70.7333333 228.687181,72.4333333 229.420514,73.7 C230.153847,74.9666667 230.670514,75.95 230.970514,76.65 C231.270514,77.35 231.453847,77.8333333 231.520514,78.1 C231.587181,78.3666667 231.620514,78.6 231.620514,78.8 L231.620514,78.8 L231.620514,79.2 L232.420514,80.3 L247.220514,80.3 Z M261.180771,40.5 C262.314104,38.5666667 263.580771,36.7666667 264.980771,35.1 C266.380771,33.4333333 267.847438,32 269.380771,30.8 L269.380771,30.8 L268.880771,29.1 L260.380771,29.1 L259.480771,30 L259.480771,40.1 L261.180771,40.5 Z M271.880771,80 L272.680771,79.6 L294.280771,41 C295.814104,38.4 297.030771,36.25 297.930771,34.55 C298.830771,32.85 299.547438,31.5 300.080771,30.5 L300.080771,30.5 L299.280771,29.2 L287.880771,29.2 L287.080771,29.6 L283.880771,35.4 C281.814104,39 279.914104,42.3333333 278.180771,45.4 C276.447438,48.4666667 274.814104,51.2 273.280771,53.6 C271.547438,57 269.880771,60.1166667 268.280771,62.95 C266.680771,65.7833333 265.214104,68.4333333 263.880771,70.9 C263.014104,72.3666667 262.230771,73.75 261.530771,75.05 C260.830771,76.35 260.180771,77.5666667 259.580771,78.7 L259.580771,78.7 L260.380771,80 L271.880771,80 Z M299.280771,79.9 L300.180771,79 L300.180771,69 L298.580771,68.5 C296.247438,72.5 293.480771,75.7666667 290.280771,78.3 L290.280771,78.3 L290.880771,79.9 L299.280771,79.9 Z" id="dokz" fill="#2D3748" fill-rule="nonzero"></path>
                <g id="book-heart-copy" transform="translate(0.000000, 7.000000)" fill-rule="nonzero">
                    <path d="M13.4563179,64 C10.7825271,64 9,62 9,59 C9,56 11.2281589,54 13.4563179,54 L57.9261922,54 C57.6574206,56.5375 57.6810948,61.559375 58,64 L13.4563179,64 Z" id="Path" fill="#858585" opacity="0.4"></path>
                    <path d="M13.5,54.75 L59.625,54.75 C61.488961,54.75 63,53.2179744 63,51.328125 L63,4.5625 C63,2.04270083 60.9852814,0 58.5,0 L13.5,0 C6.04415588,0 0,6.12810249 0,13.6875 L0,59.3125 C0,66.8718975 6.04415588,73 13.5,73 L59.625,73 C61.488961,73 63,71.4679744 63,69.578125 L63,67.296875 C63,65.4070256 61.488961,63.875 59.625,63.875 L13.5,63.875 C10.8,63.875 9,62.05 9,59.3125 C9,56.575 11.25,54.75 13.5,54.75 Z" id="Shape" fill="#2D3748"></path>
                </g>
                <polyline id="Path" stroke="#FFFFFF" stroke-width="3" stroke-linecap="round" stroke-linejoin="round" points="27 18.5 20.5 18.5 14 18.5"></polyline>
                <line x1="47.4285714" y1="30.0862069" x2="14" y2="30.0862069" id="Path" stroke="#FFFFFF" stroke-width="3" stroke-linecap="round" stroke-linejoin="round"></line>
            </g>
        </g>
    </g>
</svg>