<svg width="400" height="300" viewBox="0 0 400 300" fill="none" xmlns="http://www.w3.org/2000/svg">
 
<g filter="url(#filter0_i_3_362)">
<rect width="279" height="54" transform="translate(61 123)" fill="#C6F6D5"/>
<g clip-path="url(#clip0_3_362)">
<path d="M88 138C85.6266 138 83.3066 138.704 81.3332 140.022C79.3598 141.341 77.8217 143.215 76.9135 145.408C76.0052 147.601 75.7676 150.013 76.2306 152.341C76.6936 154.669 77.8365 156.807 79.5147 158.485C81.193 160.164 83.3312 161.306 85.6589 161.769C87.9867 162.232 90.3995 161.995 92.5922 161.087C94.7849 160.178 96.6591 158.64 97.9776 156.667C99.2962 154.693 100 152.373 100 150C99.9963 146.819 98.7308 143.768 96.4812 141.519C94.2316 139.269 91.1815 138.004 88 138V138ZM94.927 146.2L88.082 155.489C88.0012 155.596 87.8998 155.686 87.7838 155.754C87.6678 155.822 87.5395 155.865 87.4064 155.883C87.2733 155.9 87.138 155.891 87.0085 155.856C86.879 155.82 86.7578 155.76 86.652 155.677L81.764 151.769C81.6614 151.687 81.5761 151.585 81.5127 151.47C81.4494 151.355 81.4093 151.229 81.3948 151.098C81.3656 150.835 81.4422 150.57 81.608 150.363C81.7738 150.156 82.015 150.023 82.2787 149.994C82.5424 149.965 82.8069 150.041 83.014 150.207L87.09 153.468L93.317 145.017C93.392 144.905 93.489 144.808 93.6021 144.734C93.7153 144.66 93.8423 144.61 93.9754 144.587C94.1085 144.563 94.245 144.567 94.3767 144.598C94.5083 144.629 94.6323 144.686 94.7413 144.766C94.8502 144.846 94.9418 144.947 95.0105 145.063C95.0792 145.18 95.1235 145.309 95.1409 145.443C95.1582 145.577 95.1482 145.713 95.1115 145.843C95.0747 145.974 95.012 146.095 94.927 146.2Z" fill="#48BB78"/>
</g>
<path fill-rule="evenodd" clip-rule="evenodd" d="M112 150C112 147.515 114.015 145.5 116.5 145.5H237.5C239.985 145.5 242 147.515 242 150C242 152.485 239.985 154.5 237.5 154.5H116.5C114.015 154.5 112 152.485 112 150Z" fill="#4A5568"/>
<g clip-path="url(#clip1_3_362)">
<path d="M309.293 156.293C309.105 156.481 309 156.735 309 157.001C309 157.266 309.105 157.52 309.293 157.708C309.481 157.895 309.735 158 310 158C310.265 158 310.52 157.895 310.707 157.707L316.882 151.533C316.897 151.518 316.916 151.505 316.936 151.497C316.956 151.489 316.978 151.484 317 151.484C317.022 151.484 317.044 151.489 317.064 151.497C317.084 151.505 317.102 151.518 317.118 151.533L323.293 157.709C323.385 157.802 323.496 157.875 323.617 157.926C323.738 157.976 323.868 158.002 324 158.002C324.131 158.002 324.261 157.976 324.382 157.926C324.504 157.875 324.614 157.802 324.707 157.709C324.8 157.616 324.874 157.506 324.924 157.385C324.974 157.263 325 157.133 325 157.002C325 156.871 324.974 156.74 324.924 156.619C324.874 156.498 324.8 156.388 324.707 156.295L318.533 150.118C318.518 150.102 318.505 150.084 318.497 150.064C318.489 150.044 318.484 150.022 318.484 150C318.484 149.978 318.489 149.956 318.497 149.936C318.505 149.916 318.518 149.897 318.533 149.882L324.709 143.707C324.896 143.52 325.001 143.265 325.001 143C325.001 142.734 324.895 142.48 324.708 142.292C324.52 142.105 324.265 142 324 142C323.735 142 323.48 142.106 323.293 142.293L317.118 148.467C317.102 148.482 317.084 148.494 317.064 148.503C317.044 148.511 317.022 148.516 317 148.516C316.978 148.516 316.956 148.511 316.936 148.503C316.916 148.494 316.897 148.482 316.882 148.467L310.707 142.293C310.614 142.2 310.504 142.127 310.383 142.076C310.262 142.026 310.132 142 310 142C309.735 142 309.481 142.105 309.293 142.293C309.105 142.48 309 142.735 309 143C309 143.265 309.105 143.52 309.293 143.707L315.467 149.882C315.482 149.897 315.494 149.916 315.503 149.936C315.511 149.956 315.516 149.978 315.516 150C315.516 150.022 315.511 150.044 315.503 150.064C315.494 150.084 315.482 150.102 315.467 150.118L309.293 156.293Z" fill="#4A5568"/>
</g>
</g>
<defs>
<filter id="filter0_i_3_362" x="61" y="123" width="279" height="54" filterUnits="userSpaceOnUse" color-interpolation-filters="sRGB">
<feFlood flood-opacity="0" result="BackgroundImageFix"/>
<feBlend mode="normal" in="SourceGraphic" in2="BackgroundImageFix" result="shape"/>
<feColorMatrix in="SourceAlpha" type="matrix" values="0 0 0 0 0 0 0 0 0 0 0 0 0 0 0 0 0 0 127 0" result="hardAlpha"/>
<feOffset dy="4"/>
<feComposite in2="hardAlpha" operator="arithmetic" k2="-1" k3="1"/>
<feColorMatrix type="matrix" values="0 0 0 0 0.282353 0 0 0 0 0.733333 0 0 0 0 0.470588 0 0 0 1 0"/>
<feBlend mode="normal" in2="shape" result="effect1_innerShadow_3_362"/>
</filter>
<clipPath id="clip0_3_362">
<rect width="24" height="24" fill="white" transform="translate(76 138)"/>
</clipPath>
<clipPath id="clip1_3_362">
<rect width="16" height="16" fill="white" transform="translate(309 142)"/>
</clipPath>
</defs>
</svg>
