<svg width="400" height="300" viewBox="0 0 400 300" fill="none" xmlns="http://www.w3.org/2000/svg">
 
<rect x="232" y="122" width="57" height="57" rx="28.5" fill="#A0AEC0"/>
<path d="M253.085 155.315V145.472H254.756V155.315H253.085ZM248.999 151.229V149.558H258.842V151.229H248.999ZM267.704 158.209C266.719 158.209 265.842 158.04 265.071 157.702C264.305 157.364 263.696 156.894 263.244 156.292C262.797 155.686 262.553 154.982 262.513 154.182H264.392C264.432 154.674 264.601 155.099 264.9 155.457C265.198 155.81 265.588 156.083 266.07 156.277C266.553 156.471 267.087 156.568 267.674 156.568C268.33 156.568 268.912 156.454 269.419 156.225C269.926 155.996 270.324 155.678 270.612 155.271C270.9 154.863 271.044 154.391 271.044 153.854C271.044 153.292 270.905 152.797 270.627 152.37C270.348 151.937 269.941 151.599 269.404 151.355C268.867 151.112 268.211 150.99 267.435 150.99H266.212V149.349H267.435C268.042 149.349 268.574 149.24 269.031 149.021C269.493 148.803 269.854 148.494 270.112 148.097C270.376 147.699 270.508 147.232 270.508 146.695C270.508 146.178 270.393 145.728 270.165 145.345C269.936 144.962 269.613 144.664 269.195 144.45C268.782 144.236 268.295 144.129 267.733 144.129C267.206 144.129 266.709 144.226 266.242 144.42C265.78 144.609 265.402 144.885 265.108 145.248C264.815 145.606 264.656 146.038 264.631 146.545H262.841C262.871 145.745 263.112 145.044 263.565 144.442C264.017 143.836 264.609 143.364 265.34 143.026C266.075 142.687 266.883 142.518 267.763 142.518C268.708 142.518 269.518 142.71 270.194 143.093C270.87 143.471 271.39 143.97 271.753 144.592C272.116 145.213 272.297 145.884 272.297 146.605C272.297 147.465 272.071 148.199 271.619 148.805C271.171 149.412 270.562 149.832 269.792 150.065V150.185C270.756 150.344 271.509 150.754 272.051 151.415C272.593 152.071 272.864 152.884 272.864 153.854C272.864 154.684 272.638 155.43 272.185 156.091C271.738 156.747 271.127 157.264 270.351 157.642C269.575 158.02 268.693 158.209 267.704 158.209Z" fill="#EDF2F7"/>
<rect x="232" y="122" width="57" height="57" rx="28.5" stroke="#EDF2F7" stroke-width="2"/>
<rect x="186.5" y="121.5" width="58" height="58" rx="29" fill="#A0AEC0"/>
<path d="M232.258 166.888C228.001 171.091 222.096 173.703 215.57 173.703C208.971 173.703 203.009 171.025 198.742 166.738V163.906C198.742 160.301 201.742 157.375 205.445 157.375H225.555C229.258 157.375 232.258 160.301 232.258 163.906V166.888Z" fill="white"/>
<path d="M215.498 133.312C210.04 133.312 205.617 137.736 205.617 143.194C205.617 148.655 210.04 153.078 215.498 153.078C220.956 153.078 225.383 148.655 225.383 143.194C225.383 137.736 220.956 133.312 215.498 133.312Z" fill="white"/>
<rect x="186.5" y="121.5" width="58" height="58" rx="29" stroke="#EDF2F7" stroke-width="3"/>
<rect x="112" y="123" width="55" height="55" rx="27.5" fill="#38B2AC"/>
<path d="M127.849 158V142.727H129.699V156.359H136.798V158H127.849ZM151.773 142.727V158H149.983L141.661 146.009H141.511V158H139.662V142.727H141.452L149.804 154.749H149.953V142.727H151.773Z" fill="#EDF2F7"/>
<circle cx="160.125" cy="171.125" r="8.875" fill="#48BB78" stroke="#EDF2F7" stroke-width="4"/>
</svg>
