<svg width="400" height="300" viewBox="0 0 400 300" fill="none" xmlns="http://www.w3.org/2000/svg">
 
<circle cx="85.5" cy="150.5" r="29" stroke="#E2E8F0" stroke-width="7"/>
<mask id="path-2-inside-1_3_376" fill="white">
<path d="M85.5 118C92.6814 118 99.6606 120.379 105.347 124.764C111.034 129.15 115.108 135.295 116.933 142.241C118.758 149.187 118.231 156.541 115.435 163.156C112.638 169.77 107.73 175.272 101.476 178.802C95.2217 182.333 87.9747 183.692 80.8667 182.668C73.7586 181.644 67.1898 178.295 62.1864 173.143C57.1829 167.992 54.0266 161.328 53.2105 154.193C52.3944 147.058 53.9645 139.854 57.6754 133.706L63.6596 137.318C60.7467 142.144 59.5143 147.799 60.1549 153.399C60.7955 158.999 63.273 164.23 67.2004 168.274C71.1277 172.317 76.2838 174.946 81.8631 175.75C87.4425 176.553 93.1309 175.486 98.0398 172.716C102.949 169.945 106.802 165.626 108.997 160.434C111.192 155.242 111.605 149.469 110.173 144.017C108.74 138.565 105.543 133.742 101.079 130.299C96.6151 126.857 91.1369 124.99 85.5 124.99V118Z"/>
</mask>
<path d="M85.5 118C92.6814 118 99.6606 120.379 105.347 124.764C111.034 129.15 115.108 135.295 116.933 142.241C118.758 149.187 118.231 156.541 115.435 163.156C112.638 169.77 107.73 175.272 101.476 178.802C95.2217 182.333 87.9747 183.692 80.8667 182.668C73.7586 181.644 67.1898 178.295 62.1864 173.143C57.1829 167.992 54.0266 161.328 53.2105 154.193C52.3944 147.058 53.9645 139.854 57.6754 133.706L63.6596 137.318C60.7467 142.144 59.5143 147.799 60.1549 153.399C60.7955 158.999 63.273 164.23 67.2004 168.274C71.1277 172.317 76.2838 174.946 81.8631 175.75C87.4425 176.553 93.1309 175.486 98.0398 172.716C102.949 169.945 106.802 165.626 108.997 160.434C111.192 155.242 111.605 149.469 110.173 144.017C108.74 138.565 105.543 133.742 101.079 130.299C96.6151 126.857 91.1369 124.99 85.5 124.99V118Z" stroke="#38B2AC" stroke-width="14" mask="url(#path-2-inside-1_3_376)"/>
<circle cx="199.5" cy="150.5" r="29" stroke="#E2E8F0" stroke-width="7"/>
<mask id="path-4-inside-2_3_376" fill="white">
<path d="M199.5 118C204.612 118 209.652 119.206 214.21 121.519C218.768 123.833 222.716 127.189 225.734 131.316C228.751 135.442 230.753 140.222 231.576 145.267C232.399 150.312 232.02 155.48 230.471 160.351C228.921 165.223 226.245 169.66 222.658 173.302C219.072 176.945 214.677 179.69 209.83 181.315C204.983 182.939 199.822 183.398 194.764 182.653C189.707 181.908 184.897 179.981 180.724 177.028L184.762 171.323C188.037 173.641 191.813 175.153 195.783 175.738C199.752 176.323 203.804 175.963 207.608 174.687C211.413 173.412 214.863 171.257 217.678 168.398C220.493 165.539 222.594 162.056 223.81 158.233C225.026 154.409 225.324 150.352 224.677 146.392C224.031 142.432 222.46 138.68 220.092 135.442C217.723 132.203 214.624 129.568 211.046 127.752C207.468 125.936 203.512 124.99 199.5 124.99V118Z"/>
</mask>
<path d="M199.5 118C204.612 118 209.652 119.206 214.21 121.519C218.768 123.833 222.716 127.189 225.734 131.316C228.751 135.442 230.753 140.222 231.576 145.267C232.399 150.312 232.02 155.48 230.471 160.351C228.921 165.223 226.245 169.66 222.658 173.302C219.072 176.945 214.677 179.69 209.83 181.315C204.983 182.939 199.822 183.398 194.764 182.653C189.707 181.908 184.897 179.981 180.724 177.028L184.762 171.323C188.037 173.641 191.813 175.153 195.783 175.738C199.752 176.323 203.804 175.963 207.608 174.687C211.413 173.412 214.863 171.257 217.678 168.398C220.493 165.539 222.594 162.056 223.81 158.233C225.026 154.409 225.324 150.352 224.677 146.392C224.031 142.432 222.46 138.68 220.092 135.442C217.723 132.203 214.624 129.568 211.046 127.752C207.468 125.936 203.512 124.99 199.5 124.99V118Z" stroke="#38B2AC" stroke-width="14" mask="url(#path-4-inside-2_3_376)"/>
<circle cx="314.5" cy="150.5" r="29" stroke="#E2E8F0" stroke-width="7"/>
<mask id="path-6-inside-3_3_376" fill="white">
<path d="M314.5 118C318.768 118 322.994 118.841 326.937 120.474C330.88 122.107 334.463 124.501 337.481 127.519C340.499 130.537 342.893 134.12 344.526 138.063C346.159 142.006 347 146.232 347 150.5H340.01C340.01 147.15 339.35 143.833 338.068 140.738C336.786 137.643 334.907 134.83 332.539 132.461C330.17 130.093 327.357 128.214 324.262 126.932C321.167 125.65 317.85 124.99 314.5 124.99V118Z"/>
</mask>
<path d="M314.5 118C318.768 118 322.994 118.841 326.937 120.474C330.88 122.107 334.463 124.501 337.481 127.519C340.499 130.537 342.893 134.12 344.526 138.063C346.159 142.006 347 146.232 347 150.5H340.01C340.01 147.15 339.35 143.833 338.068 140.738C336.786 137.643 334.907 134.83 332.539 132.461C330.17 130.093 327.357 128.214 324.262 126.932C321.167 125.65 317.85 124.99 314.5 124.99V118Z" stroke="#38B2AC" stroke-width="14" mask="url(#path-6-inside-3_3_376)"/>
</svg>
