<svg width="400" height="300" viewBox="0 0 400 300" fill="none" xmlns="http://www.w3.org/2000/svg">
 
<rect x="176" y="126" width="49" height="49" rx="4" fill="#E2E8F0"/>
<path d="M192.091 159.252C191.85 159.483 191.714 159.797 191.714 160.123C191.714 160.45 191.85 160.764 192.091 160.995C192.332 161.226 192.659 161.355 193 161.355C193.341 161.355 193.668 161.225 193.909 160.994L201.848 153.388C201.868 153.369 201.891 153.354 201.917 153.343C201.943 153.333 201.971 153.328 201.999 153.328C202.028 153.328 202.055 153.333 202.081 153.343C202.107 153.354 202.131 153.369 202.151 153.388L210.089 160.996C210.209 161.11 210.35 161.201 210.506 161.263C210.662 161.325 210.829 161.357 210.998 161.357C211.167 161.357 211.334 161.325 211.49 161.263C211.646 161.201 211.788 161.111 211.908 160.996C212.027 160.882 212.122 160.746 212.186 160.597C212.251 160.447 212.284 160.287 212.284 160.125C212.284 159.963 212.251 159.803 212.187 159.654C212.122 159.504 212.027 159.368 211.908 159.254L203.971 151.644C203.951 151.625 203.935 151.602 203.924 151.577C203.913 151.553 203.908 151.526 203.908 151.499C203.908 151.472 203.913 151.445 203.924 151.42C203.935 151.395 203.951 151.372 203.971 151.353L211.91 143.746C212.151 143.515 212.286 143.201 212.286 142.874C212.286 142.547 212.15 142.234 211.908 142.003C211.667 141.772 211.34 141.642 210.999 141.643C210.657 141.643 210.33 141.773 210.089 142.004L202.151 149.61C202.131 149.629 202.107 149.644 202.081 149.654C202.055 149.665 202.028 149.67 201.999 149.67C201.971 149.67 201.943 149.665 201.917 149.654C201.891 149.644 201.868 149.629 201.848 149.61L193.909 142.004C193.79 141.89 193.648 141.799 193.492 141.737C193.336 141.675 193.169 141.643 193 141.643C192.659 141.643 192.332 141.773 192.091 142.004C191.85 142.235 191.714 142.548 191.714 142.875C191.714 143.202 191.85 143.515 192.091 143.746L200.028 151.353C200.048 151.372 200.064 151.395 200.075 151.42C200.085 151.445 200.091 151.472 200.091 151.499C200.091 151.526 200.085 151.553 200.075 151.577C200.064 151.602 200.048 151.625 200.028 151.644L192.091 159.252Z" fill="#171923"/>
<path d="M249.851 184.893C248.267 184.414 246.842 184.733 245.732 185.132C244.782 184.013 243.198 182.975 241.138 182.975C239.555 182.975 238.207 183.455 237.178 183.934C235.991 182.416 234.09 180.977 231.238 180.977C229.654 180.977 228.386 181.457 227.278 182.016V170.99C227.278 167.794 225.139 163 219.358 163C213.576 163 211.438 167.794 211.438 170.99V193.362L210.961 192.883C210.645 192.484 207.476 188.808 203.437 188.968C199.635 189.048 197.259 190.646 195.754 194.162C193.932 198.477 195.913 200.235 196.467 200.634C197.972 201.673 199.476 203.032 199.635 203.591C199.872 204.31 201.219 208.226 203.833 212.061C204.863 213.579 206.209 214.697 207.16 215.576C207.477 215.895 207.794 216.136 208.031 216.375C208.268 216.614 208.665 217.014 209.061 217.414C209.932 218.213 210.962 219.252 211.913 220.291C212.705 221.25 214.526 225.164 215.556 227.722C215.873 228.44 216.586 229 217.378 229H245.099C245.812 229 246.366 228.681 246.762 228.041C247.079 227.482 255 214.937 255 207.027V192.645C254.999 188.489 253.177 185.931 249.85 184.893L249.851 184.893ZM251.039 206.946C251.039 212.14 246.365 220.928 243.99 224.924H218.644C217.773 222.847 216.031 219.012 214.842 217.653C213.812 216.455 212.704 215.416 211.753 214.457C211.357 214.058 211.041 213.818 210.803 213.498C210.486 213.179 210.169 212.859 209.693 212.539C208.822 211.821 207.792 210.862 207.08 209.823C205.258 207.186 203.911 204.149 203.357 202.311C202.723 200.393 200.03 198.317 198.921 197.438C198.921 197.198 199.001 196.639 199.397 195.68C200.268 193.603 201.298 192.963 203.595 192.883H203.674C205.496 192.883 207.397 194.641 208.03 195.44L211.99 199.834C212.545 200.473 213.416 200.633 214.208 200.393C215 200.074 215.475 199.354 215.475 198.556L215.476 170.99C215.476 170.351 215.635 166.995 219.436 166.995C223.079 166.995 223.396 170.031 223.396 170.99V192.964C223.396 194.083 224.267 194.962 225.376 194.962C226.486 194.962 227.357 194.083 227.357 192.964V187.211C227.911 186.492 229.337 184.974 231.317 184.974C233.218 184.974 234.169 186.412 234.485 186.972V192.965C234.485 194.084 235.356 194.963 236.466 194.963C237.575 194.963 238.446 194.084 238.446 192.965V187.931C239.001 187.531 240.03 186.972 241.219 186.972C242.328 186.972 242.961 187.771 243.199 188.25V192.965C243.199 194.084 244.07 194.963 245.18 194.963C246.289 194.963 247.16 194.084 247.16 192.965V188.89C247.635 188.65 248.19 188.49 248.744 188.65C249.853 189.05 251.12 189.609 251.12 192.565V206.947L251.039 206.946Z" fill="black"/>
<path d="M219.02 163.006C219.012 163.006 219.004 163.006 218.995 163.007L219.009 163L219.02 163.006Z" fill="white"/>
<path d="M243.999 224.924C246.374 220.928 251.048 212.14 251.048 206.946L251.129 206.947V192.565C251.129 189.609 249.862 189.05 248.752 188.65C248.199 188.49 247.644 188.65 247.169 188.89V192.965C247.169 194.084 246.298 194.963 245.188 194.963C244.079 194.963 243.208 194.084 243.208 192.965V188.25C242.97 187.771 242.337 186.972 241.227 186.972C240.039 186.972 239.01 187.531 238.455 187.931V192.965C238.455 194.084 237.584 194.963 236.474 194.963C235.365 194.963 234.494 194.084 234.494 192.965V186.972C234.177 186.412 233.227 184.974 231.326 184.974C229.346 184.974 227.92 186.492 227.366 187.211V192.964C227.366 194.083 226.494 194.962 225.385 194.962C224.276 194.962 223.405 194.083 223.405 192.964V170.99C223.405 170.031 223.088 166.995 219.445 166.995C215.643 166.995 215.485 170.351 215.485 170.99L215.484 198.556C215.484 199.354 215.008 200.074 214.216 200.393C213.425 200.633 212.553 200.473 211.999 199.834L208.039 195.44C207.406 194.641 205.505 192.883 203.683 192.883H203.604C201.307 192.963 200.277 193.603 199.405 195.68C199.01 196.639 198.93 197.198 198.93 197.438C198.971 197.47 199.013 197.503 199.058 197.539C200.233 198.468 202.755 200.464 203.366 202.311C203.92 204.149 205.267 207.186 207.089 209.823C207.801 210.862 208.831 211.821 209.702 212.539C210.177 212.859 210.495 213.179 210.811 213.498C210.964 213.703 211.149 213.875 211.366 214.078C211.488 214.191 211.62 214.314 211.762 214.457C211.993 214.691 212.234 214.929 212.481 215.173C213.248 215.932 214.072 216.747 214.851 217.653C216.039 219.012 217.782 222.847 218.653 224.924H243.999Z" fill="white"/>
</svg>
