<svg width="400" height="300" viewBox="0 0 400 300" fill="none" xmlns="http://www.w3.org/2000/svg">
 
<rect x="86" y="138" width="235" height="24" rx="2" fill="#B2F5EA"/>
<path d="M97.4256 146.36H98.8533L95.7108 155H94.1108L90.9928 146.36H92.4533L94.9559 153.745L97.4256 146.36ZM107.68 153.113C107.68 153.452 107.734 153.704 107.844 153.868C107.953 154.026 108.134 154.144 108.385 154.221L108.049 155.189C107.217 155.079 106.69 154.675 106.465 153.974C106.159 154.374 105.771 154.677 105.3 154.885C104.835 155.088 104.321 155.189 103.758 155.189C103.189 155.189 102.694 155.079 102.272 154.861C101.851 154.642 101.529 154.333 101.304 153.933C101.08 153.529 100.968 153.058 100.968 152.522C100.968 151.63 101.315 150.947 102.01 150.471C102.705 149.995 103.708 149.757 105.021 149.757H106.293V149.035C106.293 148.433 106.118 147.998 105.768 147.73C105.418 147.457 104.906 147.32 104.233 147.32C103.583 147.32 102.833 147.468 101.985 147.763L101.624 146.721C102.587 146.36 103.528 146.179 104.447 146.179C105.503 146.179 106.304 146.428 106.851 146.926C107.403 147.418 107.68 148.099 107.68 148.969V153.113ZM104.11 154.138C104.537 154.138 104.942 154.032 105.325 153.818C105.713 153.6 106.036 153.299 106.293 152.916V150.692H105.046C104.132 150.692 103.47 150.848 103.06 151.16C102.65 151.472 102.445 151.92 102.445 152.506C102.445 153.594 103 154.138 104.11 154.138ZM117.171 146.171C117.395 146.171 117.6 146.188 117.786 146.221C117.972 146.248 118.174 146.294 118.393 146.36L118.196 149.281H117.064V147.443H116.99C116.323 147.443 115.754 147.678 115.283 148.149C114.813 148.619 114.433 149.33 114.143 150.282V153.942H115.899V155H111.419V153.942H112.764V147.418H111.419V146.36H113.815L114.069 148.403C114.419 147.654 114.835 147.096 115.316 146.729C115.803 146.357 116.421 146.171 117.171 146.171ZM134.93 153.999C135.701 153.999 136.451 153.747 137.178 153.244L137.851 154.147C137.473 154.464 137.019 154.718 136.489 154.91C135.958 155.096 135.439 155.189 134.93 155.189C134.082 155.189 133.352 155.005 132.739 154.639C132.132 154.272 131.67 153.753 131.352 153.08C131.035 152.407 130.877 151.619 130.877 150.717C130.877 149.847 131.038 149.07 131.361 148.387C131.683 147.697 132.151 147.159 132.764 146.77C133.376 146.376 134.104 146.179 134.946 146.179C136.046 146.179 137.009 146.513 137.834 147.181L137.162 148.099C136.418 147.585 135.674 147.328 134.93 147.328C134.421 147.328 133.975 147.454 133.592 147.706C133.21 147.957 132.909 148.337 132.69 148.846C132.477 149.355 132.37 149.978 132.37 150.717C132.37 151.822 132.6 152.645 133.059 153.187C133.524 153.728 134.148 153.999 134.93 153.999ZM142.246 147.542C142.58 147.104 142.99 146.768 143.477 146.532C143.97 146.297 144.478 146.179 145.003 146.179C145.829 146.179 146.439 146.398 146.833 146.836C147.232 147.274 147.432 147.903 147.432 148.723V155H146.054V148.756C146.054 148.242 145.933 147.864 145.693 147.624C145.452 147.383 145.074 147.263 144.56 147.263C144.106 147.263 143.671 147.408 143.256 147.697C142.84 147.982 142.504 148.318 142.246 148.707V155H140.868V142.897L142.246 142.75V147.542ZM156.898 153.113C156.898 153.452 156.953 153.704 157.062 153.868C157.172 154.026 157.352 154.144 157.604 154.221L157.268 155.189C156.436 155.079 155.908 154.675 155.684 153.974C155.378 154.374 154.989 154.677 154.519 154.885C154.054 155.088 153.54 155.189 152.976 155.189C152.407 155.189 151.912 155.079 151.491 154.861C151.07 154.642 150.747 154.333 150.523 153.933C150.299 153.529 150.187 153.058 150.187 152.522C150.187 151.63 150.534 150.947 151.229 150.471C151.923 149.995 152.927 149.757 154.24 149.757H155.512V149.035C155.512 148.433 155.337 147.998 154.987 147.73C154.637 147.457 154.125 147.32 153.452 147.32C152.801 147.32 152.052 147.468 151.204 147.763L150.843 146.721C151.806 146.36 152.747 146.179 153.666 146.179C154.721 146.179 155.523 146.428 156.07 146.926C156.622 147.418 156.898 148.099 156.898 148.969V153.113ZM153.329 154.138C153.756 154.138 154.161 154.032 154.544 153.818C154.932 153.6 155.255 153.299 155.512 152.916V150.692H154.265C153.351 150.692 152.689 150.848 152.279 151.16C151.869 151.472 151.664 151.92 151.664 152.506C151.664 153.594 152.219 154.138 153.329 154.138ZM160.646 142.881L162.024 142.709V155H160.646V142.881ZM166.004 146.36H167.792L163.903 150.249L168.244 155H166.43L162.18 150.282L166.004 146.36ZM176.233 146.171C176.457 146.171 176.662 146.188 176.848 146.221C177.034 146.248 177.237 146.294 177.456 146.36L177.259 149.281H176.126V147.443H176.053C175.385 147.443 174.816 147.678 174.346 148.149C173.875 148.619 173.495 149.33 173.205 150.282V153.942H174.961V155H170.481V153.942H171.827V147.418H170.481V146.36H172.877L173.132 148.403C173.482 147.654 173.897 147.096 174.379 146.729C174.866 146.357 175.484 146.171 176.233 146.171ZM186.43 153.113C186.43 153.452 186.484 153.704 186.594 153.868C186.703 154.026 186.884 154.144 187.135 154.221L186.799 155.189C185.967 155.079 185.44 154.675 185.215 153.974C184.909 154.374 184.521 154.677 184.05 154.885C183.585 155.088 183.071 155.189 182.508 155.189C181.939 155.189 181.444 155.079 181.022 154.861C180.601 154.642 180.279 154.333 180.054 153.933C179.83 153.529 179.718 153.058 179.718 152.522C179.718 151.63 180.065 150.947 180.76 150.471C181.455 149.995 182.458 149.757 183.771 149.757H185.043V149.035C185.043 148.433 184.868 147.998 184.518 147.73C184.168 147.457 183.656 147.32 182.983 147.32C182.333 147.32 181.583 147.468 180.735 147.763L180.374 146.721C181.337 146.36 182.278 146.179 183.197 146.179C184.253 146.179 185.054 146.428 185.601 146.926C186.153 147.418 186.43 148.099 186.43 148.969V153.113ZM182.86 154.138C183.287 154.138 183.692 154.032 184.075 153.818C184.463 153.6 184.786 153.299 185.043 152.916V150.692H183.796C182.882 150.692 182.22 150.848 181.81 151.16C181.4 151.472 181.195 151.92 181.195 152.506C181.195 153.594 181.75 154.138 182.86 154.138ZM200.013 147.747H206.396V148.936H200.013V147.747ZM200.013 150.856H206.396V152.054H200.013V150.856ZM224.016 145.966C224.016 146.185 223.958 146.387 223.844 146.573C223.734 146.754 223.584 146.899 223.392 147.008C223.201 147.112 222.993 147.164 222.769 147.164C222.544 147.164 222.337 147.112 222.145 147.008C221.959 146.899 221.811 146.754 221.702 146.573C221.593 146.387 221.538 146.185 221.538 145.966C221.538 145.808 221.557 145.649 221.595 145.49C221.634 145.332 221.71 145.129 221.825 144.883L223.179 142.052H224.246L223.573 145.064C223.71 145.157 223.816 145.285 223.893 145.449C223.975 145.608 224.016 145.78 224.016 145.966ZM235.648 153.113C235.648 153.452 235.703 153.704 235.812 153.868C235.922 154.026 236.102 154.144 236.354 154.221L236.018 155.189C235.186 155.079 234.658 154.675 234.434 153.974C234.128 154.374 233.739 154.677 233.269 154.885C232.804 155.088 232.29 155.189 231.726 155.189C231.157 155.189 230.662 155.079 230.241 154.861C229.82 154.642 229.497 154.333 229.273 153.933C229.049 153.529 228.937 153.058 228.937 152.522C228.937 151.63 229.284 150.947 229.979 150.471C230.673 149.995 231.677 149.757 232.99 149.757H234.262V149.035C234.262 148.433 234.087 147.998 233.737 147.73C233.387 147.457 232.875 147.32 232.202 147.32C231.551 147.32 230.802 147.468 229.954 147.763L229.593 146.721C230.556 146.36 231.497 146.179 232.416 146.179C233.471 146.179 234.273 146.428 234.82 146.926C235.372 147.418 235.648 148.099 235.648 148.969V153.113ZM232.079 154.138C232.506 154.138 232.911 154.032 233.294 153.818C233.682 153.6 234.005 153.299 234.262 152.916V150.692H233.015C232.101 150.692 231.439 150.848 231.029 151.16C230.619 151.472 230.414 151.92 230.414 152.506C230.414 153.594 230.969 154.138 232.079 154.138ZM247.215 146.36L245.705 155H243.753L242.637 148.657L241.422 155H239.519L237.943 146.36H239.355L240.454 154.147L241.833 147.459H243.465L244.77 154.147L245.87 146.36H247.215ZM250.232 151.168C250.254 151.814 250.38 152.352 250.61 152.785C250.839 153.211 251.14 153.529 251.512 153.736C251.884 153.939 252.3 154.04 252.759 154.04C253.186 154.04 253.577 153.977 253.933 153.851C254.294 153.725 254.671 153.529 255.065 153.261L255.713 154.171C255.309 154.489 254.844 154.737 254.318 154.918C253.799 155.098 253.274 155.189 252.743 155.189C251.917 155.189 251.206 155.003 250.61 154.631C250.014 154.259 249.559 153.734 249.248 153.055C248.941 152.377 248.788 151.589 248.788 150.692C248.788 149.823 248.944 149.046 249.256 148.362C249.568 147.678 250.008 147.145 250.577 146.762C251.146 146.374 251.808 146.179 252.563 146.179C253.285 146.179 253.908 146.349 254.433 146.688C254.964 147.027 255.369 147.517 255.648 148.157C255.932 148.791 256.074 149.544 256.074 150.413C256.074 150.665 256.063 150.917 256.042 151.168H250.232ZM252.579 147.312C251.912 147.312 251.367 147.547 250.946 148.017C250.53 148.482 250.295 149.177 250.241 150.102H254.745C254.729 149.194 254.529 148.502 254.146 148.026C253.763 147.55 253.241 147.312 252.579 147.312ZM261.93 154.048C262.592 154.048 263.115 153.925 263.498 153.679C263.886 153.433 264.08 153.099 264.08 152.678C264.08 152.394 264.028 152.161 263.924 151.981C263.826 151.795 263.626 151.625 263.325 151.472C263.03 151.319 262.584 151.168 261.988 151.021C261.326 150.856 260.784 150.679 260.363 150.487C259.948 150.29 259.622 150.036 259.387 149.724C259.157 149.412 259.042 149.016 259.042 148.534C259.042 148.058 259.179 147.643 259.452 147.287C259.726 146.932 260.109 146.658 260.601 146.467C261.099 146.275 261.673 146.179 262.324 146.179C262.975 146.179 263.561 146.267 264.08 146.442C264.605 146.612 265.065 146.841 265.459 147.131L264.851 148.067C264.49 147.821 264.11 147.632 263.711 147.501C263.317 147.364 262.86 147.295 262.341 147.295C261.69 147.295 261.214 147.397 260.913 147.599C260.618 147.796 260.47 148.072 260.47 148.428C260.47 148.685 260.538 148.895 260.675 149.059C260.817 149.224 261.044 149.371 261.356 149.503C261.673 149.628 262.144 149.776 262.767 149.946C263.391 150.115 263.902 150.304 264.302 150.512C264.701 150.72 265.013 150.993 265.237 151.332C265.461 151.666 265.573 152.093 265.573 152.612C265.573 153.198 265.404 153.684 265.065 154.073C264.726 154.456 264.28 154.737 263.727 154.918C263.18 155.098 262.581 155.189 261.93 155.189C260.574 155.189 259.447 154.8 258.55 154.024L259.338 153.113C259.688 153.408 260.084 153.638 260.527 153.802C260.97 153.966 261.438 154.048 261.93 154.048ZM272.127 146.179C272.926 146.179 273.601 146.363 274.154 146.729C274.706 147.09 275.122 147.61 275.401 148.288C275.685 148.961 275.827 149.757 275.827 150.676C275.827 151.568 275.683 152.352 275.393 153.031C275.108 153.709 274.687 154.24 274.129 154.623C273.571 155 272.898 155.189 272.111 155.189C271.312 155.189 270.634 155.005 270.076 154.639C269.523 154.267 269.105 153.745 268.82 153.072C268.536 152.399 268.394 151.606 268.394 150.692C268.394 149.795 268.536 149.008 268.82 148.329C269.11 147.651 269.534 147.123 270.092 146.746C270.656 146.368 271.334 146.179 272.127 146.179ZM272.127 147.304C271.378 147.304 270.814 147.583 270.437 148.141C270.059 148.693 269.871 149.544 269.871 150.692C269.871 151.825 270.057 152.67 270.429 153.228C270.8 153.78 271.361 154.056 272.111 154.056C272.86 154.056 273.421 153.78 273.793 153.228C274.165 152.67 274.351 151.819 274.351 150.676C274.351 149.538 274.165 148.693 273.793 148.141C273.421 147.583 272.865 147.304 272.127 147.304ZM284.375 146.179C284.867 146.179 285.269 146.352 285.581 146.696C285.893 147.036 286.049 147.659 286.049 148.567V155H284.769V148.789C284.769 148.378 284.755 148.072 284.728 147.87C284.7 147.662 284.64 147.509 284.547 147.41C284.454 147.306 284.306 147.254 284.104 147.254C283.541 147.254 283.037 147.599 282.594 148.288V155H281.306V148.789C281.306 148.378 281.292 148.072 281.265 147.87C281.238 147.662 281.178 147.509 281.085 147.41C280.992 147.306 280.844 147.254 280.642 147.254C280.078 147.254 279.575 147.599 279.132 148.288V155H277.86V146.36H278.943L279.025 147.361C279.288 146.984 279.567 146.694 279.862 146.491C280.157 146.283 280.505 146.179 280.904 146.179C281.719 146.179 282.242 146.56 282.471 147.32C282.728 146.948 283.005 146.666 283.3 146.475C283.601 146.278 283.959 146.179 284.375 146.179ZM289.607 151.168C289.629 151.814 289.755 152.352 289.985 152.785C290.214 153.211 290.515 153.529 290.887 153.736C291.259 153.939 291.675 154.04 292.134 154.04C292.561 154.04 292.952 153.977 293.308 153.851C293.669 153.725 294.046 153.529 294.44 153.261L295.088 154.171C294.684 154.489 294.219 154.737 293.693 154.918C293.174 155.098 292.649 155.189 292.118 155.189C291.292 155.189 290.581 155.003 289.985 154.631C289.389 154.259 288.934 153.734 288.623 153.055C288.316 152.377 288.163 151.589 288.163 150.692C288.163 149.823 288.319 149.046 288.631 148.362C288.943 147.678 289.383 147.145 289.952 146.762C290.521 146.374 291.183 146.179 291.938 146.179C292.66 146.179 293.283 146.349 293.808 146.688C294.339 147.027 294.744 147.517 295.023 148.157C295.307 148.791 295.449 149.544 295.449 150.413C295.449 150.665 295.438 150.917 295.417 151.168H289.607ZM291.954 147.312C291.287 147.312 290.742 147.547 290.321 148.017C289.905 148.482 289.67 149.177 289.616 150.102H294.12C294.104 149.194 293.904 148.502 293.521 148.026C293.138 147.55 292.616 147.312 291.954 147.312ZM300.83 143.702H302.372L302.233 151.275H300.994L300.83 143.702ZM301.625 152.99C301.833 152.99 302.022 153.039 302.192 153.137C302.361 153.236 302.492 153.37 302.585 153.539C302.684 153.704 302.733 153.884 302.733 154.081C302.733 154.283 302.684 154.469 302.585 154.639C302.492 154.809 302.361 154.943 302.192 155.041C302.022 155.139 301.833 155.189 301.625 155.189C301.423 155.189 301.237 155.139 301.067 155.041C300.903 154.943 300.772 154.809 300.674 154.639C300.581 154.469 300.534 154.283 300.534 154.081C300.534 153.884 300.581 153.704 300.674 153.539C300.772 153.37 300.903 153.236 301.067 153.137C301.237 153.039 301.423 152.99 301.625 152.99ZM310.345 143.25C310.345 143.031 310.402 142.832 310.517 142.651C310.632 142.465 310.785 142.32 310.977 142.216C311.168 142.107 311.373 142.052 311.592 142.052C311.817 142.052 312.024 142.107 312.216 142.216C312.407 142.32 312.558 142.465 312.667 142.651C312.782 142.832 312.839 143.031 312.839 143.25C312.839 143.409 312.818 143.565 312.774 143.718C312.735 143.866 312.656 144.071 312.536 144.333L311.182 147.164H310.115L310.788 144.153C310.651 144.06 310.542 143.934 310.46 143.775C310.383 143.611 310.345 143.436 310.345 143.25Z" fill="#2C7A7B"/>
</svg>
