<svg width="400" height="300" viewBox="0 0 400 300" fill="none" xmlns="http://www.w3.org/2000/svg">
 
<path fill-rule="evenodd" clip-rule="evenodd" d="M53 100.5C53 98.0147 55.0147 96 57.5 96H108.5C110.985 96 113 98.0147 113 100.5C113 102.985 110.985 105 108.5 105H57.5C55.0147 105 53 102.985 53 100.5Z" fill="#A0AEC0"/>
<rect x="51" y="115" width="298" height="49" rx="8" fill="white"/>
<path fill-rule="evenodd" clip-rule="evenodd" d="M71 139.5C71 137.015 73.0147 135 75.5 135H196.5C198.985 135 201 137.015 201 139.5C201 141.985 198.985 144 196.5 144H75.5C73.0147 144 71 141.985 71 139.5Z" fill="#A0AEC0"/>
<rect x="51" y="115" width="298" height="49" rx="8" stroke="#38B2AC" stroke-width="4"/>
<path d="M278.211 150H277.404C277.181 150 277 149.795 277 149.543C277 149.291 277.181 149.087 277.404 149.087H278.212C278.88 149.087 279.423 148.472 279.423 147.717V131.283C279.423 130.528 278.88 129.913 278.212 129.913L277.404 129.913C277.181 129.913 277 129.709 277 129.457C277 129.204 277.181 129 277.404 129H278.212C279.325 129 280.231 130.024 280.231 131.283V147.717C280.231 148.975 279.324 150 278.211 150V150Z" fill="#4A5568"/>
<path d="M282.25 150H281.442C280.329 150 279.423 148.975 279.423 147.717L279.423 131.283C279.423 130.025 280.329 129 281.442 129H282.25C282.473 129 282.654 129.205 282.654 129.457C282.654 129.709 282.473 129.913 282.25 129.913H281.442C280.774 129.913 280.231 130.528 280.231 131.283V147.717C280.231 148.473 280.774 149.087 281.442 149.087H282.25C282.473 149.087 282.654 149.291 282.654 149.543C282.654 149.795 282.473 150 282.25 150V150Z" fill="#4A5568"/>
<path d="M281.442 139.956H278.211C277.988 139.956 277.807 139.752 277.807 139.5C277.807 139.248 277.988 139.043 278.211 139.043H281.442C281.665 139.043 281.846 139.248 281.846 139.5C281.846 139.752 281.665 139.956 281.442 139.956Z" fill="#4A5568"/>
<path fill-rule="evenodd" clip-rule="evenodd" d="M209 150C208.448 150 208 149.552 208 149L208 130C208 129.448 208.448 129 209 129C209.552 129 210 129.448 210 130L210 149C210 149.552 209.552 150 209 150Z" fill="#4A5568"/>
<path fill-rule="evenodd" clip-rule="evenodd" d="M53 178.5C53 176.015 55.0147 174 57.5 174L342.5 174C344.985 174 347 176.015 347 178.5C347 180.985 344.985 183 342.5 183L57.5 183C55.0147 183 53 180.985 53 178.5Z" fill="#A0AEC0"/>
<path fill-rule="evenodd" clip-rule="evenodd" d="M53 199.5C53 197.015 55.0147 195 57.5 195L252.5 195C254.985 195 257 197.015 257 199.5C257 201.985 254.985 204 252.5 204L57.5 204C55.0147 204 53 201.985 53 199.5Z" fill="#A0AEC0"/>
</svg>
