<svg width="400" height="300" viewBox="0 0 400 300" fill="none" xmlns="http://www.w3.org/2000/svg">
 
<path d="M137 133.333C133.704 133.333 130.481 134.31 127.741 136.142C125 137.973 122.864 140.576 121.602 143.622C120.341 146.667 120.011 150.018 120.654 153.251C121.297 156.484 122.884 159.454 125.215 161.785C127.546 164.116 130.516 165.703 133.749 166.346C136.982 166.989 140.333 166.659 143.378 165.398C146.424 164.136 149.027 162 150.858 159.259C152.689 156.518 153.667 153.296 153.667 150C153.662 145.581 151.904 141.345 148.779 138.22C145.655 135.096 141.419 133.338 137 133.333V133.333ZM146.621 144.722L137.114 157.623C137.002 157.772 136.861 157.897 136.7 157.991C136.539 158.085 136.361 158.146 136.176 158.17C135.991 158.195 135.803 158.182 135.623 158.133C135.443 158.084 135.275 157.999 135.128 157.884L128.339 152.457C128.196 152.343 128.078 152.202 127.99 152.042C127.902 151.882 127.846 151.706 127.826 151.525C127.786 151.159 127.892 150.792 128.122 150.504C128.352 150.216 128.688 150.032 129.054 149.991C129.42 149.95 129.787 150.057 130.075 150.287L135.736 154.816L144.385 143.079C144.489 142.923 144.624 142.789 144.781 142.686C144.938 142.584 145.114 142.514 145.299 142.481C145.484 142.449 145.674 142.454 145.857 142.497C146.039 142.539 146.212 142.619 146.363 142.73C146.514 142.841 146.641 142.982 146.737 143.143C146.832 143.305 146.894 143.484 146.918 143.671C146.942 143.857 146.928 144.046 146.877 144.227C146.826 144.407 146.739 144.576 146.621 144.722Z" fill="#718096"/>
<path d="M200.342 166.666C202.222 166.666 203.761 165.128 203.761 163.248H196.923C196.923 165.128 198.444 166.666 200.342 166.666ZM210.598 156.41V147.863C210.598 142.615 207.795 138.222 202.906 137.06V135.897C202.906 134.478 201.761 133.333 200.342 133.333C198.923 133.333 197.778 134.478 197.778 135.897V137.06C192.872 138.222 190.085 142.598 190.085 147.863V156.41L186.667 159.829V161.538H214.017V159.829L210.598 156.41Z" fill="#38B2AC"/>
<path d="M277.616 152.405C276.389 152.712 275.162 152.865 273.935 152.865C266.268 152.865 260.134 146.732 260.134 139.064C260.134 137.838 260.288 136.611 260.594 135.384C260.748 134.924 260.594 134.311 260.134 133.851C259.674 133.391 259.214 133.237 258.601 133.391C251.394 135.537 246.333 142.285 246.333 149.798C246.333 159.152 253.847 166.666 263.201 166.666C270.715 166.666 277.462 161.606 279.456 154.245C279.609 153.785 279.456 153.172 278.996 152.712C278.689 152.405 278.076 152.252 277.616 152.405Z" fill="#718096"/>
</svg>
