<svg width="400" height="300" viewBox="0 0 400 300" fill="none" xmlns="http://www.w3.org/2000/svg">
 
<rect x="92" y="128" width="45" height="45" rx="5" fill="#CBD5E0"/>
<path d="M112.125 153.942L122.416 144L124 145.529L112.125 157L105 150.118L106.583 148.589L112.125 153.942Z" fill="#4A5568"/>
<rect x="149" y="128" width="45" height="45" rx="5" fill="#CBD5E0"/>
<g clip-path="url(#clip0_1_111)">
<path d="M165.256 156.507C165.092 156.671 165 156.893 165 157.125C165 157.358 165.092 157.58 165.256 157.744C165.421 157.908 165.643 158 165.875 158C166.107 158 166.33 157.908 166.494 157.744L171.897 152.342C171.91 152.328 171.926 152.317 171.944 152.31C171.962 152.303 171.981 152.299 172 152.299C172.019 152.299 172.038 152.303 172.056 152.31C172.074 152.317 172.09 152.328 172.103 152.342L177.506 157.745C177.587 157.826 177.684 157.891 177.79 157.935C177.896 157.979 178.01 158.002 178.125 158.002C178.24 158.002 178.354 157.979 178.46 157.935C178.566 157.891 178.662 157.827 178.744 157.745C178.825 157.664 178.889 157.568 178.933 157.462C178.977 157.355 179 157.242 179 157.127C179 157.012 178.978 156.898 178.934 156.792C178.89 156.686 178.825 156.589 178.744 156.508L173.342 151.103C173.328 151.09 173.317 151.074 173.31 151.056C173.303 151.038 173.299 151.019 173.299 151C173.299 150.981 173.303 150.962 173.31 150.944C173.317 150.926 173.328 150.91 173.342 150.897L178.745 145.494C178.909 145.33 179.001 145.107 179.001 144.875C179.001 144.642 178.909 144.42 178.744 144.256C178.58 144.092 178.357 144 178.125 144C177.893 144 177.67 144.092 177.506 144.257L172.103 149.658C172.09 149.672 172.074 149.683 172.056 149.69C172.038 149.697 172.019 149.701 172 149.701C171.981 149.701 171.962 149.697 171.944 149.69C171.926 149.683 171.91 149.672 171.897 149.658L166.494 144.257C166.413 144.175 166.316 144.111 166.21 144.067C166.104 144.023 165.99 144 165.875 144C165.643 144 165.421 144.092 165.256 144.256C165.092 144.42 165 144.643 165 144.875C165 145.107 165.092 145.33 165.256 145.494L170.658 150.897C170.672 150.91 170.683 150.926 170.69 150.944C170.697 150.962 170.701 150.981 170.701 151C170.701 151.019 170.697 151.038 170.69 151.056C170.683 151.074 170.672 151.09 170.658 151.103L165.256 156.507Z" fill="#4A5568"/>
</g>
<rect x="206" y="128" width="45" height="45" rx="5" fill="#38B2AC"/>
<path d="M235.641 156.611L231.832 152.803C232.663 151.71 233.049 150.342 232.91 148.976C232.771 147.61 232.118 146.348 231.084 145.444C230.05 144.541 228.711 144.065 227.339 144.111C225.967 144.157 224.663 144.723 223.692 145.694C222.722 146.665 222.156 147.968 222.109 149.341C222.063 150.713 222.54 152.052 223.443 153.086C224.346 154.12 225.608 154.773 226.974 154.911C228.34 155.05 229.708 154.665 230.801 153.834L234.609 157.642C234.747 157.777 234.932 157.852 235.125 157.852C235.318 157.852 235.503 157.777 235.641 157.642C235.777 157.506 235.854 157.32 235.854 157.127C235.854 156.933 235.777 156.748 235.641 156.611ZM223.604 149.542C223.604 148.763 223.835 148.002 224.268 147.354C224.7 146.707 225.315 146.202 226.035 145.904C226.754 145.606 227.546 145.528 228.31 145.68C229.074 145.832 229.775 146.207 230.326 146.757C230.877 147.308 231.252 148.01 231.404 148.774C231.555 149.537 231.477 150.329 231.179 151.048C230.881 151.768 230.377 152.383 229.729 152.816C229.082 153.248 228.32 153.479 227.542 153.479C226.498 153.478 225.497 153.063 224.759 152.325C224.021 151.586 223.605 150.586 223.604 149.542Z" fill="#F7FAFC"/>
<rect x="263" y="128" width="45" height="45" rx="5" fill="#CBD5E0"/>
<g clip-path="url(#clip1_1_111)">
<path d="M281.207 144.013C281.11 143.993 280.994 143.993 280.917 144.032C279.871 144.439 279.213 145.93 279.058 146.956C278.574 150.286 281.207 153.171 283.628 155.069C285.777 156.753 289.901 159.522 292.341 156.85C292.651 156.521 293.019 156.037 292.999 155.553C292.941 154.74 292.186 154.159 291.605 153.713C291.16 153.384 290.23 152.474 289.649 152.494C289.127 152.513 288.798 153.055 288.468 153.384L287.887 153.965C287.791 154.062 286.551 153.249 286.416 153.152C285.912 152.823 285.428 152.455 285.002 152.048C284.576 151.642 284.189 151.196 283.86 150.732C283.763 150.596 282.969 149.415 283.047 149.318C283.047 149.318 283.724 148.582 283.918 148.292C284.325 147.672 284.635 147.188 284.17 146.452C283.996 146.181 283.783 145.968 283.55 145.736C283.144 145.349 282.737 144.942 282.272 144.613C282.021 144.419 281.595 144.071 281.207 144.013Z" fill="#4A5568"/>
</g>
<defs>
<clipPath id="clip0_1_111">
<rect width="14" height="14" fill="white" transform="translate(165 144)"/>
</clipPath>
<clipPath id="clip1_1_111">
<rect width="14" height="14" fill="white" transform="translate(279 144)"/>
</clipPath>
</defs>
</svg>
