<svg width="400" height="300" viewBox="0 0 400 300" fill="none" xmlns="http://www.w3.org/2000/svg">
 
<g filter="url(#filter0_d_3_194)">
<rect x="106" y="131" width="103" height="38" rx="7" fill="#EDF2F7" shape-rendering="crispEdges"/>
<path d="M122.07 156.918C123.084 156.918 123.884 156.741 124.468 156.387C125.061 156.023 125.358 155.525 125.358 154.893C125.358 154.453 125.267 154.094 125.085 153.816C124.913 153.539 124.568 153.28 124.051 153.041C123.534 152.792 122.754 152.534 121.711 152.266C120.619 151.988 119.715 151.672 118.997 151.318C118.279 150.954 117.719 150.49 117.317 149.925C116.924 149.351 116.728 148.638 116.728 147.786C116.728 146.924 116.972 146.168 117.461 145.517C117.958 144.856 118.662 144.344 119.571 143.981C120.49 143.617 121.562 143.435 122.788 143.435C125.037 143.435 126.957 144.019 128.546 145.187L127.196 147.211C126.555 146.79 125.88 146.465 125.171 146.235C124.472 145.996 123.707 145.876 122.874 145.876C120.959 145.876 120.002 146.436 120.002 147.556C120.002 147.939 120.112 148.255 120.332 148.504C120.552 148.743 120.926 148.973 121.452 149.193C121.988 149.403 122.792 149.657 123.865 149.954C124.956 150.26 125.851 150.595 126.55 150.959C127.249 151.323 127.789 151.801 128.172 152.395C128.565 152.988 128.761 153.749 128.761 154.678C128.761 155.721 128.455 156.597 127.842 157.306C127.229 158.014 126.416 158.541 125.401 158.885C124.396 159.22 123.285 159.388 122.07 159.388C120.739 159.388 119.557 159.196 118.523 158.813C117.489 158.43 116.594 157.909 115.838 157.248L117.547 155.295C118.159 155.803 118.849 156.2 119.614 156.487C120.39 156.774 121.208 156.918 122.07 156.918ZM136.999 145.689C137.602 144.952 138.31 144.392 139.124 144.009C139.947 143.626 140.804 143.435 141.694 143.435C143.101 143.435 144.159 143.827 144.868 144.612C145.576 145.388 145.93 146.498 145.93 147.944V159H142.714V148.446C142.714 147.537 142.541 146.886 142.197 146.493C141.862 146.091 141.307 145.89 140.531 145.89C139.861 145.89 139.215 146.106 138.593 146.536C137.98 146.967 137.449 147.508 136.999 148.159V159H133.782V137.777L136.999 137.433V145.689ZM157.054 136.413C157.676 136.413 158.184 136.605 158.576 136.988C158.969 137.371 159.165 137.849 159.165 138.424C159.165 139.008 158.969 139.496 158.576 139.888C158.184 140.271 157.676 140.463 157.054 140.463C156.442 140.463 155.939 140.271 155.546 139.888C155.154 139.496 154.958 139.008 154.958 138.424C154.958 137.849 155.154 137.371 155.546 136.988C155.939 136.605 156.442 136.413 157.054 136.413ZM151.684 143.837H159.294V156.645H163.415V159H151.54V156.645H156.078V146.192H151.684V143.837ZM177.454 137.39C179.129 137.39 180.637 137.682 181.977 138.266L181.029 140.491C180.063 140.089 178.976 139.888 177.77 139.888C176.774 139.888 176.037 140.08 175.559 140.463C175.08 140.845 174.841 141.439 174.841 142.243V144.928H179.909L179.565 147.297H174.841V159H171.639V147.297H168.193V144.928H171.639V142.214C171.639 141.267 171.878 140.429 172.357 139.702C172.835 138.964 173.515 138.395 174.396 137.993C175.276 137.591 176.296 137.39 177.454 137.39ZM198.127 158.196C197.562 158.56 196.887 158.847 196.102 159.057C195.327 159.278 194.527 159.388 193.704 159.388C192.546 159.388 191.565 159.182 190.761 158.77C189.957 158.359 189.349 157.779 188.937 157.033C188.525 156.286 188.32 155.41 188.32 154.405V146.177H184.945V143.837H188.32V140.448L191.536 140.061V143.837H196.648L196.289 146.177H191.536V154.376C191.536 155.2 191.742 155.808 192.153 156.2C192.565 156.592 193.23 156.789 194.149 156.789C195.164 156.789 196.102 156.549 196.964 156.071L198.127 158.196Z" fill="#2D3748"/>
<rect x="107" y="132" width="101" height="36" rx="6" stroke="#A0AEC0" stroke-width="2" shape-rendering="crispEdges"/>
</g>
<path d="M233.179 142.975H236.008V148.762H241.709V151.347H236.008V157.119H233.179V151.347H227.522V148.762H233.179V142.975Z" fill="black"/>
<g filter="url(#filter1_d_3_194)">
<rect x="261" y="131" width="34" height="38" rx="7" fill="#EDF2F7" shape-rendering="crispEdges"/>
<path d="M284.177 159H280.846V149.997H274.385V159H271.053V139.185H274.385V147.254H280.846V139.185H284.177V159Z" fill="#2D3748"/>
<rect x="262" y="132" width="32" height="36" rx="6" stroke="#A0AEC0" stroke-width="2" shape-rendering="crispEdges"/>
</g>
<defs>
<filter id="filter0_d_3_194" x="106" y="131" width="103" height="41" filterUnits="userSpaceOnUse" color-interpolation-filters="sRGB">
<feFlood flood-opacity="0" result="BackgroundImageFix"/>
<feColorMatrix in="SourceAlpha" type="matrix" values="0 0 0 0 0 0 0 0 0 0 0 0 0 0 0 0 0 0 127 0" result="hardAlpha"/>
<feOffset dy="3"/>
<feComposite in2="hardAlpha" operator="out"/>
<feColorMatrix type="matrix" values="0 0 0 0 0.627451 0 0 0 0 0.682353 0 0 0 0 0.752941 0 0 0 1 0"/>
<feBlend mode="normal" in2="BackgroundImageFix" result="effect1_dropShadow_3_194"/>
<feBlend mode="normal" in="SourceGraphic" in2="effect1_dropShadow_3_194" result="shape"/>
</filter>
<filter id="filter1_d_3_194" x="261" y="131" width="34" height="41" filterUnits="userSpaceOnUse" color-interpolation-filters="sRGB">
<feFlood flood-opacity="0" result="BackgroundImageFix"/>
<feColorMatrix in="SourceAlpha" type="matrix" values="0 0 0 0 0 0 0 0 0 0 0 0 0 0 0 0 0 0 127 0" result="hardAlpha"/>
<feOffset dy="3"/>
<feComposite in2="hardAlpha" operator="out"/>
<feColorMatrix type="matrix" values="0 0 0 0 0.627451 0 0 0 0 0.682353 0 0 0 0 0.752941 0 0 0 1 0"/>
<feBlend mode="normal" in2="BackgroundImageFix" result="effect1_dropShadow_3_194"/>
<feBlend mode="normal" in="SourceGraphic" in2="effect1_dropShadow_3_194" result="shape"/>
</filter>
</defs>
</svg>
