<svg width="400" height="300" viewBox="0 0 400 300" fill="none" xmlns="http://www.w3.org/2000/svg">
 
<rect x="55" y="55" width="290" height="190" rx="7" stroke="#CBD5E0" stroke-width="4"/>
<rect x="73" y="143" width="240" height="12" rx="6" fill="#38B2AC"/>
<rect x="73" y="85" width="136" height="12" rx="6" fill="#A0AEC0"/>
<rect x="73" y="114" width="171" height="12" rx="6" fill="#A0AEC0"/>
<rect x="73" y="172" width="136" height="12" rx="6" fill="#A0AEC0"/>
<rect x="73" y="201" width="169" height="12" rx="6" fill="#A0AEC0"/>
<path d="M259.996 162.937C259.073 162.654 258.241 162.842 257.594 163.078C257.039 162.417 256.115 161.804 254.914 161.804C253.99 161.804 253.204 162.087 252.604 162.37C251.911 161.473 250.802 160.623 249.139 160.623C248.215 160.623 247.475 160.906 246.829 161.237V154.721C246.829 152.833 245.581 150 242.209 150C238.836 150 237.589 152.833 237.589 154.721V167.941L237.311 167.658C237.126 167.422 235.278 165.25 232.922 165.345C230.704 165.392 229.318 166.336 228.44 168.414C227.377 170.964 228.533 172.002 228.856 172.238C229.734 172.852 230.611 173.655 230.704 173.986C230.842 174.41 231.627 176.724 233.153 178.99C233.753 179.888 234.539 180.548 235.093 181.068C235.278 181.256 235.463 181.398 235.602 181.54C235.74 181.681 235.971 181.918 236.202 182.154C236.711 182.626 237.311 183.24 237.866 183.854C238.328 184.42 239.39 186.733 239.991 188.245C240.176 188.669 240.592 189 241.054 189H257.225C257.64 189 257.964 188.811 258.195 188.433C258.379 188.103 263 180.69 263 176.016V167.517C262.999 165.061 261.937 163.55 259.996 162.937L259.996 162.937ZM260.689 175.968C260.689 179.037 257.963 184.23 256.577 186.592H241.792C241.284 185.364 240.268 183.098 239.574 182.295C238.974 181.587 238.327 180.973 237.773 180.407C237.542 180.171 237.357 180.029 237.218 179.84C237.034 179.651 236.848 179.462 236.571 179.273C236.063 178.849 235.462 178.282 235.047 177.668C233.984 176.11 233.198 174.315 232.875 173.229C232.505 172.096 230.934 170.869 230.287 170.349C230.287 170.208 230.334 169.877 230.565 169.311C231.073 168.083 231.674 167.706 233.014 167.658H233.06C234.123 167.658 235.232 168.697 235.601 169.169L237.911 171.765C238.234 172.143 238.743 172.237 239.204 172.096C239.666 171.907 239.944 171.482 239.944 171.01L239.944 154.722C239.944 154.344 240.037 152.361 242.254 152.361C244.38 152.361 244.564 154.155 244.564 154.722V167.706C244.564 168.367 245.072 168.886 245.72 168.886C246.367 168.886 246.875 168.367 246.875 167.706V164.307C247.198 163.882 248.03 162.985 249.185 162.985C250.294 162.985 250.848 163.835 251.033 164.165V167.706C251.033 168.368 251.541 168.887 252.188 168.887C252.835 168.887 253.344 168.368 253.344 167.706V164.732C253.667 164.496 254.267 164.165 254.961 164.165C255.608 164.165 255.977 164.637 256.116 164.921V167.706C256.116 168.368 256.624 168.887 257.271 168.887C257.918 168.887 258.427 168.368 258.427 167.706V165.298C258.704 165.157 259.027 165.062 259.35 165.157C259.998 165.393 260.737 165.724 260.737 167.47V175.969L260.689 175.968Z" fill="black"/>
<path d="M242.012 150.003C242.007 150.004 242.002 150.004 241.997 150.004L242.005 150L242.012 150.003Z" fill="white"/>
<path d="M256.582 186.592C257.968 184.23 260.694 179.037 260.694 175.968L260.742 175.969V167.47C260.742 165.724 260.003 165.393 259.356 165.157C259.033 165.062 258.709 165.157 258.432 165.298V167.706C258.432 168.368 257.924 168.887 257.277 168.887C256.629 168.887 256.121 168.368 256.121 167.706V164.921C255.982 164.637 255.613 164.165 254.966 164.165C254.272 164.165 253.672 164.496 253.349 164.732V167.706C253.349 168.368 252.841 168.887 252.193 168.887C251.546 168.887 251.038 168.368 251.038 167.706V164.165C250.853 163.835 250.299 162.985 249.19 162.985C248.035 162.985 247.203 163.882 246.88 164.307V167.706C246.88 168.367 246.372 168.886 245.725 168.886C245.078 168.886 244.569 168.367 244.569 167.706V154.722C244.569 154.155 244.385 152.361 242.259 152.361C240.042 152.361 239.949 154.344 239.949 154.722L239.949 171.01C239.949 171.482 239.672 171.907 239.21 172.096C238.748 172.237 238.24 172.143 237.916 171.765L235.606 169.169C235.237 168.697 234.128 167.658 233.065 167.658H233.019C231.679 167.706 231.078 168.083 230.57 169.311C230.339 169.877 230.293 170.208 230.293 170.349C230.316 170.368 230.341 170.388 230.367 170.409C231.052 170.958 232.524 172.138 232.88 173.229C233.203 174.315 233.989 176.11 235.052 177.668C235.467 178.282 236.068 178.849 236.576 179.273C236.853 179.462 237.039 179.651 237.223 179.84C237.312 179.961 237.42 180.063 237.547 180.182C237.618 180.249 237.695 180.322 237.778 180.407C237.913 180.544 238.053 180.685 238.197 180.83C238.644 181.278 239.125 181.76 239.58 182.295C240.273 183.098 241.289 185.364 241.798 186.592H256.582Z" fill="white"/>
</svg>
