<svg width="400" height="300" viewBox="0 0 400 300" fill="none" xmlns="http://www.w3.org/2000/svg">
 
<rect x="53" y="53" width="294" height="194" rx="13" fill="white"/>
<rect x="76" y="76" width="176" height="20" rx="10" fill="#A0AEC0"/>
<rect x="76" y="118" width="216" height="12" rx="6" fill="#CBD5E0"/>
<rect x="76" y="144" width="216" height="12" rx="6" fill="#CBD5E0"/>
<rect x="76" y="170" width="165" height="12" rx="6" fill="#CBD5E0"/>
<rect x="252" y="203" width="72" height="21" rx="4" fill="#E2E8F0"/>
<rect x="164" y="203" width="72" height="21" rx="4" fill="#38B2AC"/>
<g clip-path="url(#clip0_6_34)">
<path d="M308.293 92.2936C308.105 92.4812 308 92.7356 308 93.0008C308 93.266 308.105 93.5204 308.293 93.7079C308.481 93.8954 308.735 94.0007 309 94.0006C309.266 94.0006 309.52 93.8952 309.707 93.7076L315.882 87.5336C315.898 87.518 315.916 87.5057 315.936 87.4973C315.956 87.4889 315.978 87.4846 316 87.4846C316.022 87.4846 316.044 87.4889 316.064 87.4973C316.084 87.5057 316.103 87.518 316.118 87.5336L322.293 93.7089C322.386 93.8018 322.496 93.8755 322.617 93.9258C322.738 93.976 322.869 94.0019 323 94.002C323.131 94.002 323.261 93.9762 323.383 93.9259C323.504 93.8757 323.614 93.8021 323.707 93.7092C323.8 93.6164 323.874 93.5061 323.924 93.3848C323.974 93.2635 324 93.1335 324 93.0021C324 92.8708 323.974 92.7407 323.924 92.6194C323.874 92.498 323.8 92.3878 323.707 92.2949L317.533 86.1182C317.518 86.1027 317.506 86.0843 317.497 86.0641C317.489 86.0439 317.484 86.0221 317.484 86.0002C317.484 85.9783 317.489 85.9566 317.497 85.9363C317.506 85.9161 317.518 85.8977 317.533 85.8822L323.709 79.7076C323.896 79.5198 324.001 79.2652 324.001 78.9998C324.001 78.7345 323.896 78.4801 323.708 78.2926C323.52 78.105 323.265 77.9998 323 78C322.735 78.0002 322.48 78.1058 322.293 78.2936L316.118 84.4669C316.103 84.4824 316.084 84.4947 316.064 84.5031C316.044 84.5115 316.022 84.5159 316 84.5159C315.978 84.5159 315.956 84.5115 315.936 84.5031C315.916 84.4947 315.898 84.4824 315.882 84.4669L309.707 78.2936C309.615 78.2007 309.504 78.127 309.383 78.0767C309.262 78.0264 309.132 78.0005 309 78.0005C308.735 78.0004 308.481 78.1057 308.293 78.2932C308.105 78.4807 308 78.7351 308 79.0003C308 79.2656 308.105 79.52 308.293 79.7076L314.467 85.8822C314.482 85.8977 314.495 85.9161 314.503 85.9363C314.511 85.9566 314.516 85.9783 314.516 86.0002C314.516 86.0221 314.511 86.0439 314.503 86.0641C314.495 86.0843 314.482 86.1027 314.467 86.1182L308.293 92.2936Z" fill="#718096"/>
</g>
<defs>
<clipPath id="clip0_6_34">
<rect width="16" height="16" fill="white" transform="translate(308 78)"/>
</clipPath>
</defs>
</svg>
