<svg width="400" height="300" viewBox="0 0 400 300" fill="none" xmlns="http://www.w3.org/2000/svg">
 
<rect x="60" y="126" width="280" height="49" rx="8" fill="white"/>
<rect x="60" y="126" width="280" height="49" rx="8" stroke="#38B2AC" stroke-width="4"/>
<path d="M177.211 161H176.404C176.181 161 176 160.795 176 160.543C176 160.291 176.181 160.087 176.404 160.087H177.212C177.88 160.087 178.423 159.472 178.423 158.717V142.283C178.423 141.528 177.88 140.913 177.212 140.913L176.404 140.913C176.181 140.913 176 140.709 176 140.457C176 140.204 176.181 140 176.404 140H177.212C178.325 140 179.231 141.024 179.231 142.283V158.717C179.231 159.975 178.324 161 177.211 161V161Z" fill="#4A5568"/>
<path d="M181.25 161H180.442C179.329 161 178.423 159.975 178.423 158.717L178.423 142.283C178.423 141.025 179.329 140 180.442 140H181.25C181.473 140 181.654 140.205 181.654 140.457C181.654 140.709 181.473 140.913 181.25 140.913H180.442C179.774 140.913 179.231 141.528 179.231 142.283V158.717C179.231 159.473 179.774 160.087 180.442 160.087H181.25C181.473 160.087 181.654 160.291 181.654 160.543C181.654 160.795 181.473 161 181.25 161V161Z" fill="#4A5568"/>
<path d="M180.442 150.956H177.211C176.988 150.956 176.807 150.752 176.807 150.5C176.807 150.248 176.988 150.043 177.211 150.043H180.442C180.665 150.043 180.846 150.248 180.846 150.5C180.846 150.752 180.665 150.956 180.442 150.956Z" fill="#4A5568"/>
<path fill-rule="evenodd" clip-rule="evenodd" d="M121 161C120.448 161 120 160.552 120 160L120 141C120 140.448 120.448 140 121 140C121.552 140 122 140.448 122 141L122 160C122 160.552 121.552 161 121 161Z" fill="#4A5568"/>
<path d="M322.467 140.15C322.247 139.856 321.753 139.856 321.533 140.15L316.283 147.15C316.15 147.327 316.129 147.563 316.228 147.761C316.327 147.959 316.529 148.083 316.75 148.083H327.25C327.471 148.083 327.673 147.959 327.772 147.761C327.871 147.563 327.85 147.327 327.717 147.15L322.467 140.15Z" fill="#4A5568"/>
<path d="M321.533 160.85C321.753 161.144 322.247 161.144 322.467 160.85L327.717 153.85C327.85 153.673 327.871 153.437 327.772 153.239C327.673 153.041 327.471 152.917 327.25 152.917L316.75 152.917C316.529 152.917 316.327 153.041 316.228 153.239C316.129 153.437 316.15 153.673 316.283 153.85L321.533 160.85Z" fill="#4A5568"/>
<path d="M81.75 144.364V156H80.3409V145.841H80.2727L77.4318 147.727V146.295L80.3409 144.364H81.75ZM86.9048 156V154.977L90.7457 150.773C91.1965 150.28 91.5677 149.852 91.8594 149.489C92.151 149.121 92.367 148.777 92.5071 148.455C92.651 148.129 92.723 147.788 92.723 147.432C92.723 147.023 92.6245 146.669 92.4276 146.369C92.2344 146.07 91.9692 145.839 91.6321 145.676C91.295 145.513 90.9162 145.432 90.4957 145.432C90.0488 145.432 89.6586 145.525 89.3253 145.71C88.9957 145.892 88.7401 146.148 88.5582 146.477C88.3802 146.807 88.2912 147.193 88.2912 147.636H86.9503C86.9503 146.955 87.1075 146.356 87.4219 145.841C87.7363 145.326 88.1643 144.924 88.706 144.636C89.2514 144.348 89.8632 144.205 90.5412 144.205C91.223 144.205 91.8272 144.348 92.3537 144.636C92.8802 144.924 93.2931 145.312 93.5923 145.801C93.8916 146.29 94.0412 146.833 94.0412 147.432C94.0412 147.86 93.9635 148.278 93.8082 148.688C93.6567 149.093 93.3916 149.545 93.0128 150.045C92.6378 150.542 92.117 151.148 91.4503 151.864L88.8366 154.659V154.75H94.2457V156H86.9048ZM100.946 156.159C100.196 156.159 99.5275 156.03 98.9403 155.773C98.357 155.515 97.893 155.157 97.5483 154.699C97.2074 154.237 97.0218 153.701 96.9915 153.091H98.4233C98.4536 153.466 98.5824 153.79 98.8097 154.062C99.0369 154.331 99.3343 154.54 99.7017 154.688C100.069 154.835 100.476 154.909 100.923 154.909C101.423 154.909 101.866 154.822 102.253 154.648C102.639 154.473 102.942 154.231 103.162 153.92C103.382 153.61 103.491 153.25 103.491 152.841C103.491 152.413 103.385 152.036 103.173 151.71C102.961 151.381 102.651 151.123 102.241 150.938C101.832 150.752 101.332 150.659 100.741 150.659H99.8097V149.409H100.741C101.204 149.409 101.609 149.326 101.957 149.159C102.31 148.992 102.584 148.758 102.781 148.455C102.982 148.152 103.082 147.795 103.082 147.386C103.082 146.992 102.995 146.65 102.821 146.358C102.647 146.066 102.401 145.839 102.082 145.676C101.768 145.513 101.397 145.432 100.969 145.432C100.567 145.432 100.188 145.506 99.8324 145.653C99.4801 145.797 99.1922 146.008 98.9688 146.284C98.7453 146.557 98.6241 146.886 98.6051 147.273H97.2415C97.2642 146.663 97.4479 146.129 97.7926 145.67C98.1373 145.208 98.5881 144.848 99.1449 144.591C99.7055 144.333 100.321 144.205 100.991 144.205C101.711 144.205 102.329 144.35 102.844 144.642C103.359 144.93 103.755 145.311 104.031 145.784C104.308 146.258 104.446 146.769 104.446 147.318C104.446 147.973 104.274 148.532 103.929 148.994C103.588 149.456 103.124 149.777 102.537 149.955V150.045C103.272 150.167 103.846 150.479 104.259 150.983C104.671 151.483 104.878 152.102 104.878 152.841C104.878 153.473 104.705 154.042 104.361 154.545C104.02 155.045 103.554 155.439 102.963 155.727C102.372 156.015 101.7 156.159 100.946 156.159ZM107.01 153.614V152.455L112.124 144.364H112.964V146.159H112.396L108.533 152.273V152.364H115.419V153.614H107.01ZM112.487 156V153.261V152.722V144.364H113.828V156H112.487Z" fill="#4A5568"/>
</svg>
