<svg width="400" height="300" viewBox="0 0 400 300" fill="none" xmlns="http://www.w3.org/2000/svg">
 
<rect x="53" y="53" width="112" height="45" rx="6" fill="white"/>
<path fill-rule="evenodd" clip-rule="evenodd" d="M71 75.5C71 73.0147 73.0147 71 75.5 71H116.5C118.985 71 121 73.0147 121 75.5C121 77.9853 118.985 80 116.5 80H75.5C73.0147 80 71 77.9853 71 75.5Z" fill="#CBD5E0"/>
<path d="M146.59 72.5898L142 77.1698L137.41 72.5898L136 73.9998L142 79.9998L148 73.9998L146.59 72.5898Z" fill="#A0AEC0"/>
<rect x="51.5" y="109.5" width="297" height="139" rx="7.5" stroke="#38B2AC" stroke-width="3" stroke-dasharray="6 6"/>
<rect x="65" y="123" width="270" height="112" rx="6" fill="white"/>
<rect x="65" y="161.706" width="270" height="34.5882" fill="#E2E8F0"/>
<path fill-rule="evenodd" clip-rule="evenodd" d="M81.5306 141.529C81.5306 139.482 83.3809 137.823 85.6633 137.823H205.969C208.252 137.823 210.102 139.482 210.102 141.529C210.102 143.576 208.252 145.235 205.969 145.235H85.6633C83.3809 145.235 81.5306 143.576 81.5306 141.529Z" fill="#CBD5E0"/>
<path fill-rule="evenodd" clip-rule="evenodd" d="M81.5306 178.589C81.5306 176.542 83.3809 174.883 85.6633 174.883H297.806C300.089 174.883 301.939 176.542 301.939 178.589C301.939 180.635 300.089 182.295 297.806 182.295H85.6633C83.3809 182.295 81.5306 180.635 81.5306 178.589Z" fill="#CBD5E0"/>
<path fill-rule="evenodd" clip-rule="evenodd" d="M81.5306 216.471C81.5306 214.424 83.3809 212.765 85.6633 212.765H242.704C244.986 212.765 246.837 214.424 246.837 216.471C246.837 218.517 244.986 220.176 242.704 220.176H85.6633C83.3809 220.176 81.5306 218.517 81.5306 216.471Z" fill="#CBD5E0"/>
</svg>
