<svg width="400" height="300" viewBox="0 0 400 300" fill="none" xmlns="http://www.w3.org/2000/svg">
 
<circle cx="70.5" cy="91.5" r="17.5" fill="white"/>
<path fill-rule="evenodd" clip-rule="evenodd" d="M101 91.5C101 87.0817 105.287 83.5 110.576 83.5H337.424C342.713 83.5 347 87.0817 347 91.5C347 95.9183 342.713 99.5 337.424 99.5H110.576C105.287 99.5 101 95.9183 101 91.5Z" fill="#A0AEC0"/>
<circle cx="70.5" cy="150.5" r="13" fill="white" stroke="#38B2AC" stroke-width="9"/>
<path fill-rule="evenodd" clip-rule="evenodd" d="M101 150.5C101 146.082 105.287 142.5 110.576 142.5H337.424C342.713 142.5 347 146.082 347 150.5C347 154.918 342.713 158.5 337.424 158.5H110.576C105.287 158.5 101 154.918 101 150.5Z" fill="#38B2AC"/>
<circle cx="70.5" cy="209.5" r="17.5" fill="white"/>
<path fill-rule="evenodd" clip-rule="evenodd" d="M101 209.5C101 205.082 105.287 201.5 110.576 201.5H337.424C342.713 201.5 347 205.082 347 209.5C347 213.918 342.713 217.5 337.424 217.5H110.576C105.287 217.5 101 213.918 101 209.5Z" fill="#A0AEC0"/>
</svg>
