<svg width="400" height="300" viewBox="0 0 400 300" fill="none" xmlns="http://www.w3.org/2000/svg">
<g clip-path="url(#clip0_3_103)">
 
<rect x="53" y="128" width="294" height="45" rx="6" fill="white"/>
<path fill-rule="evenodd" clip-rule="evenodd" d="M71 150.5C71 148.015 73.0147 146 75.5 146H196.5C198.985 146 201 148.015 201 150.5C201 152.985 198.985 155 196.5 155H75.5C73.0147 155 71 152.985 71 150.5Z" fill="#A0AEC0"/>
<path d="M328.59 147.59L324 152.17L319.41 147.59L318 149L324 155L330 149L328.59 147.59Z" fill="#718096"/>
<rect x="53" y="181" width="294" height="136" rx="6" fill="white"/>
<rect x="53" y="228" width="294" height="42" fill="#E6FFFA"/>
<path fill-rule="evenodd" clip-rule="evenodd" d="M71 203.5C71 201.015 73.0147 199 75.5 199H206.5C208.985 199 211 201.015 211 203.5C211 205.985 208.985 208 206.5 208H75.5C73.0147 208 71 205.985 71 203.5Z" fill="#A0AEC0"/>
<path fill-rule="evenodd" clip-rule="evenodd" d="M71 248.5C71 246.015 73.0147 244 75.5 244H306.5C308.985 244 311 246.015 311 248.5C311 250.985 308.985 253 306.5 253H75.5C73.0147 253 71 250.985 71 248.5Z" fill="#38B2AC"/>
<path fill-rule="evenodd" clip-rule="evenodd" d="M71 294.5C71 292.015 73.0147 290 75.5 290H246.5C248.985 290 251 292.015 251 294.5C251 296.985 248.985 299 246.5 299H75.5C73.0147 299 71 296.985 71 294.5Z" fill="#A0AEC0"/>
<path d="M342.284 264.298C341.756 264.138 341.281 264.244 340.911 264.377C340.594 264.004 340.066 263.658 339.379 263.658C338.852 263.658 338.402 263.818 338.059 263.978C337.664 263.472 337.03 262.992 336.079 262.992C335.551 262.992 335.129 263.152 334.759 263.339V259.663C334.759 258.598 334.046 257 332.119 257C330.192 257 329.479 258.598 329.479 259.663V267.121L329.32 266.961C329.215 266.828 328.159 265.603 326.812 265.656C325.545 265.683 324.753 266.215 324.251 267.387C323.644 268.826 324.304 269.412 324.489 269.545C324.991 269.891 325.492 270.344 325.545 270.53C325.624 270.77 326.073 272.075 326.944 273.354C327.288 273.86 327.736 274.232 328.053 274.525C328.159 274.632 328.265 274.712 328.344 274.792C328.423 274.871 328.555 275.005 328.687 275.138C328.977 275.404 329.321 275.751 329.638 276.097C329.902 276.417 330.509 277.721 330.852 278.574C330.958 278.813 331.195 279 331.459 279H340.7C340.937 279 341.122 278.894 341.254 278.68C341.36 278.494 344 274.312 344 271.676V266.882C344 265.496 343.392 264.644 342.283 264.298L342.284 264.298ZM342.68 271.649C342.68 273.38 341.122 276.309 340.33 277.641H331.881C331.591 276.949 331.01 275.671 330.614 275.218C330.271 274.818 329.901 274.472 329.584 274.152C329.452 274.019 329.347 273.939 329.268 273.833C329.162 273.726 329.056 273.62 328.898 273.513C328.607 273.274 328.264 272.954 328.027 272.608C327.419 271.729 326.97 270.716 326.786 270.104C326.574 269.465 325.677 268.772 325.307 268.479C325.307 268.399 325.334 268.213 325.466 267.893C325.756 267.201 326.099 266.988 326.865 266.961H326.891C327.499 266.961 328.132 267.547 328.343 267.813L329.663 269.278C329.848 269.491 330.139 269.544 330.403 269.464C330.667 269.358 330.825 269.118 330.825 268.852L330.825 259.663C330.825 259.45 330.878 258.332 332.145 258.332C333.36 258.332 333.465 259.344 333.465 259.663V266.988C333.465 267.361 333.756 267.654 334.125 267.654C334.495 267.654 334.786 267.361 334.786 266.988V265.07C334.97 264.831 335.446 264.325 336.106 264.325C336.739 264.325 337.056 264.804 337.162 264.991V266.988C337.162 267.361 337.452 267.654 337.822 267.654C338.192 267.654 338.482 267.361 338.482 266.988V265.31C338.667 265.177 339.01 264.991 339.406 264.991C339.776 264.991 339.987 265.257 340.066 265.417V266.988C340.066 267.361 340.357 267.654 340.727 267.654C341.096 267.654 341.387 267.361 341.387 266.988V265.63C341.545 265.55 341.73 265.497 341.915 265.55C342.284 265.683 342.707 265.87 342.707 266.855V271.649L342.68 271.649Z" fill="black"/>
<path d="M332.007 257.002C332.004 257.002 332.001 257.002 331.998 257.002L332.003 257L332.007 257.002Z" fill="white"/>
<path d="M340.333 277.641C341.125 276.309 342.683 273.38 342.683 271.649L342.71 271.649V266.855C342.71 265.87 342.287 265.683 341.917 265.55C341.733 265.497 341.548 265.55 341.39 265.63V266.988C341.39 267.361 341.099 267.654 340.729 267.654C340.36 267.654 340.069 267.361 340.069 266.988V265.417C339.99 265.257 339.779 264.991 339.409 264.991C339.013 264.991 338.67 265.177 338.485 265.31V266.988C338.485 267.361 338.195 267.654 337.825 267.654C337.455 267.654 337.165 267.361 337.165 266.988V264.991C337.059 264.804 336.742 264.325 336.109 264.325C335.449 264.325 334.973 264.831 334.789 265.07V266.988C334.789 267.361 334.498 267.654 334.128 267.654C333.759 267.654 333.468 267.361 333.468 266.988V259.663C333.468 259.344 333.363 258.332 332.148 258.332C330.881 258.332 330.828 259.45 330.828 259.663L330.828 268.852C330.828 269.118 330.669 269.358 330.405 269.464C330.142 269.544 329.851 269.491 329.666 269.278L328.346 267.813C328.135 267.547 327.502 266.961 326.894 266.961H326.868C326.102 266.988 325.759 267.201 325.468 267.893C325.337 268.213 325.31 268.399 325.31 268.479C325.324 268.49 325.338 268.501 325.353 268.513C325.744 268.823 326.585 269.488 326.789 270.104C326.973 270.716 327.422 271.729 328.03 272.608C328.267 272.954 328.61 273.274 328.901 273.513C329.059 273.62 329.165 273.726 329.27 273.833C329.321 273.901 329.383 273.958 329.455 274.026C329.496 274.064 329.54 274.105 329.587 274.152C329.664 274.23 329.745 274.31 329.827 274.391C330.083 274.644 330.357 274.916 330.617 275.218C331.013 275.671 331.594 276.949 331.884 277.641H340.333Z" fill="white"/>
</g>
<defs>
<clipPath id="clip0_3_103">
<rect width="400" height="300" fill="white"/>
</clipPath>
</defs>
</svg>
