<svg width="400" height="300" viewBox="0 0 400 300" fill="none" xmlns="http://www.w3.org/2000/svg">
 
<rect x="64" y="111" width="273" height="79" rx="12" fill="#38B2AC"/>
<path d="M118.391 146.058C118.292 145.184 117.886 144.507 117.172 144.027C116.458 143.541 115.559 143.298 114.476 143.298C113.7 143.298 113.029 143.421 112.463 143.667C111.897 143.907 111.457 144.239 111.143 144.664C110.835 145.083 110.681 145.56 110.681 146.095C110.681 146.545 110.786 146.932 110.995 147.259C111.21 147.585 111.491 147.859 111.835 148.08C112.186 148.296 112.562 148.477 112.962 148.625C113.362 148.767 113.746 148.884 114.116 148.976L115.962 149.456C116.566 149.604 117.184 149.804 117.818 150.056C118.452 150.308 119.04 150.641 119.582 151.053C120.123 151.466 120.56 151.977 120.893 152.586C121.231 153.195 121.401 153.925 121.401 154.774C121.401 155.845 121.124 156.796 120.57 157.627C120.022 158.458 119.225 159.114 118.178 159.594C117.138 160.074 115.879 160.314 114.402 160.314C112.986 160.314 111.761 160.089 110.727 159.64C109.693 159.191 108.884 158.554 108.299 157.729C107.714 156.898 107.391 155.913 107.33 154.774H110.192C110.247 155.457 110.469 156.027 110.857 156.482C111.25 156.932 111.752 157.267 112.362 157.489C112.977 157.704 113.651 157.812 114.384 157.812C115.19 157.812 115.907 157.686 116.535 157.433C117.169 157.175 117.667 156.818 118.031 156.362C118.394 155.901 118.575 155.362 118.575 154.746C118.575 154.186 118.415 153.728 118.095 153.371C117.781 153.014 117.353 152.718 116.812 152.484C116.276 152.25 115.67 152.044 114.993 151.866L112.759 151.256C111.244 150.844 110.044 150.238 109.158 149.438C108.277 148.637 107.837 147.579 107.837 146.261C107.837 145.172 108.133 144.221 108.724 143.408C109.315 142.596 110.115 141.965 111.124 141.516C112.134 141.06 113.272 140.832 114.54 140.832C115.821 140.832 116.95 141.057 117.929 141.506C118.914 141.956 119.689 142.574 120.256 143.362C120.822 144.144 121.117 145.043 121.142 146.058H118.391ZM127.127 155.19L127.109 151.82H127.589L133.24 145.818H136.545L130.1 152.651H129.666L127.127 155.19ZM124.588 160V141.091H127.349V160H124.588ZM133.544 160L128.466 153.26L130.368 151.33L136.933 160H133.544ZM139.061 160V145.818H141.822V160H139.061ZM140.455 143.63C139.975 143.63 139.563 143.47 139.218 143.15C138.879 142.824 138.71 142.436 138.71 141.987C138.71 141.531 138.879 141.143 139.218 140.823C139.563 140.497 139.975 140.334 140.455 140.334C140.935 140.334 141.345 140.497 141.683 140.823C142.028 141.143 142.2 141.531 142.2 141.987C142.2 142.436 142.028 142.824 141.683 143.15C141.345 143.47 140.935 143.63 140.455 143.63ZM145.536 165.318V145.818H148.232V148.117H148.462C148.622 147.822 148.853 147.48 149.155 147.092C149.456 146.705 149.875 146.366 150.411 146.077C150.946 145.781 151.654 145.634 152.534 145.634C153.679 145.634 154.701 145.923 155.599 146.501C156.498 147.08 157.203 147.914 157.714 149.004C158.231 150.093 158.489 151.404 158.489 152.937C158.489 154.469 158.234 155.784 157.723 156.879C157.212 157.969 156.51 158.809 155.618 159.4C154.725 159.985 153.707 160.277 152.562 160.277C151.7 160.277 150.995 160.132 150.447 159.843C149.906 159.554 149.481 159.215 149.173 158.827C148.866 158.44 148.629 158.095 148.462 157.793H148.296V165.318H145.536ZM148.241 152.909C148.241 153.906 148.385 154.78 148.675 155.531C148.964 156.282 149.383 156.87 149.93 157.295C150.478 157.713 151.149 157.923 151.943 157.923C152.768 157.923 153.457 157.704 154.011 157.267C154.565 156.824 154.984 156.224 155.267 155.467C155.556 154.71 155.701 153.857 155.701 152.909C155.701 151.973 155.559 151.133 155.276 150.388C154.999 149.644 154.581 149.056 154.021 148.625C153.467 148.194 152.774 147.979 151.943 147.979C151.143 147.979 150.466 148.185 149.912 148.597C149.364 149.01 148.949 149.585 148.665 150.324C148.382 151.062 148.241 151.924 148.241 152.909ZM175.083 145.818V148.034H167.337V145.818H175.083ZM169.414 142.42H172.175V155.836C172.175 156.371 172.255 156.775 172.415 157.045C172.575 157.31 172.781 157.492 173.034 157.59C173.292 157.683 173.572 157.729 173.874 157.729C174.095 157.729 174.289 157.713 174.455 157.683C174.622 157.652 174.751 157.627 174.843 157.609L175.342 159.889C175.182 159.951 174.954 160.012 174.659 160.074C174.363 160.142 173.994 160.179 173.551 160.185C172.824 160.197 172.147 160.068 171.519 159.797C170.892 159.526 170.384 159.107 169.996 158.541C169.608 157.975 169.414 157.264 169.414 156.408V142.42ZM183.958 160.286C182.629 160.286 181.469 159.982 180.478 159.372C179.487 158.763 178.717 157.91 178.169 156.815C177.622 155.719 177.348 154.439 177.348 152.974C177.348 151.503 177.622 150.216 178.169 149.114C178.717 148.013 179.487 147.157 180.478 146.548C181.469 145.938 182.629 145.634 183.958 145.634C185.288 145.634 186.448 145.938 187.439 146.548C188.43 147.157 189.2 148.013 189.748 149.114C190.295 150.216 190.569 151.503 190.569 152.974C190.569 154.439 190.295 155.719 189.748 156.815C189.2 157.91 188.43 158.763 187.439 159.372C186.448 159.982 185.288 160.286 183.958 160.286ZM183.968 157.969C184.829 157.969 185.543 157.741 186.11 157.286C186.676 156.83 187.095 156.224 187.365 155.467C187.642 154.71 187.781 153.875 187.781 152.964C187.781 152.06 187.642 151.229 187.365 150.472C187.095 149.708 186.676 149.096 186.11 148.634C185.543 148.173 184.829 147.942 183.968 147.942C183.1 147.942 182.38 148.173 181.807 148.634C181.241 149.096 180.819 149.708 180.542 150.472C180.271 151.229 180.136 152.06 180.136 152.964C180.136 153.875 180.271 154.71 180.542 155.467C180.819 156.224 181.241 156.83 181.807 157.286C182.38 157.741 183.1 157.969 183.968 157.969ZM206.505 160.286C205.133 160.286 203.951 159.975 202.96 159.354C201.975 158.726 201.218 157.861 200.689 156.759C200.159 155.657 199.895 154.396 199.895 152.974C199.895 151.533 200.165 150.262 200.707 149.161C201.249 148.053 202.012 147.188 202.997 146.566C203.982 145.944 205.142 145.634 206.478 145.634C207.555 145.634 208.515 145.834 209.358 146.234C210.202 146.628 210.882 147.182 211.399 147.896C211.922 148.61 212.233 149.444 212.331 150.398H209.645C209.497 149.733 209.158 149.161 208.629 148.68C208.106 148.2 207.404 147.96 206.524 147.96C205.754 147.96 205.08 148.163 204.502 148.57C203.929 148.97 203.483 149.542 203.163 150.287C202.843 151.026 202.683 151.9 202.683 152.909C202.683 153.943 202.84 154.836 203.154 155.587C203.468 156.338 203.911 156.919 204.483 157.332C205.062 157.744 205.742 157.95 206.524 157.95C207.047 157.95 207.521 157.855 207.946 157.664C208.377 157.467 208.737 157.187 209.026 156.824C209.321 156.461 209.528 156.024 209.645 155.513H212.331C212.233 156.43 211.934 157.249 211.436 157.969C210.937 158.689 210.269 159.255 209.432 159.668C208.601 160.08 207.626 160.286 206.505 160.286ZM221.257 160.286C219.928 160.286 218.767 159.982 217.776 159.372C216.785 158.763 216.016 157.91 215.468 156.815C214.92 155.719 214.646 154.439 214.646 152.974C214.646 151.503 214.92 150.216 215.468 149.114C216.016 148.013 216.785 147.157 217.776 146.548C218.767 145.938 219.928 145.634 221.257 145.634C222.587 145.634 223.747 145.938 224.738 146.548C225.729 147.157 226.499 148.013 227.046 149.114C227.594 150.216 227.868 151.503 227.868 152.974C227.868 154.439 227.594 155.719 227.046 156.815C226.499 157.91 225.729 158.763 224.738 159.372C223.747 159.982 222.587 160.286 221.257 160.286ZM221.267 157.969C222.128 157.969 222.842 157.741 223.409 157.286C223.975 156.83 224.393 156.224 224.664 155.467C224.941 154.71 225.08 153.875 225.08 152.964C225.08 152.06 224.941 151.229 224.664 150.472C224.393 149.708 223.975 149.096 223.409 148.634C222.842 148.173 222.128 147.942 221.267 147.942C220.399 147.942 219.678 148.173 219.106 148.634C218.54 149.096 218.118 149.708 217.841 150.472C217.57 151.229 217.435 152.06 217.435 152.964C217.435 153.875 217.57 154.71 217.841 155.467C218.118 156.224 218.54 156.83 219.106 157.286C219.678 157.741 220.399 157.969 221.267 157.969ZM233.71 151.58V160H230.95V145.818H233.599V148.126H233.775C234.101 147.375 234.612 146.772 235.308 146.317C236.009 145.861 236.893 145.634 237.957 145.634C238.924 145.634 239.77 145.837 240.496 146.243C241.223 146.643 241.786 147.24 242.186 148.034C242.586 148.828 242.786 149.81 242.786 150.979V160H240.026V151.312C240.026 150.284 239.758 149.481 239.222 148.902C238.687 148.317 237.951 148.025 237.016 148.025C236.375 148.025 235.806 148.163 235.308 148.44C234.815 148.717 234.424 149.124 234.135 149.659C233.852 150.188 233.71 150.829 233.71 151.58ZM253.109 145.818V148.034H245.362V145.818H253.109ZM247.44 142.42H250.2V155.836C250.2 156.371 250.28 156.775 250.44 157.045C250.6 157.31 250.807 157.492 251.059 157.59C251.317 157.683 251.598 157.729 251.899 157.729C252.121 157.729 252.315 157.713 252.481 157.683C252.647 157.652 252.776 157.627 252.869 157.609L253.367 159.889C253.207 159.951 252.979 160.012 252.684 160.074C252.388 160.142 252.019 160.179 251.576 160.185C250.85 160.197 250.173 160.068 249.545 159.797C248.917 159.526 248.409 159.107 248.021 158.541C247.634 157.975 247.44 157.264 247.44 156.408V142.42ZM262.122 160.286C260.725 160.286 259.522 159.988 258.512 159.391C257.509 158.787 256.733 157.941 256.186 156.852C255.644 155.756 255.373 154.473 255.373 153.001C255.373 151.549 255.644 150.268 256.186 149.161C256.733 148.053 257.497 147.188 258.475 146.566C259.46 145.944 260.611 145.634 261.928 145.634C262.729 145.634 263.504 145.766 264.255 146.031C265.006 146.295 265.68 146.711 266.277 147.277C266.874 147.843 267.345 148.579 267.69 149.484C268.035 150.382 268.207 151.475 268.207 152.761V153.74H256.933V151.672H265.502C265.502 150.946 265.354 150.302 265.058 149.742C264.763 149.176 264.347 148.73 263.812 148.403C263.283 148.077 262.661 147.914 261.947 147.914C261.171 147.914 260.494 148.105 259.916 148.487C259.343 148.862 258.9 149.354 258.586 149.964C258.278 150.567 258.124 151.223 258.124 151.93V153.546C258.124 154.494 258.291 155.3 258.623 155.965C258.962 156.63 259.432 157.138 260.036 157.489C260.639 157.833 261.344 158.006 262.15 158.006C262.673 158.006 263.15 157.932 263.581 157.784C264.012 157.63 264.384 157.402 264.698 157.101C265.012 156.799 265.252 156.427 265.419 155.984L268.031 156.455C267.822 157.224 267.447 157.898 266.905 158.477C266.369 159.049 265.695 159.495 264.883 159.815C264.077 160.129 263.156 160.286 262.122 160.286ZM274.031 151.58V160H271.27V145.818H273.92V148.126H274.095C274.421 147.375 274.932 146.772 275.628 146.317C276.33 145.861 277.213 145.634 278.278 145.634C279.244 145.634 280.09 145.837 280.817 146.243C281.543 146.643 282.106 147.24 282.506 148.034C282.906 148.828 283.107 149.81 283.107 150.979V160H280.346V151.312C280.346 150.284 280.078 149.481 279.543 148.902C279.007 148.317 278.272 148.025 277.336 148.025C276.696 148.025 276.126 148.163 275.628 148.44C275.135 148.717 274.745 149.124 274.455 149.659C274.172 150.188 274.031 150.829 274.031 151.58ZM293.429 145.818V148.034H285.683V145.818H293.429ZM287.76 142.42H290.521V155.836C290.521 156.371 290.601 156.775 290.761 157.045C290.921 157.31 291.127 157.492 291.379 157.59C291.638 157.683 291.918 157.729 292.219 157.729C292.441 157.729 292.635 157.713 292.801 157.683C292.967 157.652 293.097 157.627 293.189 157.609L293.688 159.889C293.527 159.951 293.3 160.012 293.004 160.074C292.709 160.142 292.339 160.179 291.896 160.185C291.17 160.197 290.493 160.068 289.865 159.797C289.237 159.526 288.729 159.107 288.342 158.541C287.954 157.975 287.76 157.264 287.76 156.408V142.42Z" fill="white"/>
<path d="M326.996 182.937C326.073 182.654 325.241 182.842 324.594 183.078C324.039 182.417 323.115 181.804 321.914 181.804C320.99 181.804 320.204 182.087 319.604 182.37C318.911 181.473 317.802 180.623 316.139 180.623C315.215 180.623 314.475 180.906 313.829 181.237V174.721C313.829 172.833 312.581 170 309.209 170C305.836 170 304.589 172.833 304.589 174.721V187.941L304.311 187.658C304.126 187.422 302.278 185.25 299.922 185.345C297.704 185.392 296.318 186.336 295.44 188.414C294.377 190.964 295.533 192.002 295.856 192.238C296.734 192.852 297.611 193.655 297.704 193.986C297.842 194.41 298.627 196.724 300.153 198.99C300.753 199.888 301.539 200.548 302.093 201.068C302.278 201.256 302.463 201.398 302.602 201.54C302.74 201.681 302.971 201.918 303.202 202.154C303.711 202.626 304.311 203.24 304.866 203.854C305.328 204.42 306.39 206.733 306.991 208.245C307.176 208.669 307.592 209 308.054 209H324.225C324.64 209 324.964 208.811 325.195 208.433C325.379 208.103 330 200.69 330 196.016V187.517C329.999 185.061 328.937 183.55 326.996 182.937L326.996 182.937ZM327.689 195.968C327.689 199.037 324.963 204.23 323.577 206.592H308.792C308.284 205.364 307.268 203.098 306.574 202.295C305.974 201.587 305.327 200.973 304.773 200.407C304.542 200.171 304.357 200.029 304.218 199.84C304.034 199.651 303.848 199.462 303.571 199.273C303.063 198.849 302.462 198.282 302.047 197.668C300.984 196.11 300.198 194.315 299.875 193.229C299.505 192.096 297.934 190.869 297.287 190.349C297.287 190.208 297.334 189.877 297.565 189.311C298.073 188.083 298.674 187.706 300.014 187.658H300.06C301.123 187.658 302.232 188.697 302.601 189.169L304.911 191.765C305.234 192.143 305.743 192.237 306.204 192.096C306.666 191.907 306.944 191.482 306.944 191.01L306.944 174.722C306.944 174.344 307.037 172.361 309.254 172.361C311.38 172.361 311.564 174.155 311.564 174.722V187.706C311.564 188.367 312.072 188.886 312.72 188.886C313.367 188.886 313.875 188.367 313.875 187.706V184.307C314.198 183.882 315.03 182.985 316.185 182.985C317.294 182.985 317.848 183.835 318.033 184.165V187.706C318.033 188.368 318.541 188.887 319.188 188.887C319.835 188.887 320.344 188.368 320.344 187.706V184.732C320.667 184.496 321.267 184.165 321.961 184.165C322.608 184.165 322.977 184.637 323.116 184.921V187.706C323.116 188.368 323.624 188.887 324.271 188.887C324.918 188.887 325.427 188.368 325.427 187.706V185.298C325.704 185.157 326.027 185.062 326.35 185.157C326.998 185.393 327.737 185.724 327.737 187.47V195.969L327.689 195.968Z" fill="black"/>
<path d="M309.012 170.003C309.007 170.004 309.002 170.004 308.997 170.004L309.005 170L309.012 170.003Z" fill="white"/>
<path d="M323.582 206.592C324.968 204.23 327.694 199.037 327.694 195.968L327.742 195.969V187.47C327.742 185.724 327.003 185.393 326.355 185.157C326.032 185.062 325.709 185.157 325.432 185.298V187.706C325.432 188.368 324.923 188.887 324.276 188.887C323.629 188.887 323.121 188.368 323.121 187.706V184.921C322.982 184.637 322.613 184.165 321.966 184.165C321.272 184.165 320.672 184.496 320.349 184.732V187.706C320.349 188.368 319.84 188.887 319.193 188.887C318.546 188.887 318.038 188.368 318.038 187.706V184.165C317.853 183.835 317.299 182.985 316.19 182.985C315.035 182.985 314.203 183.882 313.88 184.307V187.706C313.88 188.367 313.372 188.886 312.725 188.886C312.077 188.886 311.569 188.367 311.569 187.706V174.722C311.569 174.155 311.385 172.361 309.259 172.361C307.042 172.361 306.949 174.344 306.949 174.722L306.949 191.01C306.949 191.482 306.671 191.907 306.209 192.096C305.748 192.237 305.239 192.143 304.916 191.765L302.606 189.169C302.237 188.697 301.128 187.658 300.065 187.658H300.019C298.679 187.706 298.078 188.083 297.57 189.311C297.339 189.877 297.292 190.208 297.292 190.349C297.316 190.368 297.341 190.388 297.367 190.409C298.052 190.958 299.523 192.138 299.88 193.229C300.203 194.315 300.989 196.11 302.052 197.668C302.467 198.282 303.068 198.849 303.576 199.273C303.853 199.462 304.039 199.651 304.223 199.84C304.312 199.961 304.42 200.063 304.547 200.182C304.618 200.249 304.695 200.322 304.778 200.407C304.913 200.544 305.053 200.685 305.197 200.83C305.644 201.278 306.125 201.76 306.579 202.295C307.273 203.098 308.289 205.364 308.797 206.592H323.582Z" fill="white"/>
</svg>
