<svg width="400" height="300" viewBox="0 0 400 300" fill="none" xmlns="http://www.w3.org/2000/svg">
 
<path d="M123.531 110.276C123.455 109.603 123.143 109.082 122.594 108.713C122.045 108.339 121.353 108.152 120.52 108.152C119.923 108.152 119.407 108.247 118.972 108.436C118.536 108.621 118.197 108.876 117.956 109.203C117.719 109.525 117.601 109.892 117.601 110.304C117.601 110.65 117.681 110.948 117.842 111.199C118.008 111.45 118.223 111.661 118.489 111.831C118.759 111.997 119.047 112.136 119.355 112.25C119.663 112.359 119.959 112.449 120.243 112.52L121.663 112.889C122.127 113.003 122.603 113.157 123.091 113.351C123.579 113.545 124.031 113.801 124.447 114.118C124.864 114.435 125.2 114.828 125.456 115.297C125.716 115.766 125.847 116.327 125.847 116.98C125.847 117.804 125.634 118.536 125.207 119.175C124.786 119.814 124.173 120.318 123.368 120.688C122.568 121.057 121.599 121.241 120.463 121.241C119.374 121.241 118.432 121.069 117.636 120.723C116.841 120.377 116.218 119.887 115.768 119.253C115.319 118.614 115.07 117.856 115.023 116.98H117.224C117.267 117.506 117.438 117.944 117.736 118.294C118.039 118.64 118.425 118.898 118.893 119.068C119.367 119.234 119.885 119.317 120.449 119.317C121.069 119.317 121.621 119.22 122.104 119.026C122.591 118.827 122.975 118.552 123.254 118.202C123.534 117.847 123.673 117.432 123.673 116.959C123.673 116.528 123.55 116.175 123.304 115.901C123.063 115.626 122.733 115.399 122.317 115.219C121.905 115.039 121.438 114.88 120.918 114.743L119.199 114.274C118.034 113.957 117.111 113.491 116.429 112.875C115.752 112.259 115.413 111.445 115.413 110.432C115.413 109.594 115.641 108.862 116.095 108.237C116.55 107.612 117.165 107.127 117.942 106.781C118.718 106.431 119.594 106.256 120.57 106.256C121.554 106.256 122.423 106.429 123.176 106.774C123.934 107.12 124.53 107.596 124.966 108.202C125.402 108.803 125.629 109.494 125.648 110.276H123.531ZM133 121.22C131.926 121.22 131 120.991 130.223 120.531C129.452 120.067 128.855 119.416 128.434 118.578C128.017 117.735 127.809 116.748 127.809 115.616C127.809 114.499 128.017 113.514 128.434 112.662C128.855 111.81 129.442 111.144 130.195 110.666C130.953 110.188 131.838 109.949 132.851 109.949C133.467 109.949 134.063 110.051 134.641 110.254C135.219 110.458 135.737 110.777 136.196 111.213C136.656 111.649 137.018 112.214 137.283 112.911C137.548 113.602 137.681 114.442 137.681 115.432V116.185H129.009V114.594H135.6C135.6 114.035 135.486 113.54 135.259 113.109C135.032 112.674 134.712 112.33 134.3 112.08C133.893 111.829 133.415 111.703 132.865 111.703C132.269 111.703 131.748 111.85 131.303 112.143C130.863 112.432 130.522 112.811 130.28 113.28C130.043 113.744 129.925 114.248 129.925 114.793V116.036C129.925 116.765 130.053 117.385 130.309 117.896C130.569 118.408 130.931 118.798 131.395 119.068C131.859 119.333 132.401 119.466 133.022 119.466C133.424 119.466 133.791 119.409 134.123 119.295C134.454 119.177 134.74 119.002 134.982 118.77C135.223 118.538 135.408 118.251 135.536 117.911L137.546 118.273C137.385 118.865 137.096 119.383 136.679 119.828C136.267 120.268 135.749 120.612 135.124 120.858C134.504 121.099 133.796 121.22 133 121.22ZM142.161 114.523V121H140.037V110.091H142.075V111.866H142.21C142.461 111.289 142.854 110.825 143.389 110.474C143.929 110.124 144.608 109.949 145.428 109.949C146.171 109.949 146.822 110.105 147.381 110.418C147.939 110.725 148.373 111.185 148.68 111.795C148.988 112.406 149.142 113.161 149.142 114.061V121H147.018V114.317C147.018 113.526 146.813 112.908 146.401 112.463C145.989 112.013 145.423 111.788 144.703 111.788C144.211 111.788 143.773 111.895 143.389 112.108C143.01 112.321 142.71 112.634 142.487 113.045C142.269 113.453 142.161 113.945 142.161 114.523ZM157.082 110.091V111.795H151.124V110.091H157.082ZM152.722 107.477H154.845V117.797C154.845 118.209 154.907 118.519 155.03 118.727C155.153 118.931 155.312 119.071 155.506 119.146C155.705 119.217 155.92 119.253 156.152 119.253C156.322 119.253 156.472 119.241 156.599 119.217C156.727 119.194 156.827 119.175 156.898 119.161L157.281 120.915C157.158 120.962 156.983 121.009 156.756 121.057C156.528 121.109 156.244 121.137 155.903 121.142C155.345 121.152 154.824 121.052 154.341 120.844C153.858 120.635 153.467 120.313 153.169 119.878C152.871 119.442 152.722 118.895 152.722 118.237V107.477Z" fill="#2D3748"/>
<path d="M127.409 165.398C125.364 165.398 123.545 165.047 121.955 164.347C120.373 163.646 119.123 162.67 118.205 161.42C117.286 160.17 116.798 158.726 116.741 157.088H122.082C122.13 157.874 122.39 158.561 122.864 159.148C123.337 159.725 123.967 160.175 124.753 160.497C125.539 160.819 126.42 160.98 127.395 160.98C128.437 160.98 129.36 160.8 130.165 160.44C130.97 160.071 131.599 159.56 132.054 158.906C132.509 158.253 132.731 157.5 132.722 156.648C132.731 155.767 132.504 154.991 132.04 154.318C131.576 153.646 130.903 153.12 130.023 152.741C129.152 152.363 128.1 152.173 126.869 152.173H124.298V148.111H126.869C127.883 148.111 128.768 147.936 129.526 147.585C130.293 147.235 130.894 146.742 131.33 146.108C131.765 145.464 131.978 144.721 131.969 143.878C131.978 143.054 131.794 142.339 131.415 141.733C131.045 141.117 130.52 140.639 129.838 140.298C129.166 139.957 128.375 139.787 127.466 139.787C126.576 139.787 125.752 139.948 124.994 140.27C124.237 140.592 123.626 141.051 123.162 141.648C122.698 142.235 122.452 142.936 122.423 143.75H117.352C117.39 142.121 117.859 140.691 118.759 139.46C119.668 138.22 120.88 137.254 122.395 136.562C123.91 135.862 125.61 135.511 127.494 135.511C129.436 135.511 131.121 135.876 132.551 136.605C133.991 137.325 135.103 138.295 135.889 139.517C136.675 140.739 137.068 142.088 137.068 143.565C137.078 145.204 136.595 146.577 135.619 147.685C134.653 148.793 133.384 149.517 131.812 149.858V150.085C133.858 150.369 135.425 151.127 136.514 152.358C137.613 153.58 138.157 155.099 138.148 156.918C138.148 158.546 137.684 160.005 136.756 161.293C135.837 162.571 134.568 163.575 132.949 164.304C131.339 165.033 129.492 165.398 127.409 165.398ZM142.896 159.602V155.412L155.239 135.909H158.734V141.875H156.603L148.293 155.043V155.27H165.523V159.602H142.896ZM156.773 165V158.324L156.83 156.449V135.909H161.802V165H156.773ZM180.96 165.398C179.066 165.398 177.371 165.043 175.875 164.332C174.379 163.613 173.19 162.628 172.31 161.378C171.438 160.128 170.974 158.698 170.918 157.088H176.031C176.126 158.281 176.642 159.257 177.58 160.014C178.517 160.762 179.644 161.136 180.96 161.136C181.992 161.136 182.911 160.9 183.716 160.426C184.521 159.953 185.155 159.295 185.619 158.452C186.083 157.609 186.311 156.648 186.301 155.568C186.311 154.47 186.079 153.494 185.605 152.642C185.132 151.79 184.483 151.122 183.659 150.639C182.835 150.147 181.888 149.901 180.818 149.901C179.947 149.891 179.09 150.052 178.247 150.384C177.404 150.715 176.737 151.151 176.244 151.69L171.486 150.909L173.006 135.909H189.881V140.312H177.366L176.528 148.026H176.699C177.239 147.391 178.001 146.866 178.986 146.449C179.971 146.023 181.05 145.81 182.224 145.81C183.986 145.81 185.558 146.226 186.94 147.06C188.323 147.884 189.412 149.02 190.207 150.469C191.003 151.918 191.401 153.575 191.401 155.44C191.401 157.363 190.955 159.077 190.065 160.582C189.185 162.079 187.958 163.258 186.386 164.119C184.824 164.972 183.015 165.398 180.96 165.398ZM203.023 161.023L202.839 162.585C202.706 163.778 202.469 164.991 202.129 166.222C201.797 167.462 201.447 168.603 201.077 169.645C200.708 170.687 200.41 171.506 200.183 172.102H196.717C196.849 171.525 197.029 170.739 197.256 169.744C197.493 168.75 197.72 167.633 197.938 166.392C198.156 165.152 198.303 163.892 198.379 162.614L198.478 161.023H203.023ZM219.763 165.398C218.371 165.388 217.013 165.147 215.687 164.673C214.361 164.19 213.168 163.409 212.107 162.33C211.047 161.241 210.204 159.796 209.579 157.997C208.954 156.188 208.646 153.949 208.656 151.278C208.656 148.788 208.921 146.567 209.451 144.616C209.981 142.666 210.744 141.018 211.738 139.673C212.732 138.319 213.93 137.287 215.332 136.577C216.743 135.866 218.319 135.511 220.062 135.511C221.889 135.511 223.509 135.871 224.92 136.591C226.34 137.311 227.486 138.295 228.357 139.545C229.228 140.786 229.768 142.188 229.977 143.75H224.792C224.527 142.633 223.982 141.742 223.158 141.08C222.344 140.407 221.312 140.071 220.062 140.071C218.045 140.071 216.492 140.947 215.403 142.699C214.323 144.451 213.779 146.856 213.769 149.915H213.968C214.432 149.081 215.033 148.366 215.772 147.77C216.511 147.173 217.344 146.714 218.272 146.392C219.21 146.061 220.199 145.895 221.241 145.895C222.945 145.895 224.475 146.302 225.829 147.116C227.192 147.931 228.272 149.053 229.067 150.483C229.863 151.903 230.256 153.532 230.246 155.369C230.256 157.282 229.82 159.001 228.94 160.526C228.059 162.041 226.833 163.234 225.261 164.105C223.689 164.976 221.856 165.407 219.763 165.398ZM219.735 161.136C220.767 161.136 221.691 160.885 222.505 160.384C223.319 159.882 223.963 159.205 224.437 158.352C224.91 157.5 225.142 156.544 225.133 155.483C225.142 154.441 224.915 153.499 224.451 152.656C223.996 151.813 223.367 151.146 222.562 150.653C221.757 150.161 220.838 149.915 219.806 149.915C219.039 149.915 218.324 150.062 217.661 150.355C216.998 150.649 216.421 151.056 215.928 151.577C215.436 152.088 215.048 152.685 214.763 153.366C214.489 154.039 214.347 154.759 214.337 155.526C214.347 156.539 214.584 157.472 215.048 158.324C215.512 159.176 216.151 159.858 216.965 160.369C217.78 160.881 218.703 161.136 219.735 161.136ZM238.247 165L250.619 140.511V140.312H236.259V135.909H256.074V140.412L243.716 165H238.247ZM273.151 165.554C270.812 165.554 268.805 164.962 267.129 163.778C265.462 162.585 264.179 160.866 263.279 158.622C262.389 156.368 261.944 153.655 261.944 150.483C261.953 147.311 262.403 144.612 263.293 142.386C264.193 140.152 265.476 138.447 267.143 137.273C268.819 136.098 270.822 135.511 273.151 135.511C275.481 135.511 277.484 136.098 279.16 137.273C280.836 138.447 282.119 140.152 283.009 142.386C283.909 144.621 284.359 147.32 284.359 150.483C284.359 153.665 283.909 156.383 283.009 158.636C282.119 160.881 280.836 162.595 279.16 163.778C277.493 164.962 275.49 165.554 273.151 165.554ZM273.151 161.108C274.969 161.108 276.404 160.213 277.455 158.423C278.516 156.624 279.046 153.977 279.046 150.483C279.046 148.172 278.805 146.231 278.322 144.659C277.839 143.087 277.157 141.903 276.276 141.108C275.396 140.303 274.354 139.901 273.151 139.901C271.343 139.901 269.913 140.8 268.862 142.599C267.81 144.389 267.28 147.017 267.271 150.483C267.261 152.803 267.493 154.754 267.967 156.335C268.45 157.917 269.131 159.11 270.012 159.915C270.893 160.71 271.939 161.108 273.151 161.108Z" fill="#2D3748"/>
<path d="M126.8 179.4C126.423 178.896 125.577 178.896 125.2 179.4L116.2 191.4C115.972 191.703 115.936 192.108 116.105 192.447C116.275 192.786 116.621 193 117 193H135C135.379 193 135.725 192.786 135.895 192.447C136.064 192.108 136.028 191.703 135.8 191.4L126.8 179.4Z" fill="#48BB78"/>
<path opacity="0.8" d="M141.932 193V191.722L146.733 186.466C147.296 185.85 147.76 185.315 148.125 184.861C148.49 184.402 148.759 183.971 148.935 183.568C149.115 183.161 149.205 182.735 149.205 182.29C149.205 181.778 149.081 181.336 148.835 180.962C148.594 180.588 148.262 180.299 147.841 180.095C147.42 179.892 146.946 179.79 146.42 179.79C145.862 179.79 145.374 179.906 144.957 180.138C144.545 180.365 144.226 180.685 143.999 181.097C143.776 181.509 143.665 181.991 143.665 182.545H141.989C141.989 181.693 142.185 180.945 142.578 180.301C142.971 179.657 143.506 179.155 144.183 178.795C144.865 178.436 145.63 178.256 146.477 178.256C147.33 178.256 148.085 178.436 148.743 178.795C149.401 179.155 149.917 179.641 150.291 180.251C150.665 180.862 150.852 181.542 150.852 182.29C150.852 182.825 150.755 183.348 150.561 183.859C150.372 184.366 150.04 184.932 149.567 185.557C149.098 186.177 148.447 186.935 147.614 187.83L144.347 191.324V191.438H151.108V193H141.932ZM159.483 193.199C158.546 193.199 157.71 193.038 156.976 192.716C156.247 192.394 155.667 191.946 155.236 191.374C154.81 190.796 154.578 190.126 154.54 189.364H156.33C156.368 189.832 156.529 190.237 156.813 190.578C157.097 190.914 157.469 191.175 157.928 191.359C158.387 191.544 158.896 191.636 159.455 191.636C160.08 191.636 160.634 191.527 161.117 191.31C161.6 191.092 161.979 190.789 162.253 190.401C162.528 190.012 162.665 189.562 162.665 189.051C162.665 188.516 162.533 188.045 162.267 187.638C162.002 187.226 161.614 186.904 161.103 186.672C160.591 186.44 159.966 186.324 159.228 186.324H158.063V184.761H159.228C159.805 184.761 160.312 184.657 160.748 184.449C161.188 184.241 161.531 183.947 161.777 183.568C162.028 183.189 162.154 182.744 162.154 182.233C162.154 181.741 162.045 181.312 161.827 180.947C161.609 180.583 161.301 180.299 160.904 180.095C160.511 179.892 160.047 179.79 159.512 179.79C159.01 179.79 158.536 179.882 158.091 180.067C157.651 180.247 157.291 180.509 157.012 180.855C156.732 181.196 156.581 181.608 156.557 182.091H154.853C154.881 181.329 155.111 180.661 155.542 180.088C155.972 179.51 156.536 179.061 157.232 178.739C157.933 178.417 158.702 178.256 159.54 178.256C160.44 178.256 161.212 178.438 161.855 178.803C162.499 179.162 162.994 179.638 163.34 180.23C163.685 180.822 163.858 181.461 163.858 182.148C163.858 182.967 163.643 183.665 163.212 184.243C162.786 184.821 162.206 185.221 161.472 185.443V185.557C162.391 185.708 163.108 186.099 163.624 186.729C164.14 187.354 164.398 188.128 164.398 189.051C164.398 189.842 164.183 190.552 163.752 191.182C163.326 191.807 162.743 192.299 162.005 192.659C161.266 193.019 160.426 193.199 159.483 193.199ZM168.654 193.114C168.304 193.114 168.003 192.988 167.752 192.737C167.501 192.486 167.376 192.186 167.376 191.835C167.376 191.485 167.501 191.184 167.752 190.933C168.003 190.682 168.304 190.557 168.654 190.557C169.004 190.557 169.305 190.682 169.556 190.933C169.807 191.184 169.933 191.485 169.933 191.835C169.933 192.067 169.873 192.28 169.755 192.474C169.641 192.669 169.487 192.825 169.293 192.943C169.104 193.057 168.891 193.114 168.654 193.114ZM177.94 193.199C177.003 193.199 176.167 193.038 175.433 192.716C174.704 192.394 174.124 191.946 173.693 191.374C173.267 190.796 173.035 190.126 172.997 189.364H174.787C174.825 189.832 174.986 190.237 175.27 190.578C175.554 190.914 175.926 191.175 176.385 191.359C176.844 191.544 177.353 191.636 177.912 191.636C178.537 191.636 179.091 191.527 179.574 191.31C180.057 191.092 180.436 190.789 180.71 190.401C180.985 190.012 181.122 189.562 181.122 189.051C181.122 188.516 180.99 188.045 180.724 187.638C180.459 187.226 180.071 186.904 179.56 186.672C179.048 186.44 178.423 186.324 177.685 186.324H176.52V184.761H177.685C178.262 184.761 178.769 184.657 179.205 184.449C179.645 184.241 179.988 183.947 180.234 183.568C180.485 183.189 180.611 182.744 180.611 182.233C180.611 181.741 180.502 181.312 180.284 180.947C180.066 180.583 179.759 180.299 179.361 180.095C178.968 179.892 178.504 179.79 177.969 179.79C177.467 179.79 176.993 179.882 176.548 180.067C176.108 180.247 175.748 180.509 175.469 180.855C175.189 181.196 175.038 181.608 175.014 182.091H173.31C173.338 181.329 173.568 180.661 173.999 180.088C174.429 179.51 174.993 179.061 175.689 178.739C176.39 178.417 177.159 178.256 177.997 178.256C178.897 178.256 179.669 178.438 180.312 178.803C180.956 179.162 181.451 179.638 181.797 180.23C182.143 180.822 182.315 181.461 182.315 182.148C182.315 182.967 182.1 183.665 181.669 184.243C181.243 184.821 180.663 185.221 179.929 185.443V185.557C180.848 185.708 181.565 186.099 182.081 186.729C182.597 187.354 182.855 188.128 182.855 189.051C182.855 189.842 182.64 190.552 182.209 191.182C181.783 191.807 181.2 192.299 180.462 192.659C179.723 193.019 178.883 193.199 177.94 193.199ZM190.918 193.199C190.321 193.189 189.725 193.076 189.128 192.858C188.532 192.64 187.987 192.273 187.495 191.757C187.002 191.236 186.607 190.533 186.309 189.648C186.01 188.758 185.861 187.64 185.861 186.295C185.861 185.008 185.982 183.866 186.223 182.872C186.465 181.873 186.815 181.033 187.275 180.351C187.734 179.664 188.288 179.143 188.936 178.788C189.59 178.433 190.326 178.256 191.145 178.256C191.96 178.256 192.684 178.419 193.319 178.746C193.958 179.068 194.479 179.518 194.881 180.095C195.283 180.673 195.544 181.338 195.662 182.091H193.929C193.768 181.437 193.456 180.895 192.992 180.464C192.528 180.034 191.912 179.818 191.145 179.818C190.018 179.818 189.131 180.308 188.482 181.288C187.838 182.268 187.514 183.644 187.509 185.415H187.623C187.888 185.012 188.203 184.669 188.567 184.385C188.936 184.096 189.344 183.874 189.789 183.717C190.234 183.561 190.705 183.483 191.202 183.483C192.035 183.483 192.798 183.691 193.489 184.108C194.18 184.52 194.734 185.09 195.151 185.82C195.568 186.544 195.776 187.375 195.776 188.312C195.776 189.212 195.575 190.036 195.172 190.784C194.77 191.527 194.204 192.119 193.475 192.56C192.75 192.995 191.898 193.208 190.918 193.199ZM190.918 191.636C191.515 191.636 192.05 191.487 192.523 191.189C193.001 190.891 193.378 190.491 193.652 189.989C193.932 189.487 194.071 188.928 194.071 188.312C194.071 187.711 193.936 187.164 193.667 186.672C193.401 186.175 193.034 185.779 192.566 185.486C192.102 185.192 191.571 185.045 190.975 185.045C190.525 185.045 190.106 185.135 189.718 185.315C189.329 185.491 188.989 185.732 188.695 186.04C188.406 186.348 188.179 186.7 188.013 187.098C187.847 187.491 187.765 187.905 187.765 188.341C187.765 188.919 187.9 189.458 188.169 189.96C188.444 190.462 188.818 190.867 189.292 191.175C189.77 191.482 190.312 191.636 190.918 191.636ZM206.225 190.273V189.506C206.225 188.975 206.334 188.49 206.552 188.05C206.774 187.605 207.096 187.25 207.518 186.984C207.944 186.714 208.46 186.58 209.066 186.58C209.682 186.58 210.198 186.714 210.614 186.984C211.031 187.25 211.346 187.605 211.559 188.05C211.772 188.49 211.879 188.975 211.879 189.506V190.273C211.879 190.803 211.77 191.291 211.552 191.736C211.339 192.176 211.022 192.531 210.6 192.801C210.183 193.066 209.672 193.199 209.066 193.199C208.451 193.199 207.932 193.066 207.511 192.801C207.089 192.531 206.77 192.176 206.552 191.736C206.334 191.291 206.225 190.803 206.225 190.273ZM207.674 189.506V190.273C207.674 190.713 207.778 191.108 207.987 191.459C208.195 191.804 208.555 191.977 209.066 191.977C209.563 191.977 209.914 191.804 210.117 191.459C210.326 191.108 210.43 190.713 210.43 190.273V189.506C210.43 189.065 210.33 188.672 210.131 188.327C209.933 187.976 209.577 187.801 209.066 187.801C208.569 187.801 208.211 187.976 207.994 188.327C207.781 188.672 207.674 189.065 207.674 189.506ZM198.981 181.949V181.182C198.981 180.652 199.09 180.166 199.308 179.726C199.53 179.281 199.852 178.926 200.273 178.661C200.7 178.391 201.216 178.256 201.822 178.256C202.437 178.256 202.953 178.391 203.37 178.661C203.787 178.926 204.102 179.281 204.315 179.726C204.528 180.166 204.634 180.652 204.634 181.182V181.949C204.634 182.479 204.525 182.967 204.308 183.412C204.094 183.852 203.777 184.207 203.356 184.477C202.939 184.742 202.428 184.875 201.822 184.875C201.206 184.875 200.688 184.742 200.266 184.477C199.845 184.207 199.525 183.852 199.308 183.412C199.09 182.967 198.981 182.479 198.981 181.949ZM200.43 181.182V181.949C200.43 182.389 200.534 182.785 200.742 183.135C200.951 183.481 201.31 183.653 201.822 183.653C202.319 183.653 202.669 183.481 202.873 183.135C203.081 182.785 203.185 182.389 203.185 181.949V181.182C203.185 180.741 203.086 180.348 202.887 180.003C202.688 179.652 202.333 179.477 201.822 179.477C201.325 179.477 200.967 179.652 200.749 180.003C200.536 180.348 200.43 180.741 200.43 181.182ZM199.521 193L209.521 178.455H211.14L201.14 193H199.521Z" fill="#2D3748"/>
</svg>
