<svg width="400" height="300" fill="none" xmlns="http://www.w3.org/2000/svg"><g clip-path="url(#prefix__a)"><rect x="44" y="130" width="123" height="40" rx="8" fill="#38B2AC"/><rect x="70.091" y="145" width="70.818" height="10" rx="5" fill="#F7FAFC"/><rect x="189" y="130" width="123" height="40" rx="8" fill="#CBD5E0"/><rect x="215.091" y="145" width="70.818" height="10" rx="5" fill="#A0AEC0"/><rect x="334" y="130" width="123" height="40" rx="8" fill="#CBD5E0"/><rect x="360.091" y="145" width="70.818" height="10" rx="5" fill="#A0AEC0"/><path d="M44 193a4 4 0 014-4h352v8H48a4 4 0 01-4-4z" fill="#CBD5E0"/><path d="M44 193a4 4 0 014-4h115a4 4 0 010 8H48a4 4 0 01-4-4z" fill="#38B2AC"/></g><defs><clipPath id="prefix__a"><path fill="#fff" d="M0 0h400v300H0z"/></clipPath></defs></svg>
