<svg width="400" height="300" viewBox="0 0 400 300" fill="none" xmlns="http://www.w3.org/2000/svg">
 
<path d="M53 0H400V247H65C58.3726 247 53 241.627 53 235V0Z" fill="white"/>
<g filter="url(#filter0_d_3_460)">
<rect x="106" y="148" width="279" height="46" rx="5" fill="#38B2AC" shape-rendering="crispEdges"/>
<path fill-rule="evenodd" clip-rule="evenodd" d="M121 171C121 168.515 123.015 166.5 125.5 166.5H246.5C248.985 166.5 251 168.515 251 171C251 173.485 248.985 175.5 246.5 175.5H125.5C123.015 175.5 121 173.485 121 171Z" fill="#F7FAFC"/>
<g clip-path="url(#clip0_3_460)">
<path d="M354.293 177.293C354.105 177.481 354 177.735 354 178.001C354 178.266 354.105 178.52 354.293 178.708C354.481 178.895 354.735 179 355 179C355.266 179 355.52 178.895 355.707 178.707L361.882 172.533C361.898 172.518 361.916 172.505 361.936 172.497C361.956 172.489 361.978 172.484 362 172.484C362.022 172.484 362.044 172.489 362.064 172.497C362.084 172.505 362.103 172.518 362.118 172.533L368.293 178.709C368.386 178.802 368.496 178.875 368.617 178.926C368.738 178.976 368.869 179.002 369 179.002C369.131 179.002 369.261 178.976 369.383 178.926C369.504 178.875 369.614 178.802 369.707 178.709C369.8 178.616 369.874 178.506 369.924 178.385C369.974 178.263 370 178.133 370 178.002C370 177.871 369.974 177.74 369.924 177.619C369.874 177.498 369.8 177.388 369.707 177.295L363.533 171.118C363.518 171.102 363.506 171.084 363.497 171.064C363.489 171.044 363.484 171.022 363.484 171C363.484 170.978 363.489 170.956 363.497 170.936C363.506 170.916 363.518 170.897 363.533 170.882L369.709 164.707C369.896 164.52 370.001 164.265 370.001 164C370.001 163.734 369.896 163.48 369.708 163.292C369.52 163.105 369.265 163 369 163C368.735 163 368.48 163.106 368.293 163.293L362.118 169.467C362.103 169.482 362.084 169.494 362.064 169.503C362.044 169.511 362.022 169.516 362 169.516C361.978 169.516 361.956 169.511 361.936 169.503C361.916 169.494 361.898 169.482 361.882 169.467L355.707 163.293C355.615 163.2 355.504 163.127 355.383 163.076C355.262 163.026 355.132 163 355 163C354.735 163 354.481 163.105 354.293 163.293C354.105 163.48 354 163.735 354 164C354 164.265 354.105 164.52 354.293 164.707L360.467 170.882C360.482 170.897 360.495 170.916 360.503 170.936C360.511 170.956 360.516 170.978 360.516 171C360.516 171.022 360.511 171.044 360.503 171.064C360.495 171.084 360.482 171.102 360.467 171.118L354.293 177.293Z" fill="#F7FAFC"/>
</g>
</g>
<defs>
<filter id="filter0_d_3_460" x="97" y="143" width="297" height="64" filterUnits="userSpaceOnUse" color-interpolation-filters="sRGB">
<feFlood flood-opacity="0" result="BackgroundImageFix"/>
<feColorMatrix in="SourceAlpha" type="matrix" values="0 0 0 0 0 0 0 0 0 0 0 0 0 0 0 0 0 0 127 0" result="hardAlpha"/>
<feOffset dy="4"/>
<feGaussianBlur stdDeviation="4.5"/>
<feComposite in2="hardAlpha" operator="out"/>
<feColorMatrix type="matrix" values="0 0 0 0 0 0 0 0 0 0 0 0 0 0 0 0 0 0 0.13 0"/>
<feBlend mode="normal" in2="BackgroundImageFix" result="effect1_dropShadow_3_460"/>
<feBlend mode="normal" in="SourceGraphic" in2="effect1_dropShadow_3_460" result="shape"/>
</filter>
<clipPath id="clip0_3_460">
<rect width="16" height="16" fill="white" transform="translate(354 163)"/>
</clipPath>
</defs>
</svg>
