<svg width="400" height="300" viewBox="0 0 400 300" fill="none" xmlns="http://www.w3.org/2000/svg">
 
<rect x="68" y="172" width="264" height="47" rx="6" fill="#2D3748"/>
<path fill-rule="evenodd" clip-rule="evenodd" d="M87 195.5C87 193.015 89.0147 191 91.5 191H308.5C310.985 191 313 193.015 313 195.5C313 197.985 310.985 200 308.5 200H91.5C89.0147 200 87 197.985 87 195.5Z" fill="#F7FAFC"/>
<rect x="101" y="81" width="198" height="64" rx="12" fill="#38B2AC"/>
<rect x="143" y="105" width="114" height="16" rx="8" fill="#F7FAFC"/>
<path d="M284.996 137.937C284.073 137.654 283.241 137.842 282.594 138.078C282.039 137.417 281.115 136.804 279.914 136.804C278.99 136.804 278.204 137.087 277.604 137.37C276.911 136.473 275.802 135.623 274.139 135.623C273.215 135.623 272.475 135.906 271.829 136.237V129.721C271.829 127.833 270.581 125 267.209 125C263.836 125 262.589 127.833 262.589 129.721V142.941L262.311 142.658C262.126 142.422 260.278 140.25 257.922 140.345C255.704 140.392 254.318 141.336 253.44 143.414C252.377 145.964 253.533 147.002 253.856 147.238C254.734 147.852 255.611 148.655 255.704 148.986C255.842 149.41 256.627 151.724 258.153 153.99C258.753 154.888 259.539 155.548 260.093 156.068C260.278 156.256 260.463 156.398 260.602 156.54C260.74 156.681 260.971 156.918 261.202 157.154C261.711 157.626 262.311 158.24 262.866 158.854C263.328 159.42 264.39 161.733 264.991 163.245C265.176 163.669 265.592 164 266.054 164H282.225C282.64 164 282.964 163.811 283.195 163.433C283.379 163.103 288 155.69 288 151.016V142.517C287.999 140.061 286.937 138.55 284.996 137.937L284.996 137.937ZM285.689 150.968C285.689 154.037 282.963 159.23 281.577 161.592H266.792C266.284 160.364 265.268 158.098 264.574 157.295C263.974 156.587 263.327 155.973 262.773 155.407C262.542 155.171 262.357 155.029 262.218 154.84C262.034 154.651 261.848 154.462 261.571 154.273C261.063 153.849 260.462 153.282 260.047 152.668C258.984 151.11 258.198 149.315 257.875 148.229C257.505 147.096 255.934 145.869 255.287 145.349C255.287 145.208 255.334 144.877 255.565 144.311C256.073 143.083 256.674 142.706 258.014 142.658H258.06C259.123 142.658 260.232 143.697 260.601 144.169L262.911 146.765C263.234 147.143 263.743 147.237 264.204 147.096C264.666 146.907 264.944 146.482 264.944 146.01L264.944 129.722C264.944 129.344 265.037 127.361 267.254 127.361C269.38 127.361 269.564 129.155 269.564 129.722V142.706C269.564 143.367 270.072 143.886 270.72 143.886C271.367 143.886 271.875 143.367 271.875 142.706V139.307C272.198 138.882 273.03 137.985 274.185 137.985C275.294 137.985 275.848 138.835 276.033 139.165V142.706C276.033 143.368 276.541 143.887 277.188 143.887C277.835 143.887 278.344 143.368 278.344 142.706V139.732C278.667 139.496 279.267 139.165 279.961 139.165C280.608 139.165 280.977 139.637 281.116 139.921V142.706C281.116 143.368 281.624 143.887 282.271 143.887C282.918 143.887 283.427 143.368 283.427 142.706V140.298C283.704 140.157 284.027 140.062 284.35 140.157C284.998 140.393 285.737 140.724 285.737 142.47V150.969L285.689 150.968Z" fill="black"/>
<path d="M267.012 125.003C267.007 125.004 267.002 125.004 266.997 125.004L267.005 125L267.012 125.003Z" fill="white"/>
<path d="M281.582 161.592C282.968 159.23 285.694 154.037 285.694 150.968L285.742 150.969V142.47C285.742 140.724 285.003 140.393 284.355 140.157C284.032 140.062 283.709 140.157 283.432 140.298V142.706C283.432 143.368 282.923 143.887 282.276 143.887C281.629 143.887 281.121 143.368 281.121 142.706V139.921C280.982 139.637 280.613 139.165 279.966 139.165C279.272 139.165 278.672 139.496 278.349 139.732V142.706C278.349 143.368 277.84 143.887 277.193 143.887C276.546 143.887 276.038 143.368 276.038 142.706V139.165C275.853 138.835 275.299 137.985 274.19 137.985C273.035 137.985 272.203 138.882 271.88 139.307V142.706C271.88 143.367 271.372 143.886 270.725 143.886C270.077 143.886 269.569 143.367 269.569 142.706V129.722C269.569 129.155 269.385 127.361 267.259 127.361C265.042 127.361 264.949 129.344 264.949 129.722L264.949 146.01C264.949 146.482 264.671 146.907 264.209 147.096C263.748 147.237 263.239 147.143 262.916 146.765L260.606 144.169C260.237 143.697 259.128 142.658 258.065 142.658H258.019C256.679 142.706 256.078 143.083 255.57 144.311C255.339 144.877 255.292 145.208 255.292 145.349C255.316 145.368 255.341 145.388 255.367 145.409C256.052 145.958 257.523 147.138 257.88 148.229C258.203 149.315 258.989 151.11 260.052 152.668C260.467 153.282 261.068 153.849 261.576 154.273C261.853 154.462 262.039 154.651 262.223 154.84C262.312 154.961 262.42 155.063 262.547 155.182C262.618 155.249 262.695 155.322 262.778 155.407C262.913 155.544 263.053 155.685 263.197 155.83C263.644 156.278 264.125 156.76 264.579 157.295C265.273 158.098 266.289 160.364 266.797 161.592H281.582Z" fill="white"/>
</svg>
