<svg width="446" height="126" viewBox="0 0 446 126" fill="none" xmlns="http://www.w3.org/2000/svg">
<path d="M120.807 62.6701L98.1769 58.4834L95.5872 62.9672L89.2139 74.0021L72.6654 102.654C71.9409 103.909 70.03 103.393 70.03 101.942V77.8626V75.2485C70.03 73.8913 69.0729 72.724 67.7464 72.4634L41.9641 67.3988L18.8848 63.1791C18.9198 64.378 19.203 65.5711 19.7421 66.6753L38.7901 99.7295C41.4477 104.341 46.3544 107.178 51.6607 107.171L88.1896 107.123C93.4932 107.116 98.3903 104.269 101.037 99.6536L119.678 67.1454C120.473 65.763 120.847 64.2124 120.807 62.6701Z" fill="url(#paint0_linear_1033_3306)"/>
<path d="M44.5604 62.8928L50.9436 51.8157L67.3936 23.2689C68.1173 22.0131 70.0298 22.5286 70.0298 23.9796V50.6593C70.0298 52.0182 70.989 53.1864 72.3176 53.4452L98.1767 58.4834L120.807 62.6701C120.778 61.5372 120.524 60.4103 120.045 59.3566C119.932 59.1086 119.812 58.8634 119.674 58.6246L101.009 26.1506C98.3567 21.5368 93.4545 18.6943 88.1493 18.6943H51.4956C46.1819 18.6943 41.2733 21.5457 38.6245 26.1712L20.0123 58.6722C19.9695 58.7467 19.9323 58.8234 19.8919 58.8989C19.1773 60.233 18.8415 61.7095 18.8845 63.1792L41.9639 67.3988L44.5604 62.8928Z" fill="url(#paint1_linear_1033_3306)"/>
<path d="M187.897 46.0841L180.99 53.3017C177.722 49.8333 173.708 48.1468 169.041 48.1468C164.934 48.1468 161.48 49.5524 158.68 52.3644C155.973 55.1763 154.572 58.7381 154.572 62.9558C154.572 67.1734 155.973 70.7358 158.68 73.5477C161.48 76.3597 164.934 77.766 169.041 77.766C173.708 77.766 177.722 76.0782 180.99 72.6104L187.897 79.8275C182.857 85.2645 176.603 87.9824 169.041 87.9824C161.853 87.9824 155.786 85.6395 150.838 80.8588C145.892 76.0782 143.464 70.0794 143.464 62.9558C143.464 55.8321 145.892 49.9273 150.838 45.1473C155.786 40.3667 161.853 37.9297 169.041 37.9297C176.603 37.9297 182.857 40.6482 187.897 46.0841Z" fill="black"/>
<path d="M193.601 86.6731V21.3418H204.709V45.9936C206.855 41.4944 211.99 38.4951 218.43 38.4951C229.258 38.4951 235.606 45.7121 235.606 57.4289V86.6732H224.498V59.0227C224.498 52.5548 221.044 48.5247 215.07 48.5247C209.003 48.5247 204.709 53.0238 204.709 59.491V86.6732L193.601 86.6731Z" fill="black"/>
<path d="M280.699 46.2788V39.436H291.901V86.6768H280.699V79.8341C279.112 84.4273 273.417 87.7076 265.67 87.7076C259.043 87.7076 253.442 85.3646 248.867 80.678C244.387 75.898 242.146 70.086 242.146 63.0564C242.146 56.0268 244.387 50.2149 248.867 45.5289C253.442 40.7482 259.043 38.4053 265.67 38.4053C273.417 38.4053 279.112 41.6856 280.699 46.2788ZM277.338 73.3669C280.138 70.649 281.539 67.1806 281.539 63.0564C281.539 58.9323 280.138 55.4638 277.338 52.746C274.631 50.028 271.177 48.6218 267.163 48.6218C263.15 48.6218 259.883 50.0281 257.176 52.746C254.562 55.4639 253.254 58.9323 253.254 63.0564C253.254 67.1806 254.562 70.649 257.176 73.3669C259.883 76.0848 263.15 77.4911 267.163 77.4911C271.177 77.4911 274.631 76.0848 277.338 73.3669Z" fill="black"/>
<path d="M300.494 86.6732V21.3418H311.602V59.4909L328.964 39.4324H341.846L323.457 60.5223L343.807 86.6732H331.112L316.269 67.6459L311.602 72.8949V86.6731L300.494 86.6732Z" fill="black"/>
<path d="M347.559 86.6771V39.4363H358.667V46.4659C360.907 41.4985 366.041 38.499 372.669 38.499C373.975 38.499 375.096 38.5924 376.028 38.7805V49.6534C374.628 49.3719 373.041 49.1844 371.362 49.1844C363.614 49.1844 358.667 54.0585 358.667 61.8379V86.6771L347.559 86.6771Z" fill="black"/>
<path d="M416.268 46.2788V39.436H427.47V86.6768H416.268V79.8341C414.681 84.4273 408.987 87.7076 401.239 87.7076C394.612 87.7076 389.011 85.3646 384.437 80.678C379.956 75.898 377.716 70.086 377.716 63.0564C377.716 56.0268 379.956 50.2149 384.437 45.5289C389.011 40.7482 394.612 38.4053 401.239 38.4053C408.987 38.4053 414.681 41.6856 416.268 46.2788ZM412.908 73.3669C415.708 70.649 417.109 67.1806 417.109 63.0564C417.109 58.9323 415.708 55.4638 412.908 52.746C410.2 50.028 406.746 48.6218 402.733 48.6218C398.719 48.6218 395.452 50.0281 392.745 52.746C390.131 55.4639 388.824 58.9323 388.824 63.0564C388.824 67.1806 390.131 70.649 392.745 73.3669C395.452 76.0848 398.719 77.4911 402.733 77.4911C406.746 77.4911 410.2 76.0848 412.908 73.3669Z" fill="black"/>
<defs>
<linearGradient id="paint0_linear_1033_3306" x1="118.679" y1="82.5652" x2="20.7175" y2="83.4727" gradientUnits="userSpaceOnUse">
<stop stop-color="#3585A3"/>
<stop offset="1" stop-color="#00DEAE"/>
</linearGradient>
<linearGradient id="paint1_linear_1033_3306" x1="23.8174" y1="43.6462" x2="110.844" y2="41.3774" gradientUnits="userSpaceOnUse">
<stop stop-color="#3585A3"/>
<stop offset="1" stop-color="#00DEAE"/>
</linearGradient>
</defs>
</svg>
