<svg width="354" height="240" viewBox="0 0 354 240" fill="none" xmlns="http://www.w3.org/2000/svg">
<rect width="354" height="240" fill="white"/>
<rect x="21" y="46" width="312" height="3" fill="#E2E8F0"/>
<rect x="33" y="63" width="152" height="17" fill="#A0AEC0"/>
<rect x="33" y="111" width="204" height="17" fill="#A0AEC0"/>
<rect x="33" y="159" width="88" height="17" fill="#A0AEC0"/>
<rect x="21" y="94" width="312" height="3" fill="#E2E8F0"/>
<rect x="21" y="142" width="312" height="3" fill="#E2E8F0"/>
<rect x="21" y="190" width="312" height="3" fill="#E2E8F0"/>
<path fill-rule="evenodd" clip-rule="evenodd" d="M322.424 70.1255L313.493 77.994L304.98 70.0999L307.02 67.9001L313.544 73.9504L320.441 67.8745L322.424 70.1255Z" fill="#A0AEC0"/>
<path fill-rule="evenodd" clip-rule="evenodd" d="M322.424 118.126L313.493 125.994L304.98 118.1L307.02 115.9L313.544 121.95L320.441 115.875L322.424 118.126Z" fill="#A0AEC0"/>
<path fill-rule="evenodd" clip-rule="evenodd" d="M322.424 166.126L313.493 173.994L304.98 166.1L307.02 163.9L313.544 169.95L320.441 163.875L322.424 166.126Z" fill="#A0AEC0"/>
</svg>
