<svg width="354" height="240" viewBox="0 0 354 240" fill="none" xmlns="http://www.w3.org/2000/svg">
<rect width="354" height="240" fill="white"/>
<path d="M290 59H61V187H290V59Z" fill="#E2E8F0"/>
<path d="M298.062 29.5789H296.188V26.7368C296.188 25.4806 295.694 24.2757 294.815 23.3874C293.935 22.4991 292.743 22 291.5 22C290.257 22 289.065 22.4991 288.185 23.3874C287.306 24.2757 286.812 25.4806 286.812 26.7368V29.5789H284.938C284.689 29.5789 284.45 29.6788 284.275 29.8564C284.099 30.0341 284 30.2751 284 30.5263V39.0526C284 39.3039 284.099 39.5449 284.275 39.7225C284.45 39.9002 284.689 40 284.938 40H298.062C298.311 40 298.55 39.9002 298.725 39.7225C298.901 39.5449 299 39.3039 299 39.0526V30.5263C299 30.2751 298.901 30.0341 298.725 29.8564C298.55 29.6788 298.311 29.5789 298.062 29.5789ZM291.5 36.2105C291.222 36.2105 290.95 36.1272 290.719 35.971C290.487 35.8149 290.307 35.593 290.201 35.3333C290.094 35.0736 290.067 34.7879 290.121 34.5122C290.175 34.2366 290.309 33.9834 290.506 33.7846C290.702 33.5859 290.953 33.4506 291.226 33.3957C291.498 33.3409 291.781 33.369 292.038 33.4766C292.295 33.5841 292.515 33.7663 292.669 34C292.824 34.2337 292.906 34.5084 292.906 34.7895C292.906 35.1664 292.758 35.5278 292.494 35.7943C292.231 36.0608 291.873 36.2105 291.5 36.2105ZM294.312 29.5789H288.688V26.7368C288.688 25.9831 288.984 25.2602 289.511 24.7272C290.039 24.1942 290.754 23.8947 291.5 23.8947C292.246 23.8947 292.961 24.1942 293.489 24.7272C294.016 25.2602 294.312 25.9831 294.312 26.7368V29.5789Z" fill="#A0AEC0"/>
<line x1="61" y1="50" x2="299" y2="50" stroke="#A0AEC0" stroke-width="2" stroke-dasharray="8 4"/>
<line x1="297" y1="49" x2="297" y2="188" stroke="#A0AEC0" stroke-width="2" stroke-dasharray="8 4"/>
<path d="M150.715 138.362H156.084V132.272H160.362V127.612H156.084V106.638H148.074C141.242 116.641 137.728 122.269 135 127.436V132.272H150.715V138.362ZM140.064 127.59C142.574 122.973 145.629 118.202 150.715 110.859H150.802V127.744H140.064V127.59Z" fill="#A0AEC0"/>
<path d="M176.6 122.181C178.346 122.181 179.721 120.774 179.721 119.015C179.721 117.256 178.346 115.849 176.6 115.849C174.832 115.849 173.457 117.256 173.457 119.015C173.457 120.774 174.832 122.181 176.6 122.181ZM176.6 138.604C178.346 138.604 179.721 137.219 179.721 135.438C179.721 133.68 178.346 132.272 176.6 132.272C174.832 132.272 173.457 133.68 173.457 135.438C173.457 137.219 174.832 138.604 176.6 138.604Z" fill="#A0AEC0"/>
<path d="M201.089 124.138H204.821C208.859 124.138 211.303 126.029 211.282 129.414C211.282 132.316 208.815 134.361 205.214 134.361C201.482 134.361 198.972 132.47 198.754 129.59H193.363C193.646 135.197 198.317 139 205.214 139C212.111 139 217 135.175 217 129.546C217 125.127 213.923 122.313 209.274 121.873V121.763C213.071 120.972 215.887 118.334 215.887 114.332C215.887 109.43 211.696 106 205.17 106C198.841 106 194.41 109.606 194.039 115.278H199.277C199.474 112.288 201.853 110.507 205.17 110.507C208.641 110.507 210.474 112.31 210.474 115.102C210.474 117.916 208.16 119.917 204.69 119.917H201.089V124.138Z" fill="#A0AEC0"/>
</svg>
