<svg width="354" height="240" viewBox="0 0 354 240" fill="none" xmlns="http://www.w3.org/2000/svg">
<rect width="354" height="240" fill="white"/>
<circle cx="102.5" cy="119.5" r="60.5" fill="#A0AEC0"/>
<path fill-rule="evenodd" clip-rule="evenodd" d="M116.826 104.613C116.826 112.431 110.599 121.174 102.266 121.174C93.9332 121.174 87.7065 112.431 87.7065 104.613C87.7065 96.5553 94.238 90 102.266 90C110.294 90 116.826 96.5553 116.826 104.613ZM96.4423 127.019H108.09C118.259 127.019 126.532 135.322 126.532 145.529C126.532 145.914 126.306 146.262 125.956 146.419C125.592 146.582 116.864 150.4 102.266 150.4C87.6686 150.4 78.9406 146.582 78.5766 146.419C78.2262 146.262 78 145.914 78 145.529C78 135.322 86.2728 127.019 96.4423 127.019Z" fill="white"/>
<circle cx="251.5" cy="119.5" r="60.5" fill="#E2E8F0"/>
<path d="M235.743 136C232.896 136 230.435 135.271 228.359 133.812C226.313 132.323 224.86 130.302 224 127.75L228.937 125.881C229.59 127.37 230.524 128.57 231.74 129.482C232.955 130.363 234.349 130.804 235.921 130.804C237.552 130.804 238.841 130.424 239.79 129.664C240.769 128.905 241.258 127.811 241.258 126.383C241.258 125.805 241.125 125.273 240.858 124.787C240.591 124.271 240.28 123.845 239.924 123.511C239.598 123.177 239.094 122.843 238.411 122.508C237.729 122.174 237.151 121.916 236.677 121.733C236.202 121.521 235.505 121.262 234.586 120.959C233.4 120.533 232.481 120.199 231.828 119.956C231.206 119.713 230.39 119.318 229.382 118.771C228.404 118.193 227.647 117.616 227.114 117.039C226.609 116.461 226.15 115.702 225.735 114.76C225.349 113.787 225.156 112.724 225.156 111.569C225.156 109.138 226.076 107.102 227.914 105.461C229.753 103.82 232.244 103 235.387 103C237.996 103 240.161 103.638 241.881 104.914C243.601 106.16 244.757 107.801 245.35 109.837L240.547 111.478C239.598 109.29 237.759 108.196 235.031 108.196C233.637 108.196 232.54 108.5 231.74 109.108C230.969 109.685 230.583 110.521 230.583 111.615C230.583 112.344 230.88 112.997 231.473 113.575C232.095 114.152 232.748 114.593 233.43 114.896C234.141 115.17 235.179 115.535 236.543 115.99C237.433 116.325 238.1 116.583 238.545 116.765C239.019 116.917 239.672 117.191 240.502 117.586C241.332 117.981 241.985 118.345 242.459 118.68C242.934 118.983 243.467 119.409 244.06 119.956C244.683 120.503 245.158 121.08 245.484 121.688C245.81 122.265 246.092 122.964 246.329 123.785C246.566 124.575 246.685 125.441 246.685 126.383C246.685 129.36 245.647 131.715 243.571 133.448C241.525 135.149 238.916 136 235.743 136Z" fill="#A0AEC0"/>
<path d="M272.396 135.453L269.949 128.479H257.628L255.182 135.453H249.533L261.142 103.547H266.435L278 135.453H272.396ZM268.259 123.557L264.834 113.985C264.389 112.83 264.048 111.751 263.811 110.749C263.574 111.63 263.233 112.709 262.788 113.985L259.318 123.557H268.259Z" fill="#A0AEC0"/>
</svg>
