<svg width="354" height="240" viewBox="0 0 354 240" fill="none" xmlns="http://www.w3.org/2000/svg">
<rect width="354" height="240" fill="white"/>
<rect x="86" y="87" width="182" height="65" rx="6" fill="#A0AEC0"/>
<path d="M128.219 114.656V110.578L114.109 118.391V121.562L128.219 129.375V125.297L117.953 120.125V119.828L128.219 114.656Z" fill="white"/>
<path d="M148.438 118.594C148.031 114.672 145.453 112.5 141.266 112.5C136.375 112.5 133.609 115.359 133.609 120.438V122.406C133.609 127.5 136.375 130.344 141.266 130.344C145.438 130.344 148.047 128.188 148.438 124.359H144.875C144.562 126.25 143.234 127.281 141.234 127.281C138.672 127.281 137.266 125.438 137.266 122.078V120.766C137.266 117.406 138.672 115.562 141.234 115.562C143.219 115.562 144.578 116.641 144.875 118.594H148.438Z" fill="white"/>
<path d="M160.719 130.344C165.438 130.344 168.422 127.406 168.422 122.75V120.141C168.422 115.484 165.438 112.547 160.719 112.547C156 112.547 153.016 115.484 153.016 120.141V122.75C153.016 127.406 156 130.344 160.719 130.344ZM160.719 115.562C163.25 115.562 164.828 117.391 164.828 120.344V122.547C164.828 125.5 163.25 127.328 160.719 127.328C158.188 127.328 156.609 125.5 156.609 122.547V120.344C156.609 117.391 158.188 115.562 160.719 115.562Z" fill="white"/>
<path d="M178.922 130.266C181.406 130.266 183.141 129.188 183.859 127.188H184.172V130H187.859V106.281H184.109V115.688H183.797C183.156 113.703 181.391 112.594 178.922 112.594C175 112.594 172.562 115.359 172.562 119.906V122.953C172.562 127.516 175 130.266 178.922 130.266ZM180.234 127.094C177.781 127.094 176.266 125.422 176.266 122.734V120.062C176.266 117.375 177.781 115.688 180.234 115.688C182.672 115.688 184.188 117.359 184.188 120.062V122.734C184.188 125.422 182.672 127.094 180.234 127.094Z" fill="white"/>
<path d="M204.344 125.359C203.984 126.625 202.531 127.453 200.641 127.453C198.156 127.453 196.547 125.766 196.547 123.156V122.328H207.828V120.25C207.828 115.5 205.031 112.547 200.531 112.547C195.984 112.547 192.969 115.516 192.969 120V122.672C192.969 127.547 195.781 130.344 200.656 130.344C204.484 130.344 207.391 128.297 207.797 125.359H204.344ZM200.469 115.422C202.859 115.422 204.297 117.109 204.297 119.891H196.547C196.547 117.094 198.016 115.422 200.469 115.422Z" fill="white"/>
<path d="M216.453 132.906L227.281 104.547H223.594L212.844 132.906H216.453Z" fill="white"/>
<path d="M232.797 114.656L243.062 119.828V120.125L232.797 125.297V129.375L246.906 121.562V118.391L232.797 110.578V114.656Z" fill="white"/>
</svg>
