<svg width="354" height="240" viewBox="0 0 354 240" fill="none" xmlns="http://www.w3.org/2000/svg">
<rect width="354" height="240" fill="white"/>
<rect opacity="0.5" x="132.547" y="98.5781" width="142.219" height="35.8438" rx="1.73438" stroke="#A0AEC0" stroke-width="1.15625"/>
<path d="M150.774 115.024C150.469 113.072 148.843 111.477 146.18 111.477C143.111 111.477 141.16 113.692 141.16 117.107C141.16 120.593 143.121 122.818 146.19 122.818C148.822 122.818 150.459 121.334 150.774 119.322H149.005C148.68 120.562 147.654 121.243 146.18 121.243C144.229 121.243 142.969 119.637 142.969 117.107C142.969 114.627 144.209 113.052 146.18 113.052C147.755 113.052 148.721 113.936 149.005 115.024H150.774ZM153.456 122.625H155.204V116.141C155.204 114.292 156.282 113.052 158.243 113.052C159.899 113.052 160.773 114.017 160.773 115.958V122.625H162.521V115.532C162.521 112.961 161.058 111.477 158.741 111.477C157.064 111.477 155.916 112.188 155.367 113.398H155.204V107.32H153.456V122.625ZM168.761 122.818C170.224 122.818 171.424 122.178 172.135 121.009H172.297V122.625H173.964V115.125C173.964 112.849 172.47 111.477 169.798 111.477C167.46 111.477 165.733 112.635 165.499 114.393H167.267C167.511 113.53 168.426 113.032 169.737 113.032C171.373 113.032 172.216 113.774 172.216 115.125V116.121L169.056 116.314C166.505 116.467 165.062 117.595 165.062 119.556C165.062 121.558 166.637 122.818 168.761 122.818ZM169.086 121.284C167.816 121.284 166.871 120.633 166.871 119.515C166.871 118.418 167.602 117.839 169.269 117.727L172.216 117.534V118.54C172.216 120.105 170.885 121.284 169.086 121.284ZM179.208 116.456H179.045V107.32H177.297V122.625H179.045V118.469L180.092 117.493L184.198 122.625H186.423L181.393 116.365L186.108 111.67H183.964L179.208 116.456ZM188.496 122.625H190.244V115.837C190.244 114.292 191.454 113.174 193.12 113.174C193.466 113.174 194.096 113.235 194.238 113.276V111.528C194.014 111.497 193.649 111.477 193.364 111.477C191.911 111.477 190.651 112.229 190.326 113.296H190.163V111.67H188.496V122.625ZM199.472 122.818C200.935 122.818 202.134 122.178 202.846 121.009H203.008V122.625H204.675V115.125C204.675 112.849 203.181 111.477 200.508 111.477C198.171 111.477 196.443 112.635 196.21 114.393H197.978C198.222 113.53 199.136 113.032 200.447 113.032C202.083 113.032 202.927 113.774 202.927 115.125V116.121L199.766 116.314C197.216 116.467 195.773 117.595 195.773 119.556C195.773 121.558 197.348 122.818 199.472 122.818ZM199.797 121.284C198.527 121.284 197.581 120.633 197.581 119.515C197.581 118.418 198.313 117.839 199.98 117.727L202.927 117.534V118.54C202.927 120.105 201.596 121.284 199.797 121.284ZM214.502 117.554V115.898H207.835V117.554H214.502ZM226.585 111.67H224.837V118.154C224.837 120.074 223.78 121.223 221.849 121.223C220.101 121.223 219.37 120.308 219.37 118.336V111.67H217.622V118.763C217.622 121.355 218.902 122.818 221.361 122.818C223.038 122.818 224.207 122.127 224.756 120.908H224.918V122.625H226.585V111.67ZM230.792 109.556C231.463 109.556 232.011 109.007 232.011 108.337C232.011 107.666 231.463 107.117 230.792 107.117C230.121 107.117 229.573 107.666 229.573 108.337C229.573 109.007 230.121 109.556 230.792 109.556ZM229.918 122.625H231.666V111.67H229.918V122.625ZM237.56 125.745V107.32H236.076V125.745H237.56Z" fill="black"/>
<path d="M80.8352 122.625V109.922H85.4387V107.961H73.9451V109.922H78.5588V122.625H80.8352ZM88.9041 109.617C89.6663 109.617 90.2862 108.997 90.2862 108.245C90.2862 107.483 89.6663 106.863 88.9041 106.863C88.1419 106.863 87.522 107.483 87.522 108.245C87.522 108.997 88.1419 109.617 88.9041 109.617ZM87.8167 122.625H89.9915V111.589H87.8167V122.625ZM93.9751 108.804V111.619H92.217V113.367H93.9751V119.719C93.9751 121.842 94.9405 122.696 97.3693 122.696C97.7961 122.696 98.2026 122.645 98.5583 122.584V120.847C98.2534 120.877 98.0604 120.897 97.725 120.897C96.6376 120.897 96.16 120.379 96.16 119.19V113.367H98.5583V111.619H96.16V108.804H93.9751ZM101.231 122.625H103.416V107.26H101.231V122.625ZM113.954 119.668C113.548 120.562 112.643 121.05 111.322 121.05C109.574 121.05 108.446 119.79 108.375 117.788V117.686H116.19V116.934C116.19 113.479 114.33 111.375 111.251 111.375C108.131 111.375 106.15 113.621 106.15 117.127C106.15 120.654 108.091 122.838 111.261 122.838C113.792 122.838 115.58 121.619 116.058 119.668H113.954ZM111.241 113.154C112.857 113.154 113.914 114.322 113.964 116.111H108.375C108.497 114.333 109.625 113.154 111.241 113.154ZM120.509 115.146C121.373 115.146 122.003 114.505 122.003 113.682C122.003 112.859 121.373 112.219 120.509 112.219C119.655 112.219 119.015 112.859 119.015 113.682C119.015 114.505 119.655 115.146 120.509 115.146ZM120.509 122.777C121.373 122.777 122.003 122.137 122.003 121.314C122.003 120.491 121.373 119.851 120.509 119.851C119.655 119.851 119.015 120.491 119.015 121.314C119.015 122.137 119.655 122.777 120.509 122.777Z" fill="black"/>
</svg>
