<svg width="354" height="240" viewBox="0 0 354 240" fill="none" xmlns="http://www.w3.org/2000/svg">
<rect width="354" height="240" fill="white"/>
<path d="M195.749 80.0124C192.252 80.0303 188.794 80.687 185.575 81.9443C182.356 83.2017 179.442 88.3178 177 90.6198C173.375 87.1741 168.715 81.5189 163.615 80.5241C158.515 79.5293 153.208 79.9572 148.374 81.7529C143.541 83.5487 139.4 86.6306 136.483 90.6038C133.566 94.5769 132.005 99.2605 132 104.055C132 126.039 172.885 156.932 174.627 158.226C175.298 158.727 176.136 159 177 159C177.864 159 178.702 158.727 179.373 158.226C181.115 156.932 222 126.039 222 104.055C221.977 97.6676 219.201 91.5498 214.28 87.0427C209.358 82.5356 202.694 80.0073 195.749 80.0124Z" fill="#A0AEC0"/>
</svg>
