<svg width="354" height="240" viewBox="0 0 354 240" fill="none" xmlns="http://www.w3.org/2000/svg">
<rect width="354" height="240" fill="white"/>
<path d="M134.9 51H223.1C224.4 51 225.646 51.4917 226.565 52.3668C227.484 53.242 228 54.429 228 55.6667V65H130V55.6667C130 54.429 130.516 53.242 131.435 52.3668C132.354 51.4917 133.6 51 134.9 51Z" fill="#E2E8F0"/>
<path d="M247.133 74H110.867C109.576 74 108.338 74.4846 107.425 75.3473C106.513 76.21 106 77.38 106 78.6V184.4C106 185.62 106.513 186.79 107.425 187.653C108.338 188.515 109.576 189 110.867 189H247.133C248.424 189 249.662 188.515 250.575 187.653C251.487 186.79 252 185.62 252 184.4V78.6C252 77.38 251.487 76.21 250.575 75.3473C249.662 74.4846 248.424 74 247.133 74ZM130.333 108.5C130.333 106.226 131.047 104.002 132.384 102.111C133.721 100.22 135.621 98.7458 137.844 97.8754C140.067 97.005 142.513 96.7772 144.874 97.221C147.234 97.6647 149.402 98.76 151.103 100.368C152.805 101.977 153.963 104.026 154.433 106.256C154.902 108.487 154.661 110.8 153.741 112.901C152.82 115.002 151.26 116.798 149.259 118.062C147.259 119.326 144.906 120 142.5 120C139.273 120 136.179 118.788 133.897 116.632C131.615 114.475 130.333 111.55 130.333 108.5ZM231.959 158.971C231.543 159.705 230.924 160.319 230.168 160.747C229.412 161.175 228.548 161.4 227.667 161.4H144.933C143.929 161.4 142.95 161.106 142.13 160.559C141.309 160.013 140.688 159.24 140.351 158.346C140.013 157.452 139.977 156.482 140.245 155.568C140.514 154.654 141.076 153.84 141.853 153.24L195.386 111.84C195.914 111.437 196.524 111.142 197.178 110.972C197.832 110.802 198.516 110.761 199.187 110.851C199.858 110.945 200.501 111.172 201.075 111.516C201.648 111.86 202.139 112.313 202.516 112.847L231.716 154.247C232.205 154.94 232.486 155.745 232.529 156.577C232.572 157.409 232.375 158.237 231.959 158.971Z" fill="#A0AEC0"/>
</svg>
