<svg width="354" height="240" viewBox="0 0 354 240" fill="none" xmlns="http://www.w3.org/2000/svg">
<rect width="354" height="240" fill="white"/>
<rect x="135" y="91" width="84" height="65" rx="6" fill="#E2E8F0"/>
<rect x="140" y="84" width="74" height="65" rx="6" fill="#A0AEC0"/>
<path d="M161.766 127C160.46 127 159.414 126.617 158.63 125.852C157.865 125.087 157.482 124.06 157.482 122.772C157.482 121.409 157.884 120.355 158.686 119.608C159.508 118.843 160.712 118.46 162.298 118.46H163.95V115.38H162.298C160.712 115.38 159.508 115.007 158.686 114.26C157.884 113.495 157.482 112.431 157.482 111.068C157.482 109.78 157.865 108.753 158.63 107.988C159.414 107.223 160.46 106.84 161.766 106.84C162.812 106.84 163.633 107.036 164.23 107.428C164.846 107.82 165.276 108.343 165.518 108.996C165.78 109.649 165.91 110.368 165.91 111.152V113.476H168.99V111.152C168.99 110.368 169.112 109.649 169.354 108.996C169.616 108.343 170.045 107.82 170.642 107.428C171.258 107.036 172.089 106.84 173.134 106.84C174.441 106.84 175.477 107.223 176.242 107.988C177.026 108.753 177.418 109.78 177.418 111.068C177.418 112.431 177.017 113.495 176.214 114.26C175.412 115.007 174.208 115.38 172.602 115.38H170.95V118.46H172.602C174.208 118.46 175.412 118.843 176.214 119.608C177.017 120.355 177.418 121.409 177.418 122.772C177.418 124.06 177.026 125.087 176.242 125.852C175.477 126.617 174.441 127 173.134 127C172.089 127 171.258 126.804 170.642 126.412C170.045 126.02 169.616 125.497 169.354 124.844C169.112 124.191 168.99 123.472 168.99 122.688V120.364H165.91V122.688C165.91 123.472 165.78 124.191 165.518 124.844C165.276 125.497 164.846 126.02 164.23 126.412C163.633 126.804 162.812 127 161.766 127ZM170.95 111.096V113.476H172.602C173.592 113.476 174.31 113.28 174.758 112.888C175.206 112.477 175.43 111.871 175.43 111.068C175.43 110.247 175.206 109.659 174.758 109.304C174.329 108.949 173.788 108.772 173.134 108.772C172.406 108.772 171.856 108.987 171.482 109.416C171.128 109.827 170.95 110.387 170.95 111.096ZM162.298 113.476H163.95V111.096C163.95 110.387 163.764 109.827 163.39 109.416C163.036 108.987 162.494 108.772 161.766 108.772C161.113 108.772 160.562 108.949 160.114 109.304C159.685 109.659 159.47 110.247 159.47 111.068C159.47 111.871 159.694 112.477 160.142 112.888C160.59 113.28 161.309 113.476 162.298 113.476ZM165.91 118.46H168.99V115.38H165.91V118.46ZM161.766 125.068C162.494 125.068 163.036 124.863 163.39 124.452C163.764 124.023 163.95 123.453 163.95 122.744V120.364H162.298C161.309 120.364 160.59 120.569 160.142 120.98C159.694 121.372 159.47 121.969 159.47 122.772C159.47 123.593 159.685 124.181 160.114 124.536C160.562 124.891 161.113 125.068 161.766 125.068ZM170.95 122.744C170.95 123.453 171.128 124.023 171.482 124.452C171.856 124.863 172.406 125.068 173.134 125.068C173.788 125.068 174.329 124.891 174.758 124.536C175.206 124.181 175.43 123.593 175.43 122.772C175.43 121.969 175.206 121.372 174.758 120.98C174.31 120.569 173.592 120.364 172.602 120.364H170.95V122.744Z" fill="white"/>
<path d="M181.659 107.736H190.619C192.448 107.736 193.755 108.147 194.539 108.968C195.342 109.789 195.743 110.993 195.743 112.58C195.743 113.868 195.482 114.895 194.959 115.66C194.436 116.407 193.596 116.892 192.439 117.116V117.228C193.764 117.471 194.679 117.984 195.183 118.768C195.687 119.552 195.939 120.607 195.939 121.932C195.939 123.5 195.547 124.741 194.763 125.656C193.998 126.552 192.588 127 190.535 127H181.659V107.736ZM189.835 116.136C191.03 116.136 191.907 115.884 192.467 115.38C193.046 114.876 193.335 114.101 193.335 113.056C193.335 112.272 193.232 111.665 193.027 111.236C192.822 110.807 192.467 110.489 191.963 110.284C191.478 110.079 190.768 109.976 189.835 109.976H184.067V116.136H189.835ZM189.947 124.76C190.88 124.76 191.599 124.657 192.103 124.452C192.626 124.247 192.99 123.92 193.195 123.472C193.419 123.005 193.531 122.371 193.531 121.568C193.531 120.411 193.26 119.589 192.719 119.104C192.178 118.619 191.254 118.376 189.947 118.376H184.067V124.76H189.947Z" fill="white"/>
</svg>
