<svg width="354" height="240" viewBox="0 0 354 240" fill="none" xmlns="http://www.w3.org/2000/svg">
<rect width="354" height="240" fill="white"/>
<rect opacity="0.6" x="88" y="82" width="179" height="127" fill="#E2E8F0"/>
<rect x="149.545" y="36" width="117.455" height="38" rx="6.90909" fill="#A0AEC0"/>
<path d="M255.542 52H245.458C245.375 52 245.293 52.0194 245.221 52.056C245.15 52.0926 245.092 52.1451 245.053 52.2078C245.014 52.2705 244.996 52.341 245.001 52.4117C245.006 52.4824 245.033 52.5506 245.08 52.609L250.122 58.8314C250.164 58.8834 250.221 58.9259 250.287 58.9553C250.352 58.9847 250.426 59 250.5 59C250.574 59 250.648 58.9847 250.713 58.9553C250.779 58.9259 250.836 58.8834 250.878 58.8314L255.92 52.609C255.967 52.5506 255.994 52.4824 255.999 52.4117C256.004 52.341 255.986 52.2705 255.947 52.2078C255.908 52.1451 255.85 52.0926 255.779 52.056C255.707 52.0194 255.625 52 255.542 52Z" fill="#E2E8F0"/>
<rect x="165.091" y="51.5454" width="53.5455" height="6.90909" fill="white"/>
<rect x="110" y="146" width="135" height="6" fill="#A0AEC0"/>
<rect opacity="0.31" x="88" y="87" width="179" height="39" fill="#A0AEC0"/>
<rect x="110" y="184" width="135" height="6" fill="#A0AEC0"/>
<rect x="110" y="104" width="135" height="6" fill="#A0AEC0"/>
<path d="M238.438 125.795L231.89 124.806V120.514C231.89 119.756 231.299 119.079 230.493 119.007C229.568 118.924 228.79 119.603 228.79 120.451V130.032C228.79 130.192 228.651 130.323 228.48 130.323C228.309 130.323 228.17 130.192 228.17 130.032V126.548C226.972 126.548 226 127.458 226 128.581V131.484C226 132.987 226.77 134.083 227.641 134.962C228.369 135.698 228.645 136.434 228.742 136.786C228.777 136.913 228.902 137 229.042 137H239.377C239.529 137 239.659 136.897 239.683 136.756L241.005 129.126C241.279 127.542 240.129 126.051 238.438 125.795ZM232.511 133.226C232.511 133.386 232.372 133.516 232.201 133.516C232.029 133.516 231.89 133.386 231.89 133.226V129.161C231.89 129.001 232.029 128.871 232.201 128.871C232.372 128.871 232.511 129.001 232.511 129.161V133.226ZM234.991 133.226C234.991 133.386 234.852 133.516 234.681 133.516C234.51 133.516 234.371 133.386 234.371 133.226V129.161C234.371 129.001 234.51 128.871 234.681 128.871C234.852 128.871 234.991 129.001 234.991 129.161V133.226ZM237.471 133.226C237.471 133.386 237.332 133.516 237.161 133.516C236.99 133.516 236.851 133.386 236.851 133.226V129.161C236.851 129.001 236.99 128.871 237.161 128.871C237.332 128.871 237.471 129.001 237.471 129.161V133.226Z" fill="white"/>
<path d="M238.587 124.806L238.587 124.806C240.772 125.136 242.37 127.102 241.99 129.297L241.99 129.297L240.669 136.926L238.587 124.806ZM238.587 124.806L232.89 123.946M238.587 124.806L232.89 123.946M227.79 125.57V120.451C227.79 118.952 229.137 117.882 230.581 118.011L227.79 125.57ZM227.79 125.57C226.266 125.748 225 126.977 225 128.581V131.484C225 133.371 225.982 134.708 226.93 135.666C227.509 136.251 227.714 136.821 227.778 137.051L227.79 125.57ZM232.89 123.946V120.514C232.89 119.242 231.907 118.129 230.582 118.011L232.89 123.946ZM229.042 138C228.509 138 227.947 137.665 227.778 137.051L229.042 138ZM229.042 138H239.377M229.042 138H239.377M239.377 138C239.968 138 240.554 137.592 240.669 136.927L239.377 138Z" stroke="black" stroke-opacity="0.21" stroke-width="2"/>
</svg>
