<svg width="354" height="240" viewBox="0 0 354 240" fill="none" xmlns="http://www.w3.org/2000/svg">
<rect width="354" height="240" fill="white"/>
<rect x="88" y="84" width="179" height="121" rx="4" fill="#E2E8F0"/>
<path opacity="0.4" fill-rule="evenodd" clip-rule="evenodd" d="M178.625 144.538L219.284 104.931L217.302 103L176.642 142.607L135.983 103L134 104.931L174.659 144.538L134 184.145L135.983 186.076L176.642 146.47L217.302 186.076L219.284 184.145L178.625 144.538Z" fill="#A0AEC0"/>
<rect x="149.545" y="35" width="117.455" height="38" rx="6.90909" fill="#A0AEC0"/>
<rect x="167.091" y="50.5454" width="53.5455" height="6.90909" fill="white"/>
<path d="M254.542 51.3273H244.458C244.375 51.3273 244.293 51.3439 244.221 51.3753C244.15 51.4067 244.092 51.4517 244.053 51.5054C244.014 51.5591 243.996 51.6195 244.001 51.6801C244.006 51.7408 244.033 51.7992 244.08 51.8493L249.122 57.1828C249.164 57.2273 249.221 57.2638 249.287 57.2889C249.352 57.3141 249.426 57.3273 249.5 57.3273C249.574 57.3273 249.648 57.3141 249.713 57.2889C249.779 57.2638 249.836 57.2273 249.878 57.1828L254.92 51.8493C254.967 51.7992 254.994 51.7408 254.999 51.6801C255.004 51.6195 254.986 51.5591 254.947 51.5054C254.908 51.4517 254.85 51.4067 254.779 51.3753C254.707 51.3439 254.625 51.3273 254.542 51.3273V51.3273Z" fill="#E2E8F0"/>
</svg>
