<svg width="354" height="240" viewBox="0 0 354 240" fill="none" xmlns="http://www.w3.org/2000/svg">
<rect width="354" height="240" fill="white"/>
<rect x="30" y="190.135" width="297" height="10" fill="#E2E8F0"/>
<rect x="30" y="190.135" width="235" height="10" fill="#A0AEC0"/>
<path opacity="0.9" d="M177.5 133C167.512 133 157.748 130.038 149.444 124.489C141.139 118.94 134.666 111.053 130.844 101.826C127.022 92.5979 126.022 82.444 127.97 72.648C129.919 62.8519 134.729 53.8537 141.791 46.7911C148.854 39.7286 157.852 34.9189 167.648 32.9704C177.444 31.0218 187.598 32.0219 196.826 35.8441C206.053 39.6663 213.94 46.139 219.489 54.4437C225.038 62.7484 228 72.5121 228 82.5C227.984 95.8886 222.659 108.724 213.191 118.191C203.724 127.659 190.889 132.984 177.5 133ZM177.5 44.625C170.009 44.625 162.686 46.8463 156.458 51.0081C150.229 55.1699 145.375 61.0851 142.508 68.0059C139.641 74.9266 138.891 82.542 140.353 89.8891C141.814 97.2361 145.421 103.985 150.718 109.282C156.015 114.579 162.764 118.186 170.111 119.647C177.458 121.109 185.073 120.359 191.994 117.492C198.915 114.625 204.83 109.771 208.992 103.542C213.154 97.3137 215.375 89.991 215.375 82.5C215.364 72.4583 211.37 62.8309 204.27 55.7303C197.169 48.6298 187.542 44.6359 177.5 44.625Z" fill="#A0AEC0"/>
<path d="M228 82H215.5C215.489 72.0577 211.535 62.5257 204.505 55.4954C197.474 48.4651 187.942 44.5108 178 44.5V32C191.256 32.0157 203.965 37.2886 213.338 46.662C222.711 56.0354 227.984 68.744 228 82Z" fill="#E2E8F0"/>
<path d="M159.141 92.4082C163.34 92.4082 166.282 90.3086 166.282 87.2568C166.282 84.9375 164.585 83.2285 162.181 82.7524V82.6792C164.244 82.1665 165.635 80.6528 165.635 78.7607C165.635 76.002 162.962 74.0122 159.141 74.0122C155.32 74.0122 152.635 76.0142 152.635 78.7485C152.635 80.665 154.039 82.1787 156.114 82.6792V82.7524C153.709 83.2163 152 84.9253 152 87.2446C152 90.2964 154.93 92.4082 159.141 92.4082ZM159.141 81.5684C157.469 81.5684 156.285 80.5674 156.285 79.127C156.285 77.6743 157.469 76.6733 159.141 76.6733C160.801 76.6733 161.998 77.6743 161.998 79.127C161.998 80.5674 160.801 81.5684 159.141 81.5684ZM159.141 89.7227C157.2 89.7227 155.845 88.5752 155.845 86.9761C155.845 85.4014 157.2 84.2539 159.141 84.2539C161.082 84.2539 162.425 85.3892 162.425 86.9761C162.425 88.5752 161.082 89.7227 159.141 89.7227Z" fill="#494949"/>
<path d="M175.425 92.4082C179.893 92.4082 182.603 88.856 182.603 83.1675C182.603 77.479 179.869 74 175.425 74C170.982 74 168.235 77.4912 168.235 83.1797C168.235 88.8804 170.958 92.4082 175.425 92.4082ZM175.425 89.4541C173.252 89.4541 171.983 87.2202 171.983 83.1797C171.983 79.1758 173.277 76.9541 175.425 76.9541C177.586 76.9541 178.855 79.1636 178.855 83.1797C178.855 87.2202 177.598 89.4541 175.425 89.4541Z" fill="#494949"/>
<path d="M188.389 83.3262C190.928 83.3262 192.588 81.5439 192.588 78.7119C192.588 75.8555 190.916 74.1343 188.389 74.1343C185.85 74.1343 184.178 75.8555 184.178 78.7241C184.178 81.5562 185.838 83.3262 188.389 83.3262ZM189.915 92.0176L201.854 74.4028H199.217L187.266 92.0176H189.915ZM188.389 81.2632C187.413 81.2632 186.753 80.4209 186.753 78.7241C186.753 77.0029 187.413 76.2095 188.389 76.2095C189.366 76.2095 190.013 77.0029 190.013 78.7241C190.013 80.4209 189.354 81.2632 188.389 81.2632ZM200.743 92.2739C203.282 92.2739 204.942 90.4917 204.942 87.6597C204.942 84.791 203.27 83.0698 200.743 83.0698C198.204 83.0698 196.531 84.8032 196.531 87.6597C196.531 90.5039 198.191 92.2739 200.743 92.2739ZM200.743 90.1987C199.766 90.1987 199.107 89.3687 199.107 87.6597C199.107 85.9385 199.766 85.145 200.743 85.145C201.719 85.145 202.366 85.9507 202.366 87.6597C202.366 89.3687 201.707 90.1987 200.743 90.1987Z" fill="#494949"/>
<path d="M226.999 178.463C230.526 178.463 232.997 176.699 232.997 174.136C232.997 172.188 231.572 170.752 229.552 170.352V170.291C231.285 169.86 232.454 168.588 232.454 166.999C232.454 164.682 230.208 163.01 226.999 163.01C223.789 163.01 221.533 164.692 221.533 166.989C221.533 168.599 222.712 169.87 224.456 170.291V170.352C222.436 170.742 221 172.177 221 174.125C221 176.689 223.461 178.463 226.999 178.463ZM226.999 169.357C225.594 169.357 224.599 168.517 224.599 167.307C224.599 166.086 225.594 165.246 226.999 165.246C228.393 165.246 229.398 166.086 229.398 167.307C229.398 168.517 228.393 169.357 226.999 169.357ZM226.999 176.207C225.368 176.207 224.23 175.243 224.23 173.9C224.23 172.577 225.368 171.613 226.999 171.613C228.629 171.613 229.757 172.567 229.757 173.9C229.757 175.243 228.629 176.207 226.999 176.207Z" fill="#494949"/>
<path d="M240.677 178.463C244.43 178.463 246.707 175.479 246.707 170.701C246.707 165.922 244.41 163 240.677 163C236.945 163 234.638 165.933 234.638 170.711C234.638 175.5 236.924 178.463 240.677 178.463ZM240.677 175.981C238.852 175.981 237.786 174.105 237.786 170.711C237.786 167.348 238.873 165.481 240.677 165.481C242.492 165.481 243.559 167.337 243.559 170.711C243.559 174.105 242.502 175.981 240.677 175.981Z" fill="#494949"/>
<path d="M251.567 170.834C253.7 170.834 255.094 169.337 255.094 166.958C255.094 164.559 253.689 163.113 251.567 163.113C249.434 163.113 248.029 164.559 248.029 166.968C248.029 169.347 249.424 170.834 251.567 170.834ZM252.849 178.135L262.877 163.338H260.662L250.624 178.135H252.849ZM251.567 169.101C250.747 169.101 250.193 168.394 250.193 166.968C250.193 165.522 250.747 164.856 251.567 164.856C252.387 164.856 252.931 165.522 252.931 166.968C252.931 168.394 252.377 169.101 251.567 169.101ZM261.944 178.35C264.077 178.35 265.471 176.853 265.471 174.474C265.471 172.064 264.066 170.619 261.944 170.619C259.811 170.619 258.406 172.075 258.406 174.474C258.406 176.863 259.801 178.35 261.944 178.35ZM261.944 176.607C261.124 176.607 260.57 175.91 260.57 174.474C260.57 173.028 261.124 172.362 261.944 172.362C262.764 172.362 263.308 173.039 263.308 174.474C263.308 175.91 262.754 176.607 261.944 176.607Z" fill="#494949"/>
</svg>
