<svg width="354" height="240" viewBox="0 0 354 240" fill="none" xmlns="http://www.w3.org/2000/svg">
<rect width="354" height="240" fill="#E2E8F0"/>
<rect x="33" y="40.8411" width="288" height="157.318" fill="#A0AEC0"/>
<rect x="55.4741" y="66.6445" width="148.994" height="9.98844" fill="white"/>
<rect x="55.4741" y="97.4421" width="243.052" height="6.65896" fill="#E2E8F0"/>
<rect x="55.4741" y="119.916" width="148.994" height="6.65896" fill="#E2E8F0"/>
<path d="M185.884 174.215C188.762 174.215 190.77 172.565 191.046 169.948H188.656C188.396 171.338 187.348 172.191 185.892 172.191C184.015 172.191 182.836 170.647 182.836 168.143C182.836 165.672 184.031 164.12 185.884 164.12C187.315 164.12 188.42 165.062 188.648 166.501H191.038C190.851 163.876 188.705 162.087 185.884 162.087C182.487 162.087 180.333 164.372 180.333 168.151C180.333 171.939 182.47 174.215 185.884 174.215Z" fill="white"/>
<path d="M200.341 174.02H202.95L198.869 162.291H195.984L191.911 174.02H194.431L195.325 171.175H199.446L200.341 174.02ZM197.357 164.534H197.414L198.918 169.338H195.854L197.357 164.534Z" fill="white"/>
<path d="M207.002 174.02V166.339H207.075L212.561 174.02H214.594V162.291H212.244V169.932H212.179L206.701 162.291H204.652V174.02H207.002Z" fill="white"/>
<path d="M222.238 174.215C225.116 174.215 227.123 172.565 227.4 169.948H225.01C224.75 171.338 223.701 172.191 222.246 172.191C220.369 172.191 219.19 170.647 219.19 168.143C219.19 165.672 220.385 164.12 222.238 164.12C223.669 164.12 224.774 165.062 225.002 166.501H227.392C227.205 163.876 225.059 162.087 222.238 162.087C218.84 162.087 216.686 164.372 216.686 168.151C216.686 171.939 218.824 174.215 222.238 174.215Z" fill="white"/>
<path d="M237.19 171.988H231.874V169.029H236.889V167.143H231.874V164.315H237.19V162.291H229.419V174.02H237.19V171.988Z" fill="white"/>
<path d="M247.046 171.988H241.917V162.291H239.462V174.02H247.046V171.988Z" fill="white"/>
<path d="M280.753 162.087C277.274 162.087 275.096 164.42 275.096 168.159C275.096 171.891 277.274 174.215 280.753 174.215C284.224 174.215 286.411 171.891 286.411 168.159C286.411 164.42 284.224 162.087 280.753 162.087ZM280.753 164.136C282.672 164.136 283.899 165.697 283.899 168.159C283.899 170.614 282.672 172.167 280.753 172.167C278.827 172.167 277.599 170.614 277.599 168.159C277.599 165.697 278.835 164.136 280.753 164.136Z" fill="white"/>
<path d="M290.95 174.02V170.435L292.047 169.119L295.526 174.02H298.461L293.819 167.493L298.16 162.291H295.429L291.023 167.639H290.95V162.291H288.495V174.02H290.95Z" fill="white"/>
</svg>
