<svg width="400" height="400" viewBox="0 0 400 400" fill="none" xmlns="http://www.w3.org/2000/svg">
<rect width="400" height="400" fill="white"/>
<rect x="27" y="185" width="346" height="189" fill="#A0AEC0"/>
<rect x="54" y="216" width="179" height="12" fill="white"/>
<rect x="54" y="253" width="292" height="8" fill="#E2E8F0"/>
<rect x="54" y="280" width="179" height="8" fill="#E2E8F0"/>
<path d="M210.674 345.234C214.131 345.234 216.543 343.252 216.875 340.107H214.004C213.691 341.777 212.432 342.803 210.684 342.803C208.428 342.803 207.012 340.947 207.012 337.939C207.012 334.971 208.447 333.105 210.674 333.105C212.393 333.105 213.721 334.238 213.994 335.967H216.865C216.641 332.812 214.062 330.664 210.674 330.664C206.592 330.664 204.004 333.408 204.004 337.949C204.004 342.5 206.572 345.234 210.674 345.234Z" fill="white"/>
<path d="M228.041 345H231.176L226.274 330.908H222.807L217.914 345H220.942L222.016 341.582H226.967L228.041 345ZM224.457 333.604H224.526L226.332 339.375H222.651L224.457 333.604Z" fill="white"/>
<path d="M236.044 345V335.771H236.132L242.723 345H245.165V330.908H242.343V340.088H242.264L235.682 330.908H233.221V345H236.044Z" fill="white"/>
<path d="M254.349 345.234C257.806 345.234 260.218 343.252 260.55 340.107H257.679C257.366 341.777 256.107 342.803 254.359 342.803C252.103 342.803 250.687 340.947 250.687 337.939C250.687 334.971 252.122 333.105 254.349 333.105C256.068 333.105 257.396 334.238 257.669 335.967H260.54C260.316 332.812 257.737 330.664 254.349 330.664C250.267 330.664 247.679 333.408 247.679 337.949C247.679 342.5 250.247 345.234 254.349 345.234Z" fill="white"/>
<path d="M272.312 342.559H265.925V339.004H271.951V336.738H265.925V333.34H272.312V330.908H262.976V345H272.312V342.559Z" fill="white"/>
<path d="M284.152 342.559H277.99V330.908H275.041V345H284.152V342.559Z" fill="white"/>
<path d="M324.648 330.664C320.468 330.664 317.851 333.467 317.851 337.959C317.851 342.441 320.468 345.234 324.648 345.234C328.818 345.234 331.445 342.441 331.445 337.959C331.445 333.467 328.818 330.664 324.648 330.664ZM324.648 333.125C326.953 333.125 328.427 335 328.427 337.959C328.427 340.908 326.953 342.773 324.648 342.773C322.333 342.773 320.859 340.908 320.859 337.959C320.859 335 322.343 333.125 324.648 333.125Z" fill="white"/>
<path d="M336.898 345V340.693L338.217 339.111L342.396 345H345.922L340.346 337.158L345.56 330.908H342.279L336.986 337.334H336.898V330.908H333.949V345H336.898Z" fill="white"/>
</svg>
