<svg width="400" height="400" viewBox="0 0 400 400" fill="none" xmlns="http://www.w3.org/2000/svg">
<rect width="400" height="400" fill="white"/>
<rect x="27" y="160" width="346" height="59" fill="#A0AEC0"/>
<rect x="89" y="187" width="186" height="6" fill="white"/>
<path d="M56 176C48.272 176 42 182.265 42 190C42 197.735 48.272 204 56 204C63.728 204 70 197.735 70 190C70 182.265 63.728 176 56 176ZM57.4 197H54.6V194.2H57.4V197ZM57.4 191.4H54.6V183H57.4V191.4Z" fill="#E2E8F0"/>
<path d="M350.745 182L345.33 187.415L339.915 182L338 183.915L343.415 189.33L338 194.745L339.915 196.66L345.33 191.245L350.745 196.66L352.66 194.745L347.245 189.33L352.66 183.915L350.745 182Z" fill="white"/>
</svg>
