<svg width="400" height="400" viewBox="0 0 400 400" fill="none" xmlns="http://www.w3.org/2000/svg">
<rect width="400" height="400" fill="white"/>
<path d="M330 111H72V280H330V111Z" fill="#E2E8F0"/>
<path d="M342 74H340V71C340 69.6739 339.473 68.4021 338.536 67.4645C337.598 66.5268 336.326 66 335 66C333.674 66 332.402 66.5268 331.464 67.4645C330.527 68.4021 330 69.6739 330 71V74H328C327.735 74 327.48 74.1054 327.293 74.2929C327.105 74.4804 327 74.7348 327 75V84C327 84.2652 327.105 84.5196 327.293 84.7071C327.48 84.8946 327.735 85 328 85H342C342.265 85 342.52 84.8946 342.707 84.7071C342.895 84.5196 343 84.2652 343 84V75C343 74.7348 342.895 74.4804 342.707 74.2929C342.52 74.1054 342.265 74 342 74ZM335 81C334.703 81 334.413 80.912 334.167 80.7472C333.92 80.5824 333.728 80.3481 333.614 80.074C333.501 79.7999 333.471 79.4983 333.529 79.2074C333.587 78.9164 333.73 78.6491 333.939 78.4393C334.149 78.2296 334.416 78.0867 334.707 78.0288C334.998 77.9709 335.3 78.0006 335.574 78.1142C335.848 78.2277 336.082 78.42 336.247 78.6666C336.412 78.9133 336.5 79.2033 336.5 79.5C336.5 79.8978 336.342 80.2794 336.061 80.5607C335.779 80.842 335.398 81 335 81ZM338 74H332V71C332 70.2044 332.316 69.4413 332.879 68.8787C333.441 68.3161 334.204 68 335 68C335.796 68 336.559 68.3161 337.121 68.8787C337.684 69.4413 338 70.2044 338 71V74Z" fill="#A0AEC0"/>
<line x1="72" y1="98.5" x2="344" y2="98.5" stroke="#A0AEC0" stroke-width="3" stroke-dasharray="8 4"/>
<line x1="342.5" y1="98" x2="342.5" y2="284" stroke="#A0AEC0" stroke-width="3" stroke-dasharray="8 4"/>
<path d="M172.436 214H178.441V207.237H183.227V202.062H178.441V178.771H169.481C161.84 189.879 157.909 196.129 154.857 201.866V207.237H172.436V214ZM160.521 202.037C163.329 196.91 166.747 191.612 172.436 183.458H172.533V202.208H160.521V202.037Z" fill="#A0AEC0"/>
<path d="M201.391 196.031C203.344 196.031 204.882 194.469 204.882 192.516C204.882 190.562 203.344 189 201.391 189C199.413 189 197.875 190.562 197.875 192.516C197.875 194.469 199.413 196.031 201.391 196.031ZM201.391 214.269C203.344 214.269 204.882 212.73 204.882 210.753C204.882 208.8 203.344 207.237 201.391 207.237C199.413 207.237 197.875 208.8 197.875 210.753C197.875 212.73 199.413 214.269 201.391 214.269Z" fill="#A0AEC0"/>
<path d="M228.783 198.204H232.958C237.475 198.204 240.209 200.304 240.185 204.063C240.185 207.286 237.426 209.557 233.397 209.557C229.223 209.557 226.415 207.457 226.171 204.259H220.141C220.458 210.484 225.683 214.708 233.397 214.708C241.112 214.708 246.581 210.46 246.581 204.21C246.581 199.303 243.139 196.178 237.938 195.689V195.567C242.187 194.688 245.336 191.759 245.336 187.315C245.336 181.871 240.648 178.062 233.349 178.062C226.269 178.062 221.312 182.066 220.897 188.365H226.757C226.977 185.045 229.638 183.067 233.349 183.067C237.23 183.067 239.281 185.069 239.281 188.17C239.281 191.295 236.693 193.517 232.812 193.517H228.783V198.204Z" fill="#A0AEC0"/>
</svg>
