<svg width="400" height="400" viewBox="0 0 400 400" fill="none" xmlns="http://www.w3.org/2000/svg">
<rect width="400" height="400" fill="white"/>
<circle cx="121.5" cy="199.5" r="60.5" fill="#A0AEC0"/>
<path fill-rule="evenodd" clip-rule="evenodd" d="M137.452 182.452C137.452 191.253 130.416 201.097 121 201.097C111.584 201.097 104.548 191.253 104.548 182.452C104.548 173.38 111.929 166 121 166C130.071 166 137.452 173.38 137.452 182.452ZM93.5806 228.516C93.5806 217.025 102.928 207.677 114.419 207.677H127.581C139.071 207.677 148.419 217.025 148.419 228.516C148.419 228.949 148.164 229.342 147.768 229.519C147.357 229.702 137.494 234 121 234C104.506 234 94.6433 229.702 94.2321 229.519C93.8361 229.342 93.5806 228.949 93.5806 228.516Z" fill="white"/>
<circle cx="270.5" cy="199.5" r="60.5" fill="#E2E8F0"/>
<path d="M255.553 216.6C252.353 216.6 249.586 215.8 247.253 214.2C244.953 212.567 243.319 210.35 242.353 207.55L247.903 205.5C248.636 207.133 249.686 208.45 251.053 209.45C252.419 210.417 253.986 210.9 255.753 210.9C257.586 210.9 259.036 210.483 260.103 209.65C261.203 208.817 261.753 207.617 261.753 206.05C261.753 205.417 261.603 204.833 261.303 204.3C261.003 203.733 260.653 203.267 260.253 202.9C259.886 202.533 259.319 202.167 258.553 201.8C257.786 201.433 257.136 201.15 256.603 200.95C256.069 200.717 255.286 200.433 254.253 200.1C252.919 199.633 251.886 199.267 251.153 199C250.453 198.733 249.536 198.3 248.403 197.7C247.303 197.067 246.453 196.433 245.853 195.8C245.286 195.167 244.769 194.333 244.303 193.3C243.869 192.233 243.653 191.067 243.653 189.8C243.653 187.133 244.686 184.9 246.753 183.1C248.819 181.3 251.619 180.4 255.153 180.4C258.086 180.4 260.519 181.1 262.453 182.5C264.386 183.867 265.686 185.667 266.353 187.9L260.953 189.7C259.886 187.3 257.819 186.1 254.753 186.1C253.186 186.1 251.953 186.433 251.053 187.1C250.186 187.733 249.753 188.65 249.753 189.85C249.753 190.65 250.086 191.367 250.753 192C251.453 192.633 252.186 193.117 252.953 193.45C253.753 193.75 254.919 194.15 256.453 194.65C257.453 195.017 258.203 195.3 258.703 195.5C259.236 195.667 259.969 195.967 260.903 196.4C261.836 196.833 262.569 197.233 263.103 197.6C263.636 197.933 264.236 198.4 264.903 199C265.603 199.6 266.136 200.233 266.503 200.9C266.869 201.533 267.186 202.3 267.453 203.2C267.719 204.067 267.853 205.017 267.853 206.05C267.853 209.317 266.686 211.9 264.353 213.8C262.053 215.667 259.119 216.6 255.553 216.6Z" fill="#A0AEC0"/>
<path d="M296.754 216L294.004 208.35H280.154L277.404 216H271.054L284.104 181H290.054L303.054 216H296.754ZM292.104 202.95L288.254 192.45C287.754 191.183 287.371 190 287.104 188.9C286.837 189.867 286.454 191.05 285.954 192.45L282.054 202.95H292.104Z" fill="#A0AEC0"/>
</svg>
