<svg width="400" height="400" viewBox="0 0 400 400" fill="none" xmlns="http://www.w3.org/2000/svg">
<rect width="400" height="400" fill="white"/>
<rect x="39" y="36" width="323" height="328" fill="#E2E8F0"/>
<path d="M247.063 187.94C246.91 187.622 246.671 187.353 246.372 187.164C246.074 186.976 245.728 186.876 245.375 186.875H208.214L215.351 144.059C215.419 143.651 215.35 143.231 215.154 142.865C214.958 142.5 214.647 142.21 214.269 142.04C213.891 141.871 213.467 141.831 213.064 141.928C212.661 142.024 212.301 142.252 212.041 142.574L157.666 210.074C157.445 210.35 157.305 210.682 157.265 211.033C157.224 211.384 157.283 211.74 157.435 212.059C157.588 212.378 157.827 212.647 158.126 212.836C158.425 213.024 158.772 213.125 159.125 213.125H196.286L189.149 255.941C189.08 256.35 189.149 256.771 189.345 257.136C189.541 257.502 189.852 257.793 190.231 257.963C190.61 258.133 191.034 258.172 191.438 258.075C191.841 257.978 192.201 257.749 192.461 257.426L246.836 189.926C247.057 189.65 247.196 189.317 247.236 188.966C247.276 188.614 247.216 188.259 247.063 187.94Z" fill="#A0AEC0"/>
</svg>
