<svg width="354" height="240" viewBox="0 0 354 240" fill="none" xmlns="http://www.w3.org/2000/svg">
<rect width="354" height="240" fill="white"/>
<rect x="38" y="29" width="278" height="182" fill="#E2E8F0"/>
<path d="M216.835 110.473C216.7 110.235 216.487 110.034 216.222 109.893C215.956 109.752 215.649 109.677 215.335 109.676H182.302L188.646 77.6341C188.706 77.3281 188.645 77.0139 188.471 76.7405C188.297 76.4671 188.02 76.25 187.684 76.123C187.348 75.996 186.971 75.9664 186.613 76.0387C186.255 76.111 185.935 76.2812 185.704 76.5227L137.368 127.038C137.171 127.244 137.047 127.493 137.011 127.756C136.975 128.019 137.028 128.285 137.163 128.524C137.299 128.762 137.512 128.964 137.777 129.105C138.043 129.246 138.351 129.321 138.665 129.321H171.698L165.355 161.364C165.293 161.67 165.354 161.985 165.529 162.259C165.703 162.533 165.98 162.75 166.316 162.877C166.653 163.004 167.03 163.034 167.389 162.961C167.747 162.888 168.067 162.717 168.298 162.475L216.634 111.959C216.83 111.753 216.954 111.504 216.989 111.241C217.025 110.978 216.972 110.712 216.835 110.473Z" fill="#A0AEC0"/>
</svg>
