<svg width="400" height="400" viewBox="0 0 400 400" fill="none" xmlns="http://www.w3.org/2000/svg">
<rect width="400" height="400" fill="white"/>
<rect x="84" y="162" width="232" height="74.966" rx="12" fill="#A0AEC0"/>
<rect x="76.5" y="155.5" width="246" height="88" rx="17.5" stroke="#E2E8F0" stroke-width="3"/>
<path d="M297.295 233.59L285.032 231.613V223.028C285.032 221.512 283.924 220.157 282.414 220.014C280.683 219.848 279.226 221.206 279.226 222.903V242.064C279.226 242.385 278.966 242.645 278.645 242.645C278.325 242.645 278.065 242.385 278.065 242.064V235.097C275.82 235.097 274 236.916 274 239.161V244.968C274 247.973 275.443 250.166 277.073 251.924C278.436 253.395 278.954 254.867 279.135 255.571C279.201 255.826 279.434 256 279.697 256H299.054C299.34 256 299.582 255.793 299.628 255.512L302.102 240.252C302.616 237.085 300.463 234.101 297.295 233.59ZM286.194 248.452C286.194 248.773 285.934 249.032 285.613 249.032C285.292 249.032 285.032 248.773 285.032 248.452V240.322C285.032 240.001 285.292 239.742 285.613 239.742C285.934 239.742 286.194 240.001 286.194 240.322V248.452ZM290.839 248.452C290.839 248.773 290.579 249.032 290.258 249.032C289.938 249.032 289.678 248.773 289.678 248.452V240.322C289.678 240.001 289.938 239.742 290.258 239.742C290.579 239.742 290.839 240.001 290.839 240.322V248.452ZM295.484 248.452C295.484 248.773 295.224 249.032 294.903 249.032C294.583 249.032 294.323 248.773 294.323 248.452V240.322C294.323 240.001 294.583 239.742 294.903 239.742C295.224 239.742 295.484 240.001 295.484 240.322V248.452Z" fill="white"/>
<path d="M278.167 255.821C278.015 255.23 277.561 253.922 276.339 252.604C274.629 250.76 273 248.333 273 244.968V239.161C273 236.364 275.267 234.097 278.065 234.097H278.226V222.903C278.226 220.622 280.185 218.796 282.509 219.018L278.167 255.821ZM278.167 255.821C278.351 256.534 278.996 257 279.697 257H299.054C299.83 257 300.491 256.438 300.615 255.672C300.615 255.672 300.615 255.672 300.615 255.671L303.089 240.412L303.089 240.412C303.691 236.699 301.168 233.202 297.454 232.603L297.295 233.59L297.454 232.603L286.032 230.761V223.028C286.032 221.055 284.588 219.216 282.509 219.018L278.167 255.821Z" stroke="black" stroke-opacity="0.21" stroke-width="2"/>
<rect x="134.503" y="194.371" width="130.993" height="10.2585" rx="5.12925" fill="white"/>
</svg>
