<svg width="354" height="240" viewBox="0 0 354 240" fill="none" xmlns="http://www.w3.org/2000/svg">
<rect width="354" height="240" fill="white"/>
<rect x="62" y="82" width="232" height="74.966" rx="12" fill="#A0AEC0"/>
<rect x="54.5" y="75.5" width="246" height="88" rx="17.5" stroke="#E2E8F0" stroke-width="3"/>
<path d="M263.616 153.325L252.764 151.677V144.523C252.764 143.26 251.783 142.131 250.447 142.011C248.914 141.873 247.625 143.005 247.625 144.419V160.387C247.625 160.654 247.395 160.871 247.111 160.871C246.827 160.871 246.597 160.654 246.597 160.387V154.581C244.61 154.581 243 156.097 243 157.968V162.806C243 165.311 244.277 167.139 245.719 168.604C246.926 169.829 247.384 171.056 247.545 171.643C247.603 171.855 247.809 172 248.042 172H265.173C265.425 172 265.64 171.828 265.68 171.594L267.87 158.877C268.325 156.237 266.42 153.751 263.616 153.325ZM253.791 165.71C253.791 165.977 253.561 166.194 253.277 166.194C252.994 166.194 252.764 165.977 252.764 165.71V158.935C252.764 158.668 252.994 158.452 253.277 158.452C253.561 158.452 253.791 158.668 253.791 158.935V165.71ZM257.902 165.71C257.902 165.977 257.672 166.194 257.388 166.194C257.105 166.194 256.875 165.977 256.875 165.71V158.935C256.875 158.668 257.105 158.452 257.388 158.452C257.672 158.452 257.902 158.668 257.902 158.935V165.71ZM262.013 165.71C262.013 165.977 261.783 166.194 261.499 166.194C261.216 166.194 260.986 165.977 260.986 165.71V158.935C260.986 158.668 261.216 158.452 261.499 158.452C261.783 158.452 262.013 158.668 262.013 158.935V165.71Z" fill="white"/>
<path d="M263.616 153.325L263.766 152.337C267.068 152.838 269.414 155.801 268.856 159.046L268.856 159.047L266.666 171.762C266.537 172.519 265.868 173 265.173 173H248.042C247.413 173 246.771 172.604 246.58 171.907L263.616 153.325ZM263.616 153.325L263.766 152.337L253.764 150.818M263.616 153.325L253.764 150.818M246.625 153.581H246.597C244.116 153.581 242 155.489 242 157.968V162.806C242 165.693 243.486 167.76 245.007 169.305C246.065 170.38 246.453 171.441 246.58 171.907L246.625 153.581ZM246.625 153.581V144.419C246.625 142.359 248.478 140.83 250.536 141.015L246.625 153.581ZM253.764 150.818V144.523C253.764 142.751 252.396 141.182 250.536 141.015L253.764 150.818Z" stroke="black" stroke-opacity="0.21" stroke-width="2"/>
<rect x="112.503" y="114.371" width="130.993" height="10.2585" rx="5.12925" fill="white"/>
</svg>
