<svg width="354" height="240" viewBox="0 0 354 240" fill="none" xmlns="http://www.w3.org/2000/svg">
<rect width="354" height="240" fill="white"/>
<rect x="142.5" y="85.5" width="69" height="69" rx="12.5" stroke="#E2E8F0" stroke-width="3"/>
<rect x="149" y="92" width="56" height="56" rx="8" fill="#A0AEC0"/>
<path d="M206.023 144.966L196.009 143.516V137.22C196.009 136.109 195.104 135.115 193.871 135.01C192.457 134.889 191.267 135.884 191.267 137.129V151.181C191.267 151.416 191.055 151.606 190.793 151.606C190.532 151.606 190.319 151.416 190.319 151.181V146.071C188.486 146.071 187 147.405 187 149.051V153.31C187 155.514 188.178 157.122 189.509 158.411C190.623 159.49 191.045 160.569 191.193 161.086C191.247 161.272 191.438 161.4 191.652 161.4H207.459C207.692 161.4 207.89 161.248 207.927 161.042L209.948 149.852C210.367 147.529 208.61 145.341 206.023 144.966ZM196.957 155.864C196.957 156.1 196.745 156.29 196.483 156.29C196.221 156.29 196.009 156.1 196.009 155.864V149.903C196.009 149.668 196.221 149.477 196.483 149.477C196.745 149.477 196.957 149.668 196.957 149.903V155.864ZM200.751 155.864C200.751 156.1 200.538 156.29 200.276 156.29C200.015 156.29 199.802 156.1 199.802 155.864V149.903C199.802 149.668 200.015 149.477 200.276 149.477C200.538 149.477 200.751 149.668 200.751 149.903V155.864ZM204.544 155.864C204.544 156.1 204.331 156.29 204.07 156.29C203.808 156.29 203.595 156.1 203.595 155.864V149.903C203.595 149.668 203.808 149.477 204.07 149.477C204.331 149.477 204.544 149.668 204.544 149.903V155.864Z" fill="white"/>
<path d="M190.267 145.071V137.129C190.267 135.192 192.069 133.852 193.956 134.014L190.267 145.071ZM190.267 145.071C188.007 145.096 186 146.772 186 149.051V153.31C186 155.914 187.407 157.766 188.813 159.129C189.774 160.06 190.12 160.973 190.232 161.362L190.267 145.071ZM197.009 142.65L206.166 143.977C209.211 144.418 211.469 147.053 210.932 150.029L210.932 150.029L208.912 161.219L197.009 142.65ZM197.009 142.65V137.22C197.009 135.559 195.676 134.161 193.957 134.014L197.009 142.65ZM207.459 162.4C208.098 162.4 208.775 161.975 208.911 161.22L190.232 161.362C190.43 162.051 191.074 162.4 191.652 162.4H207.459Z" stroke="black" stroke-opacity="0.21" stroke-width="2"/>
<path d="M186.644 110.756C186.169 110.281 185.456 110.281 184.981 110.756L177.5 118.237L170.019 110.756C169.544 110.281 168.831 110.281 168.356 110.756C167.881 111.231 167.881 111.944 168.356 112.419L175.838 119.9L168.356 127.381C167.881 127.856 167.881 128.569 168.356 129.044C168.594 129.281 168.831 129.4 169.187 129.4C169.544 129.4 169.781 129.281 170.019 129.044L177.5 121.562L184.981 129.044C185.219 129.281 185.575 129.4 185.812 129.4C186.05 129.4 186.406 129.281 186.644 129.044C187.119 128.569 187.119 127.856 186.644 127.381L179.162 119.9L186.644 112.419C187.119 111.944 187.119 111.231 186.644 110.756Z" fill="white"/>
</svg>
