<svg width="400" height="400" viewBox="0 0 400 400" fill="none" xmlns="http://www.w3.org/2000/svg">
<rect width="400" height="400" fill="white"/>
<rect x="109" y="167" width="182" height="65" rx="6" fill="#A0AEC0"/>
<path d="M151.219 194.656V190.578L137.109 198.391V201.562L151.219 209.375V205.297L140.953 200.125V199.828L151.219 194.656Z" fill="white"/>
<path d="M171.438 198.594C171.031 194.672 168.453 192.5 164.266 192.5C159.375 192.5 156.609 195.359 156.609 200.438V202.406C156.609 207.5 159.375 210.344 164.266 210.344C168.438 210.344 171.047 208.188 171.438 204.359H167.875C167.562 206.25 166.234 207.281 164.234 207.281C161.672 207.281 160.266 205.438 160.266 202.078V200.766C160.266 197.406 161.672 195.562 164.234 195.562C166.219 195.562 167.578 196.641 167.875 198.594H171.438Z" fill="white"/>
<path d="M183.719 210.344C188.438 210.344 191.422 207.406 191.422 202.75V200.141C191.422 195.484 188.438 192.547 183.719 192.547C179 192.547 176.016 195.484 176.016 200.141V202.75C176.016 207.406 179 210.344 183.719 210.344ZM183.719 195.562C186.25 195.562 187.828 197.391 187.828 200.344V202.547C187.828 205.5 186.25 207.328 183.719 207.328C181.188 207.328 179.609 205.5 179.609 202.547V200.344C179.609 197.391 181.188 195.562 183.719 195.562Z" fill="white"/>
<path d="M201.922 210.266C204.406 210.266 206.141 209.188 206.859 207.188H207.172V210H210.859V186.281H207.109V195.688H206.797C206.156 193.703 204.391 192.594 201.922 192.594C198 192.594 195.562 195.359 195.562 199.906V202.953C195.562 207.516 198 210.266 201.922 210.266ZM203.234 207.094C200.781 207.094 199.266 205.422 199.266 202.734V200.062C199.266 197.375 200.781 195.688 203.234 195.688C205.672 195.688 207.188 197.359 207.188 200.062V202.734C207.188 205.422 205.672 207.094 203.234 207.094Z" fill="white"/>
<path d="M227.344 205.359C226.984 206.625 225.531 207.453 223.641 207.453C221.156 207.453 219.547 205.766 219.547 203.156V202.328H230.828V200.25C230.828 195.5 228.031 192.547 223.531 192.547C218.984 192.547 215.969 195.516 215.969 200V202.672C215.969 207.547 218.781 210.344 223.656 210.344C227.484 210.344 230.391 208.297 230.797 205.359H227.344ZM223.469 195.422C225.859 195.422 227.297 197.109 227.297 199.891H219.547C219.547 197.094 221.016 195.422 223.469 195.422Z" fill="white"/>
<path d="M239.453 212.906L250.281 184.547H246.594L235.844 212.906H239.453Z" fill="white"/>
<path d="M255.797 194.656L266.062 199.828V200.125L255.797 205.297V209.375L269.906 201.562V198.391L255.797 190.578V194.656Z" fill="white"/>
</svg>
