<svg width="400" height="400" viewBox="0 0 400 400" fill="none" xmlns="http://www.w3.org/2000/svg">
<rect width="400" height="400" fill="white"/>
<path d="M290 159H84C82.3431 159 81 160.343 81 162V261C81 262.657 82.3431 264 84 264H290C291.657 264 293 262.657 293 261V162C293 160.343 291.657 159 290 159Z" fill="#E2E8F0"/>
<path opacity="0.3" fill-rule="evenodd" clip-rule="evenodd" d="M191.487 210.61L263 182.377L259.513 181L188 209.233L116.487 181L113 182.377L184.513 210.61L113 238.842L116.487 240.219L188 211.986L259.513 240.219L263 238.842L191.487 210.61Z" fill="#A0AEC0"/>
<rect x="80" y="119" width="66" height="27" rx="4" fill="#A0AEC0"/>
<path opacity="0.6" fill-rule="evenodd" clip-rule="evenodd" d="M314 162H312V254H306.538C306.441 254 306.345 254.025 306.262 254.071C306.178 254.118 306.11 254.185 306.064 254.264C306.018 254.344 305.996 254.434 306.001 254.525C306.005 254.615 306.036 254.703 306.09 254.778L312.552 263.791C312.604 263.856 312.672 263.909 312.75 263.945C312.827 263.981 312.913 264 313 264C313.087 264 313.173 263.981 313.251 263.945C313.329 263.909 313.396 263.856 313.448 263.791L319.91 254.778C319.964 254.703 319.995 254.615 319.999 254.525C320.004 254.434 319.982 254.344 319.936 254.264C319.89 254.185 319.822 254.118 319.738 254.071C319.655 254.025 319.559 254 319.462 254H314V162Z" fill="#A0AEC0"/>
<path opacity="0.6" fill-rule="evenodd" clip-rule="evenodd" d="M335.262 168.915C335.345 168.961 335.441 168.986 335.538 168.986H348.462C348.559 168.986 348.655 168.961 348.738 168.915C348.822 168.868 348.89 168.801 348.936 168.722C348.982 168.642 349.004 168.552 348.999 168.462C348.995 168.371 348.964 168.284 348.91 168.209L342.448 159.209C342.396 159.144 342.328 159.091 342.251 159.055C342.173 159.019 342.087 159 342 159C341.913 159 341.827 159.019 341.749 159.055C341.672 159.091 341.604 159.144 341.552 159.209L335.09 168.209C335.036 168.284 335.005 168.371 335.001 168.462C334.996 168.552 335.018 168.642 335.064 168.722C335.11 168.801 335.178 168.868 335.262 168.915ZM343 262V169H341V262H343Z" fill="#A0AEC0"/>
<rect x="96" y="131" width="35" height="3" fill="white"/>
</svg>
