<svg width="400" height="400" viewBox="0 0 400 400" fill="none" xmlns="http://www.w3.org/2000/svg">
<rect width="400" height="400" fill="white"/>
<path d="M221.006 154.166C217.088 154.188 213.213 154.988 209.607 156.52C206.001 158.052 202.736 164.285 200 167.09C195.939 162.892 190.717 156.002 185.004 154.79C179.29 153.578 173.345 154.099 167.929 156.287C162.513 158.475 157.874 162.23 154.606 167.071C151.338 171.911 149.589 177.618 149.583 183.459C149.583 210.244 195.389 247.882 197.342 249.459C198.093 250.069 199.032 250.402 200 250.402C200.968 250.402 201.907 250.069 202.658 249.459C204.611 247.882 250.417 210.244 250.417 183.459C250.391 175.677 247.281 168.223 241.767 162.732C236.254 157.241 228.787 154.16 221.006 154.166Z" fill="#A0AEC0"/>
</svg>
