<svg width="400" height="400" viewBox="0 0 400 400" fill="none" xmlns="http://www.w3.org/2000/svg">
<rect width="400" height="400" fill="white"/>
<path d="M150.625 118H248.5C249.942 118 251.325 118.573 252.345 119.593C253.365 120.612 253.938 121.995 253.938 123.438V134.312H145.188V123.438C145.188 121.995 145.76 120.612 146.78 119.593C147.8 118.573 149.183 118 150.625 118Z" fill="#E2E8F0"/>
<path d="M275.688 145.188H123.438C121.995 145.188 120.612 145.76 119.593 146.78C118.573 147.8 118 149.183 118 150.625V275.688C118 277.13 118.573 278.513 119.593 279.532C120.612 280.552 121.995 281.125 123.438 281.125H275.688C277.13 281.125 278.513 280.552 279.532 279.532C280.552 278.513 281.125 277.13 281.125 275.688V150.625C281.125 149.183 280.552 147.8 279.532 146.78C278.513 145.76 277.13 145.188 275.688 145.188ZM145.188 185.969C145.188 183.28 145.985 180.652 147.478 178.416C148.972 176.181 151.095 174.439 153.579 173.41C156.063 172.381 158.796 172.112 161.433 172.636C164.07 173.161 166.492 174.455 168.393 176.357C170.295 178.258 171.589 180.68 172.114 183.317C172.638 185.954 172.369 188.687 171.34 191.171C170.311 193.655 168.569 195.778 166.334 197.272C164.098 198.765 161.47 199.562 158.781 199.562C155.176 199.562 151.718 198.13 149.169 195.581C146.62 193.032 145.188 189.574 145.188 185.969ZM258.733 245.629C258.269 246.497 257.577 247.222 256.733 247.728C255.888 248.234 254.922 248.5 253.938 248.5H161.5C160.378 248.5 159.284 248.153 158.368 247.506C157.451 246.86 156.757 245.946 156.38 244.89C156.003 243.834 155.962 242.686 156.262 241.606C156.563 240.525 157.19 239.564 158.058 238.854L217.871 189.916C218.461 189.441 219.142 189.092 219.872 188.891C220.603 188.69 221.367 188.641 222.117 188.747C222.868 188.859 223.586 189.127 224.227 189.534C224.867 189.94 225.415 190.476 225.837 191.107L258.462 240.045C259.008 240.864 259.322 241.816 259.37 242.799C259.418 243.783 259.198 244.761 258.733 245.629Z" fill="#A0AEC0"/>
</svg>
