<svg width="400" height="400" viewBox="0 0 400 400" fill="none" xmlns="http://www.w3.org/2000/svg">
<rect width="400" height="400" fill="white"/>
<rect x="158" y="174" width="84" height="65" rx="6" fill="#E2E8F0"/>
<rect x="163" y="167" width="74" height="65" rx="6" fill="#A0AEC0"/>
<path d="M184.767 210C183.46 210 182.415 209.617 181.631 208.852C180.865 208.087 180.483 207.06 180.483 205.772C180.483 204.409 180.884 203.355 181.687 202.608C182.508 201.843 183.712 201.46 185.299 201.46H186.951V198.38H185.299C183.712 198.38 182.508 198.007 181.687 197.26C180.884 196.495 180.483 195.431 180.483 194.068C180.483 192.78 180.865 191.753 181.631 190.988C182.415 190.223 183.46 189.84 184.767 189.84C185.812 189.84 186.633 190.036 187.231 190.428C187.847 190.82 188.276 191.343 188.519 191.996C188.78 192.649 188.911 193.368 188.911 194.152V196.476H191.991V194.152C191.991 193.368 192.112 192.649 192.355 191.996C192.616 191.343 193.045 190.82 193.643 190.428C194.259 190.036 195.089 189.84 196.135 189.84C197.441 189.84 198.477 190.223 199.243 190.988C200.027 191.753 200.419 192.78 200.419 194.068C200.419 195.431 200.017 196.495 199.215 197.26C198.412 198.007 197.208 198.38 195.603 198.38H193.951V201.46H195.603C197.208 201.46 198.412 201.843 199.215 202.608C200.017 203.355 200.419 204.409 200.419 205.772C200.419 207.06 200.027 208.087 199.243 208.852C198.477 209.617 197.441 210 196.135 210C195.089 210 194.259 209.804 193.643 209.412C193.045 209.02 192.616 208.497 192.355 207.844C192.112 207.191 191.991 206.472 191.991 205.688V203.364H188.911V205.688C188.911 206.472 188.78 207.191 188.519 207.844C188.276 208.497 187.847 209.02 187.231 209.412C186.633 209.804 185.812 210 184.767 210ZM193.951 194.096V196.476H195.603C196.592 196.476 197.311 196.28 197.759 195.888C198.207 195.477 198.431 194.871 198.431 194.068C198.431 193.247 198.207 192.659 197.759 192.304C197.329 191.949 196.788 191.772 196.135 191.772C195.407 191.772 194.856 191.987 194.483 192.416C194.128 192.827 193.951 193.387 193.951 194.096ZM185.299 196.476H186.951V194.096C186.951 193.387 186.764 192.827 186.391 192.416C186.036 191.987 185.495 191.772 184.767 191.772C184.113 191.772 183.563 191.949 183.115 192.304C182.685 192.659 182.471 193.247 182.471 194.068C182.471 194.871 182.695 195.477 183.143 195.888C183.591 196.28 184.309 196.476 185.299 196.476ZM188.911 201.46H191.991V198.38H188.911V201.46ZM184.767 208.068C185.495 208.068 186.036 207.863 186.391 207.452C186.764 207.023 186.951 206.453 186.951 205.744V203.364H185.299C184.309 203.364 183.591 203.569 183.143 203.98C182.695 204.372 182.471 204.969 182.471 205.772C182.471 206.593 182.685 207.181 183.115 207.536C183.563 207.891 184.113 208.068 184.767 208.068ZM193.951 205.744C193.951 206.453 194.128 207.023 194.483 207.452C194.856 207.863 195.407 208.068 196.135 208.068C196.788 208.068 197.329 207.891 197.759 207.536C198.207 207.181 198.431 206.593 198.431 205.772C198.431 204.969 198.207 204.372 197.759 203.98C197.311 203.569 196.592 203.364 195.603 203.364H193.951V205.744Z" fill="white"/>
<path d="M204.659 190.736H213.619C215.449 190.736 216.755 191.147 217.539 191.968C218.342 192.789 218.743 193.993 218.743 195.58C218.743 196.868 218.482 197.895 217.959 198.66C217.437 199.407 216.597 199.892 215.439 200.116V200.228C216.765 200.471 217.679 200.984 218.183 201.768C218.687 202.552 218.939 203.607 218.939 204.932C218.939 206.5 218.547 207.741 217.763 208.656C216.998 209.552 215.589 210 213.535 210H204.659V190.736ZM212.835 199.136C214.03 199.136 214.907 198.884 215.467 198.38C216.046 197.876 216.335 197.101 216.335 196.056C216.335 195.272 216.233 194.665 216.027 194.236C215.822 193.807 215.467 193.489 214.963 193.284C214.478 193.079 213.769 192.976 212.835 192.976H207.067V199.136H212.835ZM212.947 207.76C213.881 207.76 214.599 207.657 215.103 207.452C215.626 207.247 215.99 206.92 216.195 206.472C216.419 206.005 216.531 205.371 216.531 204.568C216.531 203.411 216.261 202.589 215.719 202.104C215.178 201.619 214.254 201.376 212.947 201.376H207.067V207.76H212.947Z" fill="white"/>
</svg>
