<svg width="354" height="240" viewBox="0 0 354 240" fill="none" xmlns="http://www.w3.org/2000/svg">
<rect width="354" height="240" fill="white"/>
<path d="M152.391 112.055H136.399V82.1475H130.101V117.377H152.391V112.055Z" fill="#A0AEC0"/>
<path d="M161.471 87.5918C163.326 87.5918 164.791 86.1025 164.791 84.2959C164.791 82.4648 163.326 81 161.471 81C159.615 81 158.126 82.4648 158.126 84.2959C158.126 86.1025 159.615 87.5918 161.471 87.5918ZM158.443 117.377H164.522V91.498H158.443V117.377Z" fill="#A0AEC0"/>
<path d="M171.625 117.377H177.704V102.387C177.704 98.6758 179.926 96.1611 183.417 96.1611C186.884 96.1611 188.593 98.2119 188.593 101.874V117.377H194.672V100.653C194.672 94.6719 191.425 91.0098 185.712 91.0098C181.732 91.0098 178.974 92.8652 177.582 95.9414H177.46V91.498H171.625V117.377Z" fill="#A0AEC0"/>
<path d="M207.878 102.289H207.805V82.1475H201.726V117.377H207.805V108.393L209.855 106.317L218.034 117.377H225.065L214.274 102.631L224.626 91.498H217.619L207.878 102.289Z" fill="#A0AEC0"/>
<rect x="126" y="134.377" width="103" height="4" fill="#E2E8F0"/>
<path d="M225.069 142.186C225.289 141.49 225.035 140.812 224.439 140.519L204.67 130.751C204.183 130.508 203.537 130.568 202.996 130.913C202.455 131.257 202.099 131.827 202.067 132.406L200.78 155.563C200.743 156.259 201.181 156.818 201.863 156.942C202.565 157.09 203.311 156.721 203.751 156.096L208.492 149.388L213.476 158.27C213.676 158.627 214.024 158.845 214.425 158.908C214.826 158.971 215.28 158.878 215.691 158.617L219.902 155.939C220.725 155.416 221.066 154.415 220.665 153.7L215.68 144.817L223.476 143.555C224.201 143.436 224.848 142.882 225.069 142.186Z" fill="#111111" stroke="white" stroke-opacity="0.7" stroke-width="1.5"/>
</svg>
