<svg width="400" height="400" viewBox="0 0 400 400" fill="none" xmlns="http://www.w3.org/2000/svg">
<rect width="400" height="400" fill="white"/>
<path d="M175.391 189.678H159.399V159.771H153.101V195H175.391V189.678Z" fill="#A0AEC0"/>
<path d="M184.471 165.215C186.326 165.215 187.791 163.726 187.791 161.919C187.791 160.088 186.326 158.623 184.471 158.623C182.615 158.623 181.126 160.088 181.126 161.919C181.126 163.726 182.615 165.215 184.471 165.215ZM181.443 195H187.522V169.121H181.443V195Z" fill="#A0AEC0"/>
<path d="M194.625 195H200.704V180.01C200.704 176.299 202.926 173.784 206.417 173.784C209.884 173.784 211.593 175.835 211.593 179.497V195H217.672V178.276C217.672 172.295 214.425 168.633 208.712 168.633C204.732 168.633 201.974 170.488 200.582 173.564H200.46V169.121H194.625V195Z" fill="#A0AEC0"/>
<path d="M230.878 179.912H230.805V159.771H224.726V195H230.805V186.016L232.855 183.94L241.034 195H248.065L237.274 180.254L247.626 169.121H240.619L230.878 179.912Z" fill="#A0AEC0"/>
<rect x="149" y="212" width="103" height="4" fill="#E2E8F0"/>
<path d="M242.392 222.926C242.56 222.117 242.182 221.291 241.458 220.892L217.445 207.611C216.854 207.282 216.117 207.299 215.536 207.662C214.955 208.025 214.616 208.672 214.651 209.357L216.061 236.761C216.105 237.586 216.68 238.287 217.482 238.491C218.31 238.727 219.123 238.352 219.553 237.647L224.18 230.079L231.037 241.054C231.312 241.495 231.741 241.783 232.211 241.892C232.681 242 233.193 241.929 233.634 241.654L238.154 238.829C239.038 238.277 239.306 237.116 238.754 236.232L231.897 225.257L240.727 224.417C241.548 224.338 242.225 223.734 242.392 222.926Z" fill="#111111" stroke="white" stroke-opacity="0.7" stroke-width="1.5"/>
</svg>
