<svg width="400" height="400" viewBox="0 0 400 400" fill="none" xmlns="http://www.w3.org/2000/svg">
<rect width="400" height="400" fill="white"/>
<rect opacity="0.6" x="108" y="141" width="179" height="165" fill="#E2E8F0"/>
<rect x="169.545" y="90" width="117.455" height="38" rx="6.90909" fill="#A0AEC0"/>
<path d="M271.587 106H260.504C260.412 106 260.322 106.019 260.243 106.055C260.165 106.091 260.101 106.143 260.058 106.205C260.015 106.267 259.995 106.337 260.001 106.406C260.006 106.476 260.037 106.543 260.088 106.601L265.63 112.743C265.677 112.794 265.739 112.836 265.811 112.865C265.883 112.894 265.964 112.909 266.045 112.909C266.127 112.909 266.208 112.894 266.28 112.865C266.352 112.836 266.414 112.794 266.461 112.743L272.002 106.601C272.054 106.543 272.085 106.476 272.09 106.406C272.095 106.337 272.076 106.267 272.033 106.205C271.99 106.143 271.926 106.091 271.848 106.055C271.769 106.019 271.679 106 271.587 106Z" fill="#E2E8F0"/>
<rect x="185.091" y="105.545" width="53.5455" height="6.90909" fill="white"/>
<rect x="130" y="205" width="135" height="6" fill="#A0AEC0"/>
<rect opacity="0.31" x="108" y="146" width="179" height="39" fill="#A0AEC0"/>
<rect x="130" y="243" width="135" height="6" fill="#A0AEC0"/>
<rect x="130" y="281" width="135" height="6" fill="#A0AEC0"/>
<rect x="130" y="163" width="135" height="6" fill="#A0AEC0"/>
<path d="M276.054 183.199L268.656 182.006V176.827C268.656 175.912 267.987 175.095 267.076 175.008C266.032 174.908 265.153 175.727 265.153 176.751V188.312C265.153 188.505 264.996 188.662 264.802 188.662C264.609 188.662 264.452 188.505 264.452 188.312V184.108C263.098 184.108 262 185.206 262 186.56V190.063C262 191.876 262.871 193.2 263.854 194.26C264.676 195.148 264.989 196.036 265.098 196.461C265.138 196.614 265.279 196.719 265.437 196.719H277.116C277.288 196.719 277.434 196.594 277.461 196.425L278.954 187.218C279.264 185.307 277.965 183.507 276.054 183.199ZM269.357 192.165C269.357 192.359 269.2 192.515 269.006 192.515C268.813 192.515 268.656 192.359 268.656 192.165V187.261C268.656 187.067 268.813 186.91 269.006 186.91C269.2 186.91 269.357 187.067 269.357 187.261V192.165ZM272.159 192.165C272.159 192.359 272.002 192.515 271.809 192.515C271.615 192.515 271.458 192.359 271.458 192.165V187.261C271.458 187.067 271.615 186.91 271.809 186.91C272.002 186.91 272.159 187.067 272.159 187.261V192.165ZM274.962 192.165C274.962 192.359 274.805 192.515 274.611 192.515C274.418 192.515 274.261 192.359 274.261 192.165V187.261C274.261 187.067 274.418 186.91 274.611 186.91C274.805 186.91 274.962 187.067 274.962 187.261V192.165Z" fill="white"/>
<path d="M276.213 182.212L276.213 182.212C278.67 182.608 280.34 184.922 279.941 187.378L279.941 187.378L278.449 196.584C278.343 197.239 277.778 197.719 277.116 197.719H265.437C264.84 197.719 264.288 197.322 264.13 196.71C264.049 196.399 263.801 195.675 263.12 194.94C262.057 193.793 261 192.237 261 190.063V186.56C261 184.754 262.386 183.272 264.153 183.121V176.751C264.153 175.143 265.534 173.857 267.171 174.013L276.213 182.212ZM276.213 182.212L269.656 181.154M276.213 182.212L269.656 181.154M269.656 181.154V176.827C269.656 175.455 268.651 174.154 267.171 174.013L269.656 181.154Z" stroke="black" stroke-opacity="0.21" stroke-width="2"/>
</svg>
