<svg width="400" height="400" viewBox="0 0 400 400" fill="none" xmlns="http://www.w3.org/2000/svg">
<rect width="400" height="400" fill="white"/>
<rect opacity="0.5" x="114" y="177" width="173" height="46" fill="#E2E8F0"/>
<rect width="173" height="0.991067" transform="matrix(1 0 0 -1 114 223)" fill="#A0AEC0"/>
<rect x="135.098" y="190.939" width="54.8536" height="18.1212" fill="#A0AEC0"/>
<path d="M271.724 184.257L266.709 188.917C266.456 189.152 266.623 189.576 266.968 189.576H276.371C276.705 189.576 276.877 189.177 276.648 188.934L272.26 184.275C272.117 184.123 271.877 184.115 271.724 184.257Z" fill="#A0AEC0"/>
<path d="M271.528 214.319L276.543 209.659C276.796 209.424 276.629 209 276.284 209L266.881 209C266.547 209 266.375 209.399 266.604 209.641L270.992 214.301C271.135 214.453 271.375 214.461 271.528 214.319Z" fill="#A0AEC0"/>
<rect x="255" y="177" width="2" height="45" fill="#D9E1EB"/>
<rect x="256" y="198" width="31" height="2" fill="#D9E1EB"/>
</svg>
