<svg width="354" height="240" viewBox="0 0 354 240" fill="none" xmlns="http://www.w3.org/2000/svg">
<rect width="354" height="240" fill="white"/>
<rect opacity="0.5" x="91" y="97" width="173" height="46" fill="#E2E8F0"/>
<rect width="173" height="0.991067" transform="matrix(1 0 0 -1 91 143)" fill="#A0AEC0"/>
<rect x="112.098" y="110.939" width="54.8536" height="18.1212" fill="#A0AEC0"/>
<path d="M248.724 104.257L243.709 108.917C243.456 109.152 243.623 109.576 243.968 109.576H253.371C253.705 109.576 253.877 109.177 253.648 108.934L249.26 104.275C249.117 104.123 248.877 104.115 248.724 104.257Z" fill="#A0AEC0"/>
<path d="M248.528 134.319L253.543 129.659C253.796 129.424 253.629 129 253.284 129L243.881 129C243.547 129 243.375 129.399 243.604 129.641L247.992 134.301C248.135 134.453 248.375 134.461 248.528 134.319Z" fill="#A0AEC0"/>
<rect x="232" y="97" width="2" height="45" fill="#D9E1EB"/>
<rect x="233" y="118" width="31" height="2" fill="#D9E1EB"/>
</svg>
