<svg width="400" height="400" viewBox="0 0 400 400" fill="none" xmlns="http://www.w3.org/2000/svg">
<rect width="400" height="400" fill="white"/>
<rect opacity="0.6" x="41" y="148" width="94" height="103" rx="7" fill="#E2E8F0"/>
<rect opacity="0.6" x="153" y="148" width="94" height="103" rx="7" fill="#E2E8F0"/>
<rect opacity="0.6" x="266.5" y="149.5" width="91" height="100" rx="5.5" fill="white" stroke="#A0AEC0" stroke-width="3"/>
<path d="M100 203.803L97.4688 208.127L90.5078 203.961V212.135H85.6035V203.961L78.5898 208.127L75.9004 203.855L83.125 199.689L75.9004 195.576L78.5898 191.357L85.498 195.365V187.297H90.5078V195.312L97.4688 191.357L100 195.629L92.9863 199.689L100 203.803Z" fill="#A0AEC0"/>
<path d="M212.1 203.803L209.568 208.127L202.607 203.961V212.135H197.703V203.961L190.689 208.127L188 203.855L195.225 199.689L188 195.576L190.689 191.357L197.598 195.365V187.297H202.607V195.312L209.568 191.357L212.1 195.629L205.086 199.689L212.1 203.803Z" fill="#A0AEC0"/>
<path d="M315.672 218V210.05H296.822V206.7L314.722 183H320.872V205.25H325.422V210.05H320.872V218H315.672ZM315.672 205.25V189.3L303.722 205.25H315.672Z" fill="#A0AEC0"/>
</svg>
