<svg width="400" height="400" viewBox="0 0 400 400" fill="none" xmlns="http://www.w3.org/2000/svg">
<rect width="400" height="400" fill="white"/>
<rect x="89" y="138" width="223" height="173" fill="#E2E8F0"/>
<path opacity="0.4" fill-rule="evenodd" clip-rule="evenodd" d="M202.164 224.5L248.617 178.046L246.352 175.781L199.898 222.234L153.445 175.781L151.179 178.046L197.633 224.5L151.179 270.954L153.445 273.219L199.898 226.765L246.352 273.219L248.617 270.954L202.164 224.5Z" fill="#A0AEC0"/>
<rect x="194.545" y="89" width="117.455" height="38" rx="6.90909" fill="#A0AEC0"/>
<rect x="212.091" y="104.545" width="53.5455" height="6.90909" fill="white"/>
<path d="M297.133 105.545H286.049C285.957 105.545 285.867 105.565 285.789 105.601C285.71 105.637 285.646 105.689 285.603 105.751C285.561 105.812 285.541 105.882 285.546 105.952C285.552 106.022 285.582 106.089 285.634 106.147L291.176 112.288C291.222 112.339 291.284 112.381 291.356 112.41C291.429 112.439 291.509 112.455 291.591 112.455C291.673 112.455 291.753 112.439 291.825 112.41C291.898 112.381 291.96 112.339 292.006 112.288L297.548 106.147C297.6 106.089 297.63 106.022 297.635 105.952C297.641 105.882 297.621 105.812 297.578 105.751C297.536 105.689 297.472 105.637 297.393 105.601C297.314 105.565 297.224 105.545 297.133 105.545Z" fill="#E2E8F0"/>
</svg>
