<svg width="400" height="400" viewBox="0 0 400 400" fill="none" xmlns="http://www.w3.org/2000/svg">
<rect width="400" height="400" fill="white"/>
<rect x="52" y="289" width="297" height="10" fill="#E2E8F0"/>
<rect x="52" y="289" width="235" height="10" fill="#A0AEC0"/>
<path opacity="0.9" d="M199.5 198C188.128 198 177.011 194.628 167.555 188.31C158.099 181.991 150.729 173.011 146.377 162.504C142.025 151.998 140.886 140.436 143.105 129.282C145.324 118.128 150.8 107.883 158.841 99.8414C166.883 91.7999 177.128 86.3235 188.282 84.1049C199.436 81.8862 210.998 83.0249 221.504 87.377C232.011 91.729 240.991 99.0989 247.31 108.555C253.628 118.011 257 129.128 257 140.5C256.982 155.744 250.918 170.359 240.139 181.139C229.359 191.918 214.744 197.982 199.5 198ZM199.5 97.375C190.971 97.375 182.633 99.9043 175.541 104.643C168.449 109.382 162.922 116.117 159.658 123.997C156.394 131.877 155.54 140.548 157.204 148.913C158.868 157.279 162.975 164.963 169.006 170.994C175.037 177.025 182.721 181.132 191.087 182.796C199.452 184.46 208.123 183.606 216.003 180.342C223.883 177.078 230.619 171.551 235.357 164.459C240.096 157.367 242.625 149.029 242.625 140.5C242.613 129.066 238.065 118.105 229.98 110.02C221.896 101.935 210.934 97.3874 199.5 97.375Z" fill="#A0AEC0"/>
<path d="M257 140.5H242.625C242.613 129.066 238.065 118.105 229.98 110.02C221.895 101.935 210.934 97.3874 199.5 97.375V83C214.744 83.0181 229.359 89.0819 240.139 99.8613C250.918 110.641 256.982 125.256 257 140.5Z" fill="#E2E8F0"/>
<path d="M181.396 151.391C185.595 151.391 188.537 149.291 188.537 146.239C188.537 143.92 186.84 142.211 184.436 141.735V141.662C186.499 141.149 187.89 139.635 187.89 137.743C187.89 134.984 185.217 132.995 181.396 132.995C177.575 132.995 174.89 134.997 174.89 137.731C174.89 139.647 176.293 141.161 178.369 141.662V141.735C175.964 142.199 174.255 143.908 174.255 146.227C174.255 149.279 177.185 151.391 181.396 151.391ZM181.396 140.551C179.724 140.551 178.54 139.55 178.54 138.109C178.54 136.657 179.724 135.656 181.396 135.656C183.056 135.656 184.252 136.657 184.252 138.109C184.252 139.55 183.056 140.551 181.396 140.551ZM181.396 148.705C179.455 148.705 178.1 147.558 178.1 145.958C178.1 144.384 179.455 143.236 181.396 143.236C183.337 143.236 184.68 144.372 184.68 145.958C184.68 147.558 183.337 148.705 181.396 148.705Z" fill="#494949"/>
<path d="M197.68 151.391C202.148 151.391 204.858 147.838 204.858 142.15C204.858 136.461 202.124 132.982 197.68 132.982C193.237 132.982 190.49 136.474 190.49 142.162C190.49 147.863 193.212 151.391 197.68 151.391ZM197.68 148.437C195.507 148.437 194.238 146.203 194.238 142.162C194.238 138.158 195.532 135.937 197.68 135.937C199.841 135.937 201.11 138.146 201.11 142.162C201.11 146.203 199.853 148.437 197.68 148.437Z" fill="#494949"/>
<path d="M210.644 142.309C213.183 142.309 214.843 140.526 214.843 137.694C214.843 134.838 213.171 133.117 210.644 133.117C208.105 133.117 206.433 134.838 206.433 137.707C206.433 140.539 208.093 142.309 210.644 142.309ZM212.17 151L224.108 133.385H221.472L209.521 151H212.17ZM210.644 140.246C209.667 140.246 209.008 139.403 209.008 137.707C209.008 135.985 209.667 135.192 210.644 135.192C211.621 135.192 212.268 135.985 212.268 137.707C212.268 139.403 211.608 140.246 210.644 140.246ZM222.998 151.256C225.537 151.256 227.197 149.474 227.197 146.642C227.197 143.773 225.524 142.052 222.998 142.052C220.458 142.052 218.786 143.786 218.786 146.642C218.786 149.486 220.446 151.256 222.998 151.256ZM222.998 149.181C222.021 149.181 221.362 148.351 221.362 146.642C221.362 144.921 222.021 144.127 222.998 144.127C223.974 144.127 224.621 144.933 224.621 146.642C224.621 148.351 223.962 149.181 222.998 149.181Z" fill="#494949"/>
<path d="M248.056 274.328C251.583 274.328 254.054 272.564 254.054 270.001C254.054 268.053 252.629 266.617 250.609 266.217V266.156C252.342 265.725 253.511 264.454 253.511 262.864C253.511 260.547 251.265 258.875 248.056 258.875C244.846 258.875 242.59 260.557 242.59 262.854C242.59 264.464 243.77 265.735 245.513 266.156V266.217C243.493 266.607 242.057 268.042 242.057 269.991C242.057 272.554 244.518 274.328 248.056 274.328ZM248.056 265.223C246.651 265.223 245.656 264.382 245.656 263.172C245.656 261.952 246.651 261.111 248.056 261.111C249.45 261.111 250.455 261.952 250.455 263.172C250.455 264.382 249.45 265.223 248.056 265.223ZM248.056 272.072C246.425 272.072 245.287 271.108 245.287 269.765C245.287 268.442 246.425 267.479 248.056 267.479C249.686 267.479 250.814 268.432 250.814 269.765C250.814 271.108 249.686 272.072 248.056 272.072Z" fill="#494949"/>
<path d="M261.734 274.328C265.487 274.328 267.764 271.344 267.764 266.566C267.764 261.788 265.467 258.865 261.734 258.865C258.002 258.865 255.695 261.798 255.695 266.576C255.695 271.365 257.981 274.328 261.734 274.328ZM261.734 271.847C259.909 271.847 258.843 269.97 258.843 266.576C258.843 263.213 259.93 261.347 261.734 261.347C263.549 261.347 264.616 263.203 264.616 266.576C264.616 269.97 263.56 271.847 261.734 271.847Z" fill="#494949"/>
<path d="M272.624 266.699C274.757 266.699 276.151 265.202 276.151 262.823C276.151 260.424 274.747 258.978 272.624 258.978C270.491 258.978 269.086 260.424 269.086 262.833C269.086 265.212 270.481 266.699 272.624 266.699ZM273.906 274L283.934 259.204H281.719L271.681 274H273.906ZM272.624 264.966C271.804 264.966 271.25 264.259 271.25 262.833C271.25 261.388 271.804 260.721 272.624 260.721C273.444 260.721 273.988 261.388 273.988 262.833C273.988 264.259 273.434 264.966 272.624 264.966ZM283.001 274.215C285.134 274.215 286.528 272.718 286.528 270.339C286.528 267.93 285.124 266.484 283.001 266.484C280.868 266.484 279.463 267.94 279.463 270.339C279.463 272.729 280.858 274.215 283.001 274.215ZM283.001 272.472C282.181 272.472 281.627 271.775 281.627 270.339C281.627 268.894 282.181 268.227 283.001 268.227C283.821 268.227 284.365 268.904 284.365 270.339C284.365 271.775 283.811 272.472 283.001 272.472Z" fill="#494949"/>
</svg>
