<svg width="354" height="240" viewBox="0 0 354 240" fill="none" xmlns="http://www.w3.org/2000/svg">
<rect width="354" height="240" fill="white"/>
<path opacity="0.6" d="M177.5 170C167.512 170 157.748 167.038 149.444 161.489C141.139 155.94 134.666 148.053 130.844 138.826C127.022 129.598 126.022 119.444 127.97 109.648C129.919 99.8519 134.729 90.8537 141.791 83.7911C148.854 76.7286 157.852 71.9189 167.648 69.9704C177.444 68.0218 187.598 69.0219 196.826 72.8441C206.053 76.6663 213.94 83.139 219.489 91.4437C225.038 99.7484 228 109.512 228 119.5C227.984 132.889 222.659 145.724 213.191 155.191C203.724 164.659 190.889 169.984 177.5 170ZM177.5 81.625C170.009 81.625 162.686 83.8463 156.458 88.0081C150.229 92.1699 145.375 98.0851 142.508 105.006C139.641 111.927 138.891 119.542 140.353 126.889C141.814 134.236 145.421 140.985 150.718 146.282C156.015 151.579 162.764 155.186 170.111 156.647C177.458 158.109 185.073 157.359 191.994 154.492C198.915 151.625 204.83 146.771 208.992 140.542C213.154 134.314 215.375 126.991 215.375 119.5C215.364 109.458 211.37 99.8309 204.27 92.7303C197.169 85.6298 187.542 81.6359 177.5 81.625Z" fill="#E2E8F0"/>
<path d="M228 120H215.25C215.239 109.859 211.206 100.136 204.035 92.9653C196.864 85.7944 187.141 81.761 177 81.75V69C190.521 69.016 203.484 74.3944 213.045 83.9553C222.606 93.5161 227.984 106.479 228 120Z" fill="#A0AEC0"/>
</svg>
