<svg width="400" height="400" viewBox="0 0 400 400" fill="none" xmlns="http://www.w3.org/2000/svg">
<rect width="400" height="400" fill="white"/>
<path opacity="0.6" d="M200.5 257C189.128 257 178.011 253.628 168.555 247.31C159.099 240.991 151.729 232.011 147.377 221.504C143.025 210.998 141.886 199.436 144.105 188.282C146.324 177.128 151.8 166.883 159.841 158.841C167.883 150.8 178.128 145.324 189.282 143.105C200.436 140.886 211.998 142.025 222.504 146.377C233.011 150.729 241.991 158.099 248.31 167.555C254.628 177.011 258 188.128 258 199.5C257.982 214.744 251.918 229.359 241.139 240.139C230.359 250.918 215.744 256.982 200.5 257ZM200.5 156.375C191.971 156.375 183.633 158.904 176.541 163.643C169.449 168.382 163.922 175.117 160.658 182.997C157.394 190.877 156.54 199.548 158.204 207.913C159.868 216.279 163.975 223.963 170.006 229.994C176.037 236.025 183.721 240.132 192.087 241.796C200.452 243.46 209.123 242.606 217.003 239.342C224.883 236.078 231.619 230.551 236.357 223.459C241.096 216.367 243.625 208.029 243.625 199.5C243.613 188.066 239.065 177.105 230.98 169.02C222.896 160.935 211.934 156.387 200.5 156.375Z" fill="#E2E8F0"/>
<path d="M258 199.5H243.625C243.613 188.066 239.065 177.105 230.98 169.02C222.895 160.935 211.934 156.387 200.5 156.375V142C215.744 142.018 230.359 148.082 241.139 158.861C251.918 169.641 257.982 184.256 258 199.5Z" fill="#A0AEC0"/>
</svg>
