<svg width="354" height="240" viewBox="0 0 354 240" fill="none" xmlns="http://www.w3.org/2000/svg">
<rect width="354" height="240" fill="white"/>
<rect x="27" y="56" width="300" height="127" fill="#A0AEC0"/>
<path d="M70 144.68C77.5 144.68 82.7031 139.852 82.7031 132.844C82.7031 126.398 78.0625 121.711 71.6172 121.711C68.2188 121.711 65.4297 123.047 63.9531 125.32H63.8359L64.7734 115.125H80.7109V110.18H59.9453L58.3281 129.844H63.6016C64.8906 127.547 67.1641 126.258 70.0703 126.258C74.0547 126.258 76.8672 129.047 76.8672 133.008C76.8672 136.992 74.0781 139.781 70.0469 139.781C66.4844 139.781 63.7656 137.648 63.3906 134.484H57.7188C57.9766 140.484 63.0391 144.68 70 144.68Z" fill="white"/>
<path d="M99.625 144.68C107.945 144.68 112.891 137.859 112.891 127.031C112.891 116.203 107.898 109.5 99.625 109.5C91.3281 109.5 86.3125 116.25 86.3125 127.055C86.3125 137.906 91.2812 144.68 99.625 144.68ZM99.625 139.734C95.0312 139.734 92.4062 135.047 92.4062 127.031C92.4062 119.156 95.0781 114.445 99.625 114.445C104.148 114.445 106.797 119.133 106.797 127.055C106.797 135.07 104.195 139.734 99.625 139.734Z" fill="white"/>
<path d="M123.695 126.727C128.359 126.727 131.43 123.398 131.43 118.195C131.43 112.969 128.336 109.711 123.695 109.711C119.055 109.711 115.961 112.969 115.961 118.219C115.961 123.398 119.031 126.727 123.695 126.727ZM125.805 144L148.961 110.18H144.344L121.188 144H125.805ZM123.695 123.188C121.633 123.188 120.227 121.406 120.227 118.219C120.227 114.984 121.633 113.273 123.695 113.273C125.781 113.273 127.164 114.984 127.164 118.219C127.164 121.406 125.781 123.188 123.695 123.188ZM146.453 144.445C151.117 144.445 154.164 141.117 154.164 135.914C154.164 130.688 151.094 127.43 146.453 127.43C141.812 127.43 138.719 130.688 138.719 135.938C138.719 141.117 141.789 144.445 146.453 144.445ZM146.453 140.906C144.391 140.906 142.961 139.125 142.961 135.938C142.961 132.703 144.391 130.992 146.453 130.992C148.539 130.992 149.922 132.703 149.922 135.938C149.922 139.125 148.516 140.906 146.453 140.906Z" fill="white"/>
<rect x="177" y="124" width="52" height="8" fill="#E2E8F0"/>
<rect x="55" y="78" width="61" height="8" fill="white"/>
</svg>
