<svg width="400" height="400" viewBox="0 0 400 400" fill="none" xmlns="http://www.w3.org/2000/svg">
<rect width="400" height="400" fill="white"/>
<rect x="50" y="128" width="300" height="127" fill="#A0AEC0"/>
<path d="M93 216.68C100.5 216.68 105.703 211.852 105.703 204.844C105.703 198.398 101.062 193.711 94.6172 193.711C91.2188 193.711 88.4297 195.047 86.9531 197.32H86.8359L87.7734 187.125H103.711V182.18H82.9453L81.3281 201.844H86.6016C87.8906 199.547 90.1641 198.258 93.0703 198.258C97.0547 198.258 99.8672 201.047 99.8672 205.008C99.8672 208.992 97.0781 211.781 93.0469 211.781C89.4844 211.781 86.7656 209.648 86.3906 206.484H80.7188C80.9766 212.484 86.0391 216.68 93 216.68Z" fill="white"/>
<path d="M122.625 216.68C130.945 216.68 135.891 209.859 135.891 199.031C135.891 188.203 130.898 181.5 122.625 181.5C114.328 181.5 109.312 188.25 109.312 199.055C109.312 209.906 114.281 216.68 122.625 216.68ZM122.625 211.734C118.031 211.734 115.406 207.047 115.406 199.031C115.406 191.156 118.078 186.445 122.625 186.445C127.148 186.445 129.797 191.133 129.797 199.055C129.797 207.07 127.195 211.734 122.625 211.734Z" fill="white"/>
<path d="M146.695 198.727C151.359 198.727 154.43 195.398 154.43 190.195C154.43 184.969 151.336 181.711 146.695 181.711C142.055 181.711 138.961 184.969 138.961 190.219C138.961 195.398 142.031 198.727 146.695 198.727ZM148.805 216L171.961 182.18H167.344L144.188 216H148.805ZM146.695 195.188C144.633 195.188 143.227 193.406 143.227 190.219C143.227 186.984 144.633 185.273 146.695 185.273C148.781 185.273 150.164 186.984 150.164 190.219C150.164 193.406 148.781 195.188 146.695 195.188ZM169.453 216.445C174.117 216.445 177.164 213.117 177.164 207.914C177.164 202.688 174.094 199.43 169.453 199.43C164.812 199.43 161.719 202.688 161.719 207.938C161.719 213.117 164.789 216.445 169.453 216.445ZM169.453 212.906C167.391 212.906 165.961 211.125 165.961 207.938C165.961 204.703 167.391 202.992 169.453 202.992C171.539 202.992 172.922 204.703 172.922 207.938C172.922 211.125 171.516 212.906 169.453 212.906Z" fill="white"/>
<rect x="200" y="196" width="52" height="8" fill="#E2E8F0"/>
<rect x="78" y="150" width="61" height="8" fill="white"/>
</svg>
