<svg width="354" height="240" viewBox="0 0 354 240" fill="none" xmlns="http://www.w3.org/2000/svg">
<rect width="354" height="240" fill="white"/>
<path d="M205.72 185.98V174.54C196.36 184.247 184.227 189.1 169.32 189.1C155.28 189.1 143.84 185.287 135 177.66C126.333 169.86 122 158.853 122 144.64C122 130.253 126.94 119.333 136.82 111.88C146.7 104.427 158.747 100.7 172.96 100.7C185.96 100.7 196.88 103.3 205.72 108.5V101.22C205.72 91.34 203.467 84.32 198.96 80.16C194.453 76 187.26 73.92 177.38 73.92C162.82 73.92 150.167 77.9067 139.42 85.88L131.36 63.78C144.707 54.5933 161.26 50 181.02 50C187.607 50 193.5 50.6067 198.7 51.82C203.9 52.86 209.187 55.0267 214.56 58.32C219.933 61.44 224.093 66.5533 227.04 73.66C230.16 80.7667 231.72 89.52 231.72 99.92V185.98H205.72ZM174.26 165.18C186.74 165.18 197.227 160.413 205.72 150.88V130.6C197.573 126.267 188.127 124.1 177.38 124.1C168.713 124.1 161.607 125.833 156.06 129.3C150.687 132.593 148 137.707 148 144.64C148 151.053 150.253 156.08 154.76 159.72C159.267 163.36 165.767 165.18 174.26 165.18Z" fill="#A0AEC0"/>
</svg>
