<svg width="400" height="400" viewBox="0 0 400 400" fill="none" xmlns="http://www.w3.org/2000/svg">
<rect width="400" height="400" fill="white"/>
<path d="M226.731 255V243.56C217.371 253.267 205.237 258.12 190.331 258.12C176.291 258.12 164.851 254.307 156.011 246.68C147.344 238.88 143.011 227.873 143.011 213.66C143.011 199.273 147.951 188.353 157.831 180.9C167.711 173.447 179.757 169.72 193.971 169.72C206.971 169.72 217.891 172.32 226.731 177.52V170.24C226.731 160.36 224.477 153.34 219.971 149.18C215.464 145.02 208.271 142.94 198.391 142.94C183.831 142.94 171.177 146.927 160.431 154.9L152.371 132.8C165.717 123.613 182.271 119.02 202.031 119.02C208.617 119.02 214.511 119.627 219.711 120.84C224.911 121.88 230.197 124.047 235.571 127.34C240.944 130.46 245.104 135.573 248.051 142.68C251.171 149.787 252.731 158.54 252.731 168.94V255H226.731ZM195.271 234.2C207.751 234.2 218.237 229.433 226.731 219.9V199.62C218.584 195.287 209.137 193.12 198.391 193.12C189.724 193.12 182.617 194.853 177.071 198.32C171.697 201.613 169.011 206.727 169.011 213.66C169.011 220.073 171.264 225.1 175.771 228.74C180.277 232.38 186.777 234.2 195.271 234.2Z" fill="#A0AEC0"/>
</svg>
