<svg width="400" height="400" viewBox="0 0 400 400" fill="none" xmlns="http://www.w3.org/2000/svg">
<rect width="400" height="400" fill="white"/>
<path fill-rule="evenodd" clip-rule="evenodd" d="M340 128H60V225H188.625L195.815 232.669C196.193 233.073 196.827 233.092 197.23 232.713L205.425 225H340V128Z" fill="#A0AEC0"/>
<rect x="80" y="196" width="137" height="8" fill="#E2E8F0"/>
<rect x="79.6001" y="172" width="239.4" height="8.4" fill="#E2E8F0"/>
<rect x="79.6001" y="146" width="239.4" height="8.4" fill="#E2E8F0"/>
<path fill-rule="evenodd" clip-rule="evenodd" d="M195.5 243.004C190.256 243.004 186.004 247.255 186.004 252.5C186.004 257.745 190.256 261.996 195.5 261.996C200.745 261.996 204.996 257.745 204.996 252.5C204.996 247.255 200.745 243.004 195.5 243.004ZM183.913 252.5C183.913 246.101 189.101 240.913 195.5 240.913C201.9 240.913 207.087 246.101 207.087 252.5C207.087 258.899 201.9 264.087 195.5 264.087C189.101 264.087 183.913 258.899 183.913 252.5ZM196.545 250.496V258.337H194.455V250.496H196.545ZM196.459 247.708C196.459 248.238 196.03 248.667 195.5 248.667C194.971 248.667 194.542 248.238 194.542 247.708C194.542 247.179 194.971 246.75 195.5 246.75C196.03 246.75 196.459 247.179 196.459 247.708Z" fill="#A0AEC0"/>
<path d="M222.711 266.913C222.832 266.329 222.559 265.732 222.036 265.444L204.684 255.847C204.257 255.609 203.724 255.621 203.305 255.884C202.885 256.146 202.64 256.613 202.666 257.109L203.684 276.911C203.716 277.506 204.131 278.013 204.711 278.161C205.309 278.331 205.897 278.06 206.208 277.551L209.551 272.082L214.506 280.013C214.705 280.331 215.014 280.54 215.354 280.618C215.694 280.697 216.064 280.645 216.382 280.446L219.649 278.405C220.287 278.006 220.481 277.167 220.082 276.529L215.127 268.598L221.508 267.991C222.101 267.934 222.59 267.498 222.711 266.913Z" fill="#111111" stroke="white" stroke-opacity="0.7" stroke-width="1.5"/>
</svg>
