<svg width="354" height="240" viewBox="0 0 354 240" fill="none" xmlns="http://www.w3.org/2000/svg">
<rect width="354" height="240" fill="white"/>
<path fill-rule="evenodd" clip-rule="evenodd" d="M317 48H37V145H165.625L172.815 152.669C173.193 153.073 173.827 153.092 174.23 152.713L182.425 145H317V48Z" fill="#A0AEC0"/>
<rect x="57" y="116" width="137" height="8" fill="#E2E8F0"/>
<rect x="56.6001" y="92" width="239.4" height="8.4" fill="#E2E8F0"/>
<rect x="56.6001" y="66" width="239.4" height="8.4" fill="#E2E8F0"/>
<path fill-rule="evenodd" clip-rule="evenodd" d="M173.018 158.424C168.376 158.424 164.614 162.239 164.614 166.944C164.614 171.65 168.376 175.465 173.018 175.465C177.659 175.465 181.422 171.65 181.422 166.944C181.422 162.239 177.659 158.424 173.018 158.424ZM162.763 166.944C162.763 161.202 167.354 156.548 173.018 156.548C178.681 156.548 183.272 161.202 183.272 166.944C183.272 172.686 178.681 177.341 173.018 177.341C167.354 177.341 162.763 172.686 162.763 166.944ZM173.943 165.146V172.182H172.092V165.146H173.943ZM173.866 162.645C173.866 163.12 173.486 163.505 173.018 163.505C172.55 163.505 172.17 163.12 172.17 162.645C172.17 162.17 172.55 161.785 173.018 161.785C173.486 161.785 173.866 162.17 173.866 162.645Z" fill="#A0AEC0"/>
<path d="M197.099 179.877C197.206 179.353 196.965 178.817 196.502 178.558L181.145 169.948C180.767 169.734 180.296 169.745 179.925 169.98C179.553 170.216 179.336 170.635 179.359 171.079L180.261 188.847C180.288 189.382 180.656 189.836 181.169 189.969C181.698 190.122 182.219 189.879 182.494 189.421L185.453 184.515L189.837 191.631C190.014 191.916 190.288 192.103 190.588 192.174C190.889 192.244 191.216 192.198 191.498 192.019L194.389 190.188C194.954 189.83 195.125 189.077 194.772 188.504L190.387 181.388L196.034 180.844C196.559 180.793 196.992 180.401 197.099 179.877Z" fill="#111111" stroke="white" stroke-opacity="0.7" stroke-width="1.5"/>
</svg>
